  0
SECTION
  2
HEADER
  9
$ACADVER
  1
AC1027
  9
$ACADMAINTVER
 70
105
  9
$DWGCODEPAGE
  3
ANSI_1252
  9
$LASTSAVEDBY
  1
ezdxf
  9
$REQUIREDVERSIONS
160
0
  9
$INSBASE
 10
0.0
 20
0.0
 30
0.0
  9
$EXTMIN
 10
1e+20
 20
1e+20
 30
1e+20
  9
$EXTMAX
 10
-1e+20
 20
-1e+20
 30
-1e+20
  9
$LIMMIN
 10
0.0
 20
0.0
  9
$LIMMAX
 10
420.0
 20
297.0
  9
$ORTHOMODE
 70
0
  9
$REGENMODE
 70
1
  9
$FILLMODE
 70
1
  9
$QTEXTMODE
 70
0
  9
$MIRRTEXT
 70
1
  9
$LTSCALE
 40
1.0
  9
$ATTMODE
 70
1
  9
$TEXTSIZE
 40
2.5
  9
$TRACEWID
 40
1.0
  9
$TEXTSTYLE
  7
OpenSans
  9
$CLAYER
  8
0
  9
$CELTYPE
  6
ByLayer
  9
$CECOLOR
 62
256
  9
$CELTSCALE
 40
1.0
  9
$DISPSILH
 70
0
  9
$DIMSCALE
 40
1.0
  9
$DIMASZ
 40
0.175
  9
$DIMEXO
 40
0.125
  9
$DIMDLI
 40
3.75
  9
$DIMRND
 40
0.0
  9
$DIMDLE
 40
0.0
  9
$DIMEXE
 40
0.375
  9
$DIMTP
 40
0.0
  9
$DIMTM
 40
0.0
  9
$DIMTXT
 40
0.25
  9
$DIMCEN
 40
2.5
  9
$DIMTSZ
 40
0.0
  9
$DIMTOL
 70
0
  9
$DIMLIM
 70
0
  9
$DIMTIH
 70
0
  9
$DIMTOH
 70
0
  9
$DIMSE1
 70
0
  9
$DIMSE2
 70
0
  9
$DIMTAD
 70
1
  9
$DIMZIN
 70
12
  9
$DIMBLK
  1
ARCHTICK
  9
$DIMASO
 70
1
  9
$DIMSHO
 70
1
  9
$DIMPOST
  1

  9
$DIMAPOST
  1

  9
$DIMALT
 70
0
  9
$DIMALTD
 70
3
  9
$DIMALTF
 40
0.03937007874
  9
$DIMLFAC
 40
100.0
  9
$DIMTOFL
 70
1
  9
$DIMTVP
 40
0.0
  9
$DIMTIX
 70
0
  9
$DIMSOXD
 70
0
  9
$DIMSAH
 70
0
  9
$DIMBLK1
  1

  9
$DIMBLK2
  1

  9
$DIMSTYLE
  2
EZDXF
  9
$DIMCLRD
 70
0
  9
$DIMCLRE
 70
0
  9
$DIMCLRT
 70
0
  9
$DIMTFAC
 40
0.5
  9
$DIMGAP
 40
0.1
  9
$DIMJUST
 70
0
  9
$DIMSD1
 70
0
  9
$DIMSD2
 70
0
  9
$DIMTOLJ
 70
0
  9
$DIMTZIN
 70
8
  9
$DIMALTZ
 70
0
  9
$DIMALTTZ
 70
0
  9
$DIMUPT
 70
1
  9
$DIMDEC
 70
2
  9
$DIMTDEC
 70
2
  9
$DIMALTU
 70
2
  9
$DIMALTTD
 70
3
  9
$DIMTXSTY
  7
OpenSansCondensed-Light
  9
$DIMAUNIT
 70
0
  9
$DIMADEC
 70
2
  9
$DIMALTRND
 40
0.0
  9
$DIMAZIN
 70
3
  9
$DIMDSEP
 70
46
  9
$DIMATFIT
 70
3
  9
$DIMFRAC
 70
0
  9
$DIMLDRBLK
  1

  9
$DIMLUNIT
 70
2
  9
$DIMLWD
 70
-2
  9
$DIMLWE
 70
-2
  9
$DIMTMOVE
 70
2
  9
$DIMFXL
 40
1.0
  9
$DIMFXLON
 70
0
  9
$DIMJOGANG
 40
0.785398163397
  9
$DIMTFILL
 70
0
  9
$DIMTFILLCLR
 70
0
  9
$DIMARCSYM
 70
0
  9
$DIMLTYPE
  6

  9
$DIMLTEX1
  6

  9
$DIMLTEX2
  6

  9
$DIMTXTDIRECTION
 70
0
  9
$LUNITS
 70
2
  9
$LUPREC
 70
4
  9
$SKETCHINC
 40
1.0
  9
$FILLETRAD
 40
10.0
  9
$AUNITS
 70
0
  9
$AUPREC
 70
2
  9
$MENU
  1
.
  9
$ELEVATION
 40
0.0
  9
$PELEVATION
 40
0.0
  9
$THICKNESS
 40
0.0
  9
$LIMCHECK
 70
0
  9
$CHAMFERA
 40
0.0
  9
$CHAMFERB
 40
0.0
  9
$CHAMFERC
 40
0.0
  9
$CHAMFERD
 40
0.0
  9
$SKPOLY
 70
0
  9
$TDCREATE
 40
2461311.854537037
  9
$TDUCREATE
 40
2458532.153996898
  9
$TDUPDATE
 40
2461311.854537037
  9
$TDUUPDATE
 40
2458532.1544311
  9
$TDINDWG
 40
0.0
  9
$TDUSRTIMER
 40
0.0
  9
$USRTIMER
 70
1
  9
$ANGBASE
 50
0.0
  9
$ANGDIR
 70
0
  9
$PDMODE
 70
0
  9
$PDSIZE
 40
0.0
  9
$PLINEWID
 40
0.0
  9
$SPLFRAME
 70
0
  9
$SPLINETYPE
 70
6
  9
$SPLINESEGS
 70
8
  9
$HANDSEED
  5
1B7
  9
$SURFTAB1
 70
6
  9
$SURFTAB2
 70
6
  9
$SURFTYPE
 70
6
  9
$SURFU
 70
6
  9
$SURFV
 70
6
  9
$UCSBASE
  2

  9
$UCSNAME
  2

  9
$UCSORG
 10
0.0
 20
0.0
 30
0.0
  9
$UCSXDIR
 10
1.0
 20
0.0
 30
0.0
  9
$UCSYDIR
 10
0.0
 20
1.0
 30
0.0
  9
$UCSORTHOREF
  2

  9
$UCSORTHOVIEW
 70
0
  9
$UCSORGTOP
 10
0.0
 20
0.0
 30
0.0
  9
$UCSORGBOTTOM
 10
0.0
 20
0.0
 30
0.0
  9
$UCSORGLEFT
 10
0.0
 20
0.0
 30
0.0
  9
$UCSORGRIGHT
 10
0.0
 20
0.0
 30
0.0
  9
$UCSORGFRONT
 10
0.0
 20
0.0
 30
0.0
  9
$UCSORGBACK
 10
0.0
 20
0.0
 30
0.0
  9
$PUCSBASE
  2

  9
$PUCSNAME
  2

  9
$PUCSORG
 10
0.0
 20
0.0
 30
0.0
  9
$PUCSXDIR
 10
1.0
 20
0.0
 30
0.0
  9
$PUCSYDIR
 10
0.0
 20
1.0
 30
0.0
  9
$PUCSORTHOREF
  2

  9
$PUCSORTHOVIEW
 70
0
  9
$PUCSORGTOP
 10
0.0
 20
0.0
 30
0.0
  9
$PUCSORGBOTTOM
 10
0.0
 20
0.0
 30
0.0
  9
$PUCSORGLEFT
 10
0.0
 20
0.0
 30
0.0
  9
$PUCSORGRIGHT
 10
0.0
 20
0.0
 30
0.0
  9
$PUCSORGFRONT
 10
0.0
 20
0.0
 30
0.0
  9
$PUCSORGBACK
 10
0.0
 20
0.0
 30
0.0
  9
$USERI1
 70
0
  9
$USERI2
 70
0
  9
$USERI3
 70
0
  9
$USERI4
 70
0
  9
$USERI5
 70
0
  9
$USERR1
 40
0.0
  9
$USERR2
 40
0.0
  9
$USERR3
 40
0.0
  9
$USERR4
 40
0.0
  9
$USERR5
 40
0.0
  9
$WORLDVIEW
 70
1
  9
$SHADEDGE
 70
3
  9
$SHADEDIF
 70
70
  9
$TILEMODE
 70
1
  9
$MAXACTVP
 70
64
  9
$PINSBASE
 10
0.0
 20
0.0
 30
0.0
  9
$PLIMCHECK
 70
0
  9
$PEXTMIN
 10
1e+20
 20
1e+20
 30
1e+20
  9
$PEXTMAX
 10
-1e+20
 20
-1e+20
 30
-1e+20
  9
$PLIMMIN
 10
0.0
 20
0.0
  9
$PLIMMAX
 10
420.0
 20
297.0
  9
$UNITMODE
 70
0
  9
$VISRETAIN
 70
1
  9
$PLINEGEN
 70
0
  9
$PSLTSCALE
 70
1
  9
$TREEDEPTH
 70
3020
  9
$CMLSTYLE
  2
Standard
  9
$CMLJUST
 70
0
  9
$CMLSCALE
 40
20.0
  9
$PROXYGRAPHICS
 70
1
  9
$MEASUREMENT
 70
1
  9
$CELWEIGHT
370
-1
  9
$ENDCAPS
280
0
  9
$JOINSTYLE
280
0
  9
$LWDISPLAY
290
0
  9
$INSUNITS
 70
6
  9
$HYPERLINKBASE
  1

  9
$STYLESHEET
  1

  9
$XEDIT
290
1
  9
$CEPSNTYPE
380
0
  9
$PSTYLEMODE
290
1
  9
$FINGERPRINTGUID
  2
{5F31CD79-5CCD-418E-8572-C969D07FE261}
  9
$VERSIONGUID
  2
{E4AA97F5-738B-40B1-A593-3F864BEBAA87}
  9
$EXTNAMES
290
1
  9
$PSVPSCALE
 40
0.0
  9
$OLESTARTUP
290
0
  9
$SORTENTS
280
127
  9
$INDEXCTL
280
0
  9
$HIDETEXT
280
1
  9
$XCLIPFRAME
280
1
  9
$HALOGAP
280
0
  9
$OBSCOLOR
 70
257
  9
$OBSLTYPE
280
0
  9
$INTERSECTIONDISPLAY
280
0
  9
$INTERSECTIONCOLOR
 70
257
  9
$DIMASSOC
280
2
  9
$PROJECTNAME
  1

  9
$CAMERADISPLAY
290
0
  9
$LENSLENGTH
 40
50.0
  9
$CAMERAHEIGHT
 40
0.0
  9
$STEPSPERSEC
 40
24.0
  9
$STEPSIZE
 40
100.0
  9
$3DDWFPREC
 40
2.0
  9
$PSOLWIDTH
 40
0.005
  9
$PSOLHEIGHT
 40
0.08
  9
$LOFTANG1
 40
1.570796326795
  9
$LOFTANG2
 40
1.570796326795
  9
$LOFTMAG1
 40
0.0
  9
$LOFTMAG2
 40
0.0
  9
$LOFTPARAM
 70
7
  9
$LOFTNORMALS
280
1
  9
$LATITUDE
 40
37.795
  9
$LONGITUDE
 40
-122.394
  9
$NORTHDIRECTION
 40
0.0
  9
$TIMEZONE
 70
-8000
  9
$LIGHTGLYPHDISPLAY
280
1
  9
$TILEMODELIGHTSYNCH
280
1
  9
$CMATERIAL
347
20
  9
$SOLIDHIST
280
0
  9
$SHOWHIST
280
1
  9
$DWFFRAME
280
2
  9
$DGNFRAME
280
2
  9
$REALWORLDSCALE
290
1
  9
$INTERFERECOLOR
 62
256
  9
$CSHADOW
280
0
  9
$SHADOWPLANELOCATION
 40
0.0
  0
ENDSEC
  0
SECTION
  2
CLASSES
  0
CLASS
  1
ACDBDICTIONARYWDFLT
  2
AcDbDictionaryWithDefault
  3
ObjectDBX Classes
 90
0
 91
0
280
0
281
0
  0
CLASS
  1
SUN
  2
AcDbSun
  3
SCENEOE
 90
1153
 91
0
280
0
281
0
  0
CLASS
  1
VISUALSTYLE
  2
AcDbVisualStyle
  3
ObjectDBX Classes
 90
4095
 91
0
280
0
281
0
  0
CLASS
  1
MATERIAL
  2
AcDbMaterial
  3
ObjectDBX Classes
 90
1153
 91
0
280
0
281
0
  0
CLASS
  1
SCALE
  2
AcDbScale
  3
ObjectDBX Classes
 90
1153
 91
0
280
0
281
0
  0
CLASS
  1
TABLESTYLE
  2
AcDbTableStyle
  3
ObjectDBX Classes
 90
4095
 91
0
280
0
281
0
  0
CLASS
  1
MLEADERSTYLE
  2
AcDbMLeaderStyle
  3
ACDB_MLEADERSTYLE_CLASS
 90
4095
 91
0
280
0
281
0
  0
CLASS
  1
DICTIONARYVAR
  2
AcDbDictionaryVar
  3
ObjectDBX Classes
 90
0
 91
0
280
0
281
0
  0
CLASS
  1
CELLSTYLEMAP
  2
AcDbCellStyleMap
  3
ObjectDBX Classes
 90
1152
 91
0
280
0
281
0
  0
CLASS
  1
MENTALRAYRENDERSETTINGS
  2
AcDbMentalRayRenderSettings
  3
SCENEOE
 90
1024
 91
0
280
0
281
0
  0
CLASS
  1
ACDBDETAILVIEWSTYLE
  2
AcDbDetailViewStyle
  3
ObjectDBX Classes
 90
1025
 91
0
280
0
281
0
  0
CLASS
  1
ACDBSECTIONVIEWSTYLE
  2
AcDbSectionViewStyle
  3
ObjectDBX Classes
 90
1025
 91
0
280
0
281
0
  0
CLASS
  1
RASTERVARIABLES
  2
AcDbRasterVariables
  3
ISM
 90
0
 91
0
280
0
281
0
  0
CLASS
  1
LAYOUT
  2
AcDbLayout
  3
ObjectDBX Classes
 90
0
 91
0
280
0
281
0
  0
CLASS
  1
ACDBPLACEHOLDER
  2
AcDbPlaceHolder
  3
ObjectDBX Classes
 90
0
 91
0
280
0
281
0
  0
ENDSEC
  0
SECTION
  2
TABLES
  0
TABLE
  2
VPORT
  5
8
330
0
100
AcDbSymbolTable
 70
1
  0
VPORT
  5
23
330
8
100
AcDbSymbolTableRecord
100
AcDbViewportTableRecord
  2
*Active
 70
0
 10
0.0
 20
0.0
 11
1.0
 21
1.0
 12
0.0
 22
0.0
 13
0.0
 23
0.0
 14
0.5
 24
0.5
 15
0.5
 25
0.5
 16
0.0
 26
0.0
 36
1.0
 17
0.0
 27
0.0
 37
0.0
 40
1000.0
 41
1.34
 42
50.0
 43
0.0
 44
0.0
 50
0.0
 51
0.0
 71
0
 72
1000
 73
1
 74
3
 75
0
 76
0
 77
0
 78
0
281
0
 65
0
146
0.0
  0
ENDTAB
  0
TABLE
  2
LTYPE
  5
2
330
0
100
AcDbSymbolTable
 70
21
  0
LTYPE
  5
24
330
2
100
AcDbSymbolTableRecord
100
AcDbLinetypeTableRecord
  2
ByBlock
 70
0
  3

 72
65
 73
0
 40
0.0
  0
LTYPE
  5
25
330
2
100
AcDbSymbolTableRecord
100
AcDbLinetypeTableRecord
  2
ByLayer
 70
0
  3

 72
65
 73
0
 40
0.0
  0
LTYPE
  5
26
330
2
100
AcDbSymbolTableRecord
100
AcDbLinetypeTableRecord
  2
Continuous
 70
0
  3

 72
65
 73
0
 40
0.0
  0
LTYPE
  5
2F
330
2
100
AcDbSymbolTableRecord
100
AcDbLinetypeTableRecord
  2
CENTER
 70
0
  3
Center ____ _ ____ _ ____ _ ____ _ ____ _ ____
 72
65
 73
4
 40
5.08
 49
3.175
 74
0
 49
-0.635
 74
0
 49
0.635
 74
0
 49
-0.635
 74
0
  0
LTYPE
  5
30
330
2
100
AcDbSymbolTableRecord
100
AcDbLinetypeTableRecord
  2
CENTERX2
 70
0
  3
Center (2x) ________  __  ________  __  ________
 72
65
 73
4
 40
8.89
 49
6.35
 74
0
 49
-0.635
 74
0
 49
1.27
 74
0
 49
-0.635
 74
0
  0
LTYPE
  5
31
330
2
100
AcDbSymbolTableRecord
100
AcDbLinetypeTableRecord
  2
CENTER2
 70
0
  3
Center (.5x) ____ _ ____ _ ____ _ ____ _ ____
 72
65
 73
4
 40
2.54
 49
1.587
 74
0
 49
-0.318
 74
0
 49
0.318
 74
0
 49
-0.318
 74
0
  0
LTYPE
  5
32
330
2
100
AcDbSymbolTableRecord
100
AcDbLinetypeTableRecord
  2
DASHED
 70
0
  3
Dashed __ __ __ __ __ __ __ __ __ __ __ __ __ _
 72
65
 73
2
 40
1.524
 49
1.27
 74
0
 49
-0.254
 74
0
  0
LTYPE
  5
33
330
2
100
AcDbSymbolTableRecord
100
AcDbLinetypeTableRecord
  2
DASHEDX2
 70
0
  3
Dashed (2x) ____  ____  ____  ____  ____  ____
 72
65
 73
2
 40
3.048
 49
2.54
 74
0
 49
-0.508
 74
0
  0
LTYPE
  5
34
330
2
100
AcDbSymbolTableRecord
100
AcDbLinetypeTableRecord
  2
DASHED2
 70
0
  3
Dashed (.5x) _ _ _ _ _ _ _ _ _ _ _ _ _ _
 72
65
 73
2
 40
0.762
 49
0.635
 74
0
 49
-0.127
 74
0
  0
LTYPE
  5
35
330
2
100
AcDbSymbolTableRecord
100
AcDbLinetypeTableRecord
  2
PHANTOM
 70
0
  3
Phantom ______  __  __  ______  __  __  ______
 72
65
 73
6
 40
6.35
 49
3.175
 74
0
 49
-0.635
 74
0
 49
0.635
 74
0
 49
-0.635
 74
0
 49
0.635
 74
0
 49
-0.635
 74
0
  0
LTYPE
  5
36
330
2
100
AcDbSymbolTableRecord
100
AcDbLinetypeTableRecord
  2
PHANTOMX2
 70
0
  3
Phantom (2x)____________    ____    ____    ____________
 72
65
 73
6
 40
10.795
 49
6.35
 74
0
 49
-0.635
 74
0
 49
1.27
 74
0
 49
-0.635
 74
0
 49
1.27
 74
0
 49
-0.635
 74
0
  0
LTYPE
  5
37
330
2
100
AcDbSymbolTableRecord
100
AcDbLinetypeTableRecord
  2
PHANTOM2
 70
0
  3
Phantom (.5x) ___ _ _ ___ _ _ ___ _ _ ___ _ _ ___
 72
65
 73
6
 40
3.175
 49
1.587
 74
0
 49
-0.318
 74
0
 49
0.318
 74
0
 49
-0.318
 74
0
 49
0.318
 74
0
 49
-0.318
 74
0
  0
LTYPE
  5
38
330
2
100
AcDbSymbolTableRecord
100
AcDbLinetypeTableRecord
  2
DASHDOT
 70
0
  3
Dash dot __ . __ . __ . __ . __ . __ . __ . __
 72
65
 73
4
 40
3.556
 49
2.54
 74
0
 49
-0.508
 74
0
 49
0.0
 74
0
 49
-0.508
 74
0
  0
LTYPE
  5
39
330
2
100
AcDbSymbolTableRecord
100
AcDbLinetypeTableRecord
  2
DASHDOTX2
 70
0
  3
Dash dot (2x) ____  .  ____  .  ____  .  ____
 72
65
 73
4
 40
6.096
 49
5.08
 74
0
 49
-0.508
 74
0
 49
0.0
 74
0
 49
-0.508
 74
0
  0
LTYPE
  5
3A
330
2
100
AcDbSymbolTableRecord
100
AcDbLinetypeTableRecord
  2
DASHDOT2
 70
0
  3
Dash dot (.5x) _ . _ . _ . _ . _ . _ . _ . _
 72
65
 73
4
 40
1.778
 49
1.27
 74
0
 49
-0.254
 74
0
 49
0.0
 74
0
 49
-0.254
 74
0
  0
LTYPE
  5
3B
330
2
100
AcDbSymbolTableRecord
100
AcDbLinetypeTableRecord
  2
DOT
 70
0
  3
Dot .  .  .  .  .  .  .  .  .  .  .  .  .  .  .  .
 72
65
 73
2
 40
0.508
 49
0.0
 74
0
 49
-0.508
 74
0
  0
LTYPE
  5
3C
330
2
100
AcDbSymbolTableRecord
100
AcDbLinetypeTableRecord
  2
DOTX2
 70
0
  3
Dot (2x) .    .    .    .    .    .    .    . 
 72
65
 73
2
 40
1.016
 49
0.0
 74
0
 49
-1.016
 74
0
  0
LTYPE
  5
3D
330
2
100
AcDbSymbolTableRecord
100
AcDbLinetypeTableRecord
  2
DOT2
 70
0
  3
Dot (.5) . . . . . . . . . . . . . . . . . . . 
 72
65
 73
2
 40
0.254
 49
0.0
 74
0
 49
-0.254
 74
0
  0
LTYPE
  5
3E
330
2
100
AcDbSymbolTableRecord
100
AcDbLinetypeTableRecord
  2
DIVIDE
 70
0
  3
Divide __ . . __ . . __ . . __ . . __ . . __
 72
65
 73
6
 40
4.064
 49
2.54
 74
0
 49
-0.508
 74
0
 49
0.0
 74
0
 49
-0.508
 74
0
 49
0.0
 74
0
 49
-0.508
 74
0
  0
LTYPE
  5
3F
330
2
100
AcDbSymbolTableRecord
100
AcDbLinetypeTableRecord
  2
DIVIDEX2
 70
0
  3
Divide (2x) ____  . .  ____  . .  ____  . .  ____
 72
65
 73
6
 40
6.604
 49
5.08
 74
0
 49
-0.508
 74
0
 49
0.0
 74
0
 49
-0.508
 74
0
 49
0.0
 74
0
 49
-0.508
 74
0
  0
LTYPE
  5
40
330
2
100
AcDbSymbolTableRecord
100
AcDbLinetypeTableRecord
  2
DIVIDE2
 70
0
  3
Divide(.5x) _ . _ . _ . _ . _ . _ . _ . _
 72
65
 73
6
 40
2.032
 49
1.27
 74
0
 49
-0.254
 74
0
 49
0.0
 74
0
 49
-0.254
 74
0
 49
0.0
 74
0
 49
-0.254
 74
0
  0
ENDTAB
  0
TABLE
  2
LAYER
  5
1
330
0
100
AcDbSymbolTable
 70
12
  0
LAYER
  5
27
330
1
100
AcDbSymbolTableRecord
100
AcDbLayerTableRecord
  2
0
 70
0
 62
7
  6
Continuous
370
-3
390
13
347
21
  0
LAYER
  5
28
330
1
100
AcDbSymbolTableRecord
100
AcDbLayerTableRecord
  2
Defpoints
 70
0
 62
7
  6
Continuous
290
0
370
-3
390
13
347
21
  0
LAYER
  5
8A
330
1
100
AcDbSymbolTableRecord
100
AcDbLayerTableRecord
  2
B-COL
 70
0
 62
7
  6
Continuous
370
-3
390
13
347
21
  0
LAYER
  5
8B
330
1
100
AcDbSymbolTableRecord
100
AcDbLayerTableRecord
  2
B-COL-UNUSED
 70
0
 62
8
  6
Continuous
370
-3
390
13
347
21
  0
LAYER
  5
8C
330
1
100
AcDbSymbolTableRecord
100
AcDbLayerTableRecord
  2
B-TRUSS
 70
0
 62
1
  6
Continuous
370
50
390
13
347
21
  0
LAYER
  5
8D
330
1
100
AcDbSymbolTableRecord
100
AcDbLayerTableRecord
  2
B-TEXT
 70
0
 62
7
  6
Continuous
370
-3
390
13
347
21
  0
LAYER
  5
8E
330
1
100
AcDbSymbolTableRecord
100
AcDbLayerTableRecord
  2
B-BEAM
 70
0
 62
5
  6
Continuous
370
35
390
13
347
21
  0
LAYER
  5
8F
330
1
100
AcDbSymbolTableRecord
100
AcDbLayerTableRecord
  2
B-PURLIN
 70
0
 62
8
  6
Continuous
370
9
390
13
347
21
  0
LAYER
  5
90
330
1
100
AcDbSymbolTableRecord
100
AcDbLayerTableRecord
  2
B-BRACE-ROOF
 70
0
 62
1
  6
DASHED
370
-3
390
13
347
21
  0
LAYER
  5
91
330
1
100
AcDbSymbolTableRecord
100
AcDbLayerTableRecord
  2
B-BRACE-WALL
 70
0
 62
3
  6
DASHED
370
50
390
13
347
21
  0
LAYER
  5
92
330
1
100
AcDbSymbolTableRecord
100
AcDbLayerTableRecord
  2
B-OPENING
 70
0
 62
30
  6
Continuous
370
-3
390
13
347
21
  0
LAYER
  5
93
330
1
100
AcDbSymbolTableRecord
100
AcDbLayerTableRecord
  2
B-ELEV
 70
0
 62
7
  6
Continuous
370
-3
390
13
347
21
  0
ENDTAB
  0
TABLE
  2
STYLE
  5
5
330
0
100
AcDbSymbolTable
 70
26
  0
STYLE
  5
29
330
5
100
AcDbSymbolTableRecord
100
AcDbTextStyleTableRecord
  2
Standard
 70
0
 40
0.0
 41
1.0
 50
0.0
 71
0
 42
2.5
  3
txt
  4

  0
STYLE
  5
41
330
5
100
AcDbSymbolTableRecord
100
AcDbTextStyleTableRecord
  2
OpenSans-Light
 70
0
 40
0.0
 41
1.0
 50
0.0
 71
0
 42
2.5
  3
OpenSans-Light.ttf
  4

  0
STYLE
  5
42
330
5
100
AcDbSymbolTableRecord
100
AcDbTextStyleTableRecord
  2
OpenSans-Light-Italic
 70
0
 40
0.0
 41
1.0
 50
0.0
 71
0
 42
2.5
  3
OpenSans-LightItalic.ttf
  4

  0
STYLE
  5
43
330
5
100
AcDbSymbolTableRecord
100
AcDbTextStyleTableRecord
  2
OpenSans
 70
0
 40
0.0
 41
1.0
 50
0.0
 71
0
 42
2.5
  3
OpenSans-Regular.ttf
  4

  0
STYLE
  5
44
330
5
100
AcDbSymbolTableRecord
100
AcDbTextStyleTableRecord
  2
OpenSans-Italic
 70
0
 40
0.0
 41
1.0
 50
0.0
 71
0
 42
2.5
  3
OpenSans-Italic.ttf
  4

  0
STYLE
  5
45
330
5
100
AcDbSymbolTableRecord
100
AcDbTextStyleTableRecord
  2
OpenSans-SemiBold
 70
0
 40
0.0
 41
1.0
 50
0.0
 71
0
 42
2.5
  3
OpenSans-SemiBold.ttf
  4

  0
STYLE
  5
46
330
5
100
AcDbSymbolTableRecord
100
AcDbTextStyleTableRecord
  2
OpenSans-SemiBoldItalic
 70
0
 40
0.0
 41
1.0
 50
0.0
 71
0
 42
2.5
  3
OpenSans-SemiBoldItalic.ttf
  4

  0
STYLE
  5
47
330
5
100
AcDbSymbolTableRecord
100
AcDbTextStyleTableRecord
  2
OpenSans-Bold
 70
0
 40
0.0
 41
1.0
 50
0.0
 71
0
 42
2.5
  3
OpenSans-Bold.ttf
  4

  0
STYLE
  5
48
330
5
100
AcDbSymbolTableRecord
100
AcDbTextStyleTableRecord
  2
OpenSans-BoldItalic
 70
0
 40
0.0
 41
1.0
 50
0.0
 71
0
 42
2.5
  3
OpenSans-BoldItalic.ttf
  4

  0
STYLE
  5
49
330
5
100
AcDbSymbolTableRecord
100
AcDbTextStyleTableRecord
  2
OpenSans-ExtraBold
 70
0
 40
0.0
 41
1.0
 50
0.0
 71
0
 42
2.5
  3
OpenSans-ExtraBold.ttf
  4

  0
STYLE
  5
4A
330
5
100
AcDbSymbolTableRecord
100
AcDbTextStyleTableRecord
  2
OpenSans-ExtraBoldItalic
 70
0
 40
0.0
 41
1.0
 50
0.0
 71
0
 42
2.5
  3
OpenSans-ExtraBoldItalic.ttf
  4

  0
STYLE
  5
4B
330
5
100
AcDbSymbolTableRecord
100
AcDbTextStyleTableRecord
  2
OpenSansCondensed-Bold
 70
0
 40
0.0
 41
1.0
 50
0.0
 71
0
 42
2.5
  3
OpenSansCondensed-Bold.ttf
  4

  0
STYLE
  5
4C
330
5
100
AcDbSymbolTableRecord
100
AcDbTextStyleTableRecord
  2
OpenSansCondensed-Light
 70
0
 40
0.0
 41
1.0
 50
0.0
 71
0
 42
2.5
  3
OpenSansCondensed-Light.ttf
  4

  0
STYLE
  5
4D
330
5
100
AcDbSymbolTableRecord
100
AcDbTextStyleTableRecord
  2
OpenSansCondensed-Italic
 70
0
 40
0.0
 41
1.0
 50
0.0
 71
0
 42
2.5
  3
OpenSansCondensed-LightItalic.ttf
  4

  0
STYLE
  5
4E
330
5
100
AcDbSymbolTableRecord
100
AcDbTextStyleTableRecord
  2
LiberationSans
 70
0
 40
0.0
 41
1.0
 50
0.0
 71
0
 42
2.5
  3
LiberationSans-Regular.ttf
  4

  0
STYLE
  5
4F
330
5
100
AcDbSymbolTableRecord
100
AcDbTextStyleTableRecord
  2
LiberationSans-Bold
 70
0
 40
0.0
 41
1.0
 50
0.0
 71
0
 42
2.5
  3
LiberationSans-Bold.ttf
  4

  0
STYLE
  5
50
330
5
100
AcDbSymbolTableRecord
100
AcDbTextStyleTableRecord
  2
LiberationSans-BoldItalic
 70
0
 40
0.0
 41
1.0
 50
0.0
 71
0
 42
2.5
  3
LiberationSans-BoldItalic.ttf
  4

  0
STYLE
  5
51
330
5
100
AcDbSymbolTableRecord
100
AcDbTextStyleTableRecord
  2
LiberationSans-Italic
 70
0
 40
0.0
 41
1.0
 50
0.0
 71
0
 42
2.5
  3
LiberationSans-Italic.ttf
  4

  0
STYLE
  5
52
330
5
100
AcDbSymbolTableRecord
100
AcDbTextStyleTableRecord
  2
LiberationSerif
 70
0
 40
0.0
 41
1.0
 50
0.0
 71
0
 42
2.5
  3
LiberationSerif-Regular.ttf
  4

  0
STYLE
  5
53
330
5
100
AcDbSymbolTableRecord
100
AcDbTextStyleTableRecord
  2
LiberationSerif-Bold
 70
0
 40
0.0
 41
1.0
 50
0.0
 71
0
 42
2.5
  3
LiberationSerif-Bold.ttf
  4

  0
STYLE
  5
54
330
5
100
AcDbSymbolTableRecord
100
AcDbTextStyleTableRecord
  2
LiberationSerif-BoldItalic
 70
0
 40
0.0
 41
1.0
 50
0.0
 71
0
 42
2.5
  3
LiberationSerif-BoldItalic.ttf
  4

  0
STYLE
  5
55
330
5
100
AcDbSymbolTableRecord
100
AcDbTextStyleTableRecord
  2
LiberationSerif-Italic
 70
0
 40
0.0
 41
1.0
 50
0.0
 71
0
 42
2.5
  3
LiberationSerif-Italic.ttf
  4

  0
STYLE
  5
56
330
5
100
AcDbSymbolTableRecord
100
AcDbTextStyleTableRecord
  2
LiberationMono
 70
0
 40
0.0
 41
1.0
 50
0.0
 71
0
 42
2.5
  3
LiberationMono-Regular.ttf
  4

  0
STYLE
  5
57
330
5
100
AcDbSymbolTableRecord
100
AcDbTextStyleTableRecord
  2
LiberationMono-Bold
 70
0
 40
0.0
 41
1.0
 50
0.0
 71
0
 42
2.5
  3
LiberationMono-Bold.ttf
  4

  0
STYLE
  5
58
330
5
100
AcDbSymbolTableRecord
100
AcDbTextStyleTableRecord
  2
LiberationMono-BoldItalic
 70
0
 40
0.0
 41
1.0
 50
0.0
 71
0
 42
2.5
  3
LiberationMono-BoldItalic.ttf
  4

  0
STYLE
  5
59
330
5
100
AcDbSymbolTableRecord
100
AcDbTextStyleTableRecord
  2
LiberationMono-Italic
 70
0
 40
0.0
 41
1.0
 50
0.0
 71
0
 42
2.5
  3
LiberationMono-Italic.ttf
  4

  0
ENDTAB
  0
TABLE
  2
VIEW
  5
7
330
0
100
AcDbSymbolTable
 70
0
  0
ENDTAB
  0
TABLE
  2
UCS
  5
6
330
0
100
AcDbSymbolTable
 70
0
  0
ENDTAB
  0
TABLE
  2
APPID
  5
3
330
0
100
AcDbSymbolTable
 70
3
  0
APPID
  5
2A
330
3
100
AcDbSymbolTableRecord
100
AcDbRegAppTableRecord
  2
ACAD
 70
0
  0
APPID
  5
1B4
330
3
100
AcDbSymbolTableRecord
100
AcDbRegAppTableRecord
  2
HATCHBACKGROUNDCOLOR
 70
0
  0
APPID
  5
1B5
330
3
100
AcDbSymbolTableRecord
100
AcDbRegAppTableRecord
  2
EZDXF
 70
0
  0
ENDTAB
  0
TABLE
  2
DIMSTYLE
  5
4
330
0
100
AcDbSymbolTable
 70
12
100
AcDbDimStyleTable
  0
DIMSTYLE
105
2B
330
4
100
AcDbSymbolTableRecord
100
AcDbDimStyleTableRecord
  2
Standard
 70
0
 40
1.0
 41
2.5
 42
0.625
 43
3.75
 44
1.25
 45
0.0
 46
0.0
 47
0.0
 48
0.0
 49
2.5
140
2.5
141
2.5
142
0.0
143
0.03937007874
144
1.0
145
0.0
146
1.0
147
0.625
148
0.0
 69
0
 70
0
 71
0
 72
0
 73
0
 74
0
 75
0
 76
0
 77
1
 78
8
 79
3
170
0
171
3
172
1
173
0
174
0
175
0
176
0
177
0
178
0
179
2
271
2
272
2
273
2
274
3
275
0
276
0
277
2
278
44
279
0
280
0
281
0
282
0
283
0
284
8
285
0
286
0
288
0
289
3
290
0
371
-2
372
-2
  0
DIMSTYLE
105
73
330
4
100
AcDbSymbolTableRecord
100
AcDbDimStyleTableRecord
  2
EZDXF
 70
0
 40
1.0
 41
0.175
 42
0.125
 43
3.75
 44
0.375
 45
0.0
 46
0.0
 47
0.0
 48
0.0
 49
2.5
140
0.25
141
2.5
142
0.0
143
0.03937007874
144
100.0
145
0.0
146
0.5
147
0.1
148
0.0
 69
0
 70
0
 71
0
 72
0
 73
0
 74
0
 75
0
 76
0
 77
1
 78
12
 79
3
170
0
171
3
172
1
173
0
174
0
175
0
176
0
177
0
178
0
179
2
271
2
272
2
273
2
274
3
275
0
276
0
277
2
278
46
279
2
280
0
281
0
282
0
283
0
284
8
285
0
286
0
288
1
289
3
290
0
340
4C
342
74
371
-2
372
-2
  0
DIMSTYLE
105
7C
330
4
100
AcDbSymbolTableRecord
100
AcDbDimStyleTableRecord
  2
EZ_M_100_H25_CM
 70
0
 40
1.0
 41
0.25
 42
0.125
 43
3.75
 44
0.375
 45
0.0
 46
0.0
 47
0.0
 48
0.0
 49
2.5
140
0.25
141
2.5
142
0.125
143
0.03937007874
144
100.0
145
0.0
146
0.5
147
0.1
148
0.0
 69
0
 70
0
 71
0
 72
0
 73
0
 74
0
 75
0
 76
0
 77
1
 78
12
 79
3
170
0
171
3
172
1
173
0
174
0
175
0
176
0
177
0
178
0
179
2
271
2
272
2
273
2
274
3
275
0
276
0
277
2
278
46
279
2
280
0
281
0
282
0
283
0
284
8
285
0
286
0
288
1
289
3
290
0
340
4C
371
-2
372
-2
  0
DIMSTYLE
105
7D
330
4
100
AcDbSymbolTableRecord
100
AcDbDimStyleTableRecord
  2
EZ_M_50_H25_CM
 70
0
 40
1.0
 41
0.125
 42
0.0625
 43
3.75
 44
0.1875
 45
0.0
 46
0.0
 47
0.0
 48
0.0
 49
2.5
140
0.125
141
2.5
142
0.0625
143
0.03937007874
144
100.0
145
0.0
146
0.5
147
0.05
148
0.0
 69
0
 70
0
 71
0
 72
0
 73
0
 74
0
 75
0
 76
0
 77
1
 78
12
 79
3
170
0
171
3
172
1
173
0
174
0
175
0
176
0
177
0
178
0
179
2
271
2
272
2
273
2
274
3
275
0
276
0
277
2
278
46
279
2
280
0
281
0
282
0
283
0
284
8
285
0
286
0
288
1
289
3
290
0
340
4C
371
-2
372
-2
  0
DIMSTYLE
105
7E
330
4
100
AcDbSymbolTableRecord
100
AcDbDimStyleTableRecord
  2
EZ_M_25_H25_CM
 70
0
 40
1.0
 41
0.0625
 42
0.03125
 43
3.75
 44
0.09375
 45
0.0
 46
0.0
 47
0.0
 48
0.0
 49
2.5
140
0.0625
141
2.5
142
0.03125
143
0.03937007874
144
100.0
145
0.0
146
0.5
147
0.025
148
0.0
 69
0
 70
0
 71
0
 72
0
 73
0
 74
0
 75
0
 76
0
 77
1
 78
12
 79
3
170
0
171
3
172
1
173
0
174
0
175
0
176
0
177
0
178
0
179
2
271
2
272
2
273
2
274
3
275
0
276
0
277
2
278
46
279
2
280
0
281
0
282
0
283
0
284
8
285
0
286
0
288
1
289
3
290
0
340
4C
371
-2
372
-2
  0
DIMSTYLE
105
7F
330
4
100
AcDbSymbolTableRecord
100
AcDbDimStyleTableRecord
  2
EZ_M_20_H25_CM
 70
0
 40
1.0
 41
0.05
 42
0.025
 43
3.75
 44
0.07500000000000001
 45
0.0
 46
0.0
 47
0.0
 48
0.0
 49
2.5
140
0.05
141
2.5
142
0.025
143
0.03937007874
144
100.0
145
0.0
146
0.5
147
0.020000000000000004
148
0.0
 69
0
 70
0
 71
0
 72
0
 73
0
 74
0
 75
0
 76
0
 77
1
 78
12
 79
3
170
0
171
3
172
1
173
0
174
0
175
0
176
0
177
0
178
0
179
2
271
2
272
2
273
2
274
3
275
0
276
0
277
2
278
46
279
2
280
0
281
0
282
0
283
0
284
8
285
0
286
0
288
1
289
3
290
0
340
4C
371
-2
372
-2
  0
DIMSTYLE
105
80
330
4
100
AcDbSymbolTableRecord
100
AcDbDimStyleTableRecord
  2
EZ_M_10_H25_CM
 70
0
 40
1.0
 41
0.025
 42
0.0125
 43
3.75
 44
0.037500000000000006
 45
0.0
 46
0.0
 47
0.0
 48
0.0
 49
2.5
140
0.025
141
2.5
142
0.0125
143
0.03937007874
144
100.0
145
0.0
146
0.5
147
0.010000000000000002
148
0.0
 69
0
 70
0
 71
0
 72
0
 73
0
 74
0
 75
0
 76
0
 77
1
 78
12
 79
3
170
0
171
3
172
1
173
0
174
0
175
0
176
0
177
0
178
0
179
2
271
2
272
2
273
2
274
3
275
0
276
0
277
2
278
46
279
2
280
0
281
0
282
0
283
0
284
8
285
0
286
0
288
1
289
3
290
0
340
4C
371
-2
372
-2
  0
DIMSTYLE
105
81
330
4
100
AcDbSymbolTableRecord
100
AcDbDimStyleTableRecord
  2
EZ_M_5_H25_CM
 70
0
 40
1.0
 41
0.0125
 42
0.00625
 43
3.75
 44
0.018750000000000003
 45
0.0
 46
0.0
 47
0.0
 48
0.0
 49
2.5
140
0.0125
141
2.5
142
0.00625
143
0.03937007874
144
100.0
145
0.0
146
0.5
147
0.005000000000000001
148
0.0
 69
0
 70
0
 71
0
 72
0
 73
0
 74
0
 75
0
 76
0
 77
1
 78
12
 79
3
170
0
171
3
172
1
173
0
174
0
175
0
176
0
177
0
178
0
179
2
271
2
272
2
273
2
274
3
275
0
276
0
277
2
278
46
279
2
280
0
281
0
282
0
283
0
284
8
285
0
286
0
288
1
289
3
290
0
340
4C
371
-2
372
-2
  0
DIMSTYLE
105
82
330
4
100
AcDbSymbolTableRecord
100
AcDbDimStyleTableRecord
  2
EZ_M_1_H25_CM
 70
0
 40
1.0
 41
0.0025
 42
0.00125
 43
3.75
 44
0.00375
 45
0.0
 46
0.0
 47
0.0
 48
0.0
 49
2.5
140
0.0025
141
2.5
142
0.00125
143
0.03937007874
144
100.0
145
0.0
146
0.5
147
0.001
148
0.0
 69
0
 70
0
 71
0
 72
0
 73
0
 74
0
 75
0
 76
0
 77
1
 78
12
 79
3
170
0
171
3
172
1
173
0
174
0
175
0
176
0
177
0
178
0
179
2
271
2
272
2
273
2
274
3
275
0
276
0
277
2
278
46
279
2
280
0
281
0
282
0
283
0
284
8
285
0
286
0
288
1
289
3
290
0
340
4C
371
-2
372
-2
  0
DIMSTYLE
105
83
330
4
100
AcDbSymbolTableRecord
100
AcDbDimStyleTableRecord
  2
EZ_RADIUS
 70
0
 40
1.0
 41
0.25
 42
0.125
 43
3.75
 44
0.375
 45
0.0
 46
0.0
 47
0.0
 48
0.0
 49
2.5
140
0.25
141
0.0
142
0.0
143
0.03937007874
144
100.0
145
0.0
146
0.5
147
0.1
148
0.0
 69
0
 70
0
 71
0
 72
0
 73
0
 74
0
 75
0
 76
0
 77
1
 78
12
 79
3
170
0
171
3
172
0
173
0
174
0
175
0
176
0
177
0
178
0
179
2
271
2
272
2
273
2
274
3
275
0
276
0
277
2
278
46
279
1
280
0
281
0
282
0
283
0
284
8
285
0
286
0
288
1
289
3
290
0
340
4C
342
84
371
-2
372
-2
  0
DIMSTYLE
105
88
330
4
100
AcDbSymbolTableRecord
100
AcDbDimStyleTableRecord
  2
EZ_RADIUS_INSIDE
 70
0
 40
1.0
 41
0.25
 42
0.125
 43
3.75
 44
0.375
 45
0.0
 46
0.0
 47
0.0
 48
0.0
 49
2.5
140
0.25
141
0.0
142
0.0
143
0.03937007874
144
100.0
145
0.0
146
0.5
147
0.1
148
0.0
 69
0
 70
0
 71
0
 72
0
 73
0
 74
0
 75
0
 76
0
 77
0
 78
12
 79
3
170
0
171
3
172
0
173
0
174
1
175
0
176
0
177
0
178
0
179
2
271
2
272
2
273
2
274
3
275
0
276
0
277
2
278
46
279
0
280
0
281
0
282
0
283
0
284
8
285
0
286
0
288
1
289
0
290
0
340
4C
342
84
371
-2
372
-2
  0
DIMSTYLE
105
89
330
4
100
AcDbSymbolTableRecord
100
AcDbDimStyleTableRecord
  2
EZ_CURVED
 70
0
 40
1.0
 41
0.25
 42
0.125
 43
3.75
 44
0.375
 45
0.0
 46
0.0
 47
0.0
 48
0.0
 49
2.5
140
0.25
141
2.5
142
0.0
143
0.03937007874
144
100.0
145
0.0
146
0.5
147
0.1
148
0.0
 69
0
 70
0
 71
0
 72
0
 73
0
 74
0
 75
0
 76
0
 77
1
 78
12
 79
2
 90
2
170
0
171
3
172
1
173
0
174
0
175
0
176
0
177
0
178
0
179
2
271
2
272
2
273
2
274
3
275
0
276
0
277
2
278
46
279
2
280
0
281
0
282
0
283
0
284
8
285
0
286
0
288
1
289
3
290
0
340
4C
371
-2
372
-2
  0
ENDTAB
  0
TABLE
  2
BLOCK_RECORD
  5
9
330
0
100
AcDbSymbolTable
 70
5
  0
BLOCK_RECORD
  5
17
330
9
100
AcDbSymbolTableRecord
100
AcDbBlockTableRecord
  2
*Model_Space
340
1A
 70
0
280
1
281
0
  0
BLOCK_RECORD
  5
1B
330
9
100
AcDbSymbolTableRecord
100
AcDbBlockTableRecord
  2
*Paper_Space
340
1E
 70
0
280
1
281
0
  0
BLOCK_RECORD
  5
74
330
9
100
AcDbSymbolTableRecord
100
AcDbBlockTableRecord
  2
_ARCHTICK
340
0
 70
0
280
1
281
0
  0
BLOCK_RECORD
  5
78
330
9
100
AcDbSymbolTableRecord
100
AcDbBlockTableRecord
  2
_CLOSEDFILLED
340
0
 70
0
280
1
281
0
  0
BLOCK_RECORD
  5
84
330
9
100
AcDbSymbolTableRecord
100
AcDbBlockTableRecord
  2
_CLOSEDBLANK
340
0
 70
0
280
1
281
0
  0
ENDTAB
  0
ENDSEC
  0
SECTION
  2
BLOCKS
  0
BLOCK
  5
18
330
17
100
AcDbEntity
  8
0
100
AcDbBlockBegin
  2
*Model_Space
 70
0
 10
0.0
 20
0.0
 30
0.0
  3
*Model_Space
  1

  0
ENDBLK
  5
19
330
17
100
AcDbEntity
  8
0
100
AcDbBlockEnd
  0
BLOCK
  5
1C
330
1B
100
AcDbEntity
  8
0
100
AcDbBlockBegin
  2
*Paper_Space
 70
0
 10
0.0
 20
0.0
 30
0.0
  3
*Paper_Space
  1

  0
ENDBLK
  5
1D
330
1B
100
AcDbEntity
  8
0
100
AcDbBlockEnd
  0
BLOCK
  5
75
330
74
100
AcDbEntity
  8
0
100
AcDbBlockBegin
  2
_ARCHTICK
 70
0
 10
0.0
 20
0.0
 30
0.0
  3
_ARCHTICK
  1

  0
LWPOLYLINE
  5
77
330
74
100
AcDbEntity
  8
0
  6
BYBLOCK
 62
0
100
AcDbPolyline
 90
2
 70
0
 43
0.15
 10
-0.5
 20
-0.5
 10
0.5
 20
0.5
  0
ENDBLK
  5
76
330
74
100
AcDbEntity
  8
0
100
AcDbBlockEnd
  0
BLOCK
  5
79
330
78
100
AcDbEntity
  8
0
100
AcDbBlockBegin
  2
_CLOSEDFILLED
 70
0
 10
0.0
 20
0.0
 30
0.0
  3
_CLOSEDFILLED
  1

  0
SOLID
  5
7B
330
78
100
AcDbEntity
  8
0
  6
BYBLOCK
 62
0
100
AcDbTrace
 10
-1.0
 20
0.16439898372402537
 30
0.0
 11
0.0
 21
0.0
 31
0.0
 12
-1.0
 22
-0.16439898372402537
 32
0.0
 13
-1.0
 23
-0.16439898372402537
 33
0.0
  0
ENDBLK
  5
7A
330
78
100
AcDbEntity
  8
0
100
AcDbBlockEnd
  0
BLOCK
  5
85
330
84
100
AcDbEntity
  8
0
100
AcDbBlockBegin
  2
_CLOSEDBLANK
 70
0
 10
0.0
 20
0.0
 30
0.0
  3
_CLOSEDBLANK
  1

  0
LWPOLYLINE
  5
87
330
84
100
AcDbEntity
  8
0
  6
BYBLOCK
 62
0
100
AcDbPolyline
 90
3
 70
1
 10
-1.0
 20
0.16439898372402537
 10
0.0
 20
0.0
 10
-1.0
 20
-0.16439898372402537
  0
ENDBLK
  5
86
330
84
100
AcDbEntity
  8
0
100
AcDbBlockEnd
  0
ENDSEC
  0
SECTION
  2
ENTITIES
  0
LWPOLYLINE
  5
94
330
17
100
AcDbEntity
  8
B-TEXT
 62
8
100
AcDbPolyline
 90
6
 70
1
 10
67.89
 20
15.57
 10
77.89
 20
15.57
 10
77.89
 20
19.97
 10
95.69
 20
19.97
 10
95.69
 20
35.87
 10
67.89
 20
35.87
  0
LWPOLYLINE
  5
95
330
17
100
AcDbEntity
  8
B-OPENING
100
AcDbPolyline
 90
4
 70
1
 10
77.89
 20
29.37
 10
81.79
 20
29.37
 10
81.79
 20
35.37
 10
77.89
 20
35.37
  0
HATCH
  5
96
330
17
100
AcDbEntity
  8
B-OPENING
 62
7
100
AcDbHatch
 10
0.0
 20
0.0
 30
0.0
210
0.0
220
0.0
230
1.0
  2
ANSI31
 70
0
 71
0
 91
1
 92
3
 72
0
 73
1
 93
4
 10
77.89
 20
29.37
 10
81.79
 20
29.37
 10
81.79
 20
35.37
 10
77.89
 20
35.37
 97
0
 75
1
 76
1
 52
0.0
 41
0.5
 77
0
 78
1
 53
45.0
 43
0.0
 44
0.0
 45
-1.1225320152
 46
1.1225320152
 79
0
 98
0
  0
TEXT
  5
97
330
17
100
AcDbEntity
  8
B-OPENING
100
AcDbText
 10
78.04
 20
32.669999999999995
 30
0.0
 40
0.25
  1
STAIR OPENING - NOT ROOFED
 11
78.04
 21
32.669999999999995
 31
0.0
100
AcDbText
  0
TEXT
  5
98
330
17
100
AcDbEntity
  8
B-OPENING
100
AcDbText
 10
78.04
 20
32.169999999999995
 30
0.0
 40
0.2
  1
upstand + flashing all sides
 11
78.04
 21
32.169999999999995
 31
0.0
100
AcDbText
  0
LWPOLYLINE
  5
99
330
17
100
AcDbEntity
  8
B-OPENING
100
AcDbPolyline
 90
4
 70
1
 10
77.89
 20
20.17
 10
81.99
 20
20.17
 10
81.99
 20
24.16
 10
77.89
 20
24.16
  0
HATCH
  5
9A
330
17
100
AcDbEntity
  8
B-OPENING
 62
7
100
AcDbHatch
 10
0.0
 20
0.0
 30
0.0
210
0.0
220
0.0
230
1.0
  2
ANSI31
 70
0
 71
0
 91
1
 92
3
 72
0
 73
1
 93
4
 10
77.89
 20
20.17
 10
81.99
 20
20.17
 10
81.99
 20
24.16
 10
77.89
 20
24.16
 97
0
 75
1
 76
1
 52
0.0
 41
0.5
 77
0
 78
1
 53
45.0
 43
0.0
 44
0.0
 45
-1.1225320152
 46
1.1225320152
 79
0
 98
0
  0
TEXT
  5
9B
330
17
100
AcDbEntity
  8
B-OPENING
100
AcDbText
 10
78.04
 20
22.465
 30
0.0
 40
0.25
  1
ELEVATOR OPENING - NOT ROOFED
 11
78.04
 21
22.465
 31
0.0
100
AcDbText
  0
TEXT
  5
9C
330
17
100
AcDbEntity
  8
B-OPENING
100
AcDbText
 10
78.04
 20
21.965
 30
0.0
 40
0.2
  1
upstand + flashing all sides
 11
78.04
 21
21.965
 31
0.0
100
AcDbText
  0
LWPOLYLINE
  5
9D
330
17
100
AcDbEntity
  8
B-COL
100
AcDbPolyline
 90
4
 70
1
 10
86.99
 20
35.67
 10
87.39
 20
35.67
 10
87.39
 20
35.870000000000005
 10
86.99
 20
35.870000000000005
  0
HATCH
  5
9E
330
17
100
AcDbEntity
  8
B-COL
 62
7
100
AcDbHatch
 10
0.0
 20
0.0
 30
0.0
210
0.0
220
0.0
230
1.0
  2
SOLID
 70
1
 71
0
 91
1
 92
3
 72
0
 73
1
 93
4
 10
86.99
 20
35.67
 10
87.39
 20
35.67
 10
87.39
 20
35.870000000000005
 10
86.99
 20
35.870000000000005
 97
0
 75
0
 76
1
 98
0
  0
TEXT
  5
9F
330
17
100
AcDbEntity
  8
B-TEXT
100
AcDbText
 10
87.44
 20
36.02
 30
0.0
 40
0.25
  1
K1
 11
87.44
 21
36.02
 31
0.0
100
AcDbText
  0
LWPOLYLINE
  5
A0
330
17
100
AcDbEntity
  8
B-COL
100
AcDbPolyline
 90
4
 70
1
 10
92.28
 20
35.67
 10
92.68
 20
35.67
 10
92.68
 20
35.870000000000005
 10
92.28
 20
35.870000000000005
  0
HATCH
  5
A1
330
17
100
AcDbEntity
  8
B-COL
 62
7
100
AcDbHatch
 10
0.0
 20
0.0
 30
0.0
210
0.0
220
0.0
230
1.0
  2
SOLID
 70
1
 71
0
 91
1
 92
3
 72
0
 73
1
 93
4
 10
92.28
 20
35.67
 10
92.68
 20
35.67
 10
92.68
 20
35.870000000000005
 10
92.28
 20
35.870000000000005
 97
0
 75
0
 76
1
 98
0
  0
TEXT
  5
A2
330
17
100
AcDbEntity
  8
B-TEXT
100
AcDbText
 10
92.73
 20
36.02
 30
0.0
 40
0.25
  1
K2
 11
92.73
 21
36.02
 31
0.0
100
AcDbText
  0
LWPOLYLINE
  5
A3
330
17
100
AcDbEntity
  8
B-COL
100
AcDbPolyline
 90
4
 70
1
 10
81.79
 20
35.47
 10
81.99000000000001
 20
35.47
 10
81.99000000000001
 20
35.87
 10
81.79
 20
35.87
  0
HATCH
  5
A4
330
17
100
AcDbEntity
  8
B-COL
 62
7
100
AcDbHatch
 10
0.0
 20
0.0
 30
0.0
210
0.0
220
0.0
230
1.0
  2
SOLID
 70
1
 71
0
 91
1
 92
3
 72
0
 73
1
 93
4
 10
81.79
 20
35.47
 10
81.99000000000001
 20
35.47
 10
81.99000000000001
 20
35.87
 10
81.79
 20
35.87
 97
0
 75
0
 76
1
 98
0
  0
TEXT
  5
A5
330
17
100
AcDbEntity
  8
B-TEXT
100
AcDbText
 10
82.14
 20
35.92
 30
0.0
 40
0.25
  1
K3
 11
82.14
 21
35.92
 31
0.0
100
AcDbText
  0
LWPOLYLINE
  5
A6
330
17
100
AcDbEntity
  8
B-COL
100
AcDbPolyline
 90
4
 70
1
 10
95.49000000000001
 20
35.47
 10
95.69000000000001
 20
35.47
 10
95.69000000000001
 20
35.87
 10
95.49000000000001
 20
35.87
  0
HATCH
  5
A7
330
17
100
AcDbEntity
  8
B-COL
 62
7
100
AcDbHatch
 10
0.0
 20
0.0
 30
0.0
210
0.0
220
0.0
230
1.0
  2
SOLID
 70
1
 71
0
 91
1
 92
3
 72
0
 73
1
 93
4
 10
95.49000000000001
 20
35.47
 10
95.69000000000001
 20
35.47
 10
95.69000000000001
 20
35.87
 10
95.49000000000001
 20
35.87
 97
0
 75
0
 76
1
 98
0
  0
TEXT
  5
A8
330
17
100
AcDbEntity
  8
B-TEXT
100
AcDbText
 10
95.84
 20
35.92
 30
0.0
 40
0.25
  1
K4
 11
95.84
 21
35.92
 31
0.0
100
AcDbText
  0
LWPOLYLINE
  5
A9
330
17
100
AcDbEntity
  8
B-COL
100
AcDbPolyline
 90
4
 70
1
 10
71.89
 20
35.17
 10
72.29
 20
35.17
 10
72.29
 20
35.370000000000005
 10
71.89
 20
35.370000000000005
  0
HATCH
  5
AA
330
17
100
AcDbEntity
  8
B-COL
 62
7
100
AcDbHatch
 10
0.0
 20
0.0
 30
0.0
210
0.0
220
0.0
230
1.0
  2
SOLID
 70
1
 71
0
 91
1
 92
3
 72
0
 73
1
 93
4
 10
71.89
 20
35.17
 10
72.29
 20
35.17
 10
72.29
 20
35.370000000000005
 10
71.89
 20
35.370000000000005
 97
0
 75
0
 76
1
 98
0
  0
TEXT
  5
AB
330
17
100
AcDbEntity
  8
B-TEXT
100
AcDbText
 10
72.34
 20
35.52
 30
0.0
 40
0.25
  1
K5
 11
72.34
 21
35.52
 31
0.0
100
AcDbText
  0
LWPOLYLINE
  5
AC
330
17
100
AcDbEntity
  8
B-COL
100
AcDbPolyline
 90
4
 70
1
 10
67.89
 20
34.97
 10
68.09
 20
34.97
 10
68.09
 20
35.37
 10
67.89
 20
35.37
  0
HATCH
  5
AD
330
17
100
AcDbEntity
  8
B-COL
 62
7
100
AcDbHatch
 10
0.0
 20
0.0
 30
0.0
210
0.0
220
0.0
230
1.0
  2
SOLID
 70
1
 71
0
 91
1
 92
3
 72
0
 73
1
 93
4
 10
67.89
 20
34.97
 10
68.09
 20
34.97
 10
68.09
 20
35.37
 10
67.89
 20
35.37
 97
0
 75
0
 76
1
 98
0
  0
TEXT
  5
AE
330
17
100
AcDbEntity
  8
B-TEXT
100
AcDbText
 10
68.24
 20
35.42
 30
0.0
 40
0.25
  1
K6
 11
68.24
 21
35.42
 31
0.0
100
AcDbText
  0
LWPOLYLINE
  5
AF
330
17
100
AcDbEntity
  8
B-COL
100
AcDbPolyline
 90
4
 70
1
 10
77.69000000000001
 20
34.97
 10
77.89000000000001
 20
34.97
 10
77.89000000000001
 20
35.37
 10
77.69000000000001
 20
35.37
  0
HATCH
  5
B0
330
17
100
AcDbEntity
  8
B-COL
 62
7
100
AcDbHatch
 10
0.0
 20
0.0
 30
0.0
210
0.0
220
0.0
230
1.0
  2
SOLID
 70
1
 71
0
 91
1
 92
3
 72
0
 73
1
 93
4
 10
77.69000000000001
 20
34.97
 10
77.89000000000001
 20
34.97
 10
77.89000000000001
 20
35.37
 10
77.69000000000001
 20
35.37
 97
0
 75
0
 76
1
 98
0
  0
TEXT
  5
B1
330
17
100
AcDbEntity
  8
B-TEXT
100
AcDbText
 10
78.04
 20
35.42
 30
0.0
 40
0.25
  1
K7
 11
78.04
 21
35.42
 31
0.0
100
AcDbText
  0
LWPOLYLINE
  5
B2
330
17
100
AcDbEntity
  8
B-COL
100
AcDbPolyline
 90
4
 70
1
 10
67.89
 20
29.17
 10
68.09
 20
29.17
 10
68.09
 20
29.57
 10
67.89
 20
29.57
  0
HATCH
  5
B3
330
17
100
AcDbEntity
  8
B-COL
 62
7
100
AcDbHatch
 10
0.0
 20
0.0
 30
0.0
210
0.0
220
0.0
230
1.0
  2
SOLID
 70
1
 71
0
 91
1
 92
3
 72
0
 73
1
 93
4
 10
67.89
 20
29.17
 10
68.09
 20
29.17
 10
68.09
 20
29.57
 10
67.89
 20
29.57
 97
0
 75
0
 76
1
 98
0
  0
TEXT
  5
B4
330
17
100
AcDbEntity
  8
B-TEXT
100
AcDbText
 10
68.24
 20
29.62
 30
0.0
 40
0.25
  1
K8
 11
68.24
 21
29.62
 31
0.0
100
AcDbText
  0
LWPOLYLINE
  5
B5
330
17
100
AcDbEntity
  8
B-COL-UNUSED
100
AcDbPolyline
 90
4
 70
1
 10
71.89
 20
29.169999999999998
 10
72.29
 20
29.169999999999998
 10
72.29
 20
29.369999999999997
 10
71.89
 20
29.369999999999997
  0
TEXT
  5
B6
330
17
100
AcDbEntity
  8
B-TEXT
100
AcDbText
 10
72.34
 20
29.52
 30
0.0
 40
0.25
  1
K9
 11
72.34
 21
29.52
 31
0.0
100
AcDbText
  0
LWPOLYLINE
  5
B7
330
17
100
AcDbEntity
  8
B-COL-UNUSED
100
AcDbPolyline
 90
4
 70
1
 10
77.69
 20
29.169999999999998
 10
78.09
 20
29.169999999999998
 10
78.09
 20
29.369999999999997
 10
77.69
 20
29.369999999999997
  0
TEXT
  5
B8
330
17
100
AcDbEntity
  8
B-TEXT
100
AcDbText
 10
78.14
 20
29.52
 30
0.0
 40
0.25
  1
K10
 11
78.14
 21
29.52
 31
0.0
100
AcDbText
  0
LWPOLYLINE
  5
B9
330
17
100
AcDbEntity
  8
B-COL-UNUSED
100
AcDbPolyline
 90
4
 70
1
 10
81.58
 20
29.169999999999998
 10
81.98
 20
29.169999999999998
 10
81.98
 20
29.369999999999997
 10
81.58
 20
29.369999999999997
  0
TEXT
  5
BA
330
17
100
AcDbEntity
  8
B-TEXT
100
AcDbText
 10
82.03
 20
29.52
 30
0.0
 40
0.25
  1
K11
 11
82.03
 21
29.52
 31
0.0
100
AcDbText
  0
LWPOLYLINE
  5
BB
330
17
100
AcDbEntity
  8
B-COL-UNUSED
100
AcDbPolyline
 90
4
 70
1
 10
86.99
 20
29.169999999999998
 10
87.39
 20
29.169999999999998
 10
87.39
 20
29.369999999999997
 10
86.99
 20
29.369999999999997
  0
TEXT
  5
BC
330
17
100
AcDbEntity
  8
B-TEXT
100
AcDbText
 10
87.44
 20
29.52
 30
0.0
 40
0.25
  1
K12
 11
87.44
 21
29.52
 31
0.0
100
AcDbText
  0
LWPOLYLINE
  5
BD
330
17
100
AcDbEntity
  8
B-COL-UNUSED
100
AcDbPolyline
 90
4
 70
1
 10
92.28
 20
29.169999999999998
 10
92.68
 20
29.169999999999998
 10
92.68
 20
29.369999999999997
 10
92.28
 20
29.369999999999997
  0
TEXT
  5
BE
330
17
100
AcDbEntity
  8
B-TEXT
100
AcDbText
 10
92.73
 20
29.52
 30
0.0
 40
0.25
  1
K13
 11
92.73
 21
29.52
 31
0.0
100
AcDbText
  0
LWPOLYLINE
  5
BF
330
17
100
AcDbEntity
  8
B-COL
100
AcDbPolyline
 90
4
 70
1
 10
95.28
 20
29.169999999999998
 10
95.68
 20
29.169999999999998
 10
95.68
 20
29.369999999999997
 10
95.28
 20
29.369999999999997
  0
HATCH
  5
C0
330
17
100
AcDbEntity
  8
B-COL
 62
7
100
AcDbHatch
 10
0.0
 20
0.0
 30
0.0
210
0.0
220
0.0
230
1.0
  2
SOLID
 70
1
 71
0
 91
1
 92
3
 72
0
 73
1
 93
4
 10
95.28
 20
29.169999999999998
 10
95.68
 20
29.169999999999998
 10
95.68
 20
29.369999999999997
 10
95.28
 20
29.369999999999997
 97
0
 75
0
 76
1
 98
0
  0
TEXT
  5
C1
330
17
100
AcDbEntity
  8
B-TEXT
100
AcDbText
 10
95.73
 20
29.52
 30
0.0
 40
0.25
  1
K14
 11
95.73
 21
29.52
 31
0.0
100
AcDbText
  0
LWPOLYLINE
  5
C2
330
17
100
AcDbEntity
  8
B-COL
100
AcDbPolyline
 90
4
 70
1
 10
67.89
 20
26.17
 10
68.09
 20
26.17
 10
68.09
 20
26.57
 10
67.89
 20
26.57
  0
HATCH
  5
C3
330
17
100
AcDbEntity
  8
B-COL
 62
7
100
AcDbHatch
 10
0.0
 20
0.0
 30
0.0
210
0.0
220
0.0
230
1.0
  2
SOLID
 70
1
 71
0
 91
1
 92
3
 72
0
 73
1
 93
4
 10
67.89
 20
26.17
 10
68.09
 20
26.17
 10
68.09
 20
26.57
 10
67.89
 20
26.57
 97
0
 75
0
 76
1
 98
0
  0
TEXT
  5
C4
330
17
100
AcDbEntity
  8
B-TEXT
100
AcDbText
 10
68.24
 20
26.62
 30
0.0
 40
0.25
  1
K15
 11
68.24
 21
26.62
 31
0.0
100
AcDbText
  0
LWPOLYLINE
  5
C5
330
17
100
AcDbEntity
  8
B-COL-UNUSED
100
AcDbPolyline
 90
4
 70
1
 10
77.68
 20
24.26
 10
77.88000000000001
 20
24.26
 10
77.88000000000001
 20
24.66
 10
77.68
 20
24.66
  0
TEXT
  5
C6
330
17
100
AcDbEntity
  8
B-TEXT
100
AcDbText
 10
78.03
 20
24.71
 30
0.0
 40
0.25
  1
K16
 11
78.03
 21
24.71
 31
0.0
100
AcDbText
  0
LWPOLYLINE
  5
C7
330
17
100
AcDbEntity
  8
B-COL-UNUSED
100
AcDbPolyline
 90
4
 70
1
 10
81.79
 20
24.26
 10
81.99000000000001
 20
24.26
 10
81.99000000000001
 20
24.66
 10
81.79
 20
24.66
  0
TEXT
  5
C8
330
17
100
AcDbEntity
  8
B-TEXT
100
AcDbText
 10
82.14
 20
24.71
 30
0.0
 40
0.25
  1
K17
 11
82.14
 21
24.71
 31
0.0
100
AcDbText
  0
LWPOLYLINE
  5
C9
330
17
100
AcDbEntity
  8
B-COL
100
AcDbPolyline
 90
4
 70
1
 10
95.49000000000001
 20
24.26
 10
95.69000000000001
 20
24.26
 10
95.69000000000001
 20
24.66
 10
95.49000000000001
 20
24.66
  0
HATCH
  5
CA
330
17
100
AcDbEntity
  8
B-COL
 62
7
100
AcDbHatch
 10
0.0
 20
0.0
 30
0.0
210
0.0
220
0.0
230
1.0
  2
SOLID
 70
1
 71
0
 91
1
 92
3
 72
0
 73
1
 93
4
 10
95.49000000000001
 20
24.26
 10
95.69000000000001
 20
24.26
 10
95.69000000000001
 20
24.66
 10
95.49000000000001
 20
24.66
 97
0
 75
0
 76
1
 98
0
  0
TEXT
  5
CB
330
17
100
AcDbEntity
  8
B-TEXT
100
AcDbText
 10
95.84
 20
24.71
 30
0.0
 40
0.25
  1
K18
 11
95.84
 21
24.71
 31
0.0
100
AcDbText
  0
LWPOLYLINE
  5
CC
330
17
100
AcDbEntity
  8
B-COL
100
AcDbPolyline
 90
4
 70
1
 10
67.89
 20
21.560000000000002
 10
68.09
 20
21.560000000000002
 10
68.09
 20
21.96
 10
67.89
 20
21.96
  0
HATCH
  5
CD
330
17
100
AcDbEntity
  8
B-COL
 62
7
100
AcDbHatch
 10
0.0
 20
0.0
 30
0.0
210
0.0
220
0.0
230
1.0
  2
SOLID
 70
1
 71
0
 91
1
 92
3
 72
0
 73
1
 93
4
 10
67.89
 20
21.560000000000002
 10
68.09
 20
21.560000000000002
 10
68.09
 20
21.96
 10
67.89
 20
21.96
 97
0
 75
0
 76
1
 98
0
  0
TEXT
  5
CE
330
17
100
AcDbEntity
  8
B-TEXT
100
AcDbText
 10
68.24
 20
22.01
 30
0.0
 40
0.25
  1
K19
 11
68.24
 21
22.01
 31
0.0
100
AcDbText
  0
LWPOLYLINE
  5
CF
330
17
100
AcDbEntity
  8
B-COL-UNUSED
100
AcDbPolyline
 90
4
 70
1
 10
77.68
 20
21.560000000000002
 10
77.88000000000001
 20
21.560000000000002
 10
77.88000000000001
 20
21.96
 10
77.68
 20
21.96
  0
TEXT
  5
D0
330
17
100
AcDbEntity
  8
B-TEXT
100
AcDbText
 10
78.03
 20
22.01
 30
0.0
 40
0.25
  1
K20
 11
78.03
 21
22.01
 31
0.0
100
AcDbText
  0
LWPOLYLINE
  5
D1
330
17
100
AcDbEntity
  8
B-COL
100
AcDbPolyline
 90
4
 70
1
 10
81.59
 20
19.97
 10
81.99000000000001
 20
19.97
 10
81.99000000000001
 20
20.169999999999998
 10
81.59
 20
20.169999999999998
  0
HATCH
  5
D2
330
17
100
AcDbEntity
  8
B-COL
 62
7
100
AcDbHatch
 10
0.0
 20
0.0
 30
0.0
210
0.0
220
0.0
230
1.0
  2
SOLID
 70
1
 71
0
 91
1
 92
3
 72
0
 73
1
 93
4
 10
81.59
 20
19.97
 10
81.99000000000001
 20
19.97
 10
81.99000000000001
 20
20.169999999999998
 10
81.59
 20
20.169999999999998
 97
0
 75
0
 76
1
 98
0
  0
TEXT
  5
D3
330
17
100
AcDbEntity
  8
B-TEXT
100
AcDbText
 10
82.04
 20
20.32
 30
0.0
 40
0.25
  1
K21
 11
82.04
 21
20.32
 31
0.0
100
AcDbText
  0
LWPOLYLINE
  5
D4
330
17
100
AcDbEntity
  8
B-COL
100
AcDbPolyline
 90
4
 70
1
 10
88.67999999999999
 20
19.97
 10
89.08
 20
19.97
 10
89.08
 20
20.169999999999998
 10
88.67999999999999
 20
20.169999999999998
  0
HATCH
  5
D5
330
17
100
AcDbEntity
  8
B-COL
 62
7
100
AcDbHatch
 10
0.0
 20
0.0
 30
0.0
210
0.0
220
0.0
230
1.0
  2
SOLID
 70
1
 71
0
 91
1
 92
3
 72
0
 73
1
 93
4
 10
88.67999999999999
 20
19.97
 10
89.08
 20
19.97
 10
89.08
 20
20.169999999999998
 10
88.67999999999999
 20
20.169999999999998
 97
0
 75
0
 76
1
 98
0
  0
TEXT
  5
D6
330
17
100
AcDbEntity
  8
B-TEXT
100
AcDbText
 10
89.13
 20
20.32
 30
0.0
 40
0.25
  1
K22
 11
89.13
 21
20.32
 31
0.0
100
AcDbText
  0
LWPOLYLINE
  5
D7
330
17
100
AcDbEntity
  8
B-COL
100
AcDbPolyline
 90
4
 70
1
 10
95.28999999999999
 20
19.97
 10
95.69
 20
19.97
 10
95.69
 20
20.169999999999998
 10
95.28999999999999
 20
20.169999999999998
  0
HATCH
  5
D8
330
17
100
AcDbEntity
  8
B-COL
 62
7
100
AcDbHatch
 10
0.0
 20
0.0
 30
0.0
210
0.0
220
0.0
230
1.0
  2
SOLID
 70
1
 71
0
 91
1
 92
3
 72
0
 73
1
 93
4
 10
95.28999999999999
 20
19.97
 10
95.69
 20
19.97
 10
95.69
 20
20.169999999999998
 10
95.28999999999999
 20
20.169999999999998
 97
0
 75
0
 76
1
 98
0
  0
TEXT
  5
D9
330
17
100
AcDbEntity
  8
B-TEXT
100
AcDbText
 10
95.74
 20
20.32
 30
0.0
 40
0.25
  1
K23
 11
95.74
 21
20.32
 31
0.0
100
AcDbText
  0
LWPOLYLINE
  5
DA
330
17
100
AcDbEntity
  8
B-COL
100
AcDbPolyline
 90
4
 70
1
 10
74.69
 20
15.870000000000001
 10
75.09
 20
15.870000000000001
 10
75.09
 20
16.07
 10
74.69
 20
16.07
  0
HATCH
  5
DB
330
17
100
AcDbEntity
  8
B-COL
 62
7
100
AcDbHatch
 10
0.0
 20
0.0
 30
0.0
210
0.0
220
0.0
230
1.0
  2
SOLID
 70
1
 71
0
 91
1
 92
3
 72
0
 73
1
 93
4
 10
74.69
 20
15.870000000000001
 10
75.09
 20
15.870000000000001
 10
75.09
 20
16.07
 10
74.69
 20
16.07
 97
0
 75
0
 76
1
 98
0
  0
TEXT
  5
DC
330
17
100
AcDbEntity
  8
B-TEXT
100
AcDbText
 10
75.14
 20
16.22
 30
0.0
 40
0.25
  1
K24
 11
75.14
 21
16.22
 31
0.0
100
AcDbText
  0
LWPOLYLINE
  5
DD
330
17
100
AcDbEntity
  8
B-COL
100
AcDbPolyline
 90
4
 70
1
 10
67.89
 20
15.67
 10
68.09
 20
15.67
 10
68.09
 20
16.07
 10
67.89
 20
16.07
  0
HATCH
  5
DE
330
17
100
AcDbEntity
  8
B-COL
 62
7
100
AcDbHatch
 10
0.0
 20
0.0
 30
0.0
210
0.0
220
0.0
230
1.0
  2
SOLID
 70
1
 71
0
 91
1
 92
3
 72
0
 73
1
 93
4
 10
67.89
 20
15.67
 10
68.09
 20
15.67
 10
68.09
 20
16.07
 10
67.89
 20
16.07
 97
0
 75
0
 76
1
 98
0
  0
TEXT
  5
DF
330
17
100
AcDbEntity
  8
B-TEXT
100
AcDbText
 10
68.24
 20
16.119999999999997
 30
0.0
 40
0.25
  1
K25
 11
68.24
 21
16.119999999999997
 31
0.0
100
AcDbText
  0
LWPOLYLINE
  5
E0
330
17
100
AcDbEntity
  8
B-COL
100
AcDbPolyline
 90
4
 70
1
 10
71.89
 20
15.67
 10
72.09
 20
15.67
 10
72.09
 20
16.07
 10
71.89
 20
16.07
  0
HATCH
  5
E1
330
17
100
AcDbEntity
  8
B-COL
 62
7
100
AcDbHatch
 10
0.0
 20
0.0
 30
0.0
210
0.0
220
0.0
230
1.0
  2
SOLID
 70
1
 71
0
 91
1
 92
3
 72
0
 73
1
 93
4
 10
71.89
 20
15.67
 10
72.09
 20
15.67
 10
72.09
 20
16.07
 10
71.89
 20
16.07
 97
0
 75
0
 76
1
 98
0
  0
TEXT
  5
E2
330
17
100
AcDbEntity
  8
B-TEXT
100
AcDbText
 10
72.24
 20
16.119999999999997
 30
0.0
 40
0.25
  1
K26
 11
72.24
 21
16.119999999999997
 31
0.0
100
AcDbText
  0
LWPOLYLINE
  5
E3
330
17
100
AcDbEntity
  8
B-COL
100
AcDbPolyline
 90
4
 70
1
 10
77.68
 20
15.67
 10
77.88000000000001
 20
15.67
 10
77.88000000000001
 20
16.07
 10
77.68
 20
16.07
  0
HATCH
  5
E4
330
17
100
AcDbEntity
  8
B-COL
 62
7
100
AcDbHatch
 10
0.0
 20
0.0
 30
0.0
210
0.0
220
0.0
230
1.0
  2
SOLID
 70
1
 71
0
 91
1
 92
3
 72
0
 73
1
 93
4
 10
77.68
 20
15.67
 10
77.88000000000001
 20
15.67
 10
77.88000000000001
 20
16.07
 10
77.68
 20
16.07
 97
0
 75
0
 76
1
 98
0
  0
TEXT
  5
E5
330
17
100
AcDbEntity
  8
B-TEXT
100
AcDbText
 10
78.03
 20
16.119999999999997
 30
0.0
 40
0.25
  1
K27
 11
78.03
 21
16.119999999999997
 31
0.0
100
AcDbText
  0
LINE
  5
E6
330
17
100
AcDbEntity
  8
B-PURLIN
100
AcDbLine
 10
67.89
 20
35.75
 30
0.0
 11
95.69
 21
35.75
 31
0.0
  0
LINE
  5
E7
330
17
100
AcDbEntity
  8
B-PURLIN
100
AcDbLine
 10
67.89
 20
34.25
 30
0.0
 11
77.785
 21
34.25
 31
0.0
  0
LINE
  5
E8
330
17
100
AcDbEntity
  8
B-PURLIN
100
AcDbLine
 10
81.84
 20
34.25
 30
0.0
 11
95.69
 21
34.25
 31
0.0
  0
LINE
  5
E9
330
17
100
AcDbEntity
  8
B-PURLIN
100
AcDbLine
 10
67.89
 20
32.75
 30
0.0
 11
77.785
 21
32.75
 31
0.0
  0
LINE
  5
EA
330
17
100
AcDbEntity
  8
B-PURLIN
100
AcDbLine
 10
81.84
 20
32.75
 30
0.0
 11
95.69
 21
32.75
 31
0.0
  0
LINE
  5
EB
330
17
100
AcDbEntity
  8
B-PURLIN
100
AcDbLine
 10
67.89
 20
31.25
 30
0.0
 11
77.785
 21
31.25
 31
0.0
  0
LINE
  5
EC
330
17
100
AcDbEntity
  8
B-PURLIN
100
AcDbLine
 10
81.84
 20
31.25
 30
0.0
 11
95.69
 21
31.25
 31
0.0
  0
LINE
  5
ED
330
17
100
AcDbEntity
  8
B-PURLIN
100
AcDbLine
 10
67.89
 20
29.75
 30
0.0
 11
77.785
 21
29.75
 31
0.0
  0
LINE
  5
EE
330
17
100
AcDbEntity
  8
B-PURLIN
100
AcDbLine
 10
81.84
 20
29.75
 30
0.0
 11
95.69
 21
29.75
 31
0.0
  0
LINE
  5
EF
330
17
100
AcDbEntity
  8
B-PURLIN
100
AcDbLine
 10
67.89
 20
28.25
 30
0.0
 11
95.69
 21
28.25
 31
0.0
  0
LINE
  5
F0
330
17
100
AcDbEntity
  8
B-PURLIN
100
AcDbLine
 10
67.89
 20
26.75
 30
0.0
 11
95.69
 21
26.75
 31
0.0
  0
LINE
  5
F1
330
17
100
AcDbEntity
  8
B-PURLIN
100
AcDbLine
 10
67.89
 20
25.25
 30
0.0
 11
95.69
 21
25.25
 31
0.0
  0
LINE
  5
F2
330
17
100
AcDbEntity
  8
B-PURLIN
100
AcDbLine
 10
67.89
 20
23.75
 30
0.0
 11
77.785
 21
23.75
 31
0.0
  0
LINE
  5
F3
330
17
100
AcDbEntity
  8
B-PURLIN
100
AcDbLine
 10
81.84
 20
23.75
 30
0.0
 11
95.69
 21
23.75
 31
0.0
  0
LINE
  5
F4
330
17
100
AcDbEntity
  8
B-PURLIN
100
AcDbLine
 10
67.89
 20
22.25
 30
0.0
 11
77.785
 21
22.25
 31
0.0
  0
LINE
  5
F5
330
17
100
AcDbEntity
  8
B-PURLIN
100
AcDbLine
 10
81.84
 20
22.25
 30
0.0
 11
95.69
 21
22.25
 31
0.0
  0
LINE
  5
F6
330
17
100
AcDbEntity
  8
B-PURLIN
100
AcDbLine
 10
67.89
 20
20.75
 30
0.0
 11
77.785
 21
20.75
 31
0.0
  0
LINE
  5
F7
330
17
100
AcDbEntity
  8
B-PURLIN
100
AcDbLine
 10
81.84
 20
20.75
 30
0.0
 11
95.69
 21
20.75
 31
0.0
  0
LINE
  5
F8
330
17
100
AcDbEntity
  8
B-PURLIN
100
AcDbLine
 10
67.89
 20
19.25
 30
0.0
 11
77.89
 21
19.25
 31
0.0
  0
LINE
  5
F9
330
17
100
AcDbEntity
  8
B-PURLIN
100
AcDbLine
 10
67.89
 20
17.75
 30
0.0
 11
77.89
 21
17.75
 31
0.0
  0
LINE
  5
FA
330
17
100
AcDbEntity
  8
B-PURLIN
100
AcDbLine
 10
67.89
 20
16.25
 30
0.0
 11
77.89
 21
16.25
 31
0.0
  0
LINE
  5
FB
330
17
100
AcDbEntity
  8
B-TRUSS
 62
1
370
50
100
AcDbLine
 10
67.99
 20
15.87
 30
0.0
 11
67.99
 21
35.17
 31
0.0
  0
TEXT
  5
FC
330
17
100
AcDbEntity
  8
B-TEXT
100
AcDbText
 10
68.19
 20
24.02
 30
0.0
 40
0.3
  1
T1 19.3 m
 50
90.0
 11
68.19
 21
24.02
 31
0.0
100
AcDbText
  0
LINE
  5
FD
330
17
100
AcDbEntity
  8
B-TRUSS
 62
1
370
50
100
AcDbLine
 10
72.03999999999999
 20
15.87
 30
0.0
 11
72.03999999999999
 21
35.27
 31
0.0
  0
TEXT
  5
FE
330
17
100
AcDbEntity
  8
B-TEXT
100
AcDbText
 10
72.24
 20
24.07
 30
0.0
 40
0.3
  1
T1 19.3 m
 50
90.0
 11
72.24
 21
24.07
 31
0.0
100
AcDbText
  0
LINE
  5
FF
330
17
100
AcDbEntity
  8
B-TRUSS
 62
1
370
50
100
AcDbLine
 10
77.785
 20
15.87
 30
0.0
 11
77.785
 21
35.17
 31
0.0
  0
TEXT
  5
100
330
17
100
AcDbEntity
  8
B-TEXT
100
AcDbText
 10
77.985
 20
24.02
 30
0.0
 40
0.3
  1
T1 19.3 m
 50
90.0
 11
77.985
 21
24.02
 31
0.0
100
AcDbText
  0
LINE
  5
101
330
17
100
AcDbEntity
  8
B-TRUSS
 62
1
370
50
100
AcDbLine
 10
81.84
 20
20.07
 30
0.0
 11
81.84
 21
35.67
 31
0.0
  0
TEXT
  5
102
330
17
100
AcDbEntity
  8
B-TEXT
100
AcDbText
 10
82.04
 20
26.37
 30
0.0
 40
0.3
  1
T2 15.6 m
 50
90.0
 11
82.04
 21
26.37
 31
0.0
100
AcDbText
  0
LINE
  5
103
330
17
100
AcDbEntity
  8
B-TRUSS
 62
1
370
50
100
AcDbLine
 10
87.19
 20
20.07
 30
0.0
 11
87.19
 21
35.77
 31
0.0
  0
TEXT
  5
104
330
17
100
AcDbEntity
  8
B-TEXT
100
AcDbText
 10
87.39
 20
26.42
 30
0.0
 40
0.3
  1
T2 15.6 m
 50
90.0
 11
87.39
 21
26.42
 31
0.0
100
AcDbText
  0
LINE
  5
105
330
17
100
AcDbEntity
  8
B-TRUSS
 62
1
370
50
100
AcDbLine
 10
92.48
 20
20.07
 30
0.0
 11
92.48
 21
35.77
 31
0.0
  0
TEXT
  5
106
330
17
100
AcDbEntity
  8
B-TEXT
100
AcDbText
 10
92.68
 20
26.42
 30
0.0
 40
0.3
  1
T2 15.6 m
 50
90.0
 11
92.68
 21
26.42
 31
0.0
100
AcDbText
  0
LINE
  5
107
330
17
100
AcDbEntity
  8
B-TRUSS
 62
1
370
50
100
AcDbLine
 10
95.53999999999999
 20
20.07
 30
0.0
 11
95.53999999999999
 21
35.67
 31
0.0
  0
TEXT
  5
108
330
17
100
AcDbEntity
  8
B-TEXT
100
AcDbText
 10
95.74
 20
26.37
 30
0.0
 40
0.3
  1
T2 15.6 m
 50
90.0
 11
95.74
 21
26.37
 31
0.0
100
AcDbText
  0
LINE
  5
109
330
17
100
AcDbEntity
  8
B-BEAM
370
50
100
AcDbLine
 10
81.79
 20
20.07
 30
0.0
 11
95.49
 21
20.07
 31
0.0
  0
TEXT
  5
10A
330
17
100
AcDbEntity
  8
B-TEXT
100
AcDbText
 10
83.0
 20
19.3
 30
0.0
 40
0.3
  1
EAVE GIRDER IPE 330 (2-span, carries T2 at x 87.2 / 92.5)
 11
83.0
 21
19.3
 31
0.0
100
AcDbText
  0
LINE
  5
10B
330
17
100
AcDbEntity
  8
B-BEAM
100
AcDbLine
 10
77.79
 20
20.07
 30
0.0
 11
81.79
 21
20.07
 31
0.0
  0
TEXT
  5
10C
330
17
100
AcDbEntity
  8
B-TEXT
100
AcDbText
 10
78.0
 20
19.3
 30
0.0
 40
0.25
  1
HEADER IPE 200
 11
78.0
 21
19.3
 31
0.0
100
AcDbText
  0
LINE
  5
10D
330
17
100
AcDbEntity
  8
B-BEAM
100
AcDbLine
 10
67.89
 20
35.5
 30
0.0
 11
95.69
 21
35.5
 31
0.0
  0
LINE
  5
10E
330
17
100
AcDbEntity
  8
B-BEAM
100
AcDbLine
 10
67.89
 20
15.87
 30
0.0
 11
77.89
 21
15.87
 31
0.0
  0
LINE
  5
10F
330
17
100
AcDbEntity
  8
B-BEAM
100
AcDbLine
 10
77.89
 20
20.07
 30
0.0
 11
95.69
 21
20.07
 31
0.0
  0
TEXT
  5
110
330
17
100
AcDbEntity
  8
B-TEXT
100
AcDbText
 10
69.0
 20
35.95
 30
0.0
 40
0.25
  1
EAVE STRUT SHS 100x100x4 (N and S eaves)
 11
69.0
 21
35.95
 31
0.0
100
AcDbText
  0
LINE
  5
111
330
17
100
AcDbEntity
  8
B-BEAM
370
50
100
AcDbLine
 10
77.785
 20
29.37
 30
0.0
 11
81.84
 21
29.37
 31
0.0
  0
LINE
  5
112
330
17
100
AcDbEntity
  8
B-BEAM
370
50
100
AcDbLine
 10
77.785
 20
35.37
 30
0.0
 11
81.84
 21
35.37
 31
0.0
  0
LINE
  5
113
330
17
100
AcDbEntity
  8
B-BEAM
370
50
100
AcDbLine
 10
77.785
 20
20.17
 30
0.0
 11
81.84
 21
20.17
 31
0.0
  0
LINE
  5
114
330
17
100
AcDbEntity
  8
B-BEAM
370
50
100
AcDbLine
 10
77.785
 20
24.16
 30
0.0
 11
81.84
 21
24.16
 31
0.0
  0
TEXT
  5
115
330
17
100
AcDbEntity
  8
B-TEXT
100
AcDbText
 10
82.1
 20
24.5
 30
0.0
 40
0.25
  1
TRIMMERS SHS 100x100x4 at N+S edges of openings (E/W edges = truss top chords)
 11
82.1
 21
24.5
 31
0.0
100
AcDbText
  0
LINE
  5
116
330
17
100
AcDbEntity
  8
B-BEAM
  6
DASHED
100
AcDbLine
 10
67.89
 20
20.7
 30
0.0
 11
77.785
 21
20.7
 31
0.0
  0
LINE
  5
117
330
17
100
AcDbEntity
  8
B-BEAM
  6
DASHED
100
AcDbLine
 10
81.84
 20
20.7
 30
0.0
 11
95.69
 21
20.7
 31
0.0
  0
LINE
  5
118
330
17
100
AcDbEntity
  8
B-BEAM
  6
DASHED
100
AcDbLine
 10
67.89
 20
25.5
 30
0.0
 11
95.69
 21
25.5
 31
0.0
  0
LINE
  5
119
330
17
100
AcDbEntity
  8
B-BEAM
  6
DASHED
100
AcDbLine
 10
67.89
 20
30.3
 30
0.0
 11
77.785
 21
30.3
 31
0.0
  0
LINE
  5
11A
330
17
100
AcDbEntity
  8
B-BEAM
  6
DASHED
100
AcDbLine
 10
81.84
 20
30.3
 30
0.0
 11
95.69
 21
30.3
 31
0.0
  0
TEXT
  5
11B
330
17
100
AcDbEntity
  8
B-TEXT
100
AcDbText
 10
68.2
 20
30.5
 30
0.0
 40
0.25
  1
BOTTOM-CHORD TIE SHS 60x60x4 @ ~4.8 m (stops at openings)
 11
68.2
 21
30.5
 31
0.0
100
AcDbText
  0
LINE
  5
11C
330
17
100
AcDbEntity
  8
B-BRACE-ROOF
100
AcDbLine
 10
67.99
 20
15.87
 30
0.0
 11
72.04
 21
20.7025
 31
0.0
  0
LINE
  5
11D
330
17
100
AcDbEntity
  8
B-BRACE-ROOF
100
AcDbLine
 10
72.04
 20
15.87
 30
0.0
 11
67.99
 21
20.7025
 31
0.0
  0
LINE
  5
11E
330
17
100
AcDbEntity
  8
B-BRACE-ROOF
100
AcDbLine
 10
67.99
 20
20.7025
 30
0.0
 11
72.04
 21
25.535000000000004
 31
0.0
  0
LINE
  5
11F
330
17
100
AcDbEntity
  8
B-BRACE-ROOF
100
AcDbLine
 10
72.04
 20
20.7025
 30
0.0
 11
67.99
 21
25.535000000000004
 31
0.0
  0
LINE
  5
120
330
17
100
AcDbEntity
  8
B-BRACE-ROOF
100
AcDbLine
 10
67.99
 20
25.535000000000004
 30
0.0
 11
72.04
 21
30.367500000000003
 31
0.0
  0
LINE
  5
121
330
17
100
AcDbEntity
  8
B-BRACE-ROOF
100
AcDbLine
 10
72.04
 20
25.535000000000004
 30
0.0
 11
67.99
 21
30.367500000000003
 31
0.0
  0
LINE
  5
122
330
17
100
AcDbEntity
  8
B-BRACE-ROOF
100
AcDbLine
 10
67.99
 20
30.367500000000003
 30
0.0
 11
72.04
 21
35.2
 31
0.0
  0
LINE
  5
123
330
17
100
AcDbEntity
  8
B-BRACE-ROOF
100
AcDbLine
 10
72.04
 20
30.367500000000003
 30
0.0
 11
67.99
 21
35.2
 31
0.0
  0
LINE
  5
124
330
17
100
AcDbEntity
  8
B-BRACE-ROOF
100
AcDbLine
 10
81.84
 20
20.07
 30
0.0
 11
87.19
 21
23.9775
 31
0.0
  0
LINE
  5
125
330
17
100
AcDbEntity
  8
B-BRACE-ROOF
100
AcDbLine
 10
87.19
 20
20.07
 30
0.0
 11
81.84
 21
23.9775
 31
0.0
  0
LINE
  5
126
330
17
100
AcDbEntity
  8
B-BRACE-ROOF
100
AcDbLine
 10
81.84
 20
23.9775
 30
0.0
 11
87.19
 21
27.885
 31
0.0
  0
LINE
  5
127
330
17
100
AcDbEntity
  8
B-BRACE-ROOF
100
AcDbLine
 10
87.19
 20
23.9775
 30
0.0
 11
81.84
 21
27.885
 31
0.0
  0
LINE
  5
128
330
17
100
AcDbEntity
  8
B-BRACE-ROOF
100
AcDbLine
 10
81.84
 20
27.885
 30
0.0
 11
87.19
 21
31.792500000000004
 31
0.0
  0
LINE
  5
129
330
17
100
AcDbEntity
  8
B-BRACE-ROOF
100
AcDbLine
 10
87.19
 20
27.885
 30
0.0
 11
81.84
 21
31.792500000000004
 31
0.0
  0
LINE
  5
12A
330
17
100
AcDbEntity
  8
B-BRACE-ROOF
100
AcDbLine
 10
81.84
 20
31.792500000000004
 30
0.0
 11
87.19
 21
35.7
 31
0.0
  0
LINE
  5
12B
330
17
100
AcDbEntity
  8
B-BRACE-ROOF
100
AcDbLine
 10
87.19
 20
31.792500000000004
 30
0.0
 11
81.84
 21
35.7
 31
0.0
  0
LINE
  5
12C
330
17
100
AcDbEntity
  8
B-BRACE-ROOF
100
AcDbLine
 10
92.48
 20
20.07
 30
0.0
 11
95.54
 21
23.9775
 31
0.0
  0
LINE
  5
12D
330
17
100
AcDbEntity
  8
B-BRACE-ROOF
100
AcDbLine
 10
95.54
 20
20.07
 30
0.0
 11
92.48
 21
23.9775
 31
0.0
  0
LINE
  5
12E
330
17
100
AcDbEntity
  8
B-BRACE-ROOF
100
AcDbLine
 10
92.48
 20
23.9775
 30
0.0
 11
95.54
 21
27.885
 31
0.0
  0
LINE
  5
12F
330
17
100
AcDbEntity
  8
B-BRACE-ROOF
100
AcDbLine
 10
95.54
 20
23.9775
 30
0.0
 11
92.48
 21
27.885
 31
0.0
  0
LINE
  5
130
330
17
100
AcDbEntity
  8
B-BRACE-ROOF
100
AcDbLine
 10
92.48
 20
27.885
 30
0.0
 11
95.54
 21
31.792500000000004
 31
0.0
  0
LINE
  5
131
330
17
100
AcDbEntity
  8
B-BRACE-ROOF
100
AcDbLine
 10
95.54
 20
27.885
 30
0.0
 11
92.48
 21
31.792500000000004
 31
0.0
  0
LINE
  5
132
330
17
100
AcDbEntity
  8
B-BRACE-ROOF
100
AcDbLine
 10
92.48
 20
31.792500000000004
 30
0.0
 11
95.54
 21
35.7
 31
0.0
  0
LINE
  5
133
330
17
100
AcDbEntity
  8
B-BRACE-ROOF
100
AcDbLine
 10
95.54
 20
31.792500000000004
 30
0.0
 11
92.48
 21
35.7
 31
0.0
  0
TEXT
  5
134
330
17
100
AcDbEntity
  8
B-TEXT
100
AcDbText
 10
68.2
 20
17.0
 30
0.0
 40
0.25
  1
ROOF X-BRACING L70x70x6 (bays 68.0-72.1, 81.8-87.2, 92.5-95.5)
 11
68.2
 21
17.0
 31
0.0
100
AcDbText
  0
LINE
  5
135
330
17
100
AcDbEntity
  8
B-BRACE-WALL
100
AcDbLine
 10
67.99
 20
35.17
 30
0.0
 11
72.09
 21
35.27
 31
0.0
  0
LINE
  5
136
330
17
100
AcDbEntity
  8
B-BRACE-WALL
100
AcDbLine
 10
92.48
 20
35.77
 30
0.0
 11
95.59
 21
35.67
 31
0.0
  0
LINE
  5
137
330
17
100
AcDbEntity
  8
B-BRACE-WALL
100
AcDbLine
 10
67.99
 20
15.87
 30
0.0
 11
71.99
 21
15.87
 31
0.0
  0
LINE
  5
138
330
17
100
AcDbEntity
  8
B-BRACE-WALL
100
AcDbLine
 10
88.88
 20
20.07
 30
0.0
 11
95.49
 21
20.07
 31
0.0
  0
LINE
  5
139
330
17
100
AcDbEntity
  8
B-BRACE-WALL
100
AcDbLine
 10
67.99
 20
15.87
 30
0.0
 11
67.99
 21
21.76
 31
0.0
  0
LINE
  5
13A
330
17
100
AcDbEntity
  8
B-BRACE-WALL
100
AcDbLine
 10
67.99
 20
29.37
 30
0.0
 11
67.99
 21
35.17
 31
0.0
  0
LINE
  5
13B
330
17
100
AcDbEntity
  8
B-BRACE-WALL
100
AcDbLine
 10
95.49
 20
20.07
 30
0.0
 11
95.59
 21
24.46
 31
0.0
  0
LINE
  5
13C
330
17
100
AcDbEntity
  8
B-BRACE-WALL
100
AcDbLine
 10
95.48
 20
29.27
 30
0.0
 11
95.59
 21
35.67
 31
0.0
  0
LINE
  5
13D
330
17
100
AcDbEntity
  8
B-TEXT
100
AcDbLine
 10
97.5
 20
22.0
 30
0.0
 11
97.5
 21
26.0
 31
0.0
  0
LWPOLYLINE
  5
13E
330
17
100
AcDbEntity
  8
B-TEXT
100
AcDbPolyline
 90
3
 70
1
 10
97.2
 20
25.2
 10
97.5
 20
26.0
 10
97.8
 20
25.2
  0
TEXT
  5
13F
330
17
100
AcDbEntity
  8
B-TEXT
100
AcDbText
 10
97.3
 20
26.3
 30
0.0
 40
0.4
  1
N
 11
97.3
 21
26.3
 31
0.0
100
AcDbText
  0
TEXT
  5
140
330
17
100
AcDbEntity
  8
B-TEXT
100
AcDbText
 10
97.7
 20
22.0
 30
0.0
 40
0.25
  1
ROOF FALLS NORTH 6% - ONE PLANE
 50
90.0
 11
97.7
 21
22.0
 31
0.0
100
AcDbText
  0
TEXT
  5
141
330
17
100
AcDbEntity
  8
B-TEXT
100
AcDbText
 10
67.9
 20
38.5
 30
0.0
 40
0.6
  1
SYSTEM B - LATTICE TRUSSES N-S ON PINNED SHS POSTS, ROOF FALLS NORTH 6%
 11
67.9
 21
38.5
 31
0.0
100
AcDbText
  0
TEXT
  5
142
330
17
100
AcDbEntity
  8
B-TEXT
100
AcDbText
 10
67.9
 20
37.6
 30
0.0
 40
0.35
  1
FRAMING PLAN - true coordinates (m) - REV 1: stair/elevator openings, single-plane slope
 11
67.9
 21
37.6
 31
0.0
100
AcDbText
  0
MTEXT
  5
143
330
17
100
AcDbEntity
  8
B-TEXT
100
AcDbMText
 10
98.0
 20
35.8
 30
0.0
 40
0.3
 41
12.0
 71
1
  3
NOTES - SYSTEM B (REV 1)\PRoof: ONE plane, 6% falling N. TOS(y) = 4.52 + 0.06 x (35.87 - y): TOS 4.52 m at N edge, 5.74 m at S edge; bottom chord underside 3.00 m (N) to 4.22 m (S).\PTrusses: parallel-chord Warren, depth 1.40 m c/c. T1 19.3 m (x 68.0
  3
/72.1/77.8), T2 15.6 m (x 81.8/87.2/92.5/95.5).\PChords SHS 120x120x5 all trusses; diagonals SHS 70x70x4 (S275J2H hot-finished, shop-welded K-joints, T1 site splice M20 8.8).\POpenings: stair x 77.89-81.79 / y 29.37-35.37 and elevator x 77.89-81.99 /
  3
 y 20.17-24.16 not roofed; trimmers SHS 100x100x4 on N+S edges, trusses x 77.8 / 81.8 on E/W edges; upstand + flashing; no purlin, tie or bracing crosses them.\PPosts SHS 150x150x5 on 19 of 27 columns, pinned bases: 300x300x20 plate, 40 mm grout, 4 M
  3
20 resin anchors 300 mm into column head.\PPurlins Z200x2.0 S350GD @ 1.5 m, sleeved. Eave girder IPE 330 (y 20.07, K21-K23), header IPE 200 at re-entrant corner.\PBracing: L70x70x6 tension-only X in 8 wall bays + 3 roof bays (top chord level); eave s
  3
truts SHS 100x100x4; BC ties SHS 60x60x4.\PLoads: g 0.50 (0.30 uplift), q 0.60, qp 1.32 kN/m2; ULS 1.58 kN/m2 down / 1.68 kN/m2 up. Post uplift ~88 kN governs anchors.\PSteel: ~14.9 t = ~33 kg/m2 over 446 m2 roofed (31 kg/m2 of 486 m2 footprint) + gi
  1
rts ~1.0 t.
  0
LINE
  5
144
330
17
100
AcDbEntity
  8
B-ELEV
100
AcDbLine
 10
66.0
 20
5.0
 30
0.0
 11
89.3
 21
5.0
 31
0.0
  0
TEXT
  5
145
330
17
100
AcDbEntity
  8
B-TEXT
100
AcDbText
 10
66.0
 20
4.5
 30
0.0
 40
0.25
  1
EXISTING SLAB (top) - RC columns 20x40 below posts
 11
66.0
 21
4.5
 31
0.0
100
AcDbText
  0
LINE
  5
146
330
17
100
AcDbEntity
  8
B-ELEV
370
50
100
AcDbLine
 10
68.0
 20
8.102
 30
0.0
 11
87.3
 21
9.26
 31
0.0
  0
LINE
  5
147
330
17
100
AcDbEntity
  8
B-ELEV
370
50
100
AcDbLine
 10
68.0
 20
9.502
 30
0.0
 11
87.3
 21
10.66
 31
0.0
  0
LINE
  5
148
330
17
100
AcDbEntity
  8
B-ELEV
370
35
100
AcDbLine
 10
68.0
 20
8.102
 30
0.0
 11
68.0
 21
9.502
 31
0.0
  0
LINE
  5
149
330
17
100
AcDbEntity
  8
B-ELEV
370
35
100
AcDbLine
 10
87.3
 20
9.26
 30
0.0
 11
87.3
 21
10.66
 31
0.0
  0
LINE
  5
14A
330
17
100
AcDbEntity
  8
B-ELEV
370
35
100
AcDbLine
 10
68.0
 20
8.102
 30
0.0
 11
69.60833333333333
 21
9.598500000000001
 31
0.0
  0
LINE
  5
14B
330
17
100
AcDbEntity
  8
B-ELEV
370
35
100
AcDbLine
 10
69.60833333333333
 20
9.598500000000001
 30
0.0
 11
71.21666666666667
 21
8.295
 31
0.0
  0
LINE
  5
14C
330
17
100
AcDbEntity
  8
B-ELEV
370
35
100
AcDbLine
 10
71.21666666666667
 20
8.295
 30
0.0
 11
72.825
 21
9.791500000000001
 31
0.0
  0
LINE
  5
14D
330
17
100
AcDbEntity
  8
B-ELEV
370
35
100
AcDbLine
 10
72.825
 20
9.791500000000001
 30
0.0
 11
74.43333333333334
 21
8.488000000000001
 31
0.0
  0
LINE
  5
14E
330
17
100
AcDbEntity
  8
B-ELEV
370
35
100
AcDbLine
 10
74.43333333333334
 20
8.488000000000001
 30
0.0
 11
76.04166666666667
 21
9.9845
 31
0.0
  0
LINE
  5
14F
330
17
100
AcDbEntity
  8
B-ELEV
370
35
100
AcDbLine
 10
76.04166666666667
 20
9.9845
 30
0.0
 11
77.65
 21
8.681
 31
0.0
  0
LINE
  5
150
330
17
100
AcDbEntity
  8
B-ELEV
370
35
100
AcDbLine
 10
77.65
 20
8.681
 30
0.0
 11
79.25833333333333
 21
10.1775
 31
0.0
  0
LINE
  5
151
330
17
100
AcDbEntity
  8
B-ELEV
370
35
100
AcDbLine
 10
79.25833333333333
 20
10.1775
 30
0.0
 11
80.86666666666667
 21
8.874
 31
0.0
  0
LINE
  5
152
330
17
100
AcDbEntity
  8
B-ELEV
370
35
100
AcDbLine
 10
80.86666666666667
 20
8.874
 30
0.0
 11
82.475
 21
10.3705
 31
0.0
  0
LINE
  5
153
330
17
100
AcDbEntity
  8
B-ELEV
370
35
100
AcDbLine
 10
82.475
 20
10.3705
 30
0.0
 11
84.08333333333333
 21
9.067
 31
0.0
  0
LINE
  5
154
330
17
100
AcDbEntity
  8
B-ELEV
370
35
100
AcDbLine
 10
84.08333333333333
 20
9.067
 30
0.0
 11
85.69166666666666
 21
10.563500000000001
 31
0.0
  0
LINE
  5
155
330
17
100
AcDbEntity
  8
B-ELEV
370
35
100
AcDbLine
 10
85.69166666666666
 20
10.563500000000001
 30
0.0
 11
87.3
 21
9.26
 31
0.0
  0
LWPOLYLINE
  5
156
330
17
100
AcDbEntity
  8
B-ELEV
100
AcDbPolyline
 90
4
 70
1
 10
67.925
 20
5.04
 10
68.075
 20
5.04
 10
68.075
 20
8.042
 10
67.925
 20
8.042
  0
LWPOLYLINE
  5
157
330
17
100
AcDbEntity
  8
B-ELEV
100
AcDbPolyline
 90
4
 70
1
 10
67.85
 20
5.0
 10
68.15
 20
5.0
 10
68.15
 20
5.04
 10
67.85
 20
5.04
  0
LWPOLYLINE
  5
158
330
17
100
AcDbEntity
  8
B-ELEV
  6
DASHED
100
AcDbPolyline
 90
4
 70
1
 10
67.8
 20
4.1
 10
68.2
 20
4.1
 10
68.2
 20
5.0
 10
67.8
 20
5.0
  0
LINE
  5
159
330
17
100
AcDbEntity
  8
B-ELEV
  6
DASHED
100
AcDbLine
 10
67.945
 20
5.04
 30
0.0
 11
67.945
 21
4.7
 31
0.0
  0
LINE
  5
15A
330
17
100
AcDbEntity
  8
B-ELEV
  6
DASHED
100
AcDbLine
 10
68.055
 20
5.04
 30
0.0
 11
68.055
 21
4.7
 31
0.0
  0
LWPOLYLINE
  5
15B
330
17
100
AcDbEntity
  8
B-ELEV
100
AcDbPolyline
 90
4
 70
1
 10
87.225
 20
5.04
 10
87.375
 20
5.04
 10
87.375
 20
9.2
 10
87.225
 20
9.2
  0
LWPOLYLINE
  5
15C
330
17
100
AcDbEntity
  8
B-ELEV
100
AcDbPolyline
 90
4
 70
1
 10
87.14999999999999
 20
5.0
 10
87.45
 20
5.0
 10
87.45
 20
5.04
 10
87.14999999999999
 20
5.04
  0
LWPOLYLINE
  5
15D
330
17
100
AcDbEntity
  8
B-ELEV
  6
DASHED
100
AcDbPolyline
 90
4
 70
1
 10
87.1
 20
4.1
 10
87.5
 20
4.1
 10
87.5
 20
5.0
 10
87.1
 20
5.0
  0
LINE
  5
15E
330
17
100
AcDbEntity
  8
B-ELEV
  6
DASHED
100
AcDbLine
 10
87.24499999999999
 20
5.04
 30
0.0
 11
87.24499999999999
 21
4.7
 31
0.0
  0
LINE
  5
15F
330
17
100
AcDbEntity
  8
B-ELEV
  6
DASHED
100
AcDbLine
 10
87.355
 20
5.04
 30
0.0
 11
87.355
 21
4.7
 31
0.0
  0
CIRCLE
  5
160
330
17
100
AcDbEntity
  8
B-ELEV
100
AcDbCircle
 10
68.12
 20
9.6692
 30
0.0
 40
0.1
  0
CIRCLE
  5
161
330
17
100
AcDbEntity
  8
B-ELEV
100
AcDbCircle
 10
69.62
 20
9.7592
 30
0.0
 40
0.1
  0
CIRCLE
  5
162
330
17
100
AcDbEntity
  8
B-ELEV
100
AcDbCircle
 10
71.12
 20
9.8492
 30
0.0
 40
0.1
  0
CIRCLE
  5
163
330
17
100
AcDbEntity
  8
B-ELEV
100
AcDbCircle
 10
72.62
 20
9.939200000000001
 30
0.0
 40
0.1
  0
CIRCLE
  5
164
330
17
100
AcDbEntity
  8
B-ELEV
100
AcDbCircle
 10
74.12
 20
10.029200000000001
 30
0.0
 40
0.1
  0
CIRCLE
  5
165
330
17
100
AcDbEntity
  8
B-ELEV
100
AcDbCircle
 10
75.62
 20
10.119200000000001
 30
0.0
 40
0.1
  0
CIRCLE
  5
166
330
17
100
AcDbEntity
  8
B-ELEV
100
AcDbCircle
 10
77.12
 20
10.209200000000001
 30
0.0
 40
0.1
  0
CIRCLE
  5
167
330
17
100
AcDbEntity
  8
B-ELEV
100
AcDbCircle
 10
78.62
 20
10.2992
 30
0.0
 40
0.1
  0
CIRCLE
  5
168
330
17
100
AcDbEntity
  8
B-ELEV
100
AcDbCircle
 10
80.12
 20
10.3892
 30
0.0
 40
0.1
  0
CIRCLE
  5
169
330
17
100
AcDbEntity
  8
B-ELEV
100
AcDbCircle
 10
81.62
 20
10.4792
 30
0.0
 40
0.1
  0
CIRCLE
  5
16A
330
17
100
AcDbEntity
  8
B-ELEV
100
AcDbCircle
 10
83.12
 20
10.5692
 30
0.0
 40
0.1
  0
CIRCLE
  5
16B
330
17
100
AcDbEntity
  8
B-ELEV
100
AcDbCircle
 10
84.62
 20
10.6592
 30
0.0
 40
0.1
  0
CIRCLE
  5
16C
330
17
100
AcDbEntity
  8
B-ELEV
100
AcDbCircle
 10
86.12
 20
10.749200000000002
 30
0.0
 40
0.1
  0
LINE
  5
16D
330
17
100
AcDbEntity
  8
B-ELEV
100
AcDbLine
 10
67.7
 20
9.794000000000002
 30
0.0
 11
87.6
 21
10.988000000000001
 31
0.0
  0
LINE
  5
16E
330
17
100
AcDbEntity
  8
B-ELEV
  6
DASHED
 62
1
100
AcDbLine
 10
77.65
 20
8.380999999999998
 30
0.0
 11
77.65
 21
10.381
 31
0.0
  0
TEXT
  5
16F
330
17
100
AcDbEntity
  8
B-TEXT
100
AcDbText
 10
77.80000000000001
 20
10.431
 30
0.0
 40
0.25
  1
SITE SPLICE (end plates, M20 8.8)
 11
77.80000000000001
 21
10.431
 31
0.0
100
AcDbText
  0
LINE
  5
170
330
17
100
AcDbEntity
  8
B-TEXT
100
AcDbLine
 10
68.0
 20
3.6
 30
0.0
 11
87.3
 21
3.6
 31
0.0
  0
LINE
  5
171
330
17
100
AcDbEntity
  8
B-TEXT
100
AcDbLine
 10
68.0
 20
3.4
 30
0.0
 11
68.0
 21
3.8000000000000003
 31
0.0
  0
LINE
  5
172
330
17
100
AcDbEntity
  8
B-TEXT
100
AcDbLine
 10
87.3
 20
3.4
 30
0.0
 11
87.3
 21
3.8000000000000003
 31
0.0
  0
TEXT
  5
173
330
17
100
AcDbEntity
  8
B-TEXT
100
AcDbText
 10
74.65
 20
3.7
 30
0.0
 40
0.3
  1
SPAN 19.3 m c/c posts - 6 panels x 3.22 m
 11
74.65
 21
3.7
 31
0.0
100
AcDbText
  0
LINE
  5
174
330
17
100
AcDbEntity
  8
B-TEXT
100
AcDbLine
 10
88.1
 20
9.26
 30
0.0
 11
88.1
 21
10.66
 31
0.0
  0
TEXT
  5
175
330
17
100
AcDbEntity
  8
B-TEXT
100
AcDbText
 10
88.25
 20
9.809999999999999
 30
0.0
 40
0.3
  1
d = 1.40 m c/c
 11
88.25
 21
9.809999999999999
 31
0.0
100
AcDbText
  0
LINE
  5
176
330
17
100
AcDbEntity
  8
B-TEXT
100
AcDbLine
 10
67.4
 20
5.0
 30
0.0
 11
67.4
 21
8.042
 31
0.0
  0
TEXT
  5
177
330
17
100
AcDbEntity
  8
B-TEXT
100
AcDbText
 10
67.1
 20
5.3
 30
0.0
 40
0.3
  1
3.04 m clear at N post (3.00 m at eave y 35.87)
 50
90.0
 11
67.1
 21
5.3
 31
0.0
100
AcDbText
  0
LINE
  5
178
330
17
100
AcDbEntity
  8
B-TEXT
100
AcDbLine
 10
88.5
 20
5.0
 30
0.0
 11
88.5
 21
9.2
 31
0.0
  0
TEXT
  5
179
330
17
100
AcDbEntity
  8
B-TEXT
100
AcDbText
 10
88.55
 20
5.8
 30
0.0
 40
0.3
  1
4.20 m clear at S post
 50
90.0
 11
88.55
 21
5.8
 31
0.0
100
AcDbText
  0
TEXT
  5
17A
330
17
100
AcDbEntity
  8
B-TEXT
100
AcDbText
 10
68.0
 20
12.26
 30
0.0
 40
0.4
  1
TYPICAL TRUSS ELEVATION T1 - span 19.3 m, lines x 68.0 / 72.1 / 77.8
 11
68.0
 21
12.26
 31
0.0
100
AcDbText
  0
TEXT
  5
17B
330
17
100
AcDbEntity
  8
B-TEXT
100
AcDbText
 10
68.0
 20
11.76
 30
0.0
 40
0.25
  1
chords SHS 120x120x5 | diagonals SHS 70x70x4 | Z200x2.0 purlins @ 1.5 m | slope 6% to NORTH (left), one plane: TOS = 4.52 + 0.06 x (35.87 - y)
 11
68.0
 21
11.76
 31
0.0
100
AcDbText
  0
TEXT
  5
17C
330
17
100
AcDbEntity
  8
B-TEXT
100
AcDbText
 10
68.3
 20
5.15
 30
0.0
 40
0.25
  1
POST SHS 150x150x5, pinned base 300x300x20, 40 mm grout, 4 M20 resin anchors into column head
 11
68.3
 21
5.15
 31
0.0
100
AcDbText
  0
TEXT
  5
17D
330
17
100
AcDbEntity
  8
B-TEXT
100
AcDbText
 10
67.7
 20
4.1
 30
0.0
 40
0.3
  1
NORTH
 11
67.7
 21
4.1
 31
0.0
100
AcDbText
  0
TEXT
  5
17E
330
17
100
AcDbEntity
  8
B-TEXT
100
AcDbText
 10
87.0
 20
4.1
 30
0.0
 40
0.3
  1
SOUTH
 11
87.0
 21
4.1
 31
0.0
100
AcDbText
  0
LINE
  5
17F
330
17
100
AcDbEntity
  8
B-ELEV
100
AcDbLine
 10
88.0
 20
5.0
 30
0.0
 11
107.6
 21
5.0
 31
0.0
  0
TEXT
  5
180
330
17
100
AcDbEntity
  8
B-TEXT
100
AcDbText
 10
88.0
 20
4.5
 30
0.0
 40
0.25
  1
EXISTING SLAB (top) - RC columns 20x40 below posts
 11
88.0
 21
4.5
 31
0.0
100
AcDbText
  0
LINE
  5
181
330
17
100
AcDbEntity
  8
B-ELEV
370
50
100
AcDbLine
 10
90.0
 20
8.072000000000001
 30
0.0
 11
105.6
 21
9.008000000000001
 31
0.0
  0
LINE
  5
182
330
17
100
AcDbEntity
  8
B-ELEV
370
50
100
AcDbLine
 10
90.0
 20
9.472000000000001
 30
0.0
 11
105.6
 21
10.408000000000001
 31
0.0
  0
LINE
  5
183
330
17
100
AcDbEntity
  8
B-ELEV
370
35
100
AcDbLine
 10
90.0
 20
8.072000000000001
 30
0.0
 11
90.0
 21
9.472000000000001
 31
0.0
  0
LINE
  5
184
330
17
100
AcDbEntity
  8
B-ELEV
370
35
100
AcDbLine
 10
105.6
 20
9.008000000000001
 30
0.0
 11
105.6
 21
10.408000000000001
 31
0.0
  0
LINE
  5
185
330
17
100
AcDbEntity
  8
B-ELEV
370
35
100
AcDbLine
 10
90.0
 20
8.072000000000001
 30
0.0
 11
91.56
 21
9.5656
 31
0.0
  0
LINE
  5
186
330
17
100
AcDbEntity
  8
B-ELEV
370
35
100
AcDbLine
 10
91.56
 20
9.5656
 30
0.0
 11
93.12
 21
8.2592
 31
0.0
  0
LINE
  5
187
330
17
100
AcDbEntity
  8
B-ELEV
370
35
100
AcDbLine
 10
93.12
 20
8.2592
 30
0.0
 11
94.68
 21
9.7528
 31
0.0
  0
LINE
  5
188
330
17
100
AcDbEntity
  8
B-ELEV
370
35
100
AcDbLine
 10
94.68
 20
9.7528
 30
0.0
 11
96.24
 21
8.4464
 31
0.0
  0
LINE
  5
189
330
17
100
AcDbEntity
  8
B-ELEV
370
35
100
AcDbLine
 10
96.24
 20
8.4464
 30
0.0
 11
97.8
 21
9.940000000000001
 31
0.0
  0
LINE
  5
18A
330
17
100
AcDbEntity
  8
B-ELEV
370
35
100
AcDbLine
 10
97.8
 20
9.940000000000001
 30
0.0
 11
99.36
 21
8.6336
 31
0.0
  0
LINE
  5
18B
330
17
100
AcDbEntity
  8
B-ELEV
370
35
100
AcDbLine
 10
99.36
 20
8.6336
 30
0.0
 11
100.92
 21
10.1272
 31
0.0
  0
LINE
  5
18C
330
17
100
AcDbEntity
  8
B-ELEV
370
35
100
AcDbLine
 10
100.92
 20
10.1272
 30
0.0
 11
102.48
 21
8.8208
 31
0.0
  0
LINE
  5
18D
330
17
100
AcDbEntity
  8
B-ELEV
370
35
100
AcDbLine
 10
102.48
 20
8.8208
 30
0.0
 11
104.03999999999999
 21
10.314400000000001
 31
0.0
  0
LINE
  5
18E
330
17
100
AcDbEntity
  8
B-ELEV
370
35
100
AcDbLine
 10
104.03999999999999
 20
10.314400000000001
 30
0.0
 11
105.6
 21
9.008000000000001
 31
0.0
  0
LWPOLYLINE
  5
18F
330
17
100
AcDbEntity
  8
B-ELEV
100
AcDbPolyline
 90
4
 70
1
 10
89.925
 20
5.04
 10
90.075
 20
5.04
 10
90.075
 20
8.012
 10
89.925
 20
8.012
  0
LWPOLYLINE
  5
190
330
17
100
AcDbEntity
  8
B-ELEV
100
AcDbPolyline
 90
4
 70
1
 10
89.85
 20
5.0
 10
90.15
 20
5.0
 10
90.15
 20
5.04
 10
89.85
 20
5.04
  0
LWPOLYLINE
  5
191
330
17
100
AcDbEntity
  8
B-ELEV
  6
DASHED
100
AcDbPolyline
 90
4
 70
1
 10
89.8
 20
4.1
 10
90.2
 20
4.1
 10
90.2
 20
5.0
 10
89.8
 20
5.0
  0
LINE
  5
192
330
17
100
AcDbEntity
  8
B-ELEV
  6
DASHED
100
AcDbLine
 10
89.945
 20
5.04
 30
0.0
 11
89.945
 21
4.7
 31
0.0
  0
LINE
  5
193
330
17
100
AcDbEntity
  8
B-ELEV
  6
DASHED
100
AcDbLine
 10
90.055
 20
5.04
 30
0.0
 11
90.055
 21
4.7
 31
0.0
  0
LWPOLYLINE
  5
194
330
17
100
AcDbEntity
  8
B-ELEV
100
AcDbPolyline
 90
4
 70
1
 10
105.52499999999999
 20
5.04
 10
105.675
 20
5.04
 10
105.675
 20
8.948
 10
105.52499999999999
 20
8.948
  0
LWPOLYLINE
  5
195
330
17
100
AcDbEntity
  8
B-ELEV
100
AcDbPolyline
 90
4
 70
1
 10
105.44999999999999
 20
5.0
 10
105.75
 20
5.0
 10
105.75
 20
5.04
 10
105.44999999999999
 20
5.04
  0
LWPOLYLINE
  5
196
330
17
100
AcDbEntity
  8
B-ELEV
  6
DASHED
100
AcDbPolyline
 90
4
 70
1
 10
105.39999999999999
 20
4.1
 10
105.8
 20
4.1
 10
105.8
 20
5.0
 10
105.39999999999999
 20
5.0
  0
LINE
  5
197
330
17
100
AcDbEntity
  8
B-ELEV
  6
DASHED
100
AcDbLine
 10
105.54499999999999
 20
5.04
 30
0.0
 11
105.54499999999999
 21
4.7
 31
0.0
  0
LINE
  5
198
330
17
100
AcDbEntity
  8
B-ELEV
  6
DASHED
100
AcDbLine
 10
105.655
 20
5.04
 30
0.0
 11
105.655
 21
4.7
 31
0.0
  0
CIRCLE
  5
199
330
17
100
AcDbEntity
  8
B-ELEV
100
AcDbCircle
 10
90.12
 20
9.6392
 30
0.0
 40
0.1
  0
CIRCLE
  5
19A
330
17
100
AcDbEntity
  8
B-ELEV
100
AcDbCircle
 10
91.62
 20
9.7292
 30
0.0
 40
0.1
  0
CIRCLE
  5
19B
330
17
100
AcDbEntity
  8
B-ELEV
100
AcDbCircle
 10
93.12
 20
9.8192
 30
0.0
 40
0.1
  0
CIRCLE
  5
19C
330
17
100
AcDbEntity
  8
B-ELEV
100
AcDbCircle
 10
94.62
 20
9.9092
 30
0.0
 40
0.1
  0
CIRCLE
  5
19D
330
17
100
AcDbEntity
  8
B-ELEV
100
AcDbCircle
 10
96.12
 20
9.999200000000002
 30
0.0
 40
0.1
  0
CIRCLE
  5
19E
330
17
100
AcDbEntity
  8
B-ELEV
100
AcDbCircle
 10
97.62
 20
10.089200000000002
 30
0.0
 40
0.1
  0
CIRCLE
  5
19F
330
17
100
AcDbEntity
  8
B-ELEV
100
AcDbCircle
 10
99.12
 20
10.179200000000002
 30
0.0
 40
0.1
  0
CIRCLE
  5
1A0
330
17
100
AcDbEntity
  8
B-ELEV
100
AcDbCircle
 10
100.62
 20
10.269200000000001
 30
0.0
 40
0.1
  0
CIRCLE
  5
1A1
330
17
100
AcDbEntity
  8
B-ELEV
100
AcDbCircle
 10
102.12
 20
10.359200000000001
 30
0.0
 40
0.1
  0
CIRCLE
  5
1A2
330
17
100
AcDbEntity
  8
B-ELEV
100
AcDbCircle
 10
103.62
 20
10.449200000000001
 30
0.0
 40
0.1
  0
CIRCLE
  5
1A3
330
17
100
AcDbEntity
  8
B-ELEV
100
AcDbCircle
 10
105.12
 20
10.539200000000001
 30
0.0
 40
0.1
  0
LINE
  5
1A4
330
17
100
AcDbEntity
  8
B-ELEV
100
AcDbLine
 10
89.7
 20
9.764000000000001
 30
0.0
 11
105.89999999999999
 21
10.736
 31
0.0
  0
LINE
  5
1A5
330
17
100
AcDbEntity
  8
B-TEXT
100
AcDbLine
 10
90.0
 20
3.6
 30
0.0
 11
105.6
 21
3.6
 31
0.0
  0
LINE
  5
1A6
330
17
100
AcDbEntity
  8
B-TEXT
100
AcDbLine
 10
90.0
 20
3.4
 30
0.0
 11
90.0
 21
3.8000000000000003
 31
0.0
  0
LINE
  5
1A7
330
17
100
AcDbEntity
  8
B-TEXT
100
AcDbLine
 10
105.6
 20
3.4
 30
0.0
 11
105.6
 21
3.8000000000000003
 31
0.0
  0
TEXT
  5
1A8
330
17
100
AcDbEntity
  8
B-TEXT
100
AcDbText
 10
94.8
 20
3.7
 30
0.0
 40
0.3
  1
SPAN 15.6 m c/c posts - 5 panels x 3.12 m
 11
94.8
 21
3.7
 31
0.0
100
AcDbText
  0
LINE
  5
1A9
330
17
100
AcDbEntity
  8
B-TEXT
100
AcDbLine
 10
106.39999999999999
 20
9.008000000000001
 30
0.0
 11
106.39999999999999
 21
10.408000000000001
 31
0.0
  0
TEXT
  5
1AA
330
17
100
AcDbEntity
  8
B-TEXT
100
AcDbText
 10
106.55
 20
9.558
 30
0.0
 40
0.3
  1
d = 1.40 m c/c
 11
106.55
 21
9.558
 31
0.0
100
AcDbText
  0
LINE
  5
1AB
330
17
100
AcDbEntity
  8
B-TEXT
100
AcDbLine
 10
89.4
 20
5.0
 30
0.0
 11
89.4
 21
8.012
 31
0.0
  0
TEXT
  5
1AC
330
17
100
AcDbEntity
  8
B-TEXT
100
AcDbText
 10
89.1
 20
5.3
 30
0.0
 40
0.3
  1
3.01 m clear at N post (3.00 m at eave y 35.87)
 50
90.0
 11
89.1
 21
5.3
 31
0.0
100
AcDbText
  0
LINE
  5
1AD
330
17
100
AcDbEntity
  8
B-TEXT
100
AcDbLine
 10
106.8
 20
5.0
 30
0.0
 11
106.8
 21
8.948
 31
0.0
  0
TEXT
  5
1AE
330
17
100
AcDbEntity
  8
B-TEXT
100
AcDbText
 10
106.85
 20
5.8
 30
0.0
 40
0.3
  1
3.95 m clear at S post
 50
90.0
 11
106.85
 21
5.8
 31
0.0
100
AcDbText
  0
TEXT
  5
1AF
330
17
100
AcDbEntity
  8
B-TEXT
100
AcDbText
 10
90.0
 20
12.008000000000001
 30
0.0
 40
0.4
  1
TYPICAL TRUSS ELEVATION T2 - span 15.6 m, lines x 81.8 / 87.2 / 92.5 / 95.5
 11
90.0
 21
12.008000000000001
 31
0.0
100
AcDbText
  0
TEXT
  5
1B0
330
17
100
AcDbEntity
  8
B-TEXT
100
AcDbText
 10
90.0
 20
11.508000000000001
 30
0.0
 40
0.25
  1
chords SHS 120x120x5 | diagonals SHS 70x70x4 | Z200x2.0 purlins @ 1.5 m | slope 6% to NORTH (left), one plane: TOS = 4.52 + 0.06 x (35.87 - y)
 11
90.0
 21
11.508000000000001
 31
0.0
100
AcDbText
  0
TEXT
  5
1B1
330
17
100
AcDbEntity
  8
B-TEXT
100
AcDbText
 10
90.3
 20
5.15
 30
0.0
 40
0.25
  1
POST SHS 150x150x5, pinned base 300x300x20, 40 mm grout, 4 M20 resin anchors into column head
 11
90.3
 21
5.15
 31
0.0
100
AcDbText
  0
TEXT
  5
1B2
330
17
100
AcDbEntity
  8
B-TEXT
100
AcDbText
 10
89.7
 20
4.1
 30
0.0
 40
0.3
  1
NORTH
 11
89.7
 21
4.1
 31
0.0
100
AcDbText
  0
TEXT
  5
1B3
330
17
100
AcDbEntity
  8
B-TEXT
100
AcDbText
 10
105.3
 20
4.1
 30
0.0
 40
0.3
  1
SOUTH
 11
105.3
 21
4.1
 31
0.0
100
AcDbText
  0
ENDSEC
  0
SECTION
  2
OBJECTS
  0
DICTIONARY
  5
A
330
0
100
AcDbDictionary
281
1
  3
ACAD_COLOR
350
B
  3
ACAD_GROUP
350
C
  3
ACAD_LAYOUT
350
D
  3
ACAD_MATERIAL
350
E
  3
ACAD_MLEADERSTYLE
350
F
  3
ACAD_MLINESTYLE
350
10
  3
ACAD_PLOTSETTINGS
350
11
  3
ACAD_PLOTSTYLENAME
350
12
  3
ACAD_SCALELIST
350
14
  3
ACAD_TABLESTYLE
350
15
  3
ACAD_VISUALSTYLE
350
16
  3
EZDXF_META
350
2D
  0
DICTIONARY
  5
B
330
A
100
AcDbDictionary
281
1
  0
DICTIONARY
  5
C
330
A
100
AcDbDictionary
281
1
  0
DICTIONARY
  5
D
330
A
100
AcDbDictionary
281
1
  3
Model
350
1A
  3
Layout1
350
1E
  0
DICTIONARY
  5
E
330
A
100
AcDbDictionary
281
1
  3
ByBlock
350
1F
  3
ByLayer
350
20
  3
Global
350
21
  0
DICTIONARY
  5
F
330
A
100
AcDbDictionary
281
1
  3
Standard
350
2C
  0
DICTIONARY
  5
10
330
A
100
AcDbDictionary
281
1
  3
Standard
350
22
  0
DICTIONARY
  5
11
330
A
100
AcDbDictionary
281
1
  0
ACDBDICTIONARYWDFLT
  5
12
330
A
100
AcDbDictionary
281
1
  3
Normal
350
13
100
AcDbDictionaryWithDefault
340
13
  0
ACDBPLACEHOLDER
  5
13
330
12
  0
DICTIONARY
  5
14
330
A
100
AcDbDictionary
281
1
  0
DICTIONARY
  5
15
330
A
100
AcDbDictionary
281
1
  0
DICTIONARY
  5
16
330
A
100
AcDbDictionary
281
1
  3
2dWireframe
350
5A
  3
Basic
350
5B
  3
Brighten
350
5C
  3
ColorChange
350
5D
  3
Conceptual
350
5E
  3
Dim
350
5F
  3
EdgeColorOff
350
60
  3
Facepattern
350
61
  3
Flat
350
62
  3
FlatWithEdges
350
63
  3
Gouraud
350
64
  3
GouraudWithEdges
350
65
  3
Hidden
350
66
  3
JitterOff
350
67
  3
Linepattern
350
68
  3
Modeling
350
69
  3
OverhangOff
350
6A
  3
Realistic
350
6B
  3
Shaded
350
6C
  3
Shaded with edges
350
6D
  3
Shades of Gray
350
6E
  3
Sketchy
350
6F
  3
Thicken
350
70
  3
Wireframe
350
71
  3
X-Ray
350
72
  0
LAYOUT
  5
1A
330
D
100
AcDbPlotSettings
  1

  4
A3
  6

 40
7.5
 41
20.0
 42
7.5
 43
20.0
 44
420.0
 45
297.0
 46
0.0
 47
0.0
 48
0.0
 49
0.0
140
0.0
141
0.0
142
1.0
143
1.0
 70
1024
 72
1
 73
0
 74
5
  7

 75
16
 76
0
 77
2
 78
300
147
1.0
148
0.0
149
0.0
100
AcDbLayout
  1
Model
 70
1
 71
0
 10
0.0
 20
0.0
 11
420.0
 21
297.0
 12
0.0
 22
0.0
 32
0.0
 14
1e+20
 24
1e+20
 34
1e+20
 15
-1e+20
 25
-1e+20
 35
-1e+20
146
0.0
 13
0.0
 23
0.0
 33
0.0
 16
1.0
 26
0.0
 36
0.0
 17
0.0
 27
1.0
 37
0.0
 76
1
330
17
  0
LAYOUT
  5
1E
330
D
100
AcDbPlotSettings
  1

  4
A3
  6

 40
7.5
 41
20.0
 42
7.5
 43
20.0
 44
420.0
 45
297.0
 46
0.0
 47
0.0
 48
0.0
 49
0.0
140
0.0
141
0.0
142
1.0
143
1.0
 70
0
 72
1
 73
0
 74
5
  7

 75
16
 76
0
 77
2
 78
300
147
1.0
148
0.0
149
0.0
100
AcDbLayout
  1
Layout1
 70
1
 71
1
 10
0.0
 20
0.0
 11
420.0
 21
297.0
 12
0.0
 22
0.0
 32
0.0
 14
1e+20
 24
1e+20
 34
1e+20
 15
-1e+20
 25
-1e+20
 35
-1e+20
146
0.0
 13
0.0
 23
0.0
 33
0.0
 16
1.0
 26
0.0
 36
0.0
 17
0.0
 27
1.0
 37
0.0
 76
1
330
1B
  0
MATERIAL
  5
1F
102
{ACAD_REACTORS
330
E
102
}
330
E
100
AcDbMaterial
  1
ByBlock
  2

 70
0
 40
1.0
 71
1
 41
1.0
 91
-1023410177
 42
1.0
 72
1
  3

 73
1
 74
1
 75
1
 44
0.5
 73
0
 45
1.0
 46
1.0
 77
1
  4

 78
1
 79
1
170
1
 48
1.0
171
1
  6

172
1
173
1
174
1
140
1.0
141
1.0
175
1
  7

176
1
177
1
178
1
143
1.0
179
1
  8

270
1
271
1
272
1
145
1.0
146
1.0
273
1
  9

274
1
275
1
276
1
 42
1.0
 72
1
  3

 73
1
 74
1
 75
1
 94
63
  0
MATERIAL
  5
20
102
{ACAD_REACTORS
330
E
102
}
330
E
100
AcDbMaterial
  1
ByLayer
  2

 70
0
 40
1.0
 71
1
 41
1.0
 91
-1023410177
 42
1.0
 72
1
  3

 73
1
 74
1
 75
1
 44
0.5
 73
0
 45
1.0
 46
1.0
 77
1
  4

 78
1
 79
1
170
1
 48
1.0
171
1
  6

172
1
173
1
174
1
140
1.0
141
1.0
175
1
  7

176
1
177
1
178
1
143
1.0
179
1
  8

270
1
271
1
272
1
145
1.0
146
1.0
273
1
  9

274
1
275
1
276
1
 42
1.0
 72
1
  3

 73
1
 74
1
 75
1
 94
63
  0
MATERIAL
  5
21
102
{ACAD_REACTORS
330
E
102
}
330
E
100
AcDbMaterial
  1
Global
  2

 70
0
 40
1.0
 71
1
 41
1.0
 91
-1023410177
 42
1.0
 72
1
  3

 73
1
 74
1
 75
1
 44
0.5
 73
0
 45
1.0
 46
1.0
 77
1
  4

 78
1
 79
1
170
1
 48
1.0
171
1
  6

172
1
173
1
174
1
140
1.0
141
1.0
175
1
  7

176
1
177
1
178
1
143
1.0
179
1
  8

270
1
271
1
272
1
145
1.0
146
1.0
273
1
  9

274
1
275
1
276
1
 42
1.0
 72
1
  3

 73
1
 74
1
 75
1
 94
63
  0
MLINESTYLE
  5
22
102
{ACAD_REACTORS
330
10
102
}
330
10
100
AcDbMlineStyle
  2
Standard
 70
0
  3

 62
256
 51
90.0
 52
90.0
 71
2
 49
0.5
 62
256
  6
BYLAYER
 49
-0.5
 62
256
  6
BYLAYER
  0
MLEADERSTYLE
  5
2C
102
{ACAD_REACTORS
330
F
102
}
330
F
100
AcDbMLeaderStyle
179
2
170
2
171
1
172
0
 90
2
 40
0.0
 41
0.0
173
1
 91
-1056964608
 92
-2
290
1
 42
2.0
291
1
 43
8.0
  3
Standard
 44
4.0
300

342
29
174
1
175
1
176
0
178
1
 93
-1056964608
 45
4.0
292
0
297
0
 46
4.0
 94
-1056964608
 47
1.0
 49
1.0
140
1.0
294
1
141
0.0
177
0
142
1.0
295
0
296
0
143
3.75
271
0
272
9
273
9
  0
DICTIONARY
  5
2D
330
A
100
AcDbDictionary
280
1
281
1
  3
CREATED_BY_EZDXF
350
2E
  3
WRITTEN_BY_EZDXF
350
1B6
  0
DICTIONARYVAR
  5
2E
330
2D
100
DictionaryVariables
280
0
  1
1.4.4 @ 2026-09-27T20:30:32.700978+00:00
  0
VISUALSTYLE
  5
5A
102
{ACAD_REACTORS
330
16
102
}
330
16
100
AcDbVisualStyle
  2
2dWireframe
 70
4
177
3
291
0
 70
58
 90
2
176
1
 90
2
176
1
 90
0
176
1
 90
0
176
1
 40
0.6
176
1
 40
30.0
176
1
 62
7
420
16777215
176
1
 90
1
176
1
 90
4
176
1
 62
7
176
1
 62
257
176
1
 90
1
176
1
 90
1
176
1
 40
1.0
176
1
 90
8
176
1
 62
7
176
1
 40
1.0
176
1
 90
1
176
1
 90
6
176
1
 90
2
176
1
 62
7
176
1
 90
5
176
1
 90
0
176
1
 90
0
176
1
290
0
176
1
 90
1
176
1
 40
0.0
176
1
 90
0
176
1
290
1
176
1
290
1
176
1
290
0
176
1
290
0
176
1
290
0
176
1
290
0
176
1
290
0
176
1
290
0
176
1
290
0
176
1
 90
50
176
1
 40
0.0
176
1
 40
1.0
176
1
 90
0
176
1
 62
18
420
0
176
1
 90
50
176
1
 90
3
176
1
 62
5
420
255
176
1
290
0
176
1
 90
50
176
1
 90
50
176
1
 90
50
176
1
290
0
176
1
 90
50
176
1
 62
256
176
0
 40
1.0
176
0
 90
2
176
1
  1
strokes_ogs.tif
176
1
290
0
176
1
 40
1.0
176
1
 40
1.0
176
1
  0
VISUALSTYLE
  5
5B
102
{ACAD_REACTORS
330
16
102
}
330
16
100
AcDbVisualStyle
  2
Basic
 70
7
177
3
291
1
 70
58
 90
2
176
1
 90
2
176
1
 90
0
176
1
 90
1
176
1
 40
0.6
176
1
 40
30.0
176
1
 62
7
420
16777215
176
1
 90
1
176
1
 90
4
176
1
 62
7
176
1
 62
257
176
1
 90
1
176
1
 90
1
176
1
 40
1.0
176
1
 90
8
176
1
 62
7
176
1
 40
1.0
176
1
 90
1
176
1
 90
6
176
1
 90
2
176
1
 62
7
176
1
 90
5
176
1
 90
0
176
1
 90
0
176
1
290
0
176
1
 90
1
176
1
 40
0.0
176
1
 90
0
176
1
290
0
176
1
290
1
176
1
290
1
176
1
290
0
176
1
290
0
176
1
290
0
176
1
290
0
176
1
290
0
176
1
290
0
176
1
 90
50
176
1
 40
0.0
176
1
 40
1.0
176
1
 90
0
176
1
 62
18
420
0
176
1
 90
50
176
1
 90
3
176
1
 62
5
420
255
176
1
290
0
176
1
 90
50
176
1
 90
50
176
1
 90
50
176
1
290
0
176
1
 90
50
176
1
 62
256
176
0
 40
1.0
176
0
 90
2
176
1
  1
strokes_ogs.tif
176
1
290
0
176
1
 40
1.0
176
1
 40
1.0
176
1
  0
VISUALSTYLE
  5
5C
102
{ACAD_REACTORS
330
16
102
}
330
16
100
AcDbVisualStyle
  2
Brighten
 70
12
177
3
291
1
 70
58
 90
2
176
1
 90
2
176
1
 90
0
176
1
 90
2
176
1
 40
0.6
176
1
 40
30.0
176
1
 62
7
420
16777215
176
1
 90
1
176
1
 90
4
176
1
 62
7
176
1
 62
257
176
1
 90
1
176
1
 90
1
176
1
 40
1.0
176
1
 90
8
176
1
 62
7
176
1
 40
1.0
176
1
 90
1
176
1
 90
6
176
1
 90
2
176
1
 62
7
176
1
 90
5
176
1
 90
0
176
1
 90
0
176
1
290
0
176
1
 90
1
176
1
 40
0.0
176
1
 90
0
176
1
290
0
176
1
290
1
176
1
290
1
176
1
290
0
176
1
290
0
176
1
290
0
176
1
290
0
176
1
290
0
176
1
290
0
176
1
 90
50
176
1
 40
0.0
176
1
 40
1.0
176
1
 90
0
176
1
 62
18
420
0
176
1
 90
50
176
1
 90
3
176
1
 62
5
420
255
176
1
290
0
176
1
 90
50
176
1
 90
50
176
1
 90
50
176
1
290
0
176
1
 90
50
176
1
 62
256
176
0
 40
1.0
176
0
 90
2
176
1
  1
strokes_ogs.tif
176
1
290
0
176
1
 40
1.0
176
1
 40
1.0
176
1
  0
VISUALSTYLE
  5
5D
102
{ACAD_REACTORS
330
16
102
}
330
16
100
AcDbVisualStyle
  2
ColorChange
 70
16
177
3
291
1
 70
58
 90
2
176
1
 90
2
176
1
 90
0
176
1
 90
2
176
1
 40
0.6
176
1
 40
30.0
176
1
 62
7
420
16777215
176
1
 90
1
176
1
 90
4
176
1
 62
7
176
1
 62
257
176
1
 90
1
176
1
 90
1
176
1
 40
1.0
176
1
 90
8
176
1
 62
7
176
1
 40
1.0
176
1
 90
1
176
1
 90
6
176
1
 90
2
176
1
 62
7
176
1
 90
5
176
1
 90
0
176
1
 90
0
176
1
290
0
176
1
 90
1
176
1
 40
0.0
176
1
 90
0
176
1
290
0
176
1
290
1
176
1
290
1
176
1
290
0
176
1
290
0
176
1
290
0
176
1
290
0
176
1
290
0
176
1
290
0
176
1
 90
50
176
1
 40
0.0
176
1
 40
1.0
176
1
 90
0
176
1
 62
18
420
0
176
1
 90
50
176
1
 90
3
176
1
 62
5
420
255
176
1
290
0
176
1
 90
50
176
1
 90
50
176
1
 90
50
176
1
290
0
176
1
 90
50
176
1
 62
256
176
0
 40
1.0
176
0
 90
2
176
1
  1
strokes_ogs.tif
176
1
290
0
176
1
 40
1.0
176
1
 40
1.0
176
1
  0
VISUALSTYLE
  5
5E
102
{ACAD_REACTORS
330
16
102
}
330
16
100
AcDbVisualStyle
  2
Conceptual
 70
9
177
3
291
0
 70
58
 90
2
176
1
 90
2
176
1
 90
0
176
1
 90
3
176
1
 40
0.6
176
1
 40
30.0
176
1
 62
7
420
16777215
176
1
 90
1
176
1
 90
4
176
1
 62
7
176
1
 62
257
176
1
 90
1
176
1
 90
1
176
1
 40
1.0
176
1
 90
8
176
1
 62
7
176
1
 40
1.0
176
1
 90
1
176
1
 90
6
176
1
 90
2
176
1
 62
7
176
1
 90
5
176
1
 90
0
176
1
 90
0
176
1
290
0
176
1
 90
1
176
1
 40
0.0
176
1
 90
0
176
1
290
0
176
1
290
1
176
1
290
1
176
1
290
0
176
1
290
0
176
1
290
0
176
1
290
0
176
1
290
0
176
1
290
0
176
1
 90
50
176
1
 40
0.0
176
1
 40
1.0
176
1
 90
0
176
1
 62
18
420
0
176
1
 90
50
176
1
 90
3
176
1
 62
5
420
255
176
1
290
0
176
1
 90
50
176
1
 90
50
176
1
 90
50
176
1
290
0
176
1
 90
50
176
1
 62
256
176
0
 40
1.0
176
0
 90
2
176
1
  1
strokes_ogs.tif
176
1
290
0
176
1
 40
1.0
176
1
 40
1.0
176
1
  0
VISUALSTYLE
  5
5F
102
{ACAD_REACTORS
330
16
102
}
330
16
100
AcDbVisualStyle
  2
Dim
 70
11
177
3
291
1
 70
58
 90
2
176
1
 90
2
176
1
 90
0
176
1
 90
2
176
1
 40
0.6
176
1
 40
30.0
176
1
 62
7
420
16777215
176
1
 90
1
176
1
 90
4
176
1
 62
7
176
1
 62
257
176
1
 90
1
176
1
 90
1
176
1
 40
1.0
176
1
 90
8
176
1
 62
7
176
1
 40
1.0
176
1
 90
1
176
1
 90
6
176
1
 90
2
176
1
 62
7
176
1
 90
5
176
1
 90
0
176
1
 90
0
176
1
290
0
176
1
 90
1
176
1
 40
0.0
176
1
 90
0
176
1
290
0
176
1
290
1
176
1
290
1
176
1
290
0
176
1
290
0
176
1
290
0
176
1
290
0
176
1
290
0
176
1
290
0
176
1
 90
50
176
1
 40
0.0
176
1
 40
1.0
176
1
 90
0
176
1
 62
18
420
0
176
1
 90
50
176
1
 90
3
176
1
 62
5
420
255
176
1
290
0
176
1
 90
50
176
1
 90
50
176
1
 90
50
176
1
290
0
176
1
 90
50
176
1
 62
256
176
0
 40
1.0
176
0
 90
2
176
1
  1
strokes_ogs.tif
176
1
290
0
176
1
 40
1.0
176
1
 40
1.0
176
1
  0
VISUALSTYLE
  5
60
102
{ACAD_REACTORS
330
16
102
}
330
16
100
AcDbVisualStyle
  2
EdgeColorOff
 70
22
177
3
291
1
 70
58
 90
2
176
1
 90
2
176
1
 90
0
176
1
 90
2
176
1
 40
0.6
176
1
 40
30.0
176
1
 62
7
420
16777215
176
1
 90
1
176
1
 90
4
176
1
 62
7
176
1
 62
257
176
1
 90
1
176
1
 90
1
176
1
 40
1.0
176
1
 90
8
176
1
 62
7
176
1
 40
1.0
176
1
 90
1
176
1
 90
6
176
1
 90
2
176
1
 62
7
176
1
 90
5
176
1
 90
0
176
1
 90
0
176
1
290
0
176
1
 90
1
176
1
 40
0.0
176
1
 90
0
176
1
290
0
176
1
290
1
176
1
290
1
176
1
290
0
176
1
290
0
176
1
290
0
176
1
290
0
176
1
290
0
176
1
290
0
176
1
 90
50
176
1
 40
0.0
176
1
 40
1.0
176
1
 90
0
176
1
 62
18
420
0
176
1
 90
50
176
1
 90
3
176
1
 62
5
420
255
176
1
290
0
176
1
 90
50
176
1
 90
50
176
1
 90
50
176
1
290
0
176
1
 90
50
176
1
 62
256
176
0
 40
1.0
176
0
 90
2
176
1
  1
strokes_ogs.tif
176
1
290
0
176
1
 40
1.0
176
1
 40
1.0
176
1
  0
VISUALSTYLE
  5
61
102
{ACAD_REACTORS
330
16
102
}
330
16
100
AcDbVisualStyle
  2
Facepattern
 70
15
177
3
291
1
 70
58
 90
2
176
1
 90
2
176
1
 90
0
176
1
 90
2
176
1
 40
0.6
176
1
 40
30.0
176
1
 62
7
420
16777215
176
1
 90
1
176
1
 90
4
176
1
 62
7
176
1
 62
257
176
1
 90
1
176
1
 90
1
176
1
 40
1.0
176
1
 90
8
176
1
 62
7
176
1
 40
1.0
176
1
 90
1
176
1
 90
6
176
1
 90
2
176
1
 62
7
176
1
 90
5
176
1
 90
0
176
1
 90
0
176
1
290
0
176
1
 90
1
176
1
 40
0.0
176
1
 90
0
176
1
290
0
176
1
290
1
176
1
290
1
176
1
290
0
176
1
290
0
176
1
290
0
176
1
290
0
176
1
290
0
176
1
290
0
176
1
 90
50
176
1
 40
0.0
176
1
 40
1.0
176
1
 90
0
176
1
 62
18
420
0
176
1
 90
50
176
1
 90
3
176
1
 62
5
420
255
176
1
290
0
176
1
 90
50
176
1
 90
50
176
1
 90
50
176
1
290
0
176
1
 90
50
176
1
 62
256
176
0
 40
1.0
176
0
 90
2
176
1
  1
strokes_ogs.tif
176
1
290
0
176
1
 40
1.0
176
1
 40
1.0
176
1
  0
VISUALSTYLE
  5
62
102
{ACAD_REACTORS
330
16
102
}
330
16
100
AcDbVisualStyle
  2
Flat
 70
0
177
3
291
1
 70
58
 90
2
176
1
 90
2
176
1
 90
0
176
1
 90
2
176
1
 40
0.6
176
1
 40
30.0
176
1
 62
7
420
16777215
176
1
 90
1
176
1
 90
4
176
1
 62
7
176
1
 62
257
176
1
 90
1
176
1
 90
1
176
1
 40
1.0
176
1
 90
8
176
1
 62
7
176
1
 40
1.0
176
1
 90
1
176
1
 90
6
176
1
 90
2
176
1
 62
7
176
1
 90
5
176
1
 90
0
176
1
 90
0
176
1
290
0
176
1
 90
1
176
1
 40
0.0
176
1
 90
0
176
1
290
0
176
1
290
1
176
1
290
1
176
1
290
0
176
1
290
0
176
1
290
0
176
1
290
0
176
1
290
0
176
1
290
0
176
1
 90
50
176
1
 40
0.0
176
1
 40
1.0
176
1
 90
0
176
1
 62
18
420
0
176
1
 90
50
176
1
 90
3
176
1
 62
5
420
255
176
1
290
0
176
1
 90
50
176
1
 90
50
176
1
 90
50
176
1
290
0
176
1
 90
50
176
1
 62
256
176
0
 40
1.0
176
0
 90
2
176
1
  1
strokes_ogs.tif
176
1
290
0
176
1
 40
1.0
176
1
 40
1.0
176
1
  0
VISUALSTYLE
  5
63
102
{ACAD_REACTORS
330
16
102
}
330
16
100
AcDbVisualStyle
  2
FlatWithEdges
 70
1
177
3
291
1
 70
58
 90
2
176
1
 90
2
176
1
 90
0
176
1
 90
2
176
1
 40
0.6
176
1
 40
30.0
176
1
 62
7
420
16777215
176
1
 90
1
176
1
 90
4
176
1
 62
7
176
1
 62
257
176
1
 90
1
176
1
 90
1
176
1
 40
1.0
176
1
 90
8
176
1
 62
7
176
1
 40
1.0
176
1
 90
1
176
1
 90
6
176
1
 90
2
176
1
 62
7
176
1
 90
5
176
1
 90
0
176
1
 90
0
176
1
290
0
176
1
 90
1
176
1
 40
0.0
176
1
 90
0
176
1
290
0
176
1
290
1
176
1
290
1
176
1
290
0
176
1
290
0
176
1
290
0
176
1
290
0
176
1
290
0
176
1
290
0
176
1
 90
50
176
1
 40
0.0
176
1
 40
1.0
176
1
 90
0
176
1
 62
18
420
0
176
1
 90
50
176
1
 90
3
176
1
 62
5
420
255
176
1
290
0
176
1
 90
50
176
1
 90
50
176
1
 90
50
176
1
290
0
176
1
 90
50
176
1
 62
256
176
0
 40
1.0
176
0
 90
2
176
1
  1
strokes_ogs.tif
176
1
290
0
176
1
 40
1.0
176
1
 40
1.0
176
1
  0
VISUALSTYLE
  5
64
102
{ACAD_REACTORS
330
16
102
}
330
16
100
AcDbVisualStyle
  2
Gouraud
 70
2
177
3
291
1
 70
58
 90
2
176
1
 90
2
176
1
 90
0
176
1
 90
2
176
1
 40
0.6
176
1
 40
30.0
176
1
 62
7
420
16777215
176
1
 90
1
176
1
 90
4
176
1
 62
7
176
1
 62
257
176
1
 90
1
176
1
 90
1
176
1
 40
1.0
176
1
 90
8
176
1
 62
7
176
1
 40
1.0
176
1
 90
1
176
1
 90
6
176
1
 90
2
176
1
 62
7
176
1
 90
5
176
1
 90
0
176
1
 90
0
176
1
290
0
176
1
 90
1
176
1
 40
0.0
176
1
 90
0
176
1
290
0
176
1
290
1
176
1
290
1
176
1
290
0
176
1
290
0
176
1
290
0
176
1
290
0
176
1
290
0
176
1
290
0
176
1
 90
50
176
1
 40
0.0
176
1
 40
1.0
176
1
 90
0
176
1
 62
18
420
0
176
1
 90
50
176
1
 90
3
176
1
 62
5
420
255
176
1
290
0
176
1
 90
50
176
1
 90
50
176
1
 90
50
176
1
290
0
176
1
 90
50
176
1
 62
256
176
0
 40
1.0
176
0
 90
2
176
1
  1
strokes_ogs.tif
176
1
290
0
176
1
 40
1.0
176
1
 40
1.0
176
1
  0
VISUALSTYLE
  5
65
102
{ACAD_REACTORS
330
16
102
}
330
16
100
AcDbVisualStyle
  2
GouraudWithEdges
 70
3
177
3
291
1
 70
58
 90
2
176
1
 90
2
176
1
 90
0
176
1
 90
2
176
1
 40
0.6
176
1
 40
30.0
176
1
 62
7
420
16777215
176
1
 90
1
176
1
 90
4
176
1
 62
7
176
1
 62
257
176
1
 90
1
176
1
 90
1
176
1
 40
1.0
176
1
 90
8
176
1
 62
7
176
1
 40
1.0
176
1
 90
1
176
1
 90
6
176
1
 90
2
176
1
 62
7
176
1
 90
5
176
1
 90
0
176
1
 90
0
176
1
290
0
176
1
 90
1
176
1
 40
0.0
176
1
 90
0
176
1
290
0
176
1
290
1
176
1
290
1
176
1
290
0
176
1
290
0
176
1
290
0
176
1
290
0
176
1
290
0
176
1
290
0
176
1
 90
50
176
1
 40
0.0
176
1
 40
1.0
176
1
 90
0
176
1
 62
18
420
0
176
1
 90
50
176
1
 90
3
176
1
 62
5
420
255
176
1
290
0
176
1
 90
50
176
1
 90
50
176
1
 90
50
176
1
290
0
176
1
 90
50
176
1
 62
256
176
0
 40
1.0
176
0
 90
2
176
1
  1
strokes_ogs.tif
176
1
290
0
176
1
 40
1.0
176
1
 40
1.0
176
1
  0
VISUALSTYLE
  5
66
102
{ACAD_REACTORS
330
16
102
}
330
16
100
AcDbVisualStyle
  2
Hidden
 70
6
177
3
291
0
 70
58
 90
2
176
1
 90
2
176
1
 90
0
176
1
 90
1
176
1
 40
0.6
176
1
 40
30.0
176
1
 62
7
420
16777215
176
1
 90
1
176
1
 90
4
176
1
 62
7
176
1
 62
257
176
1
 90
1
176
1
 90
1
176
1
 40
1.0
176
1
 90
8
176
1
 62
7
176
1
 40
1.0
176
1
 90
1
176
1
 90
6
176
1
 90
2
176
1
 62
7
176
1
 90
5
176
1
 90
0
176
1
 90
0
176
1
290
0
176
1
 90
1
176
1
 40
0.0
176
1
 90
0
176
1
290
0
176
1
290
1
176
1
290
1
176
1
290
0
176
1
290
0
176
1
290
0
176
1
290
0
176
1
290
0
176
1
290
0
176
1
 90
50
176
1
 40
0.0
176
1
 40
1.0
176
1
 90
0
176
1
 62
18
420
0
176
1
 90
50
176
1
 90
3
176
1
 62
5
420
255
176
1
290
0
176
1
 90
50
176
1
 90
50
176
1
 90
50
176
1
290
0
176
1
 90
50
176
1
 62
256
176
0
 40
1.0
176
0
 90
2
176
1
  1
strokes_ogs.tif
176
1
290
0
176
1
 40
1.0
176
1
 40
1.0
176
1
  0
VISUALSTYLE
  5
67
102
{ACAD_REACTORS
330
16
102
}
330
16
100
AcDbVisualStyle
  2
JitterOff
 70
20
177
3
291
1
 70
58
 90
2
176
1
 90
2
176
1
 90
0
176
1
 90
2
176
1
 40
0.6
176
1
 40
30.0
176
1
 62
7
420
16777215
176
1
 90
1
176
1
 90
4
176
1
 62
7
176
1
 62
257
176
1
 90
1
176
1
 90
1
176
1
 40
1.0
176
1
 90
8
176
1
 62
7
176
1
 40
1.0
176
1
 90
1
176
1
 90
6
176
1
 90
2
176
1
 62
7
176
1
 90
5
176
1
 90
0
176
1
 90
0
176
1
290
0
176
1
 90
1
176
1
 40
0.0
176
1
 90
0
176
1
290
0
176
1
290
1
176
1
290
1
176
1
290
0
176
1
290
0
176
1
290
0
176
1
290
0
176
1
290
0
176
1
290
0
176
1
 90
50
176
1
 40
0.0
176
1
 40
1.0
176
1
 90
0
176
1
 62
18
420
0
176
1
 90
50
176
1
 90
3
176
1
 62
5
420
255
176
1
290
0
176
1
 90
50
176
1
 90
50
176
1
 90
50
176
1
290
0
176
1
 90
50
176
1
 62
256
176
0
 40
1.0
176
0
 90
2
176
1
  1
strokes_ogs.tif
176
1
290
0
176
1
 40
1.0
176
1
 40
1.0
176
1
  0
VISUALSTYLE
  5
68
102
{ACAD_REACTORS
330
16
102
}
330
16
100
AcDbVisualStyle
  2
Linepattern
 70
14
177
3
291
1
 70
58
 90
2
176
1
 90
2
176
1
 90
0
176
1
 90
2
176
1
 40
0.6
176
1
 40
30.0
176
1
 62
7
420
16777215
176
1
 90
1
176
1
 90
4
176
1
 62
7
176
1
 62
257
176
1
 90
1
176
1
 90
1
176
1
 40
1.0
176
1
 90
8
176
1
 62
7
176
1
 40
1.0
176
1
 90
1
176
1
 90
6
176
1
 90
2
176
1
 62
7
176
1
 90
5
176
1
 90
0
176
1
 90
0
176
1
290
0
176
1
 90
1
176
1
 40
0.0
176
1
 90
0
176
1
290
0
176
1
290
1
176
1
290
1
176
1
290
0
176
1
290
0
176
1
290
0
176
1
290
0
176
1
290
0
176
1
290
0
176
1
 90
50
176
1
 40
0.0
176
1
 40
1.0
176
1
 90
0
176
1
 62
18
420
0
176
1
 90
50
176
1
 90
3
176
1
 62
5
420
255
176
1
290
0
176
1
 90
50
176
1
 90
50
176
1
 90
50
176
1
290
0
176
1
 90
50
176
1
 62
256
176
0
 40
1.0
176
0
 90
2
176
1
  1
strokes_ogs.tif
176
1
290
0
176
1
 40
1.0
176
1
 40
1.0
176
1
  0
VISUALSTYLE
  5
69
102
{ACAD_REACTORS
330
16
102
}
330
16
100
AcDbVisualStyle
  2
Modeling
 70
10
177
3
291
0
 70
58
 90
2
176
1
 90
2
176
1
 90
0
176
1
 90
2
176
1
 40
0.6
176
1
 40
30.0
176
1
 62
7
420
16777215
176
1
 90
1
176
1
 90
4
176
1
 62
7
176
1
 62
257
176
1
 90
1
176
1
 90
1
176
1
 40
1.0
176
1
 90
8
176
1
 62
7
176
1
 40
1.0
176
1
 90
1
176
1
 90
6
176
1
 90
2
176
1
 62
7
176
1
 90
5
176
1
 90
0
176
1
 90
0
176
1
290
0
176
1
 90
1
176
1
 40
0.0
176
1
 90
0
176
1
290
0
176
1
290
1
176
1
290
1
176
1
290
0
176
1
290
0
176
1
290
0
176
1
290
0
176
1
290
0
176
1
290
0
176
1
 90
50
176
1
 40
0.0
176
1
 40
1.0
176
1
 90
0
176
1
 62
18
420
0
176
1
 90
50
176
1
 90
3
176
1
 62
5
420
255
176
1
290
0
176
1
 90
50
176
1
 90
50
176
1
 90
50
176
1
290
0
176
1
 90
50
176
1
 62
256
176
0
 40
1.0
176
0
 90
2
176
1
  1
strokes_ogs.tif
176
1
290
0
176
1
 40
1.0
176
1
 40
1.0
176
1
  0
VISUALSTYLE
  5
6A
102
{ACAD_REACTORS
330
16
102
}
330
16
100
AcDbVisualStyle
  2
OverhangOff
 70
21
177
3
291
1
 70
58
 90
2
176
1
 90
2
176
1
 90
0
176
1
 90
2
176
1
 40
0.6
176
1
 40
30.0
176
1
 62
7
420
16777215
176
1
 90
1
176
1
 90
4
176
1
 62
7
176
1
 62
257
176
1
 90
1
176
1
 90
1
176
1
 40
1.0
176
1
 90
8
176
1
 62
7
176
1
 40
1.0
176
1
 90
1
176
1
 90
6
176
1
 90
2
176
1
 62
7
176
1
 90
5
176
1
 90
0
176
1
 90
0
176
1
290
0
176
1
 90
1
176
1
 40
0.0
176
1
 90
0
176
1
290
0
176
1
290
1
176
1
290
1
176
1
290
0
176
1
290
0
176
1
290
0
176
1
290
0
176
1
290
0
176
1
290
0
176
1
 90
50
176
1
 40
0.0
176
1
 40
1.0
176
1
 90
0
176
1
 62
18
420
0
176
1
 90
50
176
1
 90
3
176
1
 62
5
420
255
176
1
290
0
176
1
 90
50
176
1
 90
50
176
1
 90
50
176
1
290
0
176
1
 90
50
176
1
 62
256
176
0
 40
1.0
176
0
 90
2
176
1
  1
strokes_ogs.tif
176
1
290
0
176
1
 40
1.0
176
1
 40
1.0
176
1
  0
VISUALSTYLE
  5
6B
102
{ACAD_REACTORS
330
16
102
}
330
16
100
AcDbVisualStyle
  2
Realistic
 70
8
177
3
291
0
 70
58
 90
2
176
1
 90
2
176
1
 90
0
176
1
 90
2
176
1
 40
0.6
176
1
 40
30.0
176
1
 62
7
420
16777215
176
1
 90
1
176
1
 90
4
176
1
 62
7
176
1
 62
257
176
1
 90
1
176
1
 90
1
176
1
 40
1.0
176
1
 90
8
176
1
 62
7
176
1
 40
1.0
176
1
 90
1
176
1
 90
6
176
1
 90
2
176
1
 62
7
176
1
 90
5
176
1
 90
0
176
1
 90
0
176
1
290
0
176
1
 90
1
176
1
 40
0.0
176
1
 90
0
176
1
290
0
176
1
290
1
176
1
290
1
176
1
290
0
176
1
290
0
176
1
290
0
176
1
290
0
176
1
290
0
176
1
290
0
176
1
 90
50
176
1
 40
0.0
176
1
 40
1.0
176
1
 90
0
176
1
 62
18
420
0
176
1
 90
50
176
1
 90
3
176
1
 62
5
420
255
176
1
290
0
176
1
 90
50
176
1
 90
50
176
1
 90
50
176
1
290
0
176
1
 90
50
176
1
 62
256
176
0
 40
1.0
176
0
 90
2
176
1
  1
strokes_ogs.tif
176
1
290
0
176
1
 40
1.0
176
1
 40
1.0
176
1
  0
VISUALSTYLE
  5
6C
102
{ACAD_REACTORS
330
16
102
}
330
16
100
AcDbVisualStyle
  2
Shaded
 70
27
177
3
291
0
 70
58
 90
2
176
1
 90
2
176
1
 90
0
176
1
 90
2
176
1
 40
0.6
176
1
 40
30.0
176
1
 62
7
420
16777215
176
1
 90
1
176
1
 90
4
176
1
 62
7
176
1
 62
257
176
1
 90
1
176
1
 90
1
176
1
 40
1.0
176
1
 90
8
176
1
 62
7
176
1
 40
1.0
176
1
 90
1
176
1
 90
6
176
1
 90
2
176
1
 62
7
176
1
 90
5
176
1
 90
0
176
1
 90
0
176
1
290
0
176
1
 90
1
176
1
 40
0.0
176
1
 90
0
176
1
290
0
176
1
290
1
176
1
290
1
176
1
290
0
176
1
290
0
176
1
290
0
176
1
290
0
176
1
290
0
176
1
290
0
176
1
 90
50
176
1
 40
0.0
176
1
 40
1.0
176
1
 90
0
176
1
 62
18
420
0
176
1
 90
50
176
1
 90
3
176
1
 62
5
420
255
176
1
290
0
176
1
 90
50
176
1
 90
50
176
1
 90
50
176
1
290
0
176
1
 90
50
176
1
 62
256
176
0
 40
1.0
176
0
 90
2
176
1
  1
strokes_ogs.tif
176
1
290
0
176
1
 40
1.0
176
1
 40
1.0
176
1
  0
VISUALSTYLE
  5
6D
102
{ACAD_REACTORS
330
16
102
}
330
16
100
AcDbVisualStyle
  2
Shaded with edges
 70
26
177
3
291
0
 70
58
 90
2
176
1
 90
2
176
1
 90
0
176
1
 90
2
176
1
 40
0.6
176
1
 40
30.0
176
1
 62
7
420
16777215
176
1
 90
1
176
1
 90
4
176
1
 62
7
176
1
 62
257
176
1
 90
1
176
1
 90
1
176
1
 40
1.0
176
1
 90
8
176
1
 62
7
176
1
 40
1.0
176
1
 90
1
176
1
 90
6
176
1
 90
2
176
1
 62
7
176
1
 90
5
176
1
 90
0
176
1
 90
0
176
1
290
0
176
1
 90
1
176
1
 40
0.0
176
1
 90
0
176
1
290
0
176
1
290
1
176
1
290
1
176
1
290
0
176
1
290
0
176
1
290
0
176
1
290
0
176
1
290
0
176
1
290
0
176
1
 90
50
176
1
 40
0.0
176
1
 40
1.0
176
1
 90
0
176
1
 62
18
420
0
176
1
 90
50
176
1
 90
3
176
1
 62
5
420
255
176
1
290
0
176
1
 90
50
176
1
 90
50
176
1
 90
50
176
1
290
0
176
1
 90
50
176
1
 62
256
176
0
 40
1.0
176
0
 90
2
176
1
  1
strokes_ogs.tif
176
1
290
0
176
1
 40
1.0
176
1
 40
1.0
176
1
  0
VISUALSTYLE
  5
6E
102
{ACAD_REACTORS
330
16
102
}
330
16
100
AcDbVisualStyle
  2
Shades of Gray
 70
23
177
3
291
0
 70
58
 90
2
176
1
 90
2
176
1
 90
0
176
1
 90
2
176
1
 40
0.6
176
1
 40
30.0
176
1
 62
7
420
16777215
176
1
 90
1
176
1
 90
4
176
1
 62
7
176
1
 62
257
176
1
 90
1
176
1
 90
1
176
1
 40
1.0
176
1
 90
8
176
1
 62
7
176
1
 40
1.0
176
1
 90
1
176
1
 90
6
176
1
 90
2
176
1
 62
7
176
1
 90
5
176
1
 90
0
176
1
 90
0
176
1
290
0
176
1
 90
1
176
1
 40
0.0
176
1
 90
0
176
1
290
0
176
1
290
1
176
1
290
1
176
1
290
0
176
1
290
0
176
1
290
0
176
1
290
0
176
1
290
0
176
1
290
0
176
1
 90
50
176
1
 40
0.0
176
1
 40
1.0
176
1
 90
0
176
1
 62
18
420
0
176
1
 90
50
176
1
 90
3
176
1
 62
5
420
255
176
1
290
0
176
1
 90
50
176
1
 90
50
176
1
 90
50
176
1
290
0
176
1
 90
50
176
1
 62
256
176
0
 40
1.0
176
0
 90
2
176
1
  1
strokes_ogs.tif
176
1
290
0
176
1
 40
1.0
176
1
 40
1.0
176
1
  0
VISUALSTYLE
  5
6F
102
{ACAD_REACTORS
330
16
102
}
330
16
100
AcDbVisualStyle
  2
Sketchy
 70
24
177
3
291
0
 70
58
 90
2
176
1
 90
2
176
1
 90
0
176
1
 90
1
176
1
 40
0.6
176
1
 40
30.0
176
1
 62
7
420
16777215
176
1
 90
1
176
1
 90
4
176
1
 62
7
176
1
 62
257
176
1
 90
1
176
1
 90
1
176
1
 40
1.0
176
1
 90
8
176
1
 62
7
176
1
 40
1.0
176
1
 90
1
176
1
 90
6
176
1
 90
2
176
1
 62
7
176
1
 90
5
176
1
 90
0
176
1
 90
0
176
1
290
0
176
1
 90
1
176
1
 40
0.0
176
1
 90
0
176
1
290
0
176
1
290
1
176
1
290
1
176
1
290
0
176
1
290
0
176
1
290
0
176
1
290
0
176
1
290
0
176
1
290
0
176
1
 90
50
176
1
 40
0.0
176
1
 40
1.0
176
1
 90
0
176
1
 62
18
420
0
176
1
 90
50
176
1
 90
3
176
1
 62
5
420
255
176
1
290
0
176
1
 90
50
176
1
 90
50
176
1
 90
50
176
1
290
0
176
1
 90
50
176
1
 62
256
176
0
 40
1.0
176
0
 90
2
176
1
  1
strokes_ogs.tif
176
1
290
0
176
1
 40
1.0
176
1
 40
1.0
176
1
  0
VISUALSTYLE
  5
70
102
{ACAD_REACTORS
330
16
102
}
330
16
100
AcDbVisualStyle
  2
Thicken
 70
13
177
3
291
1
 70
58
 90
2
176
1
 90
2
176
1
 90
0
176
1
 90
2
176
1
 40
0.6
176
1
 40
30.0
176
1
 62
7
420
16777215
176
1
 90
1
176
1
 90
4
176
1
 62
7
176
1
 62
257
176
1
 90
1
176
1
 90
1
176
1
 40
1.0
176
1
 90
8
176
1
 62
7
176
1
 40
1.0
176
1
 90
1
176
1
 90
6
176
1
 90
2
176
1
 62
7
176
1
 90
5
176
1
 90
0
176
1
 90
0
176
1
290
0
176
1
 90
1
176
1
 40
0.0
176
1
 90
0
176
1
290
0
176
1
290
1
176
1
290
1
176
1
290
0
176
1
290
0
176
1
290
0
176
1
290
0
176
1
290
0
176
1
290
0
176
1
 90
50
176
1
 40
0.0
176
1
 40
1.0
176
1
 90
0
176
1
 62
18
420
0
176
1
 90
50
176
1
 90
3
176
1
 62
5
420
255
176
1
290
0
176
1
 90
50
176
1
 90
50
176
1
 90
50
176
1
290
0
176
1
 90
50
176
1
 62
256
176
0
 40
1.0
176
0
 90
2
176
1
  1
strokes_ogs.tif
176
1
290
0
176
1
 40
1.0
176
1
 40
1.0
176
1
  0
VISUALSTYLE
  5
71
102
{ACAD_REACTORS
330
16
102
}
330
16
100
AcDbVisualStyle
  2
Wireframe
 70
5
177
3
291
0
 70
58
 90
2
176
1
 90
2
176
1
 90
0
176
1
 90
0
176
1
 40
0.6
176
1
 40
30.0
176
1
 62
7
420
16777215
176
1
 90
1
176
1
 90
4
176
1
 62
7
176
1
 62
257
176
1
 90
1
176
1
 90
1
176
1
 40
1.0
176
1
 90
8
176
1
 62
7
176
1
 40
1.0
176
1
 90
1
176
1
 90
6
176
1
 90
2
176
1
 62
7
176
1
 90
5
176
1
 90
0
176
1
 90
0
176
1
290
0
176
1
 90
1
176
1
 40
0.0
176
1
 90
0
176
1
290
0
176
1
290
1
176
1
290
1
176
1
290
0
176
1
290
0
176
1
290
0
176
1
290
0
176
1
290
0
176
1
290
0
176
1
 90
50
176
1
 40
0.0
176
1
 40
1.0
176
1
 90
0
176
1
 62
18
420
0
176
1
 90
50
176
1
 90
3
176
1
 62
5
420
255
176
1
290
0
176
1
 90
50
176
1
 90
50
176
1
 90
50
176
1
290
0
176
1
 90
50
176
1
 62
256
176
0
 40
1.0
176
0
 90
2
176
1
  1
strokes_ogs.tif
176
1
290
0
176
1
 40
1.0
176
1
 40
1.0
176
1
  0
VISUALSTYLE
  5
72
102
{ACAD_REACTORS
330
16
102
}
330
16
100
AcDbVisualStyle
  2
X-Ray
 70
25
177
3
291
0
 70
58
 90
2
176
1
 90
2
176
1
 90
0
176
1
 90
2
176
1
 40
0.5
176
1
 40
30.0
176
1
 62
7
420
16777215
176
1
 90
1
176
1
 90
4
176
1
 62
7
176
1
 62
257
176
1
 90
1
176
1
 90
1
176
1
 40
1.0
176
1
 90
8
176
1
 62
7
176
1
 40
1.0
176
1
 90
1
176
1
 90
6
176
1
 90
2
176
1
 62
7
176
1
 90
5
176
1
 90
0
176
1
 90
0
176
1
290
0
176
1
 90
1
176
1
 40
0.0
176
1
 90
0
176
1
290
0
176
1
290
1
176
1
290
1
176
1
290
0
176
1
290
0
176
1
290
0
176
1
290
0
176
1
290
0
176
1
290
0
176
1
 90
50
176
1
 40
0.0
176
1
 40
1.0
176
1
 90
0
176
1
 62
18
420
0
176
1
 90
50
176
1
 90
3
176
1
 62
5
420
255
176
1
290
0
176
1
 90
50
176
1
 90
50
176
1
 90
50
176
1
290
0
176
1
 90
50
176
1
 62
256
176
0
 40
1.0
176
0
 90
2
176
1
  1
strokes_ogs.tif
176
1
290
0
176
1
 40
1.0
176
1
 40
1.0
176
1
  0
DICTIONARYVAR
  5
1B6
330
2D
100
DictionaryVariables
280
0
  1
1.4.4 @ 2026-09-27T20:30:32.716090+00:00
  0
ENDSEC
  0
EOF
