  0
SECTION
  2
HEADER
  9
$ACADVER
  1
AC1027
  9
$ACADMAINTVER
 70
105
  9
$DWGCODEPAGE
  3
ANSI_1252
  9
$LASTSAVEDBY
  1
ezdxf
  9
$REQUIREDVERSIONS
160
0
  9
$INSBASE
 10
0.0
 20
0.0
 30
0.0
  9
$EXTMIN
 10
1e+20
 20
1e+20
 30
1e+20
  9
$EXTMAX
 10
-1e+20
 20
-1e+20
 30
-1e+20
  9
$LIMMIN
 10
0.0
 20
0.0
  9
$LIMMAX
 10
420.0
 20
297.0
  9
$ORTHOMODE
 70
0
  9
$REGENMODE
 70
1
  9
$FILLMODE
 70
1
  9
$QTEXTMODE
 70
0
  9
$MIRRTEXT
 70
1
  9
$LTSCALE
 40
1.0
  9
$ATTMODE
 70
1
  9
$TEXTSIZE
 40
2.5
  9
$TRACEWID
 40
1.0
  9
$TEXTSTYLE
  7
Standard
  9
$CLAYER
  8
0
  9
$CELTYPE
  6
ByLayer
  9
$CECOLOR
 62
256
  9
$CELTSCALE
 40
1.0
  9
$DISPSILH
 70
0
  9
$DIMSCALE
 40
1.0
  9
$DIMASZ
 40
2.5
  9
$DIMEXO
 40
0.625
  9
$DIMDLI
 40
3.75
  9
$DIMRND
 40
0.0
  9
$DIMDLE
 40
0.0
  9
$DIMEXE
 40
1.25
  9
$DIMTP
 40
0.0
  9
$DIMTM
 40
0.0
  9
$DIMTXT
 40
2.5
  9
$DIMCEN
 40
2.5
  9
$DIMTSZ
 40
0.0
  9
$DIMTOL
 70
0
  9
$DIMLIM
 70
0
  9
$DIMTIH
 70
0
  9
$DIMTOH
 70
0
  9
$DIMSE1
 70
0
  9
$DIMSE2
 70
0
  9
$DIMTAD
 70
1
  9
$DIMZIN
 70
8
  9
$DIMBLK
  1

  9
$DIMASO
 70
1
  9
$DIMSHO
 70
1
  9
$DIMPOST
  1

  9
$DIMAPOST
  1

  9
$DIMALT
 70
0
  9
$DIMALTD
 70
3
  9
$DIMALTF
 40
0.03937007874
  9
$DIMLFAC
 40
1.0
  9
$DIMTOFL
 70
1
  9
$DIMTVP
 40
0.0
  9
$DIMTIX
 70
0
  9
$DIMSOXD
 70
0
  9
$DIMSAH
 70
0
  9
$DIMBLK1
  1

  9
$DIMBLK2
  1

  9
$DIMSTYLE
  2
ISO-25
  9
$DIMCLRD
 70
0
  9
$DIMCLRE
 70
0
  9
$DIMCLRT
 70
0
  9
$DIMTFAC
 40
1.0
  9
$DIMGAP
 40
0.625
  9
$DIMJUST
 70
0
  9
$DIMSD1
 70
0
  9
$DIMSD2
 70
0
  9
$DIMTOLJ
 70
0
  9
$DIMTZIN
 70
8
  9
$DIMALTZ
 70
0
  9
$DIMALTTZ
 70
0
  9
$DIMUPT
 70
0
  9
$DIMDEC
 70
2
  9
$DIMTDEC
 70
2
  9
$DIMALTU
 70
2
  9
$DIMALTTD
 70
3
  9
$DIMTXSTY
  7
Standard
  9
$DIMAUNIT
 70
0
  9
$DIMADEC
 70
0
  9
$DIMALTRND
 40
0.0
  9
$DIMAZIN
 70
0
  9
$DIMDSEP
 70
44
  9
$DIMATFIT
 70
3
  9
$DIMFRAC
 70
0
  9
$DIMLDRBLK
  1

  9
$DIMLUNIT
 70
2
  9
$DIMLWD
 70
-2
  9
$DIMLWE
 70
-2
  9
$DIMTMOVE
 70
0
  9
$DIMFXL
 40
1.0
  9
$DIMFXLON
 70
0
  9
$DIMJOGANG
 40
0.785398163397
  9
$DIMTFILL
 70
0
  9
$DIMTFILLCLR
 70
0
  9
$DIMARCSYM
 70
0
  9
$DIMLTYPE
  6

  9
$DIMLTEX1
  6

  9
$DIMLTEX2
  6

  9
$DIMTXTDIRECTION
 70
0
  9
$LUNITS
 70
2
  9
$LUPREC
 70
4
  9
$SKETCHINC
 40
1.0
  9
$FILLETRAD
 40
10.0
  9
$AUNITS
 70
0
  9
$AUPREC
 70
2
  9
$MENU
  1
.
  9
$ELEVATION
 40
0.0
  9
$PELEVATION
 40
0.0
  9
$THICKNESS
 40
0.0
  9
$LIMCHECK
 70
0
  9
$CHAMFERA
 40
0.0
  9
$CHAMFERB
 40
0.0
  9
$CHAMFERC
 40
0.0
  9
$CHAMFERD
 40
0.0
  9
$SKPOLY
 70
0
  9
$TDCREATE
 40
2461311.8559375
  9
$TDUCREATE
 40
2458532.153996898
  9
$TDUPDATE
 40
2461311.855949074
  9
$TDUUPDATE
 40
2458532.1544311
  9
$TDINDWG
 40
0.0
  9
$TDUSRTIMER
 40
0.0
  9
$USRTIMER
 70
1
  9
$ANGBASE
 50
0.0
  9
$ANGDIR
 70
0
  9
$PDMODE
 70
0
  9
$PDSIZE
 40
0.0
  9
$PLINEWID
 40
0.0
  9
$SPLFRAME
 70
0
  9
$SPLINETYPE
 70
6
  9
$SPLINESEGS
 70
8
  9
$HANDSEED
  5
421
  9
$SURFTAB1
 70
6
  9
$SURFTAB2
 70
6
  9
$SURFTYPE
 70
6
  9
$SURFU
 70
6
  9
$SURFV
 70
6
  9
$UCSBASE
  2

  9
$UCSNAME
  2

  9
$UCSORG
 10
0.0
 20
0.0
 30
0.0
  9
$UCSXDIR
 10
1.0
 20
0.0
 30
0.0
  9
$UCSYDIR
 10
0.0
 20
1.0
 30
0.0
  9
$UCSORTHOREF
  2

  9
$UCSORTHOVIEW
 70
0
  9
$UCSORGTOP
 10
0.0
 20
0.0
 30
0.0
  9
$UCSORGBOTTOM
 10
0.0
 20
0.0
 30
0.0
  9
$UCSORGLEFT
 10
0.0
 20
0.0
 30
0.0
  9
$UCSORGRIGHT
 10
0.0
 20
0.0
 30
0.0
  9
$UCSORGFRONT
 10
0.0
 20
0.0
 30
0.0
  9
$UCSORGBACK
 10
0.0
 20
0.0
 30
0.0
  9
$PUCSBASE
  2

  9
$PUCSNAME
  2

  9
$PUCSORG
 10
0.0
 20
0.0
 30
0.0
  9
$PUCSXDIR
 10
1.0
 20
0.0
 30
0.0
  9
$PUCSYDIR
 10
0.0
 20
1.0
 30
0.0
  9
$PUCSORTHOREF
  2

  9
$PUCSORTHOVIEW
 70
0
  9
$PUCSORGTOP
 10
0.0
 20
0.0
 30
0.0
  9
$PUCSORGBOTTOM
 10
0.0
 20
0.0
 30
0.0
  9
$PUCSORGLEFT
 10
0.0
 20
0.0
 30
0.0
  9
$PUCSORGRIGHT
 10
0.0
 20
0.0
 30
0.0
  9
$PUCSORGFRONT
 10
0.0
 20
0.0
 30
0.0
  9
$PUCSORGBACK
 10
0.0
 20
0.0
 30
0.0
  9
$USERI1
 70
0
  9
$USERI2
 70
0
  9
$USERI3
 70
0
  9
$USERI4
 70
0
  9
$USERI5
 70
0
  9
$USERR1
 40
0.0
  9
$USERR2
 40
0.0
  9
$USERR3
 40
0.0
  9
$USERR4
 40
0.0
  9
$USERR5
 40
0.0
  9
$WORLDVIEW
 70
1
  9
$SHADEDGE
 70
3
  9
$SHADEDIF
 70
70
  9
$TILEMODE
 70
1
  9
$MAXACTVP
 70
64
  9
$PINSBASE
 10
0.0
 20
0.0
 30
0.0
  9
$PLIMCHECK
 70
0
  9
$PEXTMIN
 10
1e+20
 20
1e+20
 30
1e+20
  9
$PEXTMAX
 10
-1e+20
 20
-1e+20
 30
-1e+20
  9
$PLIMMIN
 10
0.0
 20
0.0
  9
$PLIMMAX
 10
420.0
 20
297.0
  9
$UNITMODE
 70
0
  9
$VISRETAIN
 70
1
  9
$PLINEGEN
 70
0
  9
$PSLTSCALE
 70
1
  9
$TREEDEPTH
 70
3020
  9
$CMLSTYLE
  2
Standard
  9
$CMLJUST
 70
0
  9
$CMLSCALE
 40
20.0
  9
$PROXYGRAPHICS
 70
1
  9
$MEASUREMENT
 70
1
  9
$CELWEIGHT
370
-1
  9
$ENDCAPS
280
0
  9
$JOINSTYLE
280
0
  9
$LWDISPLAY
290
0
  9
$INSUNITS
 70
6
  9
$HYPERLINKBASE
  1

  9
$STYLESHEET
  1

  9
$XEDIT
290
1
  9
$CEPSNTYPE
380
0
  9
$PSTYLEMODE
290
1
  9
$FINGERPRINTGUID
  2
{57944024-198D-4916-A259-4D4C1CF6A136}
  9
$VERSIONGUID
  2
{E0BDD244-A548-4559-94E9-8E16C7CF051F}
  9
$EXTNAMES
290
1
  9
$PSVPSCALE
 40
0.0
  9
$OLESTARTUP
290
0
  9
$SORTENTS
280
127
  9
$INDEXCTL
280
0
  9
$HIDETEXT
280
1
  9
$XCLIPFRAME
280
1
  9
$HALOGAP
280
0
  9
$OBSCOLOR
 70
257
  9
$OBSLTYPE
280
0
  9
$INTERSECTIONDISPLAY
280
0
  9
$INTERSECTIONCOLOR
 70
257
  9
$DIMASSOC
280
2
  9
$PROJECTNAME
  1

  9
$CAMERADISPLAY
290
0
  9
$LENSLENGTH
 40
50.0
  9
$CAMERAHEIGHT
 40
0.0
  9
$STEPSPERSEC
 40
24.0
  9
$STEPSIZE
 40
100.0
  9
$3DDWFPREC
 40
2.0
  9
$PSOLWIDTH
 40
0.005
  9
$PSOLHEIGHT
 40
0.08
  9
$LOFTANG1
 40
1.570796326795
  9
$LOFTANG2
 40
1.570796326795
  9
$LOFTMAG1
 40
0.0
  9
$LOFTMAG2
 40
0.0
  9
$LOFTPARAM
 70
7
  9
$LOFTNORMALS
280
1
  9
$LATITUDE
 40
37.795
  9
$LONGITUDE
 40
-122.394
  9
$NORTHDIRECTION
 40
0.0
  9
$TIMEZONE
 70
-8000
  9
$LIGHTGLYPHDISPLAY
280
1
  9
$TILEMODELIGHTSYNCH
280
1
  9
$CMATERIAL
347
20
  9
$SOLIDHIST
280
0
  9
$SHOWHIST
280
1
  9
$DWFFRAME
280
2
  9
$DGNFRAME
280
2
  9
$REALWORLDSCALE
290
1
  9
$INTERFERECOLOR
 62
256
  9
$CSHADOW
280
0
  9
$SHADOWPLANELOCATION
 40
0.0
  0
ENDSEC
  0
SECTION
  2
CLASSES
  0
CLASS
  1
ACDBDICTIONARYWDFLT
  2
AcDbDictionaryWithDefault
  3
ObjectDBX Classes
 90
0
 91
0
280
0
281
0
  0
CLASS
  1
SUN
  2
AcDbSun
  3
SCENEOE
 90
1153
 91
0
280
0
281
0
  0
CLASS
  1
VISUALSTYLE
  2
AcDbVisualStyle
  3
ObjectDBX Classes
 90
4095
 91
0
280
0
281
0
  0
CLASS
  1
MATERIAL
  2
AcDbMaterial
  3
ObjectDBX Classes
 90
1153
 91
0
280
0
281
0
  0
CLASS
  1
SCALE
  2
AcDbScale
  3
ObjectDBX Classes
 90
1153
 91
0
280
0
281
0
  0
CLASS
  1
TABLESTYLE
  2
AcDbTableStyle
  3
ObjectDBX Classes
 90
4095
 91
0
280
0
281
0
  0
CLASS
  1
MLEADERSTYLE
  2
AcDbMLeaderStyle
  3
ACDB_MLEADERSTYLE_CLASS
 90
4095
 91
0
280
0
281
0
  0
CLASS
  1
DICTIONARYVAR
  2
AcDbDictionaryVar
  3
ObjectDBX Classes
 90
0
 91
0
280
0
281
0
  0
CLASS
  1
CELLSTYLEMAP
  2
AcDbCellStyleMap
  3
ObjectDBX Classes
 90
1152
 91
0
280
0
281
0
  0
CLASS
  1
MENTALRAYRENDERSETTINGS
  2
AcDbMentalRayRenderSettings
  3
SCENEOE
 90
1024
 91
0
280
0
281
0
  0
CLASS
  1
ACDBDETAILVIEWSTYLE
  2
AcDbDetailViewStyle
  3
ObjectDBX Classes
 90
1025
 91
0
280
0
281
0
  0
CLASS
  1
ACDBSECTIONVIEWSTYLE
  2
AcDbSectionViewStyle
  3
ObjectDBX Classes
 90
1025
 91
0
280
0
281
0
  0
CLASS
  1
RASTERVARIABLES
  2
AcDbRasterVariables
  3
ISM
 90
0
 91
0
280
0
281
0
  0
CLASS
  1
LAYOUT
  2
AcDbLayout
  3
ObjectDBX Classes
 90
0
 91
0
280
0
281
0
  0
CLASS
  1
ACDBPLACEHOLDER
  2
AcDbPlaceHolder
  3
ObjectDBX Classes
 90
0
 91
0
280
0
281
0
  0
ENDSEC
  0
SECTION
  2
TABLES
  0
TABLE
  2
VPORT
  5
8
330
0
100
AcDbSymbolTable
 70
1
  0
VPORT
  5
23
330
8
100
AcDbSymbolTableRecord
100
AcDbViewportTableRecord
  2
*Active
 70
0
 10
0.0
 20
0.0
 11
1.0
 21
1.0
 12
0.0
 22
0.0
 13
0.0
 23
0.0
 14
0.5
 24
0.5
 15
0.5
 25
0.5
 16
0.0
 26
0.0
 36
1.0
 17
0.0
 27
0.0
 37
0.0
 40
1000.0
 41
1.34
 42
50.0
 43
0.0
 44
0.0
 50
0.0
 51
0.0
 71
0
 72
1000
 73
1
 74
3
 75
0
 76
0
 77
0
 78
0
281
0
 65
0
146
0.0
  0
ENDTAB
  0
TABLE
  2
LTYPE
  5
2
330
0
100
AcDbSymbolTable
 70
4
  0
LTYPE
  5
24
330
2
100
AcDbSymbolTableRecord
100
AcDbLinetypeTableRecord
  2
ByBlock
 70
0
  3

 72
65
 73
0
 40
0.0
  0
LTYPE
  5
25
330
2
100
AcDbSymbolTableRecord
100
AcDbLinetypeTableRecord
  2
ByLayer
 70
0
  3

 72
65
 73
0
 40
0.0
  0
LTYPE
  5
26
330
2
100
AcDbSymbolTableRecord
100
AcDbLinetypeTableRecord
  2
Continuous
 70
0
  3

 72
65
 73
0
 40
0.0
  0
LTYPE
  5
162
330
2
100
AcDbSymbolTableRecord
100
AcDbLinetypeTableRecord
  2
DASHED
 70
0
  3
Dashed __ __ __ __ __ __ __ __ __ __ __ __ __ _
 72
65
 73
2
 40
1.524
 49
1.27
 74
0
 49
-0.254
 74
0
  0
ENDTAB
  0
TABLE
  2
LAYER
  5
1
330
0
100
AcDbSymbolTable
 70
32
  0
LAYER
  5
27
330
1
100
AcDbSymbolTableRecord
100
AcDbLayerTableRecord
  2
0
 70
0
 62
7
  6
Continuous
370
-3
390
13
347
21
  0
LAYER
  5
28
330
1
100
AcDbSymbolTableRecord
100
AcDbLayerTableRecord
  2
Defpoints
 70
0
 62
7
  6
Continuous
290
0
370
-3
390
13
347
21
  0
LAYER
  5
158
330
1
100
AcDbSymbolTableRecord
100
AcDbLayerTableRecord
  2
A-TEXT
 70
0
 62
7
  6
Continuous
370
-3
390
13
347
21
  0
LAYER
  5
159
330
1
100
AcDbSymbolTableRecord
100
AcDbLayerTableRecord
  2
A-POST
 70
0
 62
30
  6
Continuous
370
-3
390
13
347
21
  0
LAYER
  5
15A
330
1
100
AcDbSymbolTableRecord
100
AcDbLayerTableRecord
  2
A-OPENING
 70
0
 62
6
  6
Continuous
370
-3
390
13
347
21
  0
LAYER
  5
15B
330
1
100
AcDbSymbolTableRecord
100
AcDbLayerTableRecord
  2
A-ELEV
 70
0
 62
7
  6
Continuous
370
-3
390
13
347
21
  0
LAYER
  5
15C
330
1
100
AcDbSymbolTableRecord
100
AcDbLayerTableRecord
  2
A-BRACE-ROOF
 70
0
 62
1
  6
DASHED
370
-3
390
13
347
21
  0
LAYER
  5
15D
330
1
100
AcDbSymbolTableRecord
100
AcDbLayerTableRecord
  2
A-BEAM
 70
0
 62
5
  6
Continuous
370
35
390
13
347
21
  0
LAYER
  5
15E
330
1
100
AcDbSymbolTableRecord
100
AcDbLayerTableRecord
  2
A-PURLIN
 70
0
 62
8
  6
Continuous
370
13
390
13
347
21
  0
LAYER
  5
15F
330
1
100
AcDbSymbolTableRecord
100
AcDbLayerTableRecord
  2
A-COL
 70
0
 62
7
  6
Continuous
370
-3
390
13
347
21
  0
LAYER
  5
160
330
1
100
AcDbSymbolTableRecord
100
AcDbLayerTableRecord
  2
A-BRACE-WALL
 70
0
 62
3
  6
DASHED
370
50
390
13
347
21
  0
LAYER
  5
161
330
1
100
AcDbSymbolTableRecord
100
AcDbLayerTableRecord
  2
A-FRAME
 70
0
 62
1
  6
Continuous
370
50
390
13
347
21
  0
LAYER
  5
283
330
1
100
AcDbSymbolTableRecord
100
AcDbLayerTableRecord
  2
B-OPENING
 70
0
 62
30
  6
Continuous
370
-3
390
13
347
21
  0
LAYER
  5
284
330
1
100
AcDbSymbolTableRecord
100
AcDbLayerTableRecord
  2
B-BEAM
 70
0
 62
5
  6
Continuous
370
35
390
13
347
21
  0
LAYER
  5
285
330
1
100
AcDbSymbolTableRecord
100
AcDbLayerTableRecord
  2
B-BRACE-ROOF
 70
0
 62
1
  6
DASHED
370
-3
390
13
347
21
  0
LAYER
  5
286
330
1
100
AcDbSymbolTableRecord
100
AcDbLayerTableRecord
  2
B-COL-UNUSED
 70
0
 62
8
  6
Continuous
370
-3
390
13
347
21
  0
LAYER
  5
287
330
1
100
AcDbSymbolTableRecord
100
AcDbLayerTableRecord
  2
B-TEXT
 70
0
 62
7
  6
Continuous
370
-3
390
13
347
21
  0
LAYER
  5
288
330
1
100
AcDbSymbolTableRecord
100
AcDbLayerTableRecord
  2
B-TRUSS
 70
0
 62
1
  6
Continuous
370
50
390
13
347
21
  0
LAYER
  5
289
330
1
100
AcDbSymbolTableRecord
100
AcDbLayerTableRecord
  2
B-BRACE-WALL
 70
0
 62
3
  6
DASHED
370
50
390
13
347
21
  0
LAYER
  5
28A
330
1
100
AcDbSymbolTableRecord
100
AcDbLayerTableRecord
  2
B-ELEV
 70
0
 62
7
  6
Continuous
370
-3
390
13
347
21
  0
LAYER
  5
28B
330
1
100
AcDbSymbolTableRecord
100
AcDbLayerTableRecord
  2
B-PURLIN
 70
0
 62
8
  6
Continuous
370
9
390
13
347
21
  0
LAYER
  5
28C
330
1
100
AcDbSymbolTableRecord
100
AcDbLayerTableRecord
  2
B-COL
 70
0
 62
7
  6
Continuous
370
-3
390
13
347
21
  0
LAYER
  5
411
330
1
100
AcDbSymbolTableRecord
100
AcDbLayerTableRecord
  2
C-PURLIN
 70
0
 62
8
  6
Continuous
370
13
390
13
347
21
  0
LAYER
  5
412
330
1
100
AcDbSymbolTableRecord
100
AcDbLayerTableRecord
  2
C-SECT
 70
0
 62
7
  6
Continuous
370
25
390
13
347
21
  0
LAYER
  5
413
330
1
100
AcDbSymbolTableRecord
100
AcDbLayerTableRecord
  2
C-BRACE-WALL
 70
0
 62
1
  6
Continuous
370
35
390
13
347
21
  0
LAYER
  5
414
330
1
100
AcDbSymbolTableRecord
100
AcDbLayerTableRecord
  2
C-RAFTER
 70
0
 62
5
  6
Continuous
370
35
390
13
347
21
  0
LAYER
  5
415
330
1
100
AcDbSymbolTableRecord
100
AcDbLayerTableRecord
  2
C-COL
 70
0
 62
7
  6
Continuous
370
-3
390
13
347
21
  0
LAYER
  5
416
330
1
100
AcDbSymbolTableRecord
100
AcDbLayerTableRecord
  2
C-OPENING
 70
0
 62
6
  6
Continuous
370
25
390
13
347
21
  0
LAYER
  5
417
330
1
100
AcDbSymbolTableRecord
100
AcDbLayerTableRecord
  2
C-BRACE-ROOF
 70
0
 62
3
  6
DASHED
370
18
390
13
347
21
  0
LAYER
  5
418
330
1
100
AcDbSymbolTableRecord
100
AcDbLayerTableRecord
  2
C-PRIMARY
 70
0
 62
1
  6
Continuous
370
50
390
13
347
21
  0
LAYER
  5
419
330
1
100
AcDbSymbolTableRecord
100
AcDbLayerTableRecord
  2
C-TEXT
 70
0
 62
7
  6
Continuous
370
-3
390
13
347
21
  0
LAYER
  5
41A
330
1
100
AcDbSymbolTableRecord
100
AcDbLayerTableRecord
  2
C-OUTLINE
 70
0
 62
8
  6
DASHED
370
13
390
13
347
21
  0
ENDTAB
  0
TABLE
  2
STYLE
  5
5
330
0
100
AcDbSymbolTable
 70
1
  0
STYLE
  5
29
330
5
100
AcDbSymbolTableRecord
100
AcDbTextStyleTableRecord
  2
Standard
 70
0
 40
0.0
 41
1.0
 50
0.0
 71
0
 42
2.5
  3
txt
  4

  0
ENDTAB
  0
TABLE
  2
VIEW
  5
7
330
0
100
AcDbSymbolTable
 70
0
  0
ENDTAB
  0
TABLE
  2
UCS
  5
6
330
0
100
AcDbSymbolTable
 70
0
  0
ENDTAB
  0
TABLE
  2
APPID
  5
3
330
0
100
AcDbSymbolTable
 70
3
  0
APPID
  5
2A
330
3
100
AcDbSymbolTableRecord
100
AcDbRegAppTableRecord
  2
ACAD
 70
0
  0
APPID
  5
41E
330
3
100
AcDbSymbolTableRecord
100
AcDbRegAppTableRecord
  2
HATCHBACKGROUNDCOLOR
 70
0
  0
APPID
  5
41F
330
3
100
AcDbSymbolTableRecord
100
AcDbRegAppTableRecord
  2
EZDXF
 70
0
  0
ENDTAB
  0
TABLE
  2
DIMSTYLE
  5
4
330
0
100
AcDbSymbolTable
 70
1
100
AcDbDimStyleTable
  0
DIMSTYLE
105
2B
330
4
100
AcDbSymbolTableRecord
100
AcDbDimStyleTableRecord
  2
Standard
 70
0
 40
1.0
 41
2.5
 42
0.625
 43
3.75
 44
1.25
 45
0.0
 46
0.0
 47
0.0
 48
0.0
 49
2.5
140
2.5
141
2.5
142
0.0
143
0.03937007874
144
1.0
145
0.0
146
1.0
147
0.625
148
0.0
 69
0
 70
0
 71
0
 72
0
 73
0
 74
0
 75
0
 76
0
 77
1
 78
8
 79
3
170
0
171
3
172
1
173
0
174
0
175
0
176
0
177
0
178
0
179
2
271
2
272
2
273
2
274
3
275
0
276
0
277
2
278
44
279
0
280
0
281
0
282
0
283
0
284
8
285
0
286
0
288
0
289
3
290
0
371
-2
372
-2
  0
ENDTAB
  0
TABLE
  2
BLOCK_RECORD
  5
9
330
0
100
AcDbSymbolTable
 70
2
  0
BLOCK_RECORD
  5
17
330
9
100
AcDbSymbolTableRecord
100
AcDbBlockTableRecord
  2
*Model_Space
340
1A
 70
0
280
1
281
0
  0
BLOCK_RECORD
  5
1B
330
9
100
AcDbSymbolTableRecord
100
AcDbBlockTableRecord
  2
*Paper_Space
340
1E
 70
0
280
1
281
0
  0
ENDTAB
  0
ENDSEC
  0
SECTION
  2
BLOCKS
  0
BLOCK
  5
18
330
17
100
AcDbEntity
  8
0
100
AcDbBlockBegin
  2
*Model_Space
 70
0
 10
0.0
 20
0.0
 30
0.0
  3
*Model_Space
  1

  0
ENDBLK
  5
19
330
17
100
AcDbEntity
  8
0
100
AcDbBlockEnd
  0
BLOCK
  5
1C
330
1B
100
AcDbEntity
  8
0
100
AcDbBlockBegin
  2
*Paper_Space
 70
0
 10
0.0
 20
0.0
 30
0.0
  3
*Paper_Space
  1

  0
ENDBLK
  5
1D
330
1B
100
AcDbEntity
  8
0
100
AcDbBlockEnd
  0
ENDSEC
  0
SECTION
  2
ENTITIES
  0
LWPOLYLINE
  5
2F
330
17
100
AcDbEntity
  8
A-COL
 62
8
100
AcDbPolyline
 90
6
 70
1
 10
67.89
 20
15.57
 10
77.89
 20
15.57
 10
77.89
 20
20.0
 10
95.69
 20
20.0
 10
95.69
 20
35.87
 10
67.89
 20
35.87
  0
LWPOLYLINE
  5
30
330
17
100
AcDbEntity
  8
A-COL
100
AcDbPolyline
 90
4
 70
1
 10
86.99
 20
35.67
 10
87.39
 20
35.67
 10
87.39
 20
35.870000000000005
 10
86.99
 20
35.870000000000005
  0
HATCH
  5
31
330
17
100
AcDbEntity
  8
A-COL
 62
7
100
AcDbHatch
 10
0.0
 20
0.0
 30
0.0
210
0.0
220
0.0
230
1.0
  2
SOLID
 70
1
 71
0
 91
1
 92
3
 72
0
 73
1
 93
4
 10
86.99
 20
35.67
 10
87.39
 20
35.67
 10
87.39
 20
35.870000000000005
 10
86.99
 20
35.870000000000005
 97
0
 75
0
 76
1
 98
0
  0
TEXT
  5
32
330
17
100
AcDbEntity
  8
A-TEXT
100
AcDbText
 10
87.44
 20
36.07
 30
0.0
 40
0.25
  1
K1
 11
87.44
 21
36.07
 31
0.0
100
AcDbText
  0
LWPOLYLINE
  5
33
330
17
100
AcDbEntity
  8
A-COL
100
AcDbPolyline
 90
4
 70
1
 10
92.28
 20
35.67
 10
92.68
 20
35.67
 10
92.68
 20
35.870000000000005
 10
92.28
 20
35.870000000000005
  0
HATCH
  5
34
330
17
100
AcDbEntity
  8
A-COL
 62
7
100
AcDbHatch
 10
0.0
 20
0.0
 30
0.0
210
0.0
220
0.0
230
1.0
  2
SOLID
 70
1
 71
0
 91
1
 92
3
 72
0
 73
1
 93
4
 10
92.28
 20
35.67
 10
92.68
 20
35.67
 10
92.68
 20
35.870000000000005
 10
92.28
 20
35.870000000000005
 97
0
 75
0
 76
1
 98
0
  0
TEXT
  5
35
330
17
100
AcDbEntity
  8
A-TEXT
100
AcDbText
 10
92.73
 20
36.07
 30
0.0
 40
0.25
  1
K2
 11
92.73
 21
36.07
 31
0.0
100
AcDbText
  0
LWPOLYLINE
  5
36
330
17
100
AcDbEntity
  8
A-COL
100
AcDbPolyline
 90
4
 70
1
 10
81.79
 20
35.47
 10
81.99000000000001
 20
35.47
 10
81.99000000000001
 20
35.87
 10
81.79
 20
35.87
  0
HATCH
  5
37
330
17
100
AcDbEntity
  8
A-COL
 62
7
100
AcDbHatch
 10
0.0
 20
0.0
 30
0.0
210
0.0
220
0.0
230
1.0
  2
SOLID
 70
1
 71
0
 91
1
 92
3
 72
0
 73
1
 93
4
 10
81.79
 20
35.47
 10
81.99000000000001
 20
35.47
 10
81.99000000000001
 20
35.87
 10
81.79
 20
35.87
 97
0
 75
0
 76
1
 98
0
  0
TEXT
  5
38
330
17
100
AcDbEntity
  8
A-TEXT
100
AcDbText
 10
82.14
 20
35.97
 30
0.0
 40
0.25
  1
K3
 11
82.14
 21
35.97
 31
0.0
100
AcDbText
  0
LWPOLYLINE
  5
39
330
17
100
AcDbEntity
  8
A-COL
100
AcDbPolyline
 90
4
 70
1
 10
95.49000000000001
 20
35.47
 10
95.69000000000001
 20
35.47
 10
95.69000000000001
 20
35.87
 10
95.49000000000001
 20
35.87
  0
HATCH
  5
3A
330
17
100
AcDbEntity
  8
A-COL
 62
7
100
AcDbHatch
 10
0.0
 20
0.0
 30
0.0
210
0.0
220
0.0
230
1.0
  2
SOLID
 70
1
 71
0
 91
1
 92
3
 72
0
 73
1
 93
4
 10
95.49000000000001
 20
35.47
 10
95.69000000000001
 20
35.47
 10
95.69000000000001
 20
35.87
 10
95.49000000000001
 20
35.87
 97
0
 75
0
 76
1
 98
0
  0
TEXT
  5
3B
330
17
100
AcDbEntity
  8
A-TEXT
100
AcDbText
 10
95.84
 20
35.97
 30
0.0
 40
0.25
  1
K4
 11
95.84
 21
35.97
 31
0.0
100
AcDbText
  0
LWPOLYLINE
  5
3C
330
17
100
AcDbEntity
  8
A-COL
100
AcDbPolyline
 90
4
 70
1
 10
71.89
 20
35.17
 10
72.29
 20
35.17
 10
72.29
 20
35.370000000000005
 10
71.89
 20
35.370000000000005
  0
HATCH
  5
3D
330
17
100
AcDbEntity
  8
A-COL
 62
7
100
AcDbHatch
 10
0.0
 20
0.0
 30
0.0
210
0.0
220
0.0
230
1.0
  2
SOLID
 70
1
 71
0
 91
1
 92
3
 72
0
 73
1
 93
4
 10
71.89
 20
35.17
 10
72.29
 20
35.17
 10
72.29
 20
35.370000000000005
 10
71.89
 20
35.370000000000005
 97
0
 75
0
 76
1
 98
0
  0
TEXT
  5
3E
330
17
100
AcDbEntity
  8
A-TEXT
100
AcDbText
 10
72.34
 20
35.57
 30
0.0
 40
0.25
  1
K5
 11
72.34
 21
35.57
 31
0.0
100
AcDbText
  0
LWPOLYLINE
  5
3F
330
17
100
AcDbEntity
  8
A-COL
100
AcDbPolyline
 90
4
 70
1
 10
67.89
 20
34.97
 10
68.09
 20
34.97
 10
68.09
 20
35.37
 10
67.89
 20
35.37
  0
HATCH
  5
40
330
17
100
AcDbEntity
  8
A-COL
 62
7
100
AcDbHatch
 10
0.0
 20
0.0
 30
0.0
210
0.0
220
0.0
230
1.0
  2
SOLID
 70
1
 71
0
 91
1
 92
3
 72
0
 73
1
 93
4
 10
67.89
 20
34.97
 10
68.09
 20
34.97
 10
68.09
 20
35.37
 10
67.89
 20
35.37
 97
0
 75
0
 76
1
 98
0
  0
TEXT
  5
41
330
17
100
AcDbEntity
  8
A-TEXT
100
AcDbText
 10
68.24
 20
35.47
 30
0.0
 40
0.25
  1
K6
 11
68.24
 21
35.47
 31
0.0
100
AcDbText
  0
LWPOLYLINE
  5
42
330
17
100
AcDbEntity
  8
A-COL
100
AcDbPolyline
 90
4
 70
1
 10
77.69000000000001
 20
34.97
 10
77.89000000000001
 20
34.97
 10
77.89000000000001
 20
35.37
 10
77.69000000000001
 20
35.37
  0
HATCH
  5
43
330
17
100
AcDbEntity
  8
A-COL
 62
7
100
AcDbHatch
 10
0.0
 20
0.0
 30
0.0
210
0.0
220
0.0
230
1.0
  2
SOLID
 70
1
 71
0
 91
1
 92
3
 72
0
 73
1
 93
4
 10
77.69000000000001
 20
34.97
 10
77.89000000000001
 20
34.97
 10
77.89000000000001
 20
35.37
 10
77.69000000000001
 20
35.37
 97
0
 75
0
 76
1
 98
0
  0
TEXT
  5
44
330
17
100
AcDbEntity
  8
A-TEXT
100
AcDbText
 10
78.04
 20
35.47
 30
0.0
 40
0.25
  1
K7
 11
78.04
 21
35.47
 31
0.0
100
AcDbText
  0
LWPOLYLINE
  5
45
330
17
100
AcDbEntity
  8
A-COL
100
AcDbPolyline
 90
4
 70
1
 10
67.89
 20
29.17
 10
68.09
 20
29.17
 10
68.09
 20
29.57
 10
67.89
 20
29.57
  0
HATCH
  5
46
330
17
100
AcDbEntity
  8
A-COL
 62
7
100
AcDbHatch
 10
0.0
 20
0.0
 30
0.0
210
0.0
220
0.0
230
1.0
  2
SOLID
 70
1
 71
0
 91
1
 92
3
 72
0
 73
1
 93
4
 10
67.89
 20
29.17
 10
68.09
 20
29.17
 10
68.09
 20
29.57
 10
67.89
 20
29.57
 97
0
 75
0
 76
1
 98
0
  0
TEXT
  5
47
330
17
100
AcDbEntity
  8
A-TEXT
100
AcDbText
 10
68.24
 20
29.67
 30
0.0
 40
0.25
  1
K8
 11
68.24
 21
29.67
 31
0.0
100
AcDbText
  0
LWPOLYLINE
  5
48
330
17
100
AcDbEntity
  8
A-COL
100
AcDbPolyline
 90
4
 70
1
 10
71.89
 20
29.169999999999998
 10
72.29
 20
29.169999999999998
 10
72.29
 20
29.369999999999997
 10
71.89
 20
29.369999999999997
  0
HATCH
  5
49
330
17
100
AcDbEntity
  8
A-COL
 62
7
100
AcDbHatch
 10
0.0
 20
0.0
 30
0.0
210
0.0
220
0.0
230
1.0
  2
SOLID
 70
1
 71
0
 91
1
 92
3
 72
0
 73
1
 93
4
 10
71.89
 20
29.169999999999998
 10
72.29
 20
29.169999999999998
 10
72.29
 20
29.369999999999997
 10
71.89
 20
29.369999999999997
 97
0
 75
0
 76
1
 98
0
  0
TEXT
  5
4A
330
17
100
AcDbEntity
  8
A-TEXT
100
AcDbText
 10
72.34
 20
29.57
 30
0.0
 40
0.25
  1
K9
 11
72.34
 21
29.57
 31
0.0
100
AcDbText
  0
LWPOLYLINE
  5
4B
330
17
100
AcDbEntity
  8
A-COL
100
AcDbPolyline
 90
4
 70
1
 10
77.69
 20
29.169999999999998
 10
78.09
 20
29.169999999999998
 10
78.09
 20
29.369999999999997
 10
77.69
 20
29.369999999999997
  0
HATCH
  5
4C
330
17
100
AcDbEntity
  8
A-COL
 62
7
100
AcDbHatch
 10
0.0
 20
0.0
 30
0.0
210
0.0
220
0.0
230
1.0
  2
SOLID
 70
1
 71
0
 91
1
 92
3
 72
0
 73
1
 93
4
 10
77.69
 20
29.169999999999998
 10
78.09
 20
29.169999999999998
 10
78.09
 20
29.369999999999997
 10
77.69
 20
29.369999999999997
 97
0
 75
0
 76
1
 98
0
  0
TEXT
  5
4D
330
17
100
AcDbEntity
  8
A-TEXT
100
AcDbText
 10
78.14
 20
29.57
 30
0.0
 40
0.25
  1
K10
 11
78.14
 21
29.57
 31
0.0
100
AcDbText
  0
LWPOLYLINE
  5
4E
330
17
100
AcDbEntity
  8
A-COL
100
AcDbPolyline
 90
4
 70
1
 10
81.58
 20
29.169999999999998
 10
81.98
 20
29.169999999999998
 10
81.98
 20
29.369999999999997
 10
81.58
 20
29.369999999999997
  0
HATCH
  5
4F
330
17
100
AcDbEntity
  8
A-COL
 62
7
100
AcDbHatch
 10
0.0
 20
0.0
 30
0.0
210
0.0
220
0.0
230
1.0
  2
SOLID
 70
1
 71
0
 91
1
 92
3
 72
0
 73
1
 93
4
 10
81.58
 20
29.169999999999998
 10
81.98
 20
29.169999999999998
 10
81.98
 20
29.369999999999997
 10
81.58
 20
29.369999999999997
 97
0
 75
0
 76
1
 98
0
  0
TEXT
  5
50
330
17
100
AcDbEntity
  8
A-TEXT
100
AcDbText
 10
82.03
 20
29.57
 30
0.0
 40
0.25
  1
K11
 11
82.03
 21
29.57
 31
0.0
100
AcDbText
  0
LWPOLYLINE
  5
51
330
17
100
AcDbEntity
  8
A-COL
100
AcDbPolyline
 90
4
 70
1
 10
86.99
 20
29.169999999999998
 10
87.39
 20
29.169999999999998
 10
87.39
 20
29.369999999999997
 10
86.99
 20
29.369999999999997
  0
HATCH
  5
52
330
17
100
AcDbEntity
  8
A-COL
 62
7
100
AcDbHatch
 10
0.0
 20
0.0
 30
0.0
210
0.0
220
0.0
230
1.0
  2
SOLID
 70
1
 71
0
 91
1
 92
3
 72
0
 73
1
 93
4
 10
86.99
 20
29.169999999999998
 10
87.39
 20
29.169999999999998
 10
87.39
 20
29.369999999999997
 10
86.99
 20
29.369999999999997
 97
0
 75
0
 76
1
 98
0
  0
TEXT
  5
53
330
17
100
AcDbEntity
  8
A-TEXT
100
AcDbText
 10
87.44
 20
29.57
 30
0.0
 40
0.25
  1
K12
 11
87.44
 21
29.57
 31
0.0
100
AcDbText
  0
LWPOLYLINE
  5
54
330
17
100
AcDbEntity
  8
A-COL
100
AcDbPolyline
 90
4
 70
1
 10
92.28
 20
29.169999999999998
 10
92.68
 20
29.169999999999998
 10
92.68
 20
29.369999999999997
 10
92.28
 20
29.369999999999997
  0
HATCH
  5
55
330
17
100
AcDbEntity
  8
A-COL
 62
7
100
AcDbHatch
 10
0.0
 20
0.0
 30
0.0
210
0.0
220
0.0
230
1.0
  2
SOLID
 70
1
 71
0
 91
1
 92
3
 72
0
 73
1
 93
4
 10
92.28
 20
29.169999999999998
 10
92.68
 20
29.169999999999998
 10
92.68
 20
29.369999999999997
 10
92.28
 20
29.369999999999997
 97
0
 75
0
 76
1
 98
0
  0
TEXT
  5
56
330
17
100
AcDbEntity
  8
A-TEXT
100
AcDbText
 10
92.73
 20
29.57
 30
0.0
 40
0.25
  1
K13
 11
92.73
 21
29.57
 31
0.0
100
AcDbText
  0
LWPOLYLINE
  5
57
330
17
100
AcDbEntity
  8
A-COL
100
AcDbPolyline
 90
4
 70
1
 10
95.28
 20
29.169999999999998
 10
95.68
 20
29.169999999999998
 10
95.68
 20
29.369999999999997
 10
95.28
 20
29.369999999999997
  0
HATCH
  5
58
330
17
100
AcDbEntity
  8
A-COL
 62
7
100
AcDbHatch
 10
0.0
 20
0.0
 30
0.0
210
0.0
220
0.0
230
1.0
  2
SOLID
 70
1
 71
0
 91
1
 92
3
 72
0
 73
1
 93
4
 10
95.28
 20
29.169999999999998
 10
95.68
 20
29.169999999999998
 10
95.68
 20
29.369999999999997
 10
95.28
 20
29.369999999999997
 97
0
 75
0
 76
1
 98
0
  0
TEXT
  5
59
330
17
100
AcDbEntity
  8
A-TEXT
100
AcDbText
 10
95.73
 20
29.57
 30
0.0
 40
0.25
  1
K14
 11
95.73
 21
29.57
 31
0.0
100
AcDbText
  0
LWPOLYLINE
  5
5A
330
17
100
AcDbEntity
  8
A-COL
100
AcDbPolyline
 90
4
 70
1
 10
67.89
 20
26.17
 10
68.09
 20
26.17
 10
68.09
 20
26.57
 10
67.89
 20
26.57
  0
HATCH
  5
5B
330
17
100
AcDbEntity
  8
A-COL
 62
7
100
AcDbHatch
 10
0.0
 20
0.0
 30
0.0
210
0.0
220
0.0
230
1.0
  2
SOLID
 70
1
 71
0
 91
1
 92
3
 72
0
 73
1
 93
4
 10
67.89
 20
26.17
 10
68.09
 20
26.17
 10
68.09
 20
26.57
 10
67.89
 20
26.57
 97
0
 75
0
 76
1
 98
0
  0
TEXT
  5
5C
330
17
100
AcDbEntity
  8
A-TEXT
100
AcDbText
 10
68.24
 20
26.67
 30
0.0
 40
0.25
  1
K15
 11
68.24
 21
26.67
 31
0.0
100
AcDbText
  0
LWPOLYLINE
  5
5D
330
17
100
AcDbEntity
  8
A-COL
100
AcDbPolyline
 90
4
 70
1
 10
77.68
 20
24.26
 10
77.88000000000001
 20
24.26
 10
77.88000000000001
 20
24.66
 10
77.68
 20
24.66
  0
HATCH
  5
5E
330
17
100
AcDbEntity
  8
A-COL
 62
7
100
AcDbHatch
 10
0.0
 20
0.0
 30
0.0
210
0.0
220
0.0
230
1.0
  2
SOLID
 70
1
 71
0
 91
1
 92
3
 72
0
 73
1
 93
4
 10
77.68
 20
24.26
 10
77.88000000000001
 20
24.26
 10
77.88000000000001
 20
24.66
 10
77.68
 20
24.66
 97
0
 75
0
 76
1
 98
0
  0
TEXT
  5
5F
330
17
100
AcDbEntity
  8
A-TEXT
100
AcDbText
 10
78.03
 20
24.76
 30
0.0
 40
0.25
  1
K16
 11
78.03
 21
24.76
 31
0.0
100
AcDbText
  0
LWPOLYLINE
  5
60
330
17
100
AcDbEntity
  8
A-COL
100
AcDbPolyline
 90
4
 70
1
 10
81.79
 20
24.26
 10
81.99000000000001
 20
24.26
 10
81.99000000000001
 20
24.66
 10
81.79
 20
24.66
  0
HATCH
  5
61
330
17
100
AcDbEntity
  8
A-COL
 62
7
100
AcDbHatch
 10
0.0
 20
0.0
 30
0.0
210
0.0
220
0.0
230
1.0
  2
SOLID
 70
1
 71
0
 91
1
 92
3
 72
0
 73
1
 93
4
 10
81.79
 20
24.26
 10
81.99000000000001
 20
24.26
 10
81.99000000000001
 20
24.66
 10
81.79
 20
24.66
 97
0
 75
0
 76
1
 98
0
  0
TEXT
  5
62
330
17
100
AcDbEntity
  8
A-TEXT
100
AcDbText
 10
82.14
 20
24.76
 30
0.0
 40
0.25
  1
K17
 11
82.14
 21
24.76
 31
0.0
100
AcDbText
  0
LWPOLYLINE
  5
63
330
17
100
AcDbEntity
  8
A-COL
100
AcDbPolyline
 90
4
 70
1
 10
95.49000000000001
 20
24.26
 10
95.69000000000001
 20
24.26
 10
95.69000000000001
 20
24.66
 10
95.49000000000001
 20
24.66
  0
HATCH
  5
64
330
17
100
AcDbEntity
  8
A-COL
 62
7
100
AcDbHatch
 10
0.0
 20
0.0
 30
0.0
210
0.0
220
0.0
230
1.0
  2
SOLID
 70
1
 71
0
 91
1
 92
3
 72
0
 73
1
 93
4
 10
95.49000000000001
 20
24.26
 10
95.69000000000001
 20
24.26
 10
95.69000000000001
 20
24.66
 10
95.49000000000001
 20
24.66
 97
0
 75
0
 76
1
 98
0
  0
TEXT
  5
65
330
17
100
AcDbEntity
  8
A-TEXT
100
AcDbText
 10
95.84
 20
24.76
 30
0.0
 40
0.25
  1
K18
 11
95.84
 21
24.76
 31
0.0
100
AcDbText
  0
LWPOLYLINE
  5
66
330
17
100
AcDbEntity
  8
A-COL
100
AcDbPolyline
 90
4
 70
1
 10
67.89
 20
21.560000000000002
 10
68.09
 20
21.560000000000002
 10
68.09
 20
21.96
 10
67.89
 20
21.96
  0
HATCH
  5
67
330
17
100
AcDbEntity
  8
A-COL
 62
7
100
AcDbHatch
 10
0.0
 20
0.0
 30
0.0
210
0.0
220
0.0
230
1.0
  2
SOLID
 70
1
 71
0
 91
1
 92
3
 72
0
 73
1
 93
4
 10
67.89
 20
21.560000000000002
 10
68.09
 20
21.560000000000002
 10
68.09
 20
21.96
 10
67.89
 20
21.96
 97
0
 75
0
 76
1
 98
0
  0
TEXT
  5
68
330
17
100
AcDbEntity
  8
A-TEXT
100
AcDbText
 10
68.24
 20
22.060000000000002
 30
0.0
 40
0.25
  1
K19
 11
68.24
 21
22.060000000000002
 31
0.0
100
AcDbText
  0
LWPOLYLINE
  5
69
330
17
100
AcDbEntity
  8
A-COL
100
AcDbPolyline
 90
4
 70
1
 10
77.68
 20
21.560000000000002
 10
77.88000000000001
 20
21.560000000000002
 10
77.88000000000001
 20
21.96
 10
77.68
 20
21.96
  0
HATCH
  5
6A
330
17
100
AcDbEntity
  8
A-COL
 62
7
100
AcDbHatch
 10
0.0
 20
0.0
 30
0.0
210
0.0
220
0.0
230
1.0
  2
SOLID
 70
1
 71
0
 91
1
 92
3
 72
0
 73
1
 93
4
 10
77.68
 20
21.560000000000002
 10
77.88000000000001
 20
21.560000000000002
 10
77.88000000000001
 20
21.96
 10
77.68
 20
21.96
 97
0
 75
0
 76
1
 98
0
  0
TEXT
  5
6B
330
17
100
AcDbEntity
  8
A-TEXT
100
AcDbText
 10
78.03
 20
22.060000000000002
 30
0.0
 40
0.25
  1
K20
 11
78.03
 21
22.060000000000002
 31
0.0
100
AcDbText
  0
LWPOLYLINE
  5
6C
330
17
100
AcDbEntity
  8
A-COL
100
AcDbPolyline
 90
4
 70
1
 10
81.59
 20
19.97
 10
81.99000000000001
 20
19.97
 10
81.99000000000001
 20
20.169999999999998
 10
81.59
 20
20.169999999999998
  0
HATCH
  5
6D
330
17
100
AcDbEntity
  8
A-COL
 62
7
100
AcDbHatch
 10
0.0
 20
0.0
 30
0.0
210
0.0
220
0.0
230
1.0
  2
SOLID
 70
1
 71
0
 91
1
 92
3
 72
0
 73
1
 93
4
 10
81.59
 20
19.97
 10
81.99000000000001
 20
19.97
 10
81.99000000000001
 20
20.169999999999998
 10
81.59
 20
20.169999999999998
 97
0
 75
0
 76
1
 98
0
  0
TEXT
  5
6E
330
17
100
AcDbEntity
  8
A-TEXT
100
AcDbText
 10
82.04
 20
20.37
 30
0.0
 40
0.25
  1
K21
 11
82.04
 21
20.37
 31
0.0
100
AcDbText
  0
LWPOLYLINE
  5
6F
330
17
100
AcDbEntity
  8
A-COL
100
AcDbPolyline
 90
4
 70
1
 10
88.67999999999999
 20
19.97
 10
89.08
 20
19.97
 10
89.08
 20
20.169999999999998
 10
88.67999999999999
 20
20.169999999999998
  0
HATCH
  5
70
330
17
100
AcDbEntity
  8
A-COL
 62
7
100
AcDbHatch
 10
0.0
 20
0.0
 30
0.0
210
0.0
220
0.0
230
1.0
  2
SOLID
 70
1
 71
0
 91
1
 92
3
 72
0
 73
1
 93
4
 10
88.67999999999999
 20
19.97
 10
89.08
 20
19.97
 10
89.08
 20
20.169999999999998
 10
88.67999999999999
 20
20.169999999999998
 97
0
 75
0
 76
1
 98
0
  0
TEXT
  5
71
330
17
100
AcDbEntity
  8
A-TEXT
100
AcDbText
 10
89.13
 20
20.37
 30
0.0
 40
0.25
  1
K22
 11
89.13
 21
20.37
 31
0.0
100
AcDbText
  0
LWPOLYLINE
  5
72
330
17
100
AcDbEntity
  8
A-COL
100
AcDbPolyline
 90
4
 70
1
 10
95.28999999999999
 20
19.97
 10
95.69
 20
19.97
 10
95.69
 20
20.169999999999998
 10
95.28999999999999
 20
20.169999999999998
  0
HATCH
  5
73
330
17
100
AcDbEntity
  8
A-COL
 62
7
100
AcDbHatch
 10
0.0
 20
0.0
 30
0.0
210
0.0
220
0.0
230
1.0
  2
SOLID
 70
1
 71
0
 91
1
 92
3
 72
0
 73
1
 93
4
 10
95.28999999999999
 20
19.97
 10
95.69
 20
19.97
 10
95.69
 20
20.169999999999998
 10
95.28999999999999
 20
20.169999999999998
 97
0
 75
0
 76
1
 98
0
  0
TEXT
  5
74
330
17
100
AcDbEntity
  8
A-TEXT
100
AcDbText
 10
95.74
 20
20.37
 30
0.0
 40
0.25
  1
K23
 11
95.74
 21
20.37
 31
0.0
100
AcDbText
  0
LWPOLYLINE
  5
75
330
17
100
AcDbEntity
  8
A-COL
100
AcDbPolyline
 90
4
 70
1
 10
74.69
 20
15.870000000000001
 10
75.09
 20
15.870000000000001
 10
75.09
 20
16.07
 10
74.69
 20
16.07
  0
HATCH
  5
76
330
17
100
AcDbEntity
  8
A-COL
 62
7
100
AcDbHatch
 10
0.0
 20
0.0
 30
0.0
210
0.0
220
0.0
230
1.0
  2
SOLID
 70
1
 71
0
 91
1
 92
3
 72
0
 73
1
 93
4
 10
74.69
 20
15.870000000000001
 10
75.09
 20
15.870000000000001
 10
75.09
 20
16.07
 10
74.69
 20
16.07
 97
0
 75
0
 76
1
 98
0
  0
TEXT
  5
77
330
17
100
AcDbEntity
  8
A-TEXT
100
AcDbText
 10
75.14
 20
16.27
 30
0.0
 40
0.25
  1
K24
 11
75.14
 21
16.27
 31
0.0
100
AcDbText
  0
LWPOLYLINE
  5
78
330
17
100
AcDbEntity
  8
A-COL
100
AcDbPolyline
 90
4
 70
1
 10
67.89
 20
15.67
 10
68.09
 20
15.67
 10
68.09
 20
16.07
 10
67.89
 20
16.07
  0
HATCH
  5
79
330
17
100
AcDbEntity
  8
A-COL
 62
7
100
AcDbHatch
 10
0.0
 20
0.0
 30
0.0
210
0.0
220
0.0
230
1.0
  2
SOLID
 70
1
 71
0
 91
1
 92
3
 72
0
 73
1
 93
4
 10
67.89
 20
15.67
 10
68.09
 20
15.67
 10
68.09
 20
16.07
 10
67.89
 20
16.07
 97
0
 75
0
 76
1
 98
0
  0
TEXT
  5
7A
330
17
100
AcDbEntity
  8
A-TEXT
100
AcDbText
 10
68.24
 20
16.169999999999998
 30
0.0
 40
0.25
  1
K25
 11
68.24
 21
16.169999999999998
 31
0.0
100
AcDbText
  0
LWPOLYLINE
  5
7B
330
17
100
AcDbEntity
  8
A-COL
100
AcDbPolyline
 90
4
 70
1
 10
71.89
 20
15.67
 10
72.09
 20
15.67
 10
72.09
 20
16.07
 10
71.89
 20
16.07
  0
HATCH
  5
7C
330
17
100
AcDbEntity
  8
A-COL
 62
7
100
AcDbHatch
 10
0.0
 20
0.0
 30
0.0
210
0.0
220
0.0
230
1.0
  2
SOLID
 70
1
 71
0
 91
1
 92
3
 72
0
 73
1
 93
4
 10
71.89
 20
15.67
 10
72.09
 20
15.67
 10
72.09
 20
16.07
 10
71.89
 20
16.07
 97
0
 75
0
 76
1
 98
0
  0
TEXT
  5
7D
330
17
100
AcDbEntity
  8
A-TEXT
100
AcDbText
 10
72.24
 20
16.169999999999998
 30
0.0
 40
0.25
  1
K26
 11
72.24
 21
16.169999999999998
 31
0.0
100
AcDbText
  0
LWPOLYLINE
  5
7E
330
17
100
AcDbEntity
  8
A-COL
100
AcDbPolyline
 90
4
 70
1
 10
77.68
 20
15.67
 10
77.88000000000001
 20
15.67
 10
77.88000000000001
 20
16.07
 10
77.68
 20
16.07
  0
HATCH
  5
7F
330
17
100
AcDbEntity
  8
A-COL
 62
7
100
AcDbHatch
 10
0.0
 20
0.0
 30
0.0
210
0.0
220
0.0
230
1.0
  2
SOLID
 70
1
 71
0
 91
1
 92
3
 72
0
 73
1
 93
4
 10
77.68
 20
15.67
 10
77.88000000000001
 20
15.67
 10
77.88000000000001
 20
16.07
 10
77.68
 20
16.07
 97
0
 75
0
 76
1
 98
0
  0
TEXT
  5
80
330
17
100
AcDbEntity
  8
A-TEXT
100
AcDbText
 10
78.03
 20
16.169999999999998
 30
0.0
 40
0.25
  1
K27
 11
78.03
 21
16.169999999999998
 31
0.0
100
AcDbText
  0
LINE
  5
81
330
17
100
AcDbEntity
  8
A-PURLIN
100
AcDbLine
 10
77.8
 20
35.6
 30
0.0
 11
95.55
 21
35.6
 31
0.0
  0
LINE
  5
82
330
17
100
AcDbEntity
  8
A-PURLIN
100
AcDbLine
 10
67.99
 20
34.1
 30
0.0
 11
77.8
 21
34.1
 31
0.0
  0
LINE
  5
83
330
17
100
AcDbEntity
  8
A-PURLIN
100
AcDbLine
 10
81.85
 20
34.1
 30
0.0
 11
95.55
 21
34.1
 31
0.0
  0
LINE
  5
84
330
17
100
AcDbEntity
  8
A-PURLIN
100
AcDbLine
 10
67.99
 20
32.6
 30
0.0
 11
77.8
 21
32.6
 31
0.0
  0
LINE
  5
85
330
17
100
AcDbEntity
  8
A-PURLIN
100
AcDbLine
 10
81.85
 20
32.6
 30
0.0
 11
95.55
 21
32.6
 31
0.0
  0
LINE
  5
86
330
17
100
AcDbEntity
  8
A-PURLIN
100
AcDbLine
 10
67.99
 20
31.1
 30
0.0
 11
77.8
 21
31.1
 31
0.0
  0
LINE
  5
87
330
17
100
AcDbEntity
  8
A-PURLIN
100
AcDbLine
 10
81.85
 20
31.1
 30
0.0
 11
95.55
 21
31.1
 31
0.0
  0
LINE
  5
88
330
17
100
AcDbEntity
  8
A-PURLIN
100
AcDbLine
 10
67.99
 20
29.6
 30
0.0
 11
77.8
 21
29.6
 31
0.0
  0
LINE
  5
89
330
17
100
AcDbEntity
  8
A-PURLIN
100
AcDbLine
 10
81.85
 20
29.6
 30
0.0
 11
95.55
 21
29.6
 31
0.0
  0
LINE
  5
8A
330
17
100
AcDbEntity
  8
A-PURLIN
100
AcDbLine
 10
67.99
 20
28.1
 30
0.0
 11
77.8
 21
28.1
 31
0.0
  0
LINE
  5
8B
330
17
100
AcDbEntity
  8
A-PURLIN
100
AcDbLine
 10
77.8
 20
28.1
 30
0.0
 11
95.55
 21
28.1
 31
0.0
  0
LINE
  5
8C
330
17
100
AcDbEntity
  8
A-PURLIN
100
AcDbLine
 10
67.99
 20
26.6
 30
0.0
 11
77.8
 21
26.6
 31
0.0
  0
LINE
  5
8D
330
17
100
AcDbEntity
  8
A-PURLIN
100
AcDbLine
 10
77.8
 20
26.6
 30
0.0
 11
95.55
 21
26.6
 31
0.0
  0
LINE
  5
8E
330
17
100
AcDbEntity
  8
A-PURLIN
100
AcDbLine
 10
67.99
 20
25.1
 30
0.0
 11
77.8
 21
25.1
 31
0.0
  0
LINE
  5
8F
330
17
100
AcDbEntity
  8
A-PURLIN
100
AcDbLine
 10
77.8
 20
25.1
 30
0.0
 11
95.55
 21
25.1
 31
0.0
  0
LINE
  5
90
330
17
100
AcDbEntity
  8
A-PURLIN
100
AcDbLine
 10
67.99
 20
23.6
 30
0.0
 11
77.8
 21
23.6
 31
0.0
  0
LINE
  5
91
330
17
100
AcDbEntity
  8
A-PURLIN
100
AcDbLine
 10
81.85
 20
23.6
 30
0.0
 11
95.55
 21
23.6
 31
0.0
  0
LINE
  5
92
330
17
100
AcDbEntity
  8
A-PURLIN
100
AcDbLine
 10
67.99
 20
22.1
 30
0.0
 11
77.8
 21
22.1
 31
0.0
  0
LINE
  5
93
330
17
100
AcDbEntity
  8
A-PURLIN
100
AcDbLine
 10
81.85
 20
22.1
 30
0.0
 11
95.55
 21
22.1
 31
0.0
  0
LINE
  5
94
330
17
100
AcDbEntity
  8
A-PURLIN
100
AcDbLine
 10
67.99
 20
20.6
 30
0.0
 11
77.8
 21
20.6
 31
0.0
  0
LINE
  5
95
330
17
100
AcDbEntity
  8
A-PURLIN
100
AcDbLine
 10
81.85
 20
20.6
 30
0.0
 11
95.55
 21
20.6
 31
0.0
  0
LINE
  5
96
330
17
100
AcDbEntity
  8
A-PURLIN
100
AcDbLine
 10
67.99
 20
19.1
 30
0.0
 11
77.8
 21
19.1
 31
0.0
  0
LINE
  5
97
330
17
100
AcDbEntity
  8
A-PURLIN
100
AcDbLine
 10
67.99
 20
17.6
 30
0.0
 11
77.8
 21
17.6
 31
0.0
  0
LINE
  5
98
330
17
100
AcDbEntity
  8
A-PURLIN
100
AcDbLine
 10
67.99
 20
16.1
 30
0.0
 11
77.8
 21
16.1
 31
0.0
  0
TEXT
  5
99
330
17
100
AcDbEntity
  8
A-TEXT
100
AcDbText
 10
83.0
 20
27.8
 30
0.0
 40
0.3
  1
Z200x2.0 PURLINS @ 1.5 m
 11
83.0
 21
27.8
 31
0.0
100
AcDbText
  0
LWPOLYLINE
  5
9A
330
17
100
AcDbEntity
  8
A-OPENING
100
AcDbPolyline
 90
4
 70
1
 10
77.89
 20
29.37
 10
81.79
 20
29.37
 10
81.79
 20
35.37
 10
77.89
 20
35.37
  0
HATCH
  5
9B
330
17
100
AcDbEntity
  8
A-OPENING
 62
7
100
AcDbHatch
 10
0.0
 20
0.0
 30
0.0
210
0.0
220
0.0
230
1.0
  2
ANSI31
 70
0
 71
0
 91
1
 92
3
 72
0
 73
1
 93
4
 10
77.89
 20
29.37
 10
81.79
 20
29.37
 10
81.79
 20
35.37
 10
77.89
 20
35.37
 97
0
 75
1
 76
1
 52
0.0
 41
0.5
 77
0
 78
1
 53
45.0
 43
0.0
 44
0.0
 45
-0.5612660076
 46
0.5612660076
 79
0
 98
0
  0
TEXT
  5
9C
330
17
100
AcDbEntity
  8
A-OPENING
100
AcDbText
 10
79.84
 20
32.37
 30
0.0
 40
0.25
  1
STAIR - NOT ROOFED
 72
1
 11
79.84
 21
32.37
 31
0.0
100
AcDbText
 73
2
  0
LWPOLYLINE
  5
9D
330
17
100
AcDbEntity
  8
A-OPENING
100
AcDbPolyline
 90
4
 70
1
 10
77.89
 20
20.17
 10
81.99
 20
20.17
 10
81.99
 20
24.16
 10
77.89
 20
24.16
  0
HATCH
  5
9E
330
17
100
AcDbEntity
  8
A-OPENING
 62
7
100
AcDbHatch
 10
0.0
 20
0.0
 30
0.0
210
0.0
220
0.0
230
1.0
  2
ANSI31
 70
0
 71
0
 91
1
 92
3
 72
0
 73
1
 93
4
 10
77.89
 20
20.17
 10
81.99
 20
20.17
 10
81.99
 20
24.16
 10
77.89
 20
24.16
 97
0
 75
1
 76
1
 52
0.0
 41
0.5
 77
0
 78
1
 53
45.0
 43
0.0
 44
0.0
 45
-0.5612660076
 46
0.5612660076
 79
0
 98
0
  0
TEXT
  5
9F
330
17
100
AcDbEntity
  8
A-OPENING
100
AcDbText
 10
79.94
 20
22.165
 30
0.0
 40
0.25
  1
ELEVATOR - NOT ROOFED
 72
1
 11
79.94
 21
22.165
 31
0.0
100
AcDbText
 73
2
  0
LINE
  5
A0
330
17
100
AcDbEntity
  8
A-BEAM
100
AcDbLine
 10
77.8
 20
20.17
 30
0.0
 11
81.85
 21
20.17
 31
0.0
  0
LINE
  5
A1
330
17
100
AcDbEntity
  8
A-BEAM
100
AcDbLine
 10
77.8
 20
24.16
 30
0.0
 11
81.85
 21
24.16
 31
0.0
  0
LINE
  5
A2
330
17
100
AcDbEntity
  8
A-BEAM
100
AcDbLine
 10
77.8
 20
29.37
 30
0.0
 11
81.85
 21
29.37
 31
0.0
  0
LINE
  5
A3
330
17
100
AcDbEntity
  8
A-BEAM
100
AcDbLine
 10
77.8
 20
35.37
 30
0.0
 11
81.85
 21
35.37
 31
0.0
  0
TEXT
  5
A4
330
17
100
AcDbEntity
  8
A-TEXT
100
AcDbText
 10
70.0
 20
37.3
 30
0.0
 40
0.25
  1
TRIMMERS IPE200 AT N + S EDGE OF EACH OPENING; UPSTAND + FLASHING ALL 4 SIDES
 11
70.0
 21
37.3
 31
0.0
100
AcDbText
  0
TEXT
  5
A5
330
17
100
AcDbEntity
  8
A-TEXT
100
AcDbText
 10
70.0
 20
36.9
 30
0.0
 40
0.25
  1
F3/F4 RAFTERS SIT ON THE SHAFT WALLS (BESIDE, NOT OVER, THE OPENINGS)
 11
70.0
 21
36.9
 31
0.0
100
AcDbText
  0
LINE
  5
A6
330
17
100
AcDbEntity
  8
A-FRAME
100
AcDbLine
 10
67.99
 20
15.87
 30
0.0
 11
67.99
 21
35.17
 31
0.0
  0
TEXT
  5
A7
330
17
100
AcDbEntity
  8
A-TEXT
100
AcDbText
 10
67.99
 20
36.5
 30
0.0
 40
0.35
  1
F1 IPE240
 72
1
 11
67.99
 21
36.5
 31
0.0
100
AcDbText
  0
LINE
  5
A8
330
17
100
AcDbEntity
  8
A-FRAME
100
AcDbLine
 10
72.05
 20
15.87
 30
0.0
 11
72.05
 21
35.27
 31
0.0
  0
TEXT
  5
A9
330
17
100
AcDbEntity
  8
A-TEXT
100
AcDbText
 10
72.05
 20
36.5
 30
0.0
 40
0.35
  1
F2 IPE300
 72
1
 11
72.05
 21
36.5
 31
0.0
100
AcDbText
  0
LINE
  5
AA
330
17
100
AcDbEntity
  8
A-FRAME
100
AcDbLine
 10
77.8
 20
15.87
 30
0.0
 11
77.8
 21
35.37
 31
0.0
  0
TEXT
  5
AB
330
17
100
AcDbEntity
  8
A-TEXT
100
AcDbText
 10
77.8
 20
36.5
 30
0.0
 40
0.35
  1
F3 IPE240
 72
1
 11
77.8
 21
36.5
 31
0.0
100
AcDbText
  0
LINE
  5
AC
330
17
100
AcDbEntity
  8
A-FRAME
100
AcDbLine
 10
81.85
 20
20.07
 30
0.0
 11
81.85
 21
35.67
 31
0.0
  0
TEXT
  5
AD
330
17
100
AcDbEntity
  8
A-TEXT
100
AcDbText
 10
81.85
 20
36.5
 30
0.0
 40
0.35
  1
F4 IPE240
 72
1
 11
81.85
 21
36.5
 31
0.0
100
AcDbText
  0
LINE
  5
AE
330
17
100
AcDbEntity
  8
A-FRAME
100
AcDbLine
 10
87.19
 20
20.07
 30
0.0
 11
87.19
 21
35.77
 31
0.0
  0
TEXT
  5
AF
330
17
100
AcDbEntity
  8
A-TEXT
100
AcDbText
 10
87.19
 20
36.5
 30
0.0
 40
0.35
  1
F5 IPE300
 72
1
 11
87.19
 21
36.5
 31
0.0
100
AcDbText
  0
LINE
  5
B0
330
17
100
AcDbEntity
  8
A-FRAME
100
AcDbLine
 10
92.48
 20
20.07
 30
0.0
 11
92.48
 21
35.77
 31
0.0
  0
TEXT
  5
B1
330
17
100
AcDbEntity
  8
A-TEXT
100
AcDbText
 10
92.48
 20
36.5
 30
0.0
 40
0.35
  1
F6 IPE300
 72
1
 11
92.48
 21
36.5
 31
0.0
100
AcDbText
  0
LINE
  5
B2
330
17
100
AcDbEntity
  8
A-FRAME
100
AcDbLine
 10
95.55
 20
20.07
 30
0.0
 11
95.55
 21
35.67
 31
0.0
  0
TEXT
  5
B3
330
17
100
AcDbEntity
  8
A-TEXT
100
AcDbText
 10
95.55
 20
36.5
 30
0.0
 40
0.35
  1
F7 IPE240
 72
1
 11
95.55
 21
36.5
 31
0.0
100
AcDbText
  0
LWPOLYLINE
  5
B4
330
17
100
AcDbEntity
  8
A-BEAM
100
AcDbPolyline
 90
9
 70
0
 10
67.99
 20
35.17
 10
72.09
 20
35.27
 10
77.79
 20
35.17
 10
77.8
 20
35.37
 10
81.85
 20
35.37
 10
81.89
 20
35.67
 10
87.19
 20
35.77
 10
92.48
 20
35.77
 10
95.59
 20
35.67
  0
LWPOLYLINE
  5
B5
330
17
100
AcDbEntity
  8
A-BEAM
100
AcDbPolyline
 90
4
 70
0
 10
67.99
 20
15.87
 10
71.99
 20
15.87
 10
74.89
 20
15.97
 10
77.78
 20
15.87
  0
LWPOLYLINE
  5
B6
330
17
100
AcDbEntity
  8
A-BEAM
100
AcDbPolyline
 90
4
 70
0
 43
0.08
 10
77.8
 20
20.07
 10
81.79
 20
20.07
 10
88.88
 20
20.07
 10
95.49
 20
20.07
  0
TEXT
  5
B7
330
17
100
AcDbEntity
  8
A-TEXT
100
AcDbText
 10
83.5
 20
35.95
 30
0.0
 40
0.25
  1
EAVES BEAM IPE200
 11
83.5
 21
35.95
 31
0.0
100
AcDbText
  0
TEXT
  5
B8
330
17
100
AcDbEntity
  8
A-TEXT
100
AcDbText
 10
69.0
 20
15.3
 30
0.0
 40
0.25
  1
EAVES BEAM IPE200
 11
69.0
 21
15.3
 31
0.0
100
AcDbText
  0
TEXT
  5
B9
330
17
100
AcDbEntity
  8
A-TEXT
100
AcDbText
 10
84.5
 20
19.4
 30
0.0
 40
0.25
  1
TRANSFER EAVE GIRDER IPE300 (carries F5/F6 rafter ends)
 11
84.5
 21
19.4
 31
0.0
100
AcDbText
  0
LINE
  5
BA
330
17
100
AcDbEntity
  8
A-BRACE-ROOF
100
AcDbLine
 10
67.99
 20
15.87
 30
0.0
 11
72.05
 21
19.73
 31
0.0
  0
LINE
  5
BB
330
17
100
AcDbEntity
  8
A-BRACE-ROOF
100
AcDbLine
 10
67.99
 20
19.73
 30
0.0
 11
72.05
 21
15.87
 31
0.0
  0
LINE
  5
BC
330
17
100
AcDbEntity
  8
A-BRACE-ROOF
100
AcDbLine
 10
67.99
 20
19.73
 30
0.0
 11
72.05
 21
23.59
 31
0.0
  0
LINE
  5
BD
330
17
100
AcDbEntity
  8
A-BRACE-ROOF
100
AcDbLine
 10
67.99
 20
23.59
 30
0.0
 11
72.05
 21
19.73
 31
0.0
  0
LINE
  5
BE
330
17
100
AcDbEntity
  8
A-BRACE-ROOF
100
AcDbLine
 10
67.99
 20
23.59
 30
0.0
 11
72.05
 21
27.45
 31
0.0
  0
LINE
  5
BF
330
17
100
AcDbEntity
  8
A-BRACE-ROOF
100
AcDbLine
 10
67.99
 20
27.45
 30
0.0
 11
72.05
 21
23.59
 31
0.0
  0
LINE
  5
C0
330
17
100
AcDbEntity
  8
A-BRACE-ROOF
100
AcDbLine
 10
67.99
 20
27.450000000000003
 30
0.0
 11
72.05
 21
31.310000000000002
 31
0.0
  0
LINE
  5
C1
330
17
100
AcDbEntity
  8
A-BRACE-ROOF
100
AcDbLine
 10
67.99
 20
31.310000000000002
 30
0.0
 11
72.05
 21
27.450000000000003
 31
0.0
  0
LINE
  5
C2
330
17
100
AcDbEntity
  8
A-BRACE-ROOF
100
AcDbLine
 10
67.99
 20
31.310000000000002
 30
0.0
 11
72.05
 21
35.17
 31
0.0
  0
LINE
  5
C3
330
17
100
AcDbEntity
  8
A-BRACE-ROOF
100
AcDbLine
 10
67.99
 20
35.17
 30
0.0
 11
72.05
 21
31.310000000000002
 31
0.0
  0
LINE
  5
C4
330
17
100
AcDbEntity
  8
A-BRACE-ROOF
100
AcDbLine
 10
81.85
 20
20.07
 30
0.0
 11
87.19
 21
23.9775
 31
0.0
  0
LINE
  5
C5
330
17
100
AcDbEntity
  8
A-BRACE-ROOF
100
AcDbLine
 10
81.85
 20
23.9775
 30
0.0
 11
87.19
 21
20.07
 31
0.0
  0
LINE
  5
C6
330
17
100
AcDbEntity
  8
A-BRACE-ROOF
100
AcDbLine
 10
81.85
 20
23.9775
 30
0.0
 11
87.19
 21
27.884999999999998
 31
0.0
  0
LINE
  5
C7
330
17
100
AcDbEntity
  8
A-BRACE-ROOF
100
AcDbLine
 10
81.85
 20
27.884999999999998
 30
0.0
 11
87.19
 21
23.9775
 31
0.0
  0
LINE
  5
C8
330
17
100
AcDbEntity
  8
A-BRACE-ROOF
100
AcDbLine
 10
81.85
 20
27.885
 30
0.0
 11
87.19
 21
31.792500000000004
 31
0.0
  0
LINE
  5
C9
330
17
100
AcDbEntity
  8
A-BRACE-ROOF
100
AcDbLine
 10
81.85
 20
31.792500000000004
 30
0.0
 11
87.19
 21
27.885
 31
0.0
  0
LINE
  5
CA
330
17
100
AcDbEntity
  8
A-BRACE-ROOF
100
AcDbLine
 10
81.85
 20
31.792500000000004
 30
0.0
 11
87.19
 21
35.7
 31
0.0
  0
LINE
  5
CB
330
17
100
AcDbEntity
  8
A-BRACE-ROOF
100
AcDbLine
 10
81.85
 20
35.7
 30
0.0
 11
87.19
 21
31.792500000000004
 31
0.0
  0
LINE
  5
CC
330
17
100
AcDbEntity
  8
A-BRACE-ROOF
100
AcDbLine
 10
77.8
 20
24.16
 30
0.0
 11
81.85
 21
29.37
 31
0.0
  0
LINE
  5
CD
330
17
100
AcDbEntity
  8
A-BRACE-ROOF
100
AcDbLine
 10
77.8
 20
29.37
 30
0.0
 11
81.85
 21
24.16
 31
0.0
  0
LINE
  5
CE
330
17
100
AcDbEntity
  8
A-BRACE-ROOF
100
AcDbLine
 10
92.48
 20
20.07
 30
0.0
 11
95.55
 21
23.9775
 31
0.0
  0
LINE
  5
CF
330
17
100
AcDbEntity
  8
A-BRACE-ROOF
100
AcDbLine
 10
92.48
 20
23.9775
 30
0.0
 11
95.55
 21
20.07
 31
0.0
  0
LINE
  5
D0
330
17
100
AcDbEntity
  8
A-BRACE-ROOF
100
AcDbLine
 10
92.48
 20
23.9775
 30
0.0
 11
95.55
 21
27.884999999999998
 31
0.0
  0
LINE
  5
D1
330
17
100
AcDbEntity
  8
A-BRACE-ROOF
100
AcDbLine
 10
92.48
 20
27.884999999999998
 30
0.0
 11
95.55
 21
23.9775
 31
0.0
  0
LINE
  5
D2
330
17
100
AcDbEntity
  8
A-BRACE-ROOF
100
AcDbLine
 10
92.48
 20
27.885
 30
0.0
 11
95.55
 21
31.792500000000004
 31
0.0
  0
LINE
  5
D3
330
17
100
AcDbEntity
  8
A-BRACE-ROOF
100
AcDbLine
 10
92.48
 20
31.792500000000004
 30
0.0
 11
95.55
 21
27.885
 31
0.0
  0
LINE
  5
D4
330
17
100
AcDbEntity
  8
A-BRACE-ROOF
100
AcDbLine
 10
92.48
 20
31.792500000000004
 30
0.0
 11
95.55
 21
35.7
 31
0.0
  0
LINE
  5
D5
330
17
100
AcDbEntity
  8
A-BRACE-ROOF
100
AcDbLine
 10
92.48
 20
35.7
 30
0.0
 11
95.55
 21
31.792500000000004
 31
0.0
  0
TEXT
  5
D6
330
17
100
AcDbEntity
  8
A-TEXT
100
AcDbText
 10
68.2
 20
25.6
 30
0.0
 40
0.25
  1
ROOF X CHS 76.3x3.2
 50
90.0
 11
68.2
 21
25.6
 31
0.0
100
AcDbText
  0
LINE
  5
D7
330
17
100
AcDbEntity
  8
A-BRACE-WALL
100
AcDbLine
 10
67.99
 20
36.1
 30
0.0
 11
72.05
 21
36.1
 31
0.0
  0
TEXT
  5
D8
330
17
100
AcDbEntity
  8
A-TEXT
100
AcDbText
 10
70.02
 20
36.2
 30
0.0
 40
0.25
  1
VB rods M20
 72
1
 11
70.02
 21
36.2
 31
0.0
100
AcDbText
  0
LINE
  5
D9
330
17
100
AcDbEntity
  8
A-BRACE-WALL
100
AcDbLine
 10
92.48
 20
36.1
 30
0.0
 11
95.55
 21
36.1
 31
0.0
  0
TEXT
  5
DA
330
17
100
AcDbEntity
  8
A-TEXT
100
AcDbText
 10
94.015
 20
36.2
 30
0.0
 40
0.25
  1
VB rods M20
 72
1
 11
94.015
 21
36.2
 31
0.0
100
AcDbText
  0
LINE
  5
DB
330
17
100
AcDbEntity
  8
A-BRACE-WALL
100
AcDbLine
 10
67.99
 20
15.3
 30
0.0
 11
71.99
 21
15.3
 31
0.0
  0
TEXT
  5
DC
330
17
100
AcDbEntity
  8
A-TEXT
100
AcDbText
 10
69.99
 20
14.9
 30
0.0
 40
0.25
  1
VB rods M20
 72
1
 11
69.99
 21
14.9
 31
0.0
100
AcDbText
  0
LINE
  5
DD
330
17
100
AcDbEntity
  8
A-BRACE-WALL
100
AcDbLine
 10
88.88
 20
19.7
 30
0.0
 11
95.49
 21
19.7
 31
0.0
  0
TEXT
  5
DE
330
17
100
AcDbEntity
  8
A-TEXT
100
AcDbText
 10
92.185
 20
19.3
 30
0.0
 40
0.25
  1
VB rods M20
 72
1
 11
92.185
 21
19.3
 31
0.0
100
AcDbText
  0
LWPOLYLINE
  5
DF
330
17
100
AcDbEntity
  8
A-POST
100
AcDbPolyline
 90
4
 70
1
 10
74.64
 20
15.72
 10
75.14
 20
15.72
 10
75.14
 20
16.22
 10
74.64
 20
16.22
  0
TEXT
  5
E0
330
17
100
AcDbEntity
  8
A-POST
100
AcDbText
 10
75.24
 20
15.22
 30
0.0
 40
0.25
  1
EAVE POST HEA160
 11
75.24
 21
15.22
 31
0.0
100
AcDbText
  0
LWPOLYLINE
  5
E1
330
17
100
AcDbEntity
  8
A-POST
100
AcDbPolyline
 90
4
 70
1
 10
88.63
 20
19.82
 10
89.13
 20
19.82
 10
89.13
 20
20.32
 10
88.63
 20
20.32
  0
TEXT
  5
E2
330
17
100
AcDbEntity
  8
A-POST
100
AcDbText
 10
89.22999999999999
 20
19.32
 30
0.0
 40
0.25
  1
EAVE POST HEA160
 11
89.22999999999999
 21
19.32
 31
0.0
100
AcDbText
  0
LWPOLYLINE
  5
E3
330
17
100
AcDbEntity
  8
A-POST
100
AcDbPolyline
 90
4
 70
1
 10
77.55
 20
19.82
 10
78.05
 20
19.82
 10
78.05
 20
20.32
 10
77.55
 20
20.32
  0
TEXT
  5
E4
330
17
100
AcDbEntity
  8
A-POST
100
AcDbText
 10
78.14999999999999
 20
19.32
 30
0.0
 40
0.25
  1
CORNER POST SHS100 (hung)
 11
78.14999999999999
 21
19.32
 31
0.0
100
AcDbText
  0
TEXT
  5
E5
330
17
100
AcDbEntity
  8
A-TEXT
100
AcDbText
 10
72.4
 20
22.5
 30
0.0
 40
0.3
  1
13.4 m
 50
90.0
 11
72.4
 21
22.5
 31
0.0
100
AcDbText
  0
TEXT
  5
E6
330
17
100
AcDbEntity
  8
A-TEXT
100
AcDbText
 10
72.4
 20
31.8
 30
0.0
 40
0.3
  1
6.0 m
 50
90.0
 11
72.4
 21
31.8
 31
0.0
100
AcDbText
  0
TEXT
  5
E7
330
17
100
AcDbEntity
  8
A-TEXT
100
AcDbText
 10
87.5
 20
23.0
 30
0.0
 40
0.3
  1
9.2 m (propped)
 50
90.0
 11
87.5
 21
23.0
 31
0.0
100
AcDbText
  0
TEXT
  5
E8
330
17
100
AcDbEntity
  8
A-TEXT
100
AcDbText
 10
87.5
 20
31.8
 30
0.0
 40
0.3
  1
6.5 m
 50
90.0
 11
87.5
 21
31.8
 31
0.0
100
AcDbText
  0
TEXT
  5
E9
330
17
100
AcDbEntity
  8
A-TEXT
100
AcDbText
 10
84.0
 20
17.5
 30
0.0
 40
0.3
  1
NOTCH - OUTSIDE FOOTPRINT
 11
84.0
 21
17.5
 31
0.0
100
AcDbText
  0
TEXT
  5
EA
330
17
100
AcDbEntity
  8
A-TEXT
100
AcDbText
 10
67.9
 20
38.5
 30
0.0
 40
0.6
  1
SYSTEM A - MONO-PITCH PORTAL FRAMES N-S, ROOF FALLS NORTH 6% - REV 1
 11
67.9
 21
38.5
 31
0.0
100
AcDbText
  0
LINE
  5
EB
330
17
100
AcDbEntity
  8
A-TEXT
100
AcDbLine
 10
97.0
 20
22.0
 30
0.0
 11
97.0
 21
25.0
 31
0.0
  0
LWPOLYLINE
  5
EC
330
17
100
AcDbEntity
  8
A-TEXT
100
AcDbPolyline
 90
3
 70
1
 10
96.6
 20
24.2
 10
97.0
 20
25.0
 10
97.4
 20
24.2
  0
TEXT
  5
ED
330
17
100
AcDbEntity
  8
A-TEXT
100
AcDbText
 10
97.0
 20
25.3
 30
0.0
 40
0.5
  1
N
 72
1
 11
97.0
 21
25.3
 31
0.0
100
AcDbText
  0
TEXT
  5
EE
330
17
100
AcDbEntity
  8
A-TEXT
100
AcDbText
 10
97.3
 20
23.0
 30
0.0
 40
0.25
  1
ROOF FALLS NORTH
 50
90.0
 11
97.3
 21
23.0
 31
0.0
100
AcDbText
  0
MTEXT
  5
EF
330
17
100
AcDbEntity
  8
A-TEXT
100
AcDbMText
 10
98.0
 20
35.5
 30
0.0
 40
0.3
 41
12.0
 71
1
  3
SYSTEM A - NOTES (REV 1)\PRev 1: stair well and elevator shaft NOT roofed (openings, hatched); single roof plane, TOS = 3.45 + 0.06 x (35.87 - y): north edge 3.45 m, south edge y 15.57 4.67 m.\POpenings: trimmers IPE200 at N and S edges spanning F3-F
  3
4 rafters (4.05 m); F3/F4 rafters on the shaft walls form the E/W edges; upstand + flashing all sides, no purlin crosses an opening.\PFrames: rigid mono-pitch portals on every N-S column line, pinned bases, haunched bolted end-plate knees (M20 8.8).\
  3
PRafters: IPE300 S275 (F2 13.4+6.0 m; F5/F6 9.2 propped + 6.5 m), IPE240 elsewhere (bays <= 6.4 m).\PColumns: HEA200 (F2, F5, F6), HEA160 (other frames, eave posts). Haunches 1.0-1.3 m cut from rafter section.\PEaves beams IPE200; transfer eave girde
  3
r IPE300 on K21-K22-K23 carries F5/F6 south rafter ends (no column below).\PPurlins Z200x2.0 S350GD @ 1.5 m, sleeved, 1 row sag bars/bay. Girts Z150x1.5 @ 1.5 m.\PStability: N-S portal action; E-W vertical X bracing rods M20 in bays K6-K5, K2-K4, K25
  3
-K26, K22-K23 + roof X CHS 76.3x3.2 in bays 68.0-72.1, 81.85-87.2, 92.5-95.55 and one panel 77.8-81.85 between the openings.\PBases: 300x400x20 plate on 30-50 mm non-shrink grout, 4 x M20 chemical anchors hef 160-180 in solid zone over column head; u
  3
plift 25-35 kN, shear 25-45 kN/base.\PLoads: G 0.45, Q 0.60, qp 1.30 kN/m2, net uplift -1.0 to -1.3 (edge -3.3) kN/m2.\PSteel (Rev 1): primary 13.3 t = 27 kg/m2 of footprint (484 m2); incl. purlins/girts approx. 16.3 t = 34 kg/m2 (37 kg/m2 of the 444
  1
 m2 roofed).
  0
LWPOLYLINE
  5
F0
330
17
100
AcDbEntity
  8
A-ELEV
100
AcDbPolyline
 90
4
 70
1
 10
47.599999999999994
 20
5.0
 10
69.0
 20
5.0
 10
69.0
 20
4.75
 10
47.599999999999994
 20
4.75
  0
TEXT
  5
F1
330
17
100
AcDbEntity
  8
A-TEXT
100
AcDbText
 10
47.699999999999996
 20
4.45
 30
0.0
 40
0.25
  1
EXISTING HOLLOW-BLOCK SLAB 250 (ASSUMED)
 11
47.699999999999996
 21
4.45
 31
0.0
100
AcDbText
  0
LWPOLYLINE
  5
F2
330
17
100
AcDbEntity
  8
A-ELEV
 62
8
100
AcDbPolyline
 90
4
 70
1
 10
48.39999999999999
 20
4.75
 10
48.8
 20
4.75
 10
48.8
 20
4.0
 10
48.39999999999999
 20
4.0
  0
LWPOLYLINE
  5
F3
330
17
100
AcDbEntity
  8
A-ELEV
 62
8
100
AcDbPolyline
 90
4
 70
1
 10
61.8
 20
4.75
 10
62.2
 20
4.75
 10
62.2
 20
4.0
 10
61.8
 20
4.0
  0
LWPOLYLINE
  5
F4
330
17
100
AcDbEntity
  8
A-ELEV
 62
8
100
AcDbPolyline
 90
4
 70
1
 10
67.8
 20
4.75
 10
68.2
 20
4.75
 10
68.2
 20
4.0
 10
67.8
 20
4.0
  0
LINE
  5
F5
330
17
100
AcDbEntity
  8
A-ELEV
100
AcDbLine
 10
48.599999999999994
 20
9.65
 30
0.0
 11
68.0
 21
8.486
 31
0.0
  0
LINE
  5
F6
330
17
100
AcDbEntity
  8
A-ELEV
100
AcDbLine
 10
48.599999999999994
 20
9.35
 30
0.0
 11
68.0
 21
8.186
 31
0.0
  0
TEXT
  5
F7
330
17
100
AcDbEntity
  8
A-TEXT
100
AcDbText
 10
58.3
 20
9.468
 30
0.0
 40
0.3
  1
RAFTER IPE300 S275 - SLOPE 6% (3.4 deg) FALLING NORTH
 50
-3.4
 72
1
 11
58.3
 21
9.468
 31
0.0
100
AcDbText
  0
CIRCLE
  5
F8
330
17
100
AcDbEntity
  8
A-ELEV
 62
8
100
AcDbCircle
 10
67.7
 20
8.604
 30
0.0
 40
0.1
  0
CIRCLE
  5
F9
330
17
100
AcDbEntity
  8
A-ELEV
 62
8
100
AcDbCircle
 10
66.2
 20
8.693999999999999
 30
0.0
 40
0.1
  0
CIRCLE
  5
FA
330
17
100
AcDbEntity
  8
A-ELEV
 62
8
100
AcDbCircle
 10
64.7
 20
8.783999999999999
 30
0.0
 40
0.1
  0
CIRCLE
  5
FB
330
17
100
AcDbEntity
  8
A-ELEV
 62
8
100
AcDbCircle
 10
63.2
 20
8.873999999999999
 30
0.0
 40
0.1
  0
CIRCLE
  5
FC
330
17
100
AcDbEntity
  8
A-ELEV
 62
8
100
AcDbCircle
 10
61.7
 20
8.964
 30
0.0
 40
0.1
  0
CIRCLE
  5
FD
330
17
100
AcDbEntity
  8
A-ELEV
 62
8
100
AcDbCircle
 10
60.2
 20
9.054
 30
0.0
 40
0.1
  0
CIRCLE
  5
FE
330
17
100
AcDbEntity
  8
A-ELEV
 62
8
100
AcDbCircle
 10
58.7
 20
9.144
 30
0.0
 40
0.1
  0
CIRCLE
  5
FF
330
17
100
AcDbEntity
  8
A-ELEV
 62
8
100
AcDbCircle
 10
57.2
 20
9.234
 30
0.0
 40
0.1
  0
CIRCLE
  5
100
330
17
100
AcDbEntity
  8
A-ELEV
 62
8
100
AcDbCircle
 10
55.7
 20
9.324
 30
0.0
 40
0.1
  0
CIRCLE
  5
101
330
17
100
AcDbEntity
  8
A-ELEV
 62
8
100
AcDbCircle
 10
54.2
 20
9.414
 30
0.0
 40
0.1
  0
CIRCLE
  5
102
330
17
100
AcDbEntity
  8
A-ELEV
 62
8
100
AcDbCircle
 10
52.7
 20
9.504
 30
0.0
 40
0.1
  0
CIRCLE
  5
103
330
17
100
AcDbEntity
  8
A-ELEV
 62
8
100
AcDbCircle
 10
51.2
 20
9.594
 30
0.0
 40
0.1
  0
CIRCLE
  5
104
330
17
100
AcDbEntity
  8
A-ELEV
 62
8
100
AcDbCircle
 10
49.7
 20
9.684
 30
0.0
 40
0.1
  0
LINE
  5
105
330
17
100
AcDbEntity
  8
A-ELEV
100
AcDbLine
 10
48.49999999999999
 20
5.05
 30
0.0
 11
48.49999999999999
 21
9.35
 31
0.0
  0
LINE
  5
106
330
17
100
AcDbEntity
  8
A-ELEV
100
AcDbLine
 10
48.699999999999996
 20
5.05
 30
0.0
 11
48.699999999999996
 21
9.35
 31
0.0
  0
TEXT
  5
107
330
17
100
AcDbEntity
  8
A-TEXT
100
AcDbText
 10
48.8
 20
6.2
 30
0.0
 40
0.3
  1
HEA200
 50
90.0
 11
48.8
 21
6.2
 31
0.0
100
AcDbText
  0
LWPOLYLINE
  5
108
330
17
100
AcDbEntity
  8
A-ELEV
100
AcDbPolyline
 90
3
 70
1
 10
48.699999999999996
 20
9.35
 10
49.8
 20
9.277999999999999
 10
48.699999999999996
 20
9.0
  0
LWPOLYLINE
  5
109
330
17
100
AcDbEntity
  8
A-ELEV
100
AcDbPolyline
 90
4
 70
1
 10
48.39999999999999
 20
5.0
 10
48.8
 20
5.0
 10
48.8
 20
5.05
 10
48.39999999999999
 20
5.05
  0
CIRCLE
  5
10A
330
17
100
AcDbEntity
  8
A-ELEV
100
AcDbCircle
 10
48.599999999999994
 20
5.0
 30
0.0
 40
0.08
  0
TEXT
  5
10B
330
17
100
AcDbEntity
  8
A-TEXT
100
AcDbText
 10
48.849999999999994
 20
5.35
 30
0.0
 40
0.3
  1
TOS 4.65 m
 11
48.849999999999994
 21
5.35
 31
0.0
100
AcDbText
  0
LINE
  5
10C
330
17
100
AcDbEntity
  8
A-ELEV
100
AcDbLine
 10
61.9
 20
5.05
 30
0.0
 11
61.9
 21
8.546
 31
0.0
  0
LINE
  5
10D
330
17
100
AcDbEntity
  8
A-ELEV
100
AcDbLine
 10
62.1
 20
5.05
 30
0.0
 11
62.1
 21
8.546
 31
0.0
  0
TEXT
  5
10E
330
17
100
AcDbEntity
  8
A-TEXT
100
AcDbText
 10
62.2
 20
6.2
 30
0.0
 40
0.3
  1
HEA200
 50
90.0
 11
62.2
 21
6.2
 31
0.0
100
AcDbText
  0
LWPOLYLINE
  5
10F
330
17
100
AcDbEntity
  8
A-ELEV
100
AcDbPolyline
 90
3
 70
1
 10
61.9
 20
8.546
 10
60.8
 20
8.617999999999999
 10
61.9
 20
8.196
  0
LWPOLYLINE
  5
110
330
17
100
AcDbEntity
  8
A-ELEV
100
AcDbPolyline
 90
3
 70
1
 10
62.1
 20
8.546
 10
63.199999999999996
 20
8.474
 10
62.1
 20
8.196
  0
LWPOLYLINE
  5
111
330
17
100
AcDbEntity
  8
A-ELEV
100
AcDbPolyline
 90
4
 70
1
 10
61.8
 20
5.0
 10
62.2
 20
5.0
 10
62.2
 20
5.05
 10
61.8
 20
5.05
  0
CIRCLE
  5
112
330
17
100
AcDbEntity
  8
A-ELEV
100
AcDbCircle
 10
62.0
 20
5.0
 30
0.0
 40
0.08
  0
TEXT
  5
113
330
17
100
AcDbEntity
  8
A-TEXT
100
AcDbText
 10
62.25
 20
5.35
 30
0.0
 40
0.3
  1
TOS 3.85 m
 11
62.25
 21
5.35
 31
0.0
100
AcDbText
  0
LINE
  5
114
330
17
100
AcDbEntity
  8
A-ELEV
100
AcDbLine
 10
67.9
 20
5.05
 30
0.0
 11
67.9
 21
8.186
 31
0.0
  0
LINE
  5
115
330
17
100
AcDbEntity
  8
A-ELEV
100
AcDbLine
 10
68.1
 20
5.05
 30
0.0
 11
68.1
 21
8.186
 31
0.0
  0
TEXT
  5
116
330
17
100
AcDbEntity
  8
A-TEXT
100
AcDbText
 10
68.2
 20
6.2
 30
0.0
 40
0.3
  1
HEA200
 50
90.0
 11
68.2
 21
6.2
 31
0.0
100
AcDbText
  0
LWPOLYLINE
  5
117
330
17
100
AcDbEntity
  8
A-ELEV
100
AcDbPolyline
 90
3
 70
1
 10
67.9
 20
8.186
 10
66.8
 20
8.258
 10
67.9
 20
7.836
  0
LWPOLYLINE
  5
118
330
17
100
AcDbEntity
  8
A-ELEV
100
AcDbPolyline
 90
4
 70
1
 10
67.8
 20
5.0
 10
68.2
 20
5.0
 10
68.2
 20
5.05
 10
67.8
 20
5.05
  0
CIRCLE
  5
119
330
17
100
AcDbEntity
  8
A-ELEV
100
AcDbCircle
 10
68.0
 20
5.0
 30
0.0
 40
0.08
  0
TEXT
  5
11A
330
17
100
AcDbEntity
  8
A-TEXT
100
AcDbText
 10
68.25
 20
5.35
 30
0.0
 40
0.3
  1
TOS 3.49 m
 11
68.25
 21
5.35
 31
0.0
100
AcDbText
  0
LINE
  5
11B
330
17
100
AcDbEntity
  8
A-ELEV
100
AcDbLine
 10
48.599999999999994
 20
3.6
 30
0.0
 11
68.0
 21
3.6
 31
0.0
  0
LINE
  5
11C
330
17
100
AcDbEntity
  8
A-ELEV
100
AcDbLine
 10
48.599999999999994
 20
3.8
 30
0.0
 11
48.599999999999994
 21
3.4
 31
0.0
  0
TEXT
  5
11D
330
17
100
AcDbEntity
  8
A-TEXT
100
AcDbText
 10
55.3
 20
3.65
 30
0.0
 40
0.3
  1
13.4 m
 72
1
 11
55.3
 21
3.65
 31
0.0
100
AcDbText
  0
LINE
  5
11E
330
17
100
AcDbEntity
  8
A-ELEV
100
AcDbLine
 10
62.0
 20
3.8
 30
0.0
 11
62.0
 21
3.4
 31
0.0
  0
TEXT
  5
11F
330
17
100
AcDbEntity
  8
A-TEXT
100
AcDbText
 10
65.0
 20
3.65
 30
0.0
 40
0.3
  1
6.0 m
 72
1
 11
65.0
 21
3.65
 31
0.0
100
AcDbText
  0
LINE
  5
120
330
17
100
AcDbEntity
  8
A-ELEV
100
AcDbLine
 10
68.0
 20
3.8
 30
0.0
 11
68.0
 21
3.4
 31
0.0
  0
TEXT
  5
121
330
17
100
AcDbEntity
  8
A-TEXT
100
AcDbText
 10
67.8
 20
7.1
 30
0.0
 40
0.25
  1
TOS 3.45 AT NORTH EDGE y 35.87 (3.15 CLEAR UNDER RAFTER, 3.0 AT HAUNCH)
 72
2
 11
67.8
 21
7.1
 31
0.0
100
AcDbText
  0
TEXT
  5
122
330
17
100
AcDbEntity
  8
A-TEXT
100
AcDbText
 10
47.599999999999994
 20
11.15
 30
0.0
 40
0.25
  1
TOS SOUTH EDGE y 15.57 = 4.67 m; SINGLE PLANE 6%
 11
47.599999999999994
 21
11.15
 31
0.0
100
AcDbText
  0
TEXT
  5
123
330
17
100
AcDbEntity
  8
A-TEXT
100
AcDbText
 10
47.699999999999996
 20
4.1
 30
0.0
 40
0.25
  1
BASE PLATE 300x400x20 ON GROUT, 4 x M20 ANCHORS (PINNED)
 11
47.699999999999996
 21
4.1
 31
0.0
100
AcDbText
  0
TEXT
  5
124
330
17
100
AcDbEntity
  8
A-TEXT
100
AcDbText
 10
47.599999999999994
 20
11.55
 30
0.0
 40
0.35
  1
FRAME F2 (x = 72.1): K26 - K9 - K5, 13.4 + 6.0 m
 11
47.599999999999994
 21
11.55
 31
0.0
100
AcDbText
  0
TEXT
  5
125
330
17
100
AcDbEntity
  8
A-TEXT
100
AcDbText
 10
47.599999999999994
 20
2.9
 30
0.0
 40
0.25
  1
SOUTH (HIGH EAVE)
 11
47.599999999999994
 21
2.9
 31
0.0
100
AcDbText
  0
TEXT
  5
126
330
17
100
AcDbEntity
  8
A-TEXT
100
AcDbText
 10
69.0
 20
2.9
 30
0.0
 40
0.25
  1
NORTH (LOW EAVE, GUTTER)
 72
2
 11
69.0
 21
2.9
 31
0.0
100
AcDbText
  0
LWPOLYLINE
  5
127
330
17
100
AcDbEntity
  8
A-ELEV
100
AcDbPolyline
 90
4
 70
1
 10
69.3
 20
5.0
 10
87.0
 20
5.0
 10
87.0
 20
4.75
 10
69.3
 20
4.75
  0
TEXT
  5
128
330
17
100
AcDbEntity
  8
A-TEXT
100
AcDbText
 10
69.39999999999999
 20
4.45
 30
0.0
 40
0.25
  1
EXISTING HOLLOW-BLOCK SLAB 250 (ASSUMED)
 11
69.39999999999999
 21
4.45
 31
0.0
100
AcDbText
  0
LWPOLYLINE
  5
129
330
17
100
AcDbEntity
  8
A-ELEV
 62
8
100
AcDbPolyline
 90
4
 70
1
 10
79.3
 20
4.75
 10
79.7
 20
4.75
 10
79.7
 20
4.0
 10
79.3
 20
4.0
  0
LWPOLYLINE
  5
12A
330
17
100
AcDbEntity
  8
A-ELEV
 62
8
100
AcDbPolyline
 90
4
 70
1
 10
85.8
 20
4.75
 10
86.2
 20
4.75
 10
86.2
 20
4.0
 10
85.8
 20
4.0
  0
LINE
  5
12B
330
17
100
AcDbEntity
  8
A-ELEV
100
AcDbLine
 10
70.3
 20
9.398
 30
0.0
 11
86.0
 21
8.456
 31
0.0
  0
LINE
  5
12C
330
17
100
AcDbEntity
  8
A-ELEV
100
AcDbLine
 10
70.3
 20
9.097999999999999
 30
0.0
 11
86.0
 21
8.155999999999999
 31
0.0
  0
TEXT
  5
12D
330
17
100
AcDbEntity
  8
A-TEXT
100
AcDbText
 10
78.15
 20
9.327
 30
0.0
 40
0.3
  1
RAFTER IPE300 S275 - SLOPE 6% (3.4 deg) FALLING NORTH
 50
-3.4
 72
1
 11
78.15
 21
9.327
 31
0.0
100
AcDbText
  0
CIRCLE
  5
12E
330
17
100
AcDbEntity
  8
A-ELEV
 62
8
100
AcDbCircle
 10
85.7
 20
8.574
 30
0.0
 40
0.1
  0
CIRCLE
  5
12F
330
17
100
AcDbEntity
  8
A-ELEV
 62
8
100
AcDbCircle
 10
84.2
 20
8.664
 30
0.0
 40
0.1
  0
CIRCLE
  5
130
330
17
100
AcDbEntity
  8
A-ELEV
 62
8
100
AcDbCircle
 10
82.7
 20
8.754
 30
0.0
 40
0.1
  0
CIRCLE
  5
131
330
17
100
AcDbEntity
  8
A-ELEV
 62
8
100
AcDbCircle
 10
81.2
 20
8.844
 30
0.0
 40
0.1
  0
CIRCLE
  5
132
330
17
100
AcDbEntity
  8
A-ELEV
 62
8
100
AcDbCircle
 10
79.7
 20
8.934
 30
0.0
 40
0.1
  0
CIRCLE
  5
133
330
17
100
AcDbEntity
  8
A-ELEV
 62
8
100
AcDbCircle
 10
78.2
 20
9.024
 30
0.0
 40
0.1
  0
CIRCLE
  5
134
330
17
100
AcDbEntity
  8
A-ELEV
 62
8
100
AcDbCircle
 10
76.7
 20
9.113999999999999
 30
0.0
 40
0.1
  0
CIRCLE
  5
135
330
17
100
AcDbEntity
  8
A-ELEV
 62
8
100
AcDbCircle
 10
75.2
 20
9.203999999999999
 30
0.0
 40
0.1
  0
CIRCLE
  5
136
330
17
100
AcDbEntity
  8
A-ELEV
 62
8
100
AcDbCircle
 10
73.7
 20
9.293999999999999
 30
0.0
 40
0.1
  0
CIRCLE
  5
137
330
17
100
AcDbEntity
  8
A-ELEV
 62
8
100
AcDbCircle
 10
72.2
 20
9.383999999999999
 30
0.0
 40
0.1
  0
CIRCLE
  5
138
330
17
100
AcDbEntity
  8
A-ELEV
 62
8
100
AcDbCircle
 10
70.7
 20
9.473999999999998
 30
0.0
 40
0.1
  0
LINE
  5
139
330
17
100
AcDbEntity
  8
A-ELEV
100
AcDbLine
 10
79.4
 20
5.05
 30
0.0
 11
79.4
 21
8.546
 31
0.0
  0
LINE
  5
13A
330
17
100
AcDbEntity
  8
A-ELEV
100
AcDbLine
 10
79.6
 20
5.05
 30
0.0
 11
79.6
 21
8.546
 31
0.0
  0
TEXT
  5
13B
330
17
100
AcDbEntity
  8
A-TEXT
100
AcDbText
 10
79.7
 20
6.2
 30
0.0
 40
0.3
  1
HEA200
 50
90.0
 11
79.7
 21
6.2
 31
0.0
100
AcDbText
  0
LWPOLYLINE
  5
13C
330
17
100
AcDbEntity
  8
A-ELEV
100
AcDbPolyline
 90
3
 70
1
 10
79.4
 20
8.546
 10
78.3
 20
8.617999999999999
 10
79.4
 20
8.196
  0
LWPOLYLINE
  5
13D
330
17
100
AcDbEntity
  8
A-ELEV
100
AcDbPolyline
 90
3
 70
1
 10
79.6
 20
8.546
 10
80.69999999999999
 20
8.474
 10
79.6
 20
8.196
  0
LWPOLYLINE
  5
13E
330
17
100
AcDbEntity
  8
A-ELEV
100
AcDbPolyline
 90
4
 70
1
 10
79.3
 20
5.0
 10
79.7
 20
5.0
 10
79.7
 20
5.05
 10
79.3
 20
5.05
  0
CIRCLE
  5
13F
330
17
100
AcDbEntity
  8
A-ELEV
100
AcDbCircle
 10
79.5
 20
5.0
 30
0.0
 40
0.08
  0
TEXT
  5
140
330
17
100
AcDbEntity
  8
A-TEXT
100
AcDbText
 10
79.75
 20
5.35
 30
0.0
 40
0.3
  1
TOS 3.85 m
 11
79.75
 21
5.35
 31
0.0
100
AcDbText
  0
LINE
  5
141
330
17
100
AcDbEntity
  8
A-ELEV
100
AcDbLine
 10
85.9
 20
5.05
 30
0.0
 11
85.9
 21
8.155999999999999
 31
0.0
  0
LINE
  5
142
330
17
100
AcDbEntity
  8
A-ELEV
100
AcDbLine
 10
86.1
 20
5.05
 30
0.0
 11
86.1
 21
8.155999999999999
 31
0.0
  0
TEXT
  5
143
330
17
100
AcDbEntity
  8
A-TEXT
100
AcDbText
 10
86.2
 20
6.2
 30
0.0
 40
0.3
  1
HEA200
 50
90.0
 11
86.2
 21
6.2
 31
0.0
100
AcDbText
  0
LWPOLYLINE
  5
144
330
17
100
AcDbEntity
  8
A-ELEV
100
AcDbPolyline
 90
3
 70
1
 10
85.9
 20
8.155999999999999
 10
84.8
 20
8.228
 10
85.9
 20
7.805999999999999
  0
LWPOLYLINE
  5
145
330
17
100
AcDbEntity
  8
A-ELEV
100
AcDbPolyline
 90
4
 70
1
 10
85.8
 20
5.0
 10
86.2
 20
5.0
 10
86.2
 20
5.05
 10
85.8
 20
5.05
  0
CIRCLE
  5
146
330
17
100
AcDbEntity
  8
A-ELEV
100
AcDbCircle
 10
86.0
 20
5.0
 30
0.0
 40
0.08
  0
TEXT
  5
147
330
17
100
AcDbEntity
  8
A-TEXT
100
AcDbText
 10
86.25
 20
5.35
 30
0.0
 40
0.3
  1
TOS 3.46 m
 11
86.25
 21
5.35
 31
0.0
100
AcDbText
  0
LWPOLYLINE
  5
148
330
17
100
AcDbEntity
  8
A-ELEV
 62
5
100
AcDbPolyline
 90
3
 70
1
 10
70.3
 20
9.097999999999999
 10
70.0
 20
8.648
 10
70.6
 20
8.648
  0
TEXT
  5
149
330
17
100
AcDbEntity
  8
A-TEXT
100
AcDbText
 10
70.0
 20
10.597999999999999
 30
0.0
 40
0.25
  1
RAFTER END PINNED ON IPE300 EAVE GIRDER
 11
70.0
 21
10.597999999999999
 31
0.0
100
AcDbText
  0
TEXT
  5
14A
330
17
100
AcDbEntity
  8
A-TEXT
100
AcDbText
 10
70.0
 20
10.248
 30
0.0
 40
0.25
  1
(NO COLUMN BELOW)
 11
70.0
 21
10.248
 31
0.0
100
AcDbText
  0
LINE
  5
14B
330
17
100
AcDbEntity
  8
A-ELEV
100
AcDbLine
 10
70.3
 20
3.6
 30
0.0
 11
86.0
 21
3.6
 31
0.0
  0
LINE
  5
14C
330
17
100
AcDbEntity
  8
A-ELEV
100
AcDbLine
 10
70.3
 20
3.8
 30
0.0
 11
70.3
 21
3.4
 31
0.0
  0
TEXT
  5
14D
330
17
100
AcDbEntity
  8
A-TEXT
100
AcDbText
 10
74.9
 20
3.65
 30
0.0
 40
0.3
  1
9.2 m
 72
1
 11
74.9
 21
3.65
 31
0.0
100
AcDbText
  0
LINE
  5
14E
330
17
100
AcDbEntity
  8
A-ELEV
100
AcDbLine
 10
79.5
 20
3.8
 30
0.0
 11
79.5
 21
3.4
 31
0.0
  0
TEXT
  5
14F
330
17
100
AcDbEntity
  8
A-TEXT
100
AcDbText
 10
82.75
 20
3.65
 30
0.0
 40
0.3
  1
6.5 m
 72
1
 11
82.75
 21
3.65
 31
0.0
100
AcDbText
  0
LINE
  5
150
330
17
100
AcDbEntity
  8
A-ELEV
100
AcDbLine
 10
86.0
 20
3.8
 30
0.0
 11
86.0
 21
3.4
 31
0.0
  0
TEXT
  5
151
330
17
100
AcDbEntity
  8
A-TEXT
100
AcDbText
 10
85.8
 20
7.1
 30
0.0
 40
0.25
  1
TOS 3.45 AT NORTH EDGE y 35.87 (3.15 CLEAR UNDER RAFTER, 3.0 AT HAUNCH)
 72
2
 11
85.8
 21
7.1
 31
0.0
100
AcDbText
  0
TEXT
  5
152
330
17
100
AcDbEntity
  8
A-TEXT
100
AcDbText
 10
69.3
 20
10.898
 30
0.0
 40
0.25
  1
TOS SOUTH EDGE y 15.57 = 4.67 m; SINGLE PLANE 6%
 11
69.3
 21
10.898
 31
0.0
100
AcDbText
  0
TEXT
  5
153
330
17
100
AcDbEntity
  8
A-TEXT
100
AcDbText
 10
69.39999999999999
 20
4.1
 30
0.0
 40
0.25
  1
BASE PLATE 300x400x20 ON GROUT, 4 x M20 ANCHORS (PINNED)
 11
69.39999999999999
 21
4.1
 31
0.0
100
AcDbText
  0
TEXT
  5
154
330
17
100
AcDbEntity
  8
A-TEXT
100
AcDbText
 10
69.3
 20
11.298
 30
0.0
 40
0.35
  1
FRAME F5 (x = 87.2): K12 - K1 PORTAL + 9.2 m PROPPED RAFTER
 11
69.3
 21
11.298
 31
0.0
100
AcDbText
  0
TEXT
  5
155
330
17
100
AcDbEntity
  8
A-TEXT
100
AcDbText
 10
69.3
 20
2.9
 30
0.0
 40
0.25
  1
SOUTH (HIGH EAVE)
 11
69.3
 21
2.9
 31
0.0
100
AcDbText
  0
TEXT
  5
156
330
17
100
AcDbEntity
  8
A-TEXT
100
AcDbText
 10
87.0
 20
2.9
 30
0.0
 40
0.25
  1
NORTH (LOW EAVE, GUTTER)
 72
2
 11
87.0
 21
2.9
 31
0.0
100
AcDbText
  0
TEXT
  5
157
330
17
100
AcDbEntity
  8
A-TEXT
100
AcDbText
 10
48.6
 20
12.5
 30
0.0
 40
0.4
  1
TYPICAL FRAME ELEVATIONS - TRUE SCALE, BASE AT Y = 5 (HEIGHT AXIS = PLAN Y)
 11
48.6
 21
12.5
 31
0.0
100
AcDbText
  0
LWPOLYLINE
  5
163
330
17
100
AcDbEntity
  8
B-TEXT
 62
8
100
AcDbPolyline
 90
6
 70
1
 10
117.89
 20
15.57
 10
127.89
 20
15.57
 10
127.89
 20
19.97
 10
145.69
 20
19.97
 10
145.69
 20
35.87
 10
117.89
 20
35.87
  0
LWPOLYLINE
  5
164
330
17
100
AcDbEntity
  8
B-OPENING
100
AcDbPolyline
 90
4
 70
1
 10
127.89
 20
29.37
 10
131.79000000000002
 20
29.37
 10
131.79000000000002
 20
35.37
 10
127.89
 20
35.37
  0
HATCH
  5
165
330
17
100
AcDbEntity
  8
B-OPENING
 62
7
100
AcDbHatch
 10
0.0
 20
0.0
 30
0.0
210
0.0
220
0.0
230
1.0
  2
ANSI31
 70
0
 71
0
 91
1
 92
3
 72
0
 73
1
 93
4
 10
127.89
 20
29.37
 10
131.79000000000002
 20
29.37
 10
131.79000000000002
 20
35.37
 10
127.89
 20
35.37
 97
0
 75
1
 76
1
 52
0.0
 41
0.5
 77
0
 78
1
 53
45.0
 43
0.0
 44
0.0
 45
-0.5612660076
 46
0.5612660076
 79
0
 98
0
  0
TEXT
  5
166
330
17
100
AcDbEntity
  8
B-OPENING
100
AcDbText
 10
128.04000000000002
 20
32.669999999999995
 30
0.0
 40
0.25
  1
STAIR OPENING - NOT ROOFED
 11
128.04000000000002
 21
32.669999999999995
 31
0.0
100
AcDbText
  0
TEXT
  5
167
330
17
100
AcDbEntity
  8
B-OPENING
100
AcDbText
 10
128.04000000000002
 20
32.169999999999995
 30
0.0
 40
0.2
  1
upstand + flashing all sides
 11
128.04000000000002
 21
32.169999999999995
 31
0.0
100
AcDbText
  0
LWPOLYLINE
  5
168
330
17
100
AcDbEntity
  8
B-OPENING
100
AcDbPolyline
 90
4
 70
1
 10
127.89
 20
20.17
 10
131.99
 20
20.17
 10
131.99
 20
24.16
 10
127.89
 20
24.16
  0
HATCH
  5
169
330
17
100
AcDbEntity
  8
B-OPENING
 62
7
100
AcDbHatch
 10
0.0
 20
0.0
 30
0.0
210
0.0
220
0.0
230
1.0
  2
ANSI31
 70
0
 71
0
 91
1
 92
3
 72
0
 73
1
 93
4
 10
127.89
 20
20.17
 10
131.99
 20
20.17
 10
131.99
 20
24.16
 10
127.89
 20
24.16
 97
0
 75
1
 76
1
 52
0.0
 41
0.5
 77
0
 78
1
 53
45.0
 43
0.0
 44
0.0
 45
-0.5612660076
 46
0.5612660076
 79
0
 98
0
  0
TEXT
  5
16A
330
17
100
AcDbEntity
  8
B-OPENING
100
AcDbText
 10
128.04000000000002
 20
22.465
 30
0.0
 40
0.25
  1
ELEVATOR OPENING - NOT ROOFED
 11
128.04000000000002
 21
22.465
 31
0.0
100
AcDbText
  0
TEXT
  5
16B
330
17
100
AcDbEntity
  8
B-OPENING
100
AcDbText
 10
128.04000000000002
 20
21.965
 30
0.0
 40
0.2
  1
upstand + flashing all sides
 11
128.04000000000002
 21
21.965
 31
0.0
100
AcDbText
  0
LWPOLYLINE
  5
16C
330
17
100
AcDbEntity
  8
B-COL
100
AcDbPolyline
 90
4
 70
1
 10
136.99
 20
35.67
 10
137.39
 20
35.67
 10
137.39
 20
35.870000000000005
 10
136.99
 20
35.870000000000005
  0
HATCH
  5
16D
330
17
100
AcDbEntity
  8
B-COL
 62
7
100
AcDbHatch
 10
0.0
 20
0.0
 30
0.0
210
0.0
220
0.0
230
1.0
  2
SOLID
 70
1
 71
0
 91
1
 92
3
 72
0
 73
1
 93
4
 10
136.99
 20
35.67
 10
137.39
 20
35.67
 10
137.39
 20
35.870000000000005
 10
136.99
 20
35.870000000000005
 97
0
 75
0
 76
1
 98
0
  0
TEXT
  5
16E
330
17
100
AcDbEntity
  8
B-TEXT
100
AcDbText
 10
137.44
 20
36.02
 30
0.0
 40
0.25
  1
K1
 11
137.44
 21
36.02
 31
0.0
100
AcDbText
  0
LWPOLYLINE
  5
16F
330
17
100
AcDbEntity
  8
B-COL
100
AcDbPolyline
 90
4
 70
1
 10
142.28
 20
35.67
 10
142.68
 20
35.67
 10
142.68
 20
35.870000000000005
 10
142.28
 20
35.870000000000005
  0
HATCH
  5
170
330
17
100
AcDbEntity
  8
B-COL
 62
7
100
AcDbHatch
 10
0.0
 20
0.0
 30
0.0
210
0.0
220
0.0
230
1.0
  2
SOLID
 70
1
 71
0
 91
1
 92
3
 72
0
 73
1
 93
4
 10
142.28
 20
35.67
 10
142.68
 20
35.67
 10
142.68
 20
35.870000000000005
 10
142.28
 20
35.870000000000005
 97
0
 75
0
 76
1
 98
0
  0
TEXT
  5
171
330
17
100
AcDbEntity
  8
B-TEXT
100
AcDbText
 10
142.73000000000002
 20
36.02
 30
0.0
 40
0.25
  1
K2
 11
142.73000000000002
 21
36.02
 31
0.0
100
AcDbText
  0
LWPOLYLINE
  5
172
330
17
100
AcDbEntity
  8
B-COL
100
AcDbPolyline
 90
4
 70
1
 10
131.79000000000002
 20
35.47
 10
131.99
 20
35.47
 10
131.99
 20
35.87
 10
131.79000000000002
 20
35.87
  0
HATCH
  5
173
330
17
100
AcDbEntity
  8
B-COL
 62
7
100
AcDbHatch
 10
0.0
 20
0.0
 30
0.0
210
0.0
220
0.0
230
1.0
  2
SOLID
 70
1
 71
0
 91
1
 92
3
 72
0
 73
1
 93
4
 10
131.79000000000002
 20
35.47
 10
131.99
 20
35.47
 10
131.99
 20
35.87
 10
131.79000000000002
 20
35.87
 97
0
 75
0
 76
1
 98
0
  0
TEXT
  5
174
330
17
100
AcDbEntity
  8
B-TEXT
100
AcDbText
 10
132.14
 20
35.92
 30
0.0
 40
0.25
  1
K3
 11
132.14
 21
35.92
 31
0.0
100
AcDbText
  0
LWPOLYLINE
  5
175
330
17
100
AcDbEntity
  8
B-COL
100
AcDbPolyline
 90
4
 70
1
 10
145.49
 20
35.47
 10
145.69
 20
35.47
 10
145.69
 20
35.87
 10
145.49
 20
35.87
  0
HATCH
  5
176
330
17
100
AcDbEntity
  8
B-COL
 62
7
100
AcDbHatch
 10
0.0
 20
0.0
 30
0.0
210
0.0
220
0.0
230
1.0
  2
SOLID
 70
1
 71
0
 91
1
 92
3
 72
0
 73
1
 93
4
 10
145.49
 20
35.47
 10
145.69
 20
35.47
 10
145.69
 20
35.87
 10
145.49
 20
35.87
 97
0
 75
0
 76
1
 98
0
  0
TEXT
  5
177
330
17
100
AcDbEntity
  8
B-TEXT
100
AcDbText
 10
145.84
 20
35.92
 30
0.0
 40
0.25
  1
K4
 11
145.84
 21
35.92
 31
0.0
100
AcDbText
  0
LWPOLYLINE
  5
178
330
17
100
AcDbEntity
  8
B-COL
100
AcDbPolyline
 90
4
 70
1
 10
121.89
 20
35.17
 10
122.29
 20
35.17
 10
122.29
 20
35.370000000000005
 10
121.89
 20
35.370000000000005
  0
HATCH
  5
179
330
17
100
AcDbEntity
  8
B-COL
 62
7
100
AcDbHatch
 10
0.0
 20
0.0
 30
0.0
210
0.0
220
0.0
230
1.0
  2
SOLID
 70
1
 71
0
 91
1
 92
3
 72
0
 73
1
 93
4
 10
121.89
 20
35.17
 10
122.29
 20
35.17
 10
122.29
 20
35.370000000000005
 10
121.89
 20
35.370000000000005
 97
0
 75
0
 76
1
 98
0
  0
TEXT
  5
17A
330
17
100
AcDbEntity
  8
B-TEXT
100
AcDbText
 10
122.34
 20
35.52
 30
0.0
 40
0.25
  1
K5
 11
122.34
 21
35.52
 31
0.0
100
AcDbText
  0
LWPOLYLINE
  5
17B
330
17
100
AcDbEntity
  8
B-COL
100
AcDbPolyline
 90
4
 70
1
 10
117.89
 20
34.97
 10
118.09
 20
34.97
 10
118.09
 20
35.37
 10
117.89
 20
35.37
  0
HATCH
  5
17C
330
17
100
AcDbEntity
  8
B-COL
 62
7
100
AcDbHatch
 10
0.0
 20
0.0
 30
0.0
210
0.0
220
0.0
230
1.0
  2
SOLID
 70
1
 71
0
 91
1
 92
3
 72
0
 73
1
 93
4
 10
117.89
 20
34.97
 10
118.09
 20
34.97
 10
118.09
 20
35.37
 10
117.89
 20
35.37
 97
0
 75
0
 76
1
 98
0
  0
TEXT
  5
17D
330
17
100
AcDbEntity
  8
B-TEXT
100
AcDbText
 10
118.24
 20
35.42
 30
0.0
 40
0.25
  1
K6
 11
118.24
 21
35.42
 31
0.0
100
AcDbText
  0
LWPOLYLINE
  5
17E
330
17
100
AcDbEntity
  8
B-COL
100
AcDbPolyline
 90
4
 70
1
 10
127.69000000000001
 20
34.97
 10
127.89000000000001
 20
34.97
 10
127.89000000000001
 20
35.37
 10
127.69000000000001
 20
35.37
  0
HATCH
  5
17F
330
17
100
AcDbEntity
  8
B-COL
 62
7
100
AcDbHatch
 10
0.0
 20
0.0
 30
0.0
210
0.0
220
0.0
230
1.0
  2
SOLID
 70
1
 71
0
 91
1
 92
3
 72
0
 73
1
 93
4
 10
127.69000000000001
 20
34.97
 10
127.89000000000001
 20
34.97
 10
127.89000000000001
 20
35.37
 10
127.69000000000001
 20
35.37
 97
0
 75
0
 76
1
 98
0
  0
TEXT
  5
180
330
17
100
AcDbEntity
  8
B-TEXT
100
AcDbText
 10
128.04000000000002
 20
35.42
 30
0.0
 40
0.25
  1
K7
 11
128.04000000000002
 21
35.42
 31
0.0
100
AcDbText
  0
LWPOLYLINE
  5
181
330
17
100
AcDbEntity
  8
B-COL
100
AcDbPolyline
 90
4
 70
1
 10
117.89
 20
29.17
 10
118.09
 20
29.17
 10
118.09
 20
29.57
 10
117.89
 20
29.57
  0
HATCH
  5
182
330
17
100
AcDbEntity
  8
B-COL
 62
7
100
AcDbHatch
 10
0.0
 20
0.0
 30
0.0
210
0.0
220
0.0
230
1.0
  2
SOLID
 70
1
 71
0
 91
1
 92
3
 72
0
 73
1
 93
4
 10
117.89
 20
29.17
 10
118.09
 20
29.17
 10
118.09
 20
29.57
 10
117.89
 20
29.57
 97
0
 75
0
 76
1
 98
0
  0
TEXT
  5
183
330
17
100
AcDbEntity
  8
B-TEXT
100
AcDbText
 10
118.24
 20
29.62
 30
0.0
 40
0.25
  1
K8
 11
118.24
 21
29.62
 31
0.0
100
AcDbText
  0
LWPOLYLINE
  5
184
330
17
100
AcDbEntity
  8
B-COL-UNUSED
100
AcDbPolyline
 90
4
 70
1
 10
121.89
 20
29.169999999999998
 10
122.29
 20
29.169999999999998
 10
122.29
 20
29.369999999999997
 10
121.89
 20
29.369999999999997
  0
TEXT
  5
185
330
17
100
AcDbEntity
  8
B-TEXT
100
AcDbText
 10
122.34
 20
29.52
 30
0.0
 40
0.25
  1
K9
 11
122.34
 21
29.52
 31
0.0
100
AcDbText
  0
LWPOLYLINE
  5
186
330
17
100
AcDbEntity
  8
B-COL-UNUSED
100
AcDbPolyline
 90
4
 70
1
 10
127.69
 20
29.169999999999998
 10
128.09
 20
29.169999999999998
 10
128.09
 20
29.369999999999997
 10
127.69
 20
29.369999999999997
  0
TEXT
  5
187
330
17
100
AcDbEntity
  8
B-TEXT
100
AcDbText
 10
128.14
 20
29.52
 30
0.0
 40
0.25
  1
K10
 11
128.14
 21
29.52
 31
0.0
100
AcDbText
  0
LWPOLYLINE
  5
188
330
17
100
AcDbEntity
  8
B-COL-UNUSED
100
AcDbPolyline
 90
4
 70
1
 10
131.57999999999998
 20
29.169999999999998
 10
131.98000000000002
 20
29.169999999999998
 10
131.98000000000002
 20
29.369999999999997
 10
131.57999999999998
 20
29.369999999999997
  0
TEXT
  5
189
330
17
100
AcDbEntity
  8
B-TEXT
100
AcDbText
 10
132.03
 20
29.52
 30
0.0
 40
0.25
  1
K11
 11
132.03
 21
29.52
 31
0.0
100
AcDbText
  0
LWPOLYLINE
  5
18A
330
17
100
AcDbEntity
  8
B-COL-UNUSED
100
AcDbPolyline
 90
4
 70
1
 10
136.99
 20
29.169999999999998
 10
137.39
 20
29.169999999999998
 10
137.39
 20
29.369999999999997
 10
136.99
 20
29.369999999999997
  0
TEXT
  5
18B
330
17
100
AcDbEntity
  8
B-TEXT
100
AcDbText
 10
137.44
 20
29.52
 30
0.0
 40
0.25
  1
K12
 11
137.44
 21
29.52
 31
0.0
100
AcDbText
  0
LWPOLYLINE
  5
18C
330
17
100
AcDbEntity
  8
B-COL-UNUSED
100
AcDbPolyline
 90
4
 70
1
 10
142.28
 20
29.169999999999998
 10
142.68
 20
29.169999999999998
 10
142.68
 20
29.369999999999997
 10
142.28
 20
29.369999999999997
  0
TEXT
  5
18D
330
17
100
AcDbEntity
  8
B-TEXT
100
AcDbText
 10
142.73000000000002
 20
29.52
 30
0.0
 40
0.25
  1
K13
 11
142.73000000000002
 21
29.52
 31
0.0
100
AcDbText
  0
LWPOLYLINE
  5
18E
330
17
100
AcDbEntity
  8
B-COL
100
AcDbPolyline
 90
4
 70
1
 10
145.28
 20
29.169999999999998
 10
145.68
 20
29.169999999999998
 10
145.68
 20
29.369999999999997
 10
145.28
 20
29.369999999999997
  0
HATCH
  5
18F
330
17
100
AcDbEntity
  8
B-COL
 62
7
100
AcDbHatch
 10
0.0
 20
0.0
 30
0.0
210
0.0
220
0.0
230
1.0
  2
SOLID
 70
1
 71
0
 91
1
 92
3
 72
0
 73
1
 93
4
 10
145.28
 20
29.169999999999998
 10
145.68
 20
29.169999999999998
 10
145.68
 20
29.369999999999997
 10
145.28
 20
29.369999999999997
 97
0
 75
0
 76
1
 98
0
  0
TEXT
  5
190
330
17
100
AcDbEntity
  8
B-TEXT
100
AcDbText
 10
145.73000000000002
 20
29.52
 30
0.0
 40
0.25
  1
K14
 11
145.73000000000002
 21
29.52
 31
0.0
100
AcDbText
  0
LWPOLYLINE
  5
191
330
17
100
AcDbEntity
  8
B-COL
100
AcDbPolyline
 90
4
 70
1
 10
117.89
 20
26.17
 10
118.09
 20
26.17
 10
118.09
 20
26.57
 10
117.89
 20
26.57
  0
HATCH
  5
192
330
17
100
AcDbEntity
  8
B-COL
 62
7
100
AcDbHatch
 10
0.0
 20
0.0
 30
0.0
210
0.0
220
0.0
230
1.0
  2
SOLID
 70
1
 71
0
 91
1
 92
3
 72
0
 73
1
 93
4
 10
117.89
 20
26.17
 10
118.09
 20
26.17
 10
118.09
 20
26.57
 10
117.89
 20
26.57
 97
0
 75
0
 76
1
 98
0
  0
TEXT
  5
193
330
17
100
AcDbEntity
  8
B-TEXT
100
AcDbText
 10
118.24
 20
26.62
 30
0.0
 40
0.25
  1
K15
 11
118.24
 21
26.62
 31
0.0
100
AcDbText
  0
LWPOLYLINE
  5
194
330
17
100
AcDbEntity
  8
B-COL-UNUSED
100
AcDbPolyline
 90
4
 70
1
 10
127.68
 20
24.26
 10
127.88000000000001
 20
24.26
 10
127.88000000000001
 20
24.66
 10
127.68
 20
24.66
  0
TEXT
  5
195
330
17
100
AcDbEntity
  8
B-TEXT
100
AcDbText
 10
128.03
 20
24.71
 30
0.0
 40
0.25
  1
K16
 11
128.03
 21
24.71
 31
0.0
100
AcDbText
  0
LWPOLYLINE
  5
196
330
17
100
AcDbEntity
  8
B-COL-UNUSED
100
AcDbPolyline
 90
4
 70
1
 10
131.79000000000002
 20
24.26
 10
131.99
 20
24.26
 10
131.99
 20
24.66
 10
131.79000000000002
 20
24.66
  0
TEXT
  5
197
330
17
100
AcDbEntity
  8
B-TEXT
100
AcDbText
 10
132.14
 20
24.71
 30
0.0
 40
0.25
  1
K17
 11
132.14
 21
24.71
 31
0.0
100
AcDbText
  0
LWPOLYLINE
  5
198
330
17
100
AcDbEntity
  8
B-COL
100
AcDbPolyline
 90
4
 70
1
 10
145.49
 20
24.26
 10
145.69
 20
24.26
 10
145.69
 20
24.66
 10
145.49
 20
24.66
  0
HATCH
  5
199
330
17
100
AcDbEntity
  8
B-COL
 62
7
100
AcDbHatch
 10
0.0
 20
0.0
 30
0.0
210
0.0
220
0.0
230
1.0
  2
SOLID
 70
1
 71
0
 91
1
 92
3
 72
0
 73
1
 93
4
 10
145.49
 20
24.26
 10
145.69
 20
24.26
 10
145.69
 20
24.66
 10
145.49
 20
24.66
 97
0
 75
0
 76
1
 98
0
  0
TEXT
  5
19A
330
17
100
AcDbEntity
  8
B-TEXT
100
AcDbText
 10
145.84
 20
24.71
 30
0.0
 40
0.25
  1
K18
 11
145.84
 21
24.71
 31
0.0
100
AcDbText
  0
LWPOLYLINE
  5
19B
330
17
100
AcDbEntity
  8
B-COL
100
AcDbPolyline
 90
4
 70
1
 10
117.89
 20
21.560000000000002
 10
118.09
 20
21.560000000000002
 10
118.09
 20
21.96
 10
117.89
 20
21.96
  0
HATCH
  5
19C
330
17
100
AcDbEntity
  8
B-COL
 62
7
100
AcDbHatch
 10
0.0
 20
0.0
 30
0.0
210
0.0
220
0.0
230
1.0
  2
SOLID
 70
1
 71
0
 91
1
 92
3
 72
0
 73
1
 93
4
 10
117.89
 20
21.560000000000002
 10
118.09
 20
21.560000000000002
 10
118.09
 20
21.96
 10
117.89
 20
21.96
 97
0
 75
0
 76
1
 98
0
  0
TEXT
  5
19D
330
17
100
AcDbEntity
  8
B-TEXT
100
AcDbText
 10
118.24
 20
22.01
 30
0.0
 40
0.25
  1
K19
 11
118.24
 21
22.01
 31
0.0
100
AcDbText
  0
LWPOLYLINE
  5
19E
330
17
100
AcDbEntity
  8
B-COL-UNUSED
100
AcDbPolyline
 90
4
 70
1
 10
127.68
 20
21.560000000000002
 10
127.88000000000001
 20
21.560000000000002
 10
127.88000000000001
 20
21.96
 10
127.68
 20
21.96
  0
TEXT
  5
19F
330
17
100
AcDbEntity
  8
B-TEXT
100
AcDbText
 10
128.03
 20
22.01
 30
0.0
 40
0.25
  1
K20
 11
128.03
 21
22.01
 31
0.0
100
AcDbText
  0
LWPOLYLINE
  5
1A0
330
17
100
AcDbEntity
  8
B-COL
100
AcDbPolyline
 90
4
 70
1
 10
131.59
 20
19.97
 10
131.99
 20
19.97
 10
131.99
 20
20.169999999999998
 10
131.59
 20
20.169999999999998
  0
HATCH
  5
1A1
330
17
100
AcDbEntity
  8
B-COL
 62
7
100
AcDbHatch
 10
0.0
 20
0.0
 30
0.0
210
0.0
220
0.0
230
1.0
  2
SOLID
 70
1
 71
0
 91
1
 92
3
 72
0
 73
1
 93
4
 10
131.59
 20
19.97
 10
131.99
 20
19.97
 10
131.99
 20
20.169999999999998
 10
131.59
 20
20.169999999999998
 97
0
 75
0
 76
1
 98
0
  0
TEXT
  5
1A2
330
17
100
AcDbEntity
  8
B-TEXT
100
AcDbText
 10
132.04000000000002
 20
20.32
 30
0.0
 40
0.25
  1
K21
 11
132.04000000000002
 21
20.32
 31
0.0
100
AcDbText
  0
LWPOLYLINE
  5
1A3
330
17
100
AcDbEntity
  8
B-COL
100
AcDbPolyline
 90
4
 70
1
 10
138.68
 20
19.97
 10
139.07999999999998
 20
19.97
 10
139.07999999999998
 20
20.169999999999998
 10
138.68
 20
20.169999999999998
  0
HATCH
  5
1A4
330
17
100
AcDbEntity
  8
B-COL
 62
7
100
AcDbHatch
 10
0.0
 20
0.0
 30
0.0
210
0.0
220
0.0
230
1.0
  2
SOLID
 70
1
 71
0
 91
1
 92
3
 72
0
 73
1
 93
4
 10
138.68
 20
19.97
 10
139.07999999999998
 20
19.97
 10
139.07999999999998
 20
20.169999999999998
 10
138.68
 20
20.169999999999998
 97
0
 75
0
 76
1
 98
0
  0
TEXT
  5
1A5
330
17
100
AcDbEntity
  8
B-TEXT
100
AcDbText
 10
139.13
 20
20.32
 30
0.0
 40
0.25
  1
K22
 11
139.13
 21
20.32
 31
0.0
100
AcDbText
  0
LWPOLYLINE
  5
1A6
330
17
100
AcDbEntity
  8
B-COL
100
AcDbPolyline
 90
4
 70
1
 10
145.29
 20
19.97
 10
145.69
 20
19.97
 10
145.69
 20
20.169999999999998
 10
145.29
 20
20.169999999999998
  0
HATCH
  5
1A7
330
17
100
AcDbEntity
  8
B-COL
 62
7
100
AcDbHatch
 10
0.0
 20
0.0
 30
0.0
210
0.0
220
0.0
230
1.0
  2
SOLID
 70
1
 71
0
 91
1
 92
3
 72
0
 73
1
 93
4
 10
145.29
 20
19.97
 10
145.69
 20
19.97
 10
145.69
 20
20.169999999999998
 10
145.29
 20
20.169999999999998
 97
0
 75
0
 76
1
 98
0
  0
TEXT
  5
1A8
330
17
100
AcDbEntity
  8
B-TEXT
100
AcDbText
 10
145.74
 20
20.32
 30
0.0
 40
0.25
  1
K23
 11
145.74
 21
20.32
 31
0.0
100
AcDbText
  0
LWPOLYLINE
  5
1A9
330
17
100
AcDbEntity
  8
B-COL
100
AcDbPolyline
 90
4
 70
1
 10
124.69
 20
15.870000000000001
 10
125.09
 20
15.870000000000001
 10
125.09
 20
16.07
 10
124.69
 20
16.07
  0
HATCH
  5
1AA
330
17
100
AcDbEntity
  8
B-COL
 62
7
100
AcDbHatch
 10
0.0
 20
0.0
 30
0.0
210
0.0
220
0.0
230
1.0
  2
SOLID
 70
1
 71
0
 91
1
 92
3
 72
0
 73
1
 93
4
 10
124.69
 20
15.870000000000001
 10
125.09
 20
15.870000000000001
 10
125.09
 20
16.07
 10
124.69
 20
16.07
 97
0
 75
0
 76
1
 98
0
  0
TEXT
  5
1AB
330
17
100
AcDbEntity
  8
B-TEXT
100
AcDbText
 10
125.14
 20
16.22
 30
0.0
 40
0.25
  1
K24
 11
125.14
 21
16.22
 31
0.0
100
AcDbText
  0
LWPOLYLINE
  5
1AC
330
17
100
AcDbEntity
  8
B-COL
100
AcDbPolyline
 90
4
 70
1
 10
117.89
 20
15.67
 10
118.09
 20
15.67
 10
118.09
 20
16.07
 10
117.89
 20
16.07
  0
HATCH
  5
1AD
330
17
100
AcDbEntity
  8
B-COL
 62
7
100
AcDbHatch
 10
0.0
 20
0.0
 30
0.0
210
0.0
220
0.0
230
1.0
  2
SOLID
 70
1
 71
0
 91
1
 92
3
 72
0
 73
1
 93
4
 10
117.89
 20
15.67
 10
118.09
 20
15.67
 10
118.09
 20
16.07
 10
117.89
 20
16.07
 97
0
 75
0
 76
1
 98
0
  0
TEXT
  5
1AE
330
17
100
AcDbEntity
  8
B-TEXT
100
AcDbText
 10
118.24
 20
16.119999999999997
 30
0.0
 40
0.25
  1
K25
 11
118.24
 21
16.119999999999997
 31
0.0
100
AcDbText
  0
LWPOLYLINE
  5
1AF
330
17
100
AcDbEntity
  8
B-COL
100
AcDbPolyline
 90
4
 70
1
 10
121.89
 20
15.67
 10
122.09
 20
15.67
 10
122.09
 20
16.07
 10
121.89
 20
16.07
  0
HATCH
  5
1B0
330
17
100
AcDbEntity
  8
B-COL
 62
7
100
AcDbHatch
 10
0.0
 20
0.0
 30
0.0
210
0.0
220
0.0
230
1.0
  2
SOLID
 70
1
 71
0
 91
1
 92
3
 72
0
 73
1
 93
4
 10
121.89
 20
15.67
 10
122.09
 20
15.67
 10
122.09
 20
16.07
 10
121.89
 20
16.07
 97
0
 75
0
 76
1
 98
0
  0
TEXT
  5
1B1
330
17
100
AcDbEntity
  8
B-TEXT
100
AcDbText
 10
122.24
 20
16.119999999999997
 30
0.0
 40
0.25
  1
K26
 11
122.24
 21
16.119999999999997
 31
0.0
100
AcDbText
  0
LWPOLYLINE
  5
1B2
330
17
100
AcDbEntity
  8
B-COL
100
AcDbPolyline
 90
4
 70
1
 10
127.68
 20
15.67
 10
127.88000000000001
 20
15.67
 10
127.88000000000001
 20
16.07
 10
127.68
 20
16.07
  0
HATCH
  5
1B3
330
17
100
AcDbEntity
  8
B-COL
 62
7
100
AcDbHatch
 10
0.0
 20
0.0
 30
0.0
210
0.0
220
0.0
230
1.0
  2
SOLID
 70
1
 71
0
 91
1
 92
3
 72
0
 73
1
 93
4
 10
127.68
 20
15.67
 10
127.88000000000001
 20
15.67
 10
127.88000000000001
 20
16.07
 10
127.68
 20
16.07
 97
0
 75
0
 76
1
 98
0
  0
TEXT
  5
1B4
330
17
100
AcDbEntity
  8
B-TEXT
100
AcDbText
 10
128.03
 20
16.119999999999997
 30
0.0
 40
0.25
  1
K27
 11
128.03
 21
16.119999999999997
 31
0.0
100
AcDbText
  0
LINE
  5
1B5
330
17
100
AcDbEntity
  8
B-PURLIN
100
AcDbLine
 10
117.89
 20
35.75
 30
0.0
 11
145.69
 21
35.75
 31
0.0
  0
LINE
  5
1B6
330
17
100
AcDbEntity
  8
B-PURLIN
100
AcDbLine
 10
117.89
 20
34.25
 30
0.0
 11
127.785
 21
34.25
 31
0.0
  0
LINE
  5
1B7
330
17
100
AcDbEntity
  8
B-PURLIN
100
AcDbLine
 10
131.84
 20
34.25
 30
0.0
 11
145.69
 21
34.25
 31
0.0
  0
LINE
  5
1B8
330
17
100
AcDbEntity
  8
B-PURLIN
100
AcDbLine
 10
117.89
 20
32.75
 30
0.0
 11
127.785
 21
32.75
 31
0.0
  0
LINE
  5
1B9
330
17
100
AcDbEntity
  8
B-PURLIN
100
AcDbLine
 10
131.84
 20
32.75
 30
0.0
 11
145.69
 21
32.75
 31
0.0
  0
LINE
  5
1BA
330
17
100
AcDbEntity
  8
B-PURLIN
100
AcDbLine
 10
117.89
 20
31.25
 30
0.0
 11
127.785
 21
31.25
 31
0.0
  0
LINE
  5
1BB
330
17
100
AcDbEntity
  8
B-PURLIN
100
AcDbLine
 10
131.84
 20
31.25
 30
0.0
 11
145.69
 21
31.25
 31
0.0
  0
LINE
  5
1BC
330
17
100
AcDbEntity
  8
B-PURLIN
100
AcDbLine
 10
117.89
 20
29.75
 30
0.0
 11
127.785
 21
29.75
 31
0.0
  0
LINE
  5
1BD
330
17
100
AcDbEntity
  8
B-PURLIN
100
AcDbLine
 10
131.84
 20
29.75
 30
0.0
 11
145.69
 21
29.75
 31
0.0
  0
LINE
  5
1BE
330
17
100
AcDbEntity
  8
B-PURLIN
100
AcDbLine
 10
117.89
 20
28.25
 30
0.0
 11
145.69
 21
28.25
 31
0.0
  0
LINE
  5
1BF
330
17
100
AcDbEntity
  8
B-PURLIN
100
AcDbLine
 10
117.89
 20
26.75
 30
0.0
 11
145.69
 21
26.75
 31
0.0
  0
LINE
  5
1C0
330
17
100
AcDbEntity
  8
B-PURLIN
100
AcDbLine
 10
117.89
 20
25.25
 30
0.0
 11
145.69
 21
25.25
 31
0.0
  0
LINE
  5
1C1
330
17
100
AcDbEntity
  8
B-PURLIN
100
AcDbLine
 10
117.89
 20
23.75
 30
0.0
 11
127.785
 21
23.75
 31
0.0
  0
LINE
  5
1C2
330
17
100
AcDbEntity
  8
B-PURLIN
100
AcDbLine
 10
131.84
 20
23.75
 30
0.0
 11
145.69
 21
23.75
 31
0.0
  0
LINE
  5
1C3
330
17
100
AcDbEntity
  8
B-PURLIN
100
AcDbLine
 10
117.89
 20
22.25
 30
0.0
 11
127.785
 21
22.25
 31
0.0
  0
LINE
  5
1C4
330
17
100
AcDbEntity
  8
B-PURLIN
100
AcDbLine
 10
131.84
 20
22.25
 30
0.0
 11
145.69
 21
22.25
 31
0.0
  0
LINE
  5
1C5
330
17
100
AcDbEntity
  8
B-PURLIN
100
AcDbLine
 10
117.89
 20
20.75
 30
0.0
 11
127.785
 21
20.75
 31
0.0
  0
LINE
  5
1C6
330
17
100
AcDbEntity
  8
B-PURLIN
100
AcDbLine
 10
131.84
 20
20.75
 30
0.0
 11
145.69
 21
20.75
 31
0.0
  0
LINE
  5
1C7
330
17
100
AcDbEntity
  8
B-PURLIN
100
AcDbLine
 10
117.89
 20
19.25
 30
0.0
 11
127.89
 21
19.25
 31
0.0
  0
LINE
  5
1C8
330
17
100
AcDbEntity
  8
B-PURLIN
100
AcDbLine
 10
117.89
 20
17.75
 30
0.0
 11
127.89
 21
17.75
 31
0.0
  0
LINE
  5
1C9
330
17
100
AcDbEntity
  8
B-PURLIN
100
AcDbLine
 10
117.89
 20
16.25
 30
0.0
 11
127.89
 21
16.25
 31
0.0
  0
LINE
  5
1CA
330
17
100
AcDbEntity
  8
B-TRUSS
 62
1
370
50
100
AcDbLine
 10
117.99
 20
15.87
 30
0.0
 11
117.99
 21
35.17
 31
0.0
  0
TEXT
  5
1CB
330
17
100
AcDbEntity
  8
B-TEXT
100
AcDbText
 10
118.19
 20
24.02
 30
0.0
 40
0.3
  1
T1 19.3 m
 50
90.0
 11
118.19
 21
24.02
 31
0.0
100
AcDbText
  0
LINE
  5
1CC
330
17
100
AcDbEntity
  8
B-TRUSS
 62
1
370
50
100
AcDbLine
 10
122.03999999999999
 20
15.87
 30
0.0
 11
122.03999999999999
 21
35.27
 31
0.0
  0
TEXT
  5
1CD
330
17
100
AcDbEntity
  8
B-TEXT
100
AcDbText
 10
122.24
 20
24.07
 30
0.0
 40
0.3
  1
T1 19.3 m
 50
90.0
 11
122.24
 21
24.07
 31
0.0
100
AcDbText
  0
LINE
  5
1CE
330
17
100
AcDbEntity
  8
B-TRUSS
 62
1
370
50
100
AcDbLine
 10
127.785
 20
15.87
 30
0.0
 11
127.785
 21
35.17
 31
0.0
  0
TEXT
  5
1CF
330
17
100
AcDbEntity
  8
B-TEXT
100
AcDbText
 10
127.985
 20
24.02
 30
0.0
 40
0.3
  1
T1 19.3 m
 50
90.0
 11
127.985
 21
24.02
 31
0.0
100
AcDbText
  0
LINE
  5
1D0
330
17
100
AcDbEntity
  8
B-TRUSS
 62
1
370
50
100
AcDbLine
 10
131.84
 20
20.07
 30
0.0
 11
131.84
 21
35.67
 31
0.0
  0
TEXT
  5
1D1
330
17
100
AcDbEntity
  8
B-TEXT
100
AcDbText
 10
132.04000000000002
 20
26.37
 30
0.0
 40
0.3
  1
T2 15.6 m
 50
90.0
 11
132.04000000000002
 21
26.37
 31
0.0
100
AcDbText
  0
LINE
  5
1D2
330
17
100
AcDbEntity
  8
B-TRUSS
 62
1
370
50
100
AcDbLine
 10
137.19
 20
20.07
 30
0.0
 11
137.19
 21
35.77
 31
0.0
  0
TEXT
  5
1D3
330
17
100
AcDbEntity
  8
B-TEXT
100
AcDbText
 10
137.39
 20
26.42
 30
0.0
 40
0.3
  1
T2 15.6 m
 50
90.0
 11
137.39
 21
26.42
 31
0.0
100
AcDbText
  0
LINE
  5
1D4
330
17
100
AcDbEntity
  8
B-TRUSS
 62
1
370
50
100
AcDbLine
 10
142.48000000000002
 20
20.07
 30
0.0
 11
142.48000000000002
 21
35.77
 31
0.0
  0
TEXT
  5
1D5
330
17
100
AcDbEntity
  8
B-TEXT
100
AcDbText
 10
142.68
 20
26.42
 30
0.0
 40
0.3
  1
T2 15.6 m
 50
90.0
 11
142.68
 21
26.42
 31
0.0
100
AcDbText
  0
LINE
  5
1D6
330
17
100
AcDbEntity
  8
B-TRUSS
 62
1
370
50
100
AcDbLine
 10
145.54
 20
20.07
 30
0.0
 11
145.54
 21
35.67
 31
0.0
  0
TEXT
  5
1D7
330
17
100
AcDbEntity
  8
B-TEXT
100
AcDbText
 10
145.74
 20
26.37
 30
0.0
 40
0.3
  1
T2 15.6 m
 50
90.0
 11
145.74
 21
26.37
 31
0.0
100
AcDbText
  0
LINE
  5
1D8
330
17
100
AcDbEntity
  8
B-BEAM
370
50
100
AcDbLine
 10
131.79000000000002
 20
20.07
 30
0.0
 11
145.49
 21
20.07
 31
0.0
  0
TEXT
  5
1D9
330
17
100
AcDbEntity
  8
B-TEXT
100
AcDbText
 10
133.0
 20
19.3
 30
0.0
 40
0.3
  1
EAVE GIRDER IPE 330 (2-span, carries T2 at x 87.2 / 92.5)
 11
133.0
 21
19.3
 31
0.0
100
AcDbText
  0
LINE
  5
1DA
330
17
100
AcDbEntity
  8
B-BEAM
100
AcDbLine
 10
127.79
 20
20.07
 30
0.0
 11
131.79000000000002
 21
20.07
 31
0.0
  0
TEXT
  5
1DB
330
17
100
AcDbEntity
  8
B-TEXT
100
AcDbText
 10
128.0
 20
19.3
 30
0.0
 40
0.25
  1
HEADER IPE 200
 11
128.0
 21
19.3
 31
0.0
100
AcDbText
  0
LINE
  5
1DC
330
17
100
AcDbEntity
  8
B-BEAM
100
AcDbLine
 10
117.89
 20
35.5
 30
0.0
 11
145.69
 21
35.5
 31
0.0
  0
LINE
  5
1DD
330
17
100
AcDbEntity
  8
B-BEAM
100
AcDbLine
 10
117.89
 20
15.87
 30
0.0
 11
127.89
 21
15.87
 31
0.0
  0
LINE
  5
1DE
330
17
100
AcDbEntity
  8
B-BEAM
100
AcDbLine
 10
127.89
 20
20.07
 30
0.0
 11
145.69
 21
20.07
 31
0.0
  0
TEXT
  5
1DF
330
17
100
AcDbEntity
  8
B-TEXT
100
AcDbText
 10
119.0
 20
35.95
 30
0.0
 40
0.25
  1
EAVE STRUT SHS 100x100x4 (N and S eaves)
 11
119.0
 21
35.95
 31
0.0
100
AcDbText
  0
LINE
  5
1E0
330
17
100
AcDbEntity
  8
B-BEAM
370
50
100
AcDbLine
 10
127.785
 20
29.37
 30
0.0
 11
131.84
 21
29.37
 31
0.0
  0
LINE
  5
1E1
330
17
100
AcDbEntity
  8
B-BEAM
370
50
100
AcDbLine
 10
127.785
 20
35.37
 30
0.0
 11
131.84
 21
35.37
 31
0.0
  0
LINE
  5
1E2
330
17
100
AcDbEntity
  8
B-BEAM
370
50
100
AcDbLine
 10
127.785
 20
20.17
 30
0.0
 11
131.84
 21
20.17
 31
0.0
  0
LINE
  5
1E3
330
17
100
AcDbEntity
  8
B-BEAM
370
50
100
AcDbLine
 10
127.785
 20
24.16
 30
0.0
 11
131.84
 21
24.16
 31
0.0
  0
TEXT
  5
1E4
330
17
100
AcDbEntity
  8
B-TEXT
100
AcDbText
 10
132.1
 20
24.5
 30
0.0
 40
0.25
  1
TRIMMERS SHS 100x100x4 at N+S edges of openings (E/W edges = truss top chords)
 11
132.1
 21
24.5
 31
0.0
100
AcDbText
  0
LINE
  5
1E5
330
17
100
AcDbEntity
  8
B-BEAM
  6
DASHED
100
AcDbLine
 10
117.89
 20
20.7
 30
0.0
 11
127.785
 21
20.7
 31
0.0
  0
LINE
  5
1E6
330
17
100
AcDbEntity
  8
B-BEAM
  6
DASHED
100
AcDbLine
 10
131.84
 20
20.7
 30
0.0
 11
145.69
 21
20.7
 31
0.0
  0
LINE
  5
1E7
330
17
100
AcDbEntity
  8
B-BEAM
  6
DASHED
100
AcDbLine
 10
117.89
 20
25.5
 30
0.0
 11
145.69
 21
25.5
 31
0.0
  0
LINE
  5
1E8
330
17
100
AcDbEntity
  8
B-BEAM
  6
DASHED
100
AcDbLine
 10
117.89
 20
30.3
 30
0.0
 11
127.785
 21
30.3
 31
0.0
  0
LINE
  5
1E9
330
17
100
AcDbEntity
  8
B-BEAM
  6
DASHED
100
AcDbLine
 10
131.84
 20
30.3
 30
0.0
 11
145.69
 21
30.3
 31
0.0
  0
TEXT
  5
1EA
330
17
100
AcDbEntity
  8
B-TEXT
100
AcDbText
 10
118.2
 20
30.5
 30
0.0
 40
0.25
  1
BOTTOM-CHORD TIE SHS 60x60x4 @ ~4.8 m (stops at openings)
 11
118.2
 21
30.5
 31
0.0
100
AcDbText
  0
LINE
  5
1EB
330
17
100
AcDbEntity
  8
B-BRACE-ROOF
100
AcDbLine
 10
117.99
 20
15.87
 30
0.0
 11
122.04
 21
20.7025
 31
0.0
  0
LINE
  5
1EC
330
17
100
AcDbEntity
  8
B-BRACE-ROOF
100
AcDbLine
 10
122.04
 20
15.87
 30
0.0
 11
117.99
 21
20.7025
 31
0.0
  0
LINE
  5
1ED
330
17
100
AcDbEntity
  8
B-BRACE-ROOF
100
AcDbLine
 10
117.99
 20
20.7025
 30
0.0
 11
122.04
 21
25.535000000000004
 31
0.0
  0
LINE
  5
1EE
330
17
100
AcDbEntity
  8
B-BRACE-ROOF
100
AcDbLine
 10
122.04
 20
20.7025
 30
0.0
 11
117.99
 21
25.535000000000004
 31
0.0
  0
LINE
  5
1EF
330
17
100
AcDbEntity
  8
B-BRACE-ROOF
100
AcDbLine
 10
117.99
 20
25.535000000000004
 30
0.0
 11
122.04
 21
30.367500000000003
 31
0.0
  0
LINE
  5
1F0
330
17
100
AcDbEntity
  8
B-BRACE-ROOF
100
AcDbLine
 10
122.04
 20
25.535000000000004
 30
0.0
 11
117.99
 21
30.367500000000003
 31
0.0
  0
LINE
  5
1F1
330
17
100
AcDbEntity
  8
B-BRACE-ROOF
100
AcDbLine
 10
117.99
 20
30.367500000000003
 30
0.0
 11
122.04
 21
35.2
 31
0.0
  0
LINE
  5
1F2
330
17
100
AcDbEntity
  8
B-BRACE-ROOF
100
AcDbLine
 10
122.04
 20
30.367500000000003
 30
0.0
 11
117.99
 21
35.2
 31
0.0
  0
LINE
  5
1F3
330
17
100
AcDbEntity
  8
B-BRACE-ROOF
100
AcDbLine
 10
131.84
 20
20.07
 30
0.0
 11
137.19
 21
23.9775
 31
0.0
  0
LINE
  5
1F4
330
17
100
AcDbEntity
  8
B-BRACE-ROOF
100
AcDbLine
 10
137.19
 20
20.07
 30
0.0
 11
131.84
 21
23.9775
 31
0.0
  0
LINE
  5
1F5
330
17
100
AcDbEntity
  8
B-BRACE-ROOF
100
AcDbLine
 10
131.84
 20
23.9775
 30
0.0
 11
137.19
 21
27.885
 31
0.0
  0
LINE
  5
1F6
330
17
100
AcDbEntity
  8
B-BRACE-ROOF
100
AcDbLine
 10
137.19
 20
23.9775
 30
0.0
 11
131.84
 21
27.885
 31
0.0
  0
LINE
  5
1F7
330
17
100
AcDbEntity
  8
B-BRACE-ROOF
100
AcDbLine
 10
131.84
 20
27.885
 30
0.0
 11
137.19
 21
31.792500000000004
 31
0.0
  0
LINE
  5
1F8
330
17
100
AcDbEntity
  8
B-BRACE-ROOF
100
AcDbLine
 10
137.19
 20
27.885
 30
0.0
 11
131.84
 21
31.792500000000004
 31
0.0
  0
LINE
  5
1F9
330
17
100
AcDbEntity
  8
B-BRACE-ROOF
100
AcDbLine
 10
131.84
 20
31.792500000000004
 30
0.0
 11
137.19
 21
35.7
 31
0.0
  0
LINE
  5
1FA
330
17
100
AcDbEntity
  8
B-BRACE-ROOF
100
AcDbLine
 10
137.19
 20
31.792500000000004
 30
0.0
 11
131.84
 21
35.7
 31
0.0
  0
LINE
  5
1FB
330
17
100
AcDbEntity
  8
B-BRACE-ROOF
100
AcDbLine
 10
142.48000000000002
 20
20.07
 30
0.0
 11
145.54000000000002
 21
23.9775
 31
0.0
  0
LINE
  5
1FC
330
17
100
AcDbEntity
  8
B-BRACE-ROOF
100
AcDbLine
 10
145.54000000000002
 20
20.07
 30
0.0
 11
142.48000000000002
 21
23.9775
 31
0.0
  0
LINE
  5
1FD
330
17
100
AcDbEntity
  8
B-BRACE-ROOF
100
AcDbLine
 10
142.48000000000002
 20
23.9775
 30
0.0
 11
145.54000000000002
 21
27.885
 31
0.0
  0
LINE
  5
1FE
330
17
100
AcDbEntity
  8
B-BRACE-ROOF
100
AcDbLine
 10
145.54000000000002
 20
23.9775
 30
0.0
 11
142.48000000000002
 21
27.885
 31
0.0
  0
LINE
  5
1FF
330
17
100
AcDbEntity
  8
B-BRACE-ROOF
100
AcDbLine
 10
142.48000000000002
 20
27.885
 30
0.0
 11
145.54000000000002
 21
31.792500000000004
 31
0.0
  0
LINE
  5
200
330
17
100
AcDbEntity
  8
B-BRACE-ROOF
100
AcDbLine
 10
145.54000000000002
 20
27.885
 30
0.0
 11
142.48000000000002
 21
31.792500000000004
 31
0.0
  0
LINE
  5
201
330
17
100
AcDbEntity
  8
B-BRACE-ROOF
100
AcDbLine
 10
142.48000000000002
 20
31.792500000000004
 30
0.0
 11
145.54000000000002
 21
35.7
 31
0.0
  0
LINE
  5
202
330
17
100
AcDbEntity
  8
B-BRACE-ROOF
100
AcDbLine
 10
145.54000000000002
 20
31.792500000000004
 30
0.0
 11
142.48000000000002
 21
35.7
 31
0.0
  0
TEXT
  5
203
330
17
100
AcDbEntity
  8
B-TEXT
100
AcDbText
 10
118.2
 20
17.0
 30
0.0
 40
0.25
  1
ROOF X-BRACING L70x70x6 (bays 68.0-72.1, 81.8-87.2, 92.5-95.5)
 11
118.2
 21
17.0
 31
0.0
100
AcDbText
  0
LINE
  5
204
330
17
100
AcDbEntity
  8
B-BRACE-WALL
100
AcDbLine
 10
117.99
 20
35.17
 30
0.0
 11
122.09
 21
35.27
 31
0.0
  0
LINE
  5
205
330
17
100
AcDbEntity
  8
B-BRACE-WALL
100
AcDbLine
 10
142.48000000000002
 20
35.77
 30
0.0
 11
145.59
 21
35.67
 31
0.0
  0
LINE
  5
206
330
17
100
AcDbEntity
  8
B-BRACE-WALL
100
AcDbLine
 10
117.99
 20
15.87
 30
0.0
 11
121.99
 21
15.87
 31
0.0
  0
LINE
  5
207
330
17
100
AcDbEntity
  8
B-BRACE-WALL
100
AcDbLine
 10
138.88
 20
20.07
 30
0.0
 11
145.49
 21
20.07
 31
0.0
  0
LINE
  5
208
330
17
100
AcDbEntity
  8
B-BRACE-WALL
100
AcDbLine
 10
117.99
 20
15.87
 30
0.0
 11
117.99
 21
21.76
 31
0.0
  0
LINE
  5
209
330
17
100
AcDbEntity
  8
B-BRACE-WALL
100
AcDbLine
 10
117.99
 20
29.37
 30
0.0
 11
117.99
 21
35.17
 31
0.0
  0
LINE
  5
20A
330
17
100
AcDbEntity
  8
B-BRACE-WALL
100
AcDbLine
 10
145.49
 20
20.07
 30
0.0
 11
145.59
 21
24.46
 31
0.0
  0
LINE
  5
20B
330
17
100
AcDbEntity
  8
B-BRACE-WALL
100
AcDbLine
 10
145.48000000000002
 20
29.27
 30
0.0
 11
145.59
 21
35.67
 31
0.0
  0
LINE
  5
20C
330
17
100
AcDbEntity
  8
B-TEXT
100
AcDbLine
 10
147.5
 20
22.0
 30
0.0
 11
147.5
 21
26.0
 31
0.0
  0
LWPOLYLINE
  5
20D
330
17
100
AcDbEntity
  8
B-TEXT
100
AcDbPolyline
 90
3
 70
1
 10
147.2
 20
25.2
 10
147.5
 20
26.0
 10
147.8
 20
25.2
  0
TEXT
  5
20E
330
17
100
AcDbEntity
  8
B-TEXT
100
AcDbText
 10
147.3
 20
26.3
 30
0.0
 40
0.4
  1
N
 11
147.3
 21
26.3
 31
0.0
100
AcDbText
  0
TEXT
  5
20F
330
17
100
AcDbEntity
  8
B-TEXT
100
AcDbText
 10
147.7
 20
22.0
 30
0.0
 40
0.25
  1
ROOF FALLS NORTH 6% - ONE PLANE
 50
90.0
 11
147.7
 21
22.0
 31
0.0
100
AcDbText
  0
TEXT
  5
210
330
17
100
AcDbEntity
  8
B-TEXT
100
AcDbText
 10
117.9
 20
38.5
 30
0.0
 40
0.6
  1
SYSTEM B - LATTICE TRUSSES N-S ON PINNED SHS POSTS, ROOF FALLS NORTH 6%
 11
117.9
 21
38.5
 31
0.0
100
AcDbText
  0
TEXT
  5
211
330
17
100
AcDbEntity
  8
B-TEXT
100
AcDbText
 10
117.9
 20
37.6
 30
0.0
 40
0.35
  1
FRAMING PLAN - true coordinates (m) - REV 1: stair/elevator openings, single-plane slope
 11
117.9
 21
37.6
 31
0.0
100
AcDbText
  0
MTEXT
  5
212
330
17
100
AcDbEntity
  8
B-TEXT
100
AcDbMText
 10
148.0
 20
35.8
 30
0.0
 40
0.3
 41
12.0
 71
1
  3
NOTES - SYSTEM B (REV 1)\PRoof: ONE plane, 6% falling N. TOS(y) = 4.52 + 0.06 x (35.87 - y): TOS 4.52 m at N edge, 5.74 m at S edge; bottom chord underside 3.00 m (N) to 4.22 m (S).\PTrusses: parallel-chord Warren, depth 1.40 m c/c. T1 19.3 m (x 68.0
  3
/72.1/77.8), T2 15.6 m (x 81.8/87.2/92.5/95.5).\PChords SHS 120x120x5 all trusses; diagonals SHS 70x70x4 (S275J2H hot-finished, shop-welded K-joints, T1 site splice M20 8.8).\POpenings: stair x 77.89-81.79 / y 29.37-35.37 and elevator x 77.89-81.99 /
  3
 y 20.17-24.16 not roofed; trimmers SHS 100x100x4 on N+S edges, trusses x 77.8 / 81.8 on E/W edges; upstand + flashing; no purlin, tie or bracing crosses them.\PPosts SHS 150x150x5 on 19 of 27 columns, pinned bases: 300x300x20 plate, 40 mm grout, 4 M
  3
20 resin anchors 300 mm into column head.\PPurlins Z200x2.0 S350GD @ 1.5 m, sleeved. Eave girder IPE 330 (y 20.07, K21-K23), header IPE 200 at re-entrant corner.\PBracing: L70x70x6 tension-only X in 8 wall bays + 3 roof bays (top chord level); eave s
  3
truts SHS 100x100x4; BC ties SHS 60x60x4.\PLoads: g 0.50 (0.30 uplift), q 0.60, qp 1.32 kN/m2; ULS 1.58 kN/m2 down / 1.68 kN/m2 up. Post uplift ~88 kN governs anchors.\PSteel: ~14.9 t = ~33 kg/m2 over 446 m2 roofed (31 kg/m2 of 486 m2 footprint) + gi
  1
rts ~1.0 t.
  0
LINE
  5
213
330
17
100
AcDbEntity
  8
B-ELEV
100
AcDbLine
 10
116.0
 20
5.0
 30
0.0
 11
139.3
 21
5.0
 31
0.0
  0
TEXT
  5
214
330
17
100
AcDbEntity
  8
B-TEXT
100
AcDbText
 10
116.0
 20
4.5
 30
0.0
 40
0.25
  1
EXISTING SLAB (top) - RC columns 20x40 below posts
 11
116.0
 21
4.5
 31
0.0
100
AcDbText
  0
LINE
  5
215
330
17
100
AcDbEntity
  8
B-ELEV
370
50
100
AcDbLine
 10
118.0
 20
8.102
 30
0.0
 11
137.3
 21
9.26
 31
0.0
  0
LINE
  5
216
330
17
100
AcDbEntity
  8
B-ELEV
370
50
100
AcDbLine
 10
118.0
 20
9.502
 30
0.0
 11
137.3
 21
10.66
 31
0.0
  0
LINE
  5
217
330
17
100
AcDbEntity
  8
B-ELEV
370
35
100
AcDbLine
 10
118.0
 20
8.102
 30
0.0
 11
118.0
 21
9.502
 31
0.0
  0
LINE
  5
218
330
17
100
AcDbEntity
  8
B-ELEV
370
35
100
AcDbLine
 10
137.3
 20
9.26
 30
0.0
 11
137.3
 21
10.66
 31
0.0
  0
LINE
  5
219
330
17
100
AcDbEntity
  8
B-ELEV
370
35
100
AcDbLine
 10
118.0
 20
8.102
 30
0.0
 11
119.60833333333333
 21
9.598500000000001
 31
0.0
  0
LINE
  5
21A
330
17
100
AcDbEntity
  8
B-ELEV
370
35
100
AcDbLine
 10
119.60833333333333
 20
9.598500000000001
 30
0.0
 11
121.21666666666667
 21
8.295
 31
0.0
  0
LINE
  5
21B
330
17
100
AcDbEntity
  8
B-ELEV
370
35
100
AcDbLine
 10
121.21666666666667
 20
8.295
 30
0.0
 11
122.825
 21
9.791500000000001
 31
0.0
  0
LINE
  5
21C
330
17
100
AcDbEntity
  8
B-ELEV
370
35
100
AcDbLine
 10
122.825
 20
9.791500000000001
 30
0.0
 11
124.43333333333334
 21
8.488000000000001
 31
0.0
  0
LINE
  5
21D
330
17
100
AcDbEntity
  8
B-ELEV
370
35
100
AcDbLine
 10
124.43333333333334
 20
8.488000000000001
 30
0.0
 11
126.04166666666667
 21
9.9845
 31
0.0
  0
LINE
  5
21E
330
17
100
AcDbEntity
  8
B-ELEV
370
35
100
AcDbLine
 10
126.04166666666667
 20
9.9845
 30
0.0
 11
127.65
 21
8.681
 31
0.0
  0
LINE
  5
21F
330
17
100
AcDbEntity
  8
B-ELEV
370
35
100
AcDbLine
 10
127.65
 20
8.681
 30
0.0
 11
129.25833333333333
 21
10.1775
 31
0.0
  0
LINE
  5
220
330
17
100
AcDbEntity
  8
B-ELEV
370
35
100
AcDbLine
 10
129.25833333333333
 20
10.1775
 30
0.0
 11
130.86666666666667
 21
8.874
 31
0.0
  0
LINE
  5
221
330
17
100
AcDbEntity
  8
B-ELEV
370
35
100
AcDbLine
 10
130.86666666666667
 20
8.874
 30
0.0
 11
132.475
 21
10.3705
 31
0.0
  0
LINE
  5
222
330
17
100
AcDbEntity
  8
B-ELEV
370
35
100
AcDbLine
 10
132.475
 20
10.3705
 30
0.0
 11
134.08333333333331
 21
9.067
 31
0.0
  0
LINE
  5
223
330
17
100
AcDbEntity
  8
B-ELEV
370
35
100
AcDbLine
 10
134.08333333333331
 20
9.067
 30
0.0
 11
135.69166666666666
 21
10.563500000000001
 31
0.0
  0
LINE
  5
224
330
17
100
AcDbEntity
  8
B-ELEV
370
35
100
AcDbLine
 10
135.69166666666666
 20
10.563500000000001
 30
0.0
 11
137.3
 21
9.26
 31
0.0
  0
LWPOLYLINE
  5
225
330
17
100
AcDbEntity
  8
B-ELEV
100
AcDbPolyline
 90
4
 70
1
 10
117.925
 20
5.04
 10
118.075
 20
5.04
 10
118.075
 20
8.042
 10
117.925
 20
8.042
  0
LWPOLYLINE
  5
226
330
17
100
AcDbEntity
  8
B-ELEV
100
AcDbPolyline
 90
4
 70
1
 10
117.85
 20
5.0
 10
118.15
 20
5.0
 10
118.15
 20
5.04
 10
117.85
 20
5.04
  0
LWPOLYLINE
  5
227
330
17
100
AcDbEntity
  8
B-ELEV
  6
DASHED
100
AcDbPolyline
 90
4
 70
1
 10
117.8
 20
4.1
 10
118.2
 20
4.1
 10
118.2
 20
5.0
 10
117.8
 20
5.0
  0
LINE
  5
228
330
17
100
AcDbEntity
  8
B-ELEV
  6
DASHED
100
AcDbLine
 10
117.945
 20
5.04
 30
0.0
 11
117.945
 21
4.7
 31
0.0
  0
LINE
  5
229
330
17
100
AcDbEntity
  8
B-ELEV
  6
DASHED
100
AcDbLine
 10
118.055
 20
5.04
 30
0.0
 11
118.055
 21
4.7
 31
0.0
  0
LWPOLYLINE
  5
22A
330
17
100
AcDbEntity
  8
B-ELEV
100
AcDbPolyline
 90
4
 70
1
 10
137.225
 20
5.04
 10
137.375
 20
5.04
 10
137.375
 20
9.2
 10
137.225
 20
9.2
  0
LWPOLYLINE
  5
22B
330
17
100
AcDbEntity
  8
B-ELEV
100
AcDbPolyline
 90
4
 70
1
 10
137.14999999999998
 20
5.0
 10
137.45
 20
5.0
 10
137.45
 20
5.04
 10
137.14999999999998
 20
5.04
  0
LWPOLYLINE
  5
22C
330
17
100
AcDbEntity
  8
B-ELEV
  6
DASHED
100
AcDbPolyline
 90
4
 70
1
 10
137.1
 20
4.1
 10
137.5
 20
4.1
 10
137.5
 20
5.0
 10
137.1
 20
5.0
  0
LINE
  5
22D
330
17
100
AcDbEntity
  8
B-ELEV
  6
DASHED
100
AcDbLine
 10
137.245
 20
5.04
 30
0.0
 11
137.245
 21
4.7
 31
0.0
  0
LINE
  5
22E
330
17
100
AcDbEntity
  8
B-ELEV
  6
DASHED
100
AcDbLine
 10
137.35500000000002
 20
5.04
 30
0.0
 11
137.35500000000002
 21
4.7
 31
0.0
  0
CIRCLE
  5
22F
330
17
100
AcDbEntity
  8
B-ELEV
100
AcDbCircle
 10
118.12
 20
9.6692
 30
0.0
 40
0.1
  0
CIRCLE
  5
230
330
17
100
AcDbEntity
  8
B-ELEV
100
AcDbCircle
 10
119.62
 20
9.7592
 30
0.0
 40
0.1
  0
CIRCLE
  5
231
330
17
100
AcDbEntity
  8
B-ELEV
100
AcDbCircle
 10
121.12
 20
9.8492
 30
0.0
 40
0.1
  0
CIRCLE
  5
232
330
17
100
AcDbEntity
  8
B-ELEV
100
AcDbCircle
 10
122.62
 20
9.939200000000001
 30
0.0
 40
0.1
  0
CIRCLE
  5
233
330
17
100
AcDbEntity
  8
B-ELEV
100
AcDbCircle
 10
124.12
 20
10.029200000000001
 30
0.0
 40
0.1
  0
CIRCLE
  5
234
330
17
100
AcDbEntity
  8
B-ELEV
100
AcDbCircle
 10
125.62
 20
10.119200000000001
 30
0.0
 40
0.1
  0
CIRCLE
  5
235
330
17
100
AcDbEntity
  8
B-ELEV
100
AcDbCircle
 10
127.12
 20
10.209200000000001
 30
0.0
 40
0.1
  0
CIRCLE
  5
236
330
17
100
AcDbEntity
  8
B-ELEV
100
AcDbCircle
 10
128.62
 20
10.2992
 30
0.0
 40
0.1
  0
CIRCLE
  5
237
330
17
100
AcDbEntity
  8
B-ELEV
100
AcDbCircle
 10
130.12
 20
10.3892
 30
0.0
 40
0.1
  0
CIRCLE
  5
238
330
17
100
AcDbEntity
  8
B-ELEV
100
AcDbCircle
 10
131.62
 20
10.4792
 30
0.0
 40
0.1
  0
CIRCLE
  5
239
330
17
100
AcDbEntity
  8
B-ELEV
100
AcDbCircle
 10
133.12
 20
10.5692
 30
0.0
 40
0.1
  0
CIRCLE
  5
23A
330
17
100
AcDbEntity
  8
B-ELEV
100
AcDbCircle
 10
134.62
 20
10.6592
 30
0.0
 40
0.1
  0
CIRCLE
  5
23B
330
17
100
AcDbEntity
  8
B-ELEV
100
AcDbCircle
 10
136.12
 20
10.749200000000002
 30
0.0
 40
0.1
  0
LINE
  5
23C
330
17
100
AcDbEntity
  8
B-ELEV
100
AcDbLine
 10
117.7
 20
9.794000000000002
 30
0.0
 11
137.6
 21
10.988000000000001
 31
0.0
  0
LINE
  5
23D
330
17
100
AcDbEntity
  8
B-ELEV
  6
DASHED
 62
1
100
AcDbLine
 10
127.65
 20
8.380999999999998
 30
0.0
 11
127.65
 21
10.381
 31
0.0
  0
TEXT
  5
23E
330
17
100
AcDbEntity
  8
B-TEXT
100
AcDbText
 10
127.80000000000001
 20
10.431
 30
0.0
 40
0.25
  1
SITE SPLICE (end plates, M20 8.8)
 11
127.80000000000001
 21
10.431
 31
0.0
100
AcDbText
  0
LINE
  5
23F
330
17
100
AcDbEntity
  8
B-TEXT
100
AcDbLine
 10
118.0
 20
3.6
 30
0.0
 11
137.3
 21
3.6
 31
0.0
  0
LINE
  5
240
330
17
100
AcDbEntity
  8
B-TEXT
100
AcDbLine
 10
118.0
 20
3.4
 30
0.0
 11
118.0
 21
3.8000000000000003
 31
0.0
  0
LINE
  5
241
330
17
100
AcDbEntity
  8
B-TEXT
100
AcDbLine
 10
137.3
 20
3.4
 30
0.0
 11
137.3
 21
3.8000000000000003
 31
0.0
  0
TEXT
  5
242
330
17
100
AcDbEntity
  8
B-TEXT
100
AcDbText
 10
124.65
 20
3.7
 30
0.0
 40
0.3
  1
SPAN 19.3 m c/c posts - 6 panels x 3.22 m
 11
124.65
 21
3.7
 31
0.0
100
AcDbText
  0
LINE
  5
243
330
17
100
AcDbEntity
  8
B-TEXT
100
AcDbLine
 10
138.1
 20
9.26
 30
0.0
 11
138.1
 21
10.66
 31
0.0
  0
TEXT
  5
244
330
17
100
AcDbEntity
  8
B-TEXT
100
AcDbText
 10
138.25
 20
9.809999999999999
 30
0.0
 40
0.3
  1
d = 1.40 m c/c
 11
138.25
 21
9.809999999999999
 31
0.0
100
AcDbText
  0
LINE
  5
245
330
17
100
AcDbEntity
  8
B-TEXT
100
AcDbLine
 10
117.4
 20
5.0
 30
0.0
 11
117.4
 21
8.042
 31
0.0
  0
TEXT
  5
246
330
17
100
AcDbEntity
  8
B-TEXT
100
AcDbText
 10
117.1
 20
5.3
 30
0.0
 40
0.3
  1
3.04 m clear at N post (3.00 m at eave y 35.87)
 50
90.0
 11
117.1
 21
5.3
 31
0.0
100
AcDbText
  0
LINE
  5
247
330
17
100
AcDbEntity
  8
B-TEXT
100
AcDbLine
 10
138.5
 20
5.0
 30
0.0
 11
138.5
 21
9.2
 31
0.0
  0
TEXT
  5
248
330
17
100
AcDbEntity
  8
B-TEXT
100
AcDbText
 10
138.55
 20
5.8
 30
0.0
 40
0.3
  1
4.20 m clear at S post
 50
90.0
 11
138.55
 21
5.8
 31
0.0
100
AcDbText
  0
TEXT
  5
249
330
17
100
AcDbEntity
  8
B-TEXT
100
AcDbText
 10
118.0
 20
12.26
 30
0.0
 40
0.4
  1
TYPICAL TRUSS ELEVATION T1 - span 19.3 m, lines x 68.0 / 72.1 / 77.8
 11
118.0
 21
12.26
 31
0.0
100
AcDbText
  0
TEXT
  5
24A
330
17
100
AcDbEntity
  8
B-TEXT
100
AcDbText
 10
118.0
 20
11.76
 30
0.0
 40
0.25
  1
chords SHS 120x120x5 | diagonals SHS 70x70x4 | Z200x2.0 purlins @ 1.5 m | slope 6% to NORTH (left), one plane: TOS = 4.52 + 0.06 x (35.87 - y)
 11
118.0
 21
11.76
 31
0.0
100
AcDbText
  0
TEXT
  5
24B
330
17
100
AcDbEntity
  8
B-TEXT
100
AcDbText
 10
118.3
 20
5.15
 30
0.0
 40
0.25
  1
POST SHS 150x150x5, pinned base 300x300x20, 40 mm grout, 4 M20 resin anchors into column head
 11
118.3
 21
5.15
 31
0.0
100
AcDbText
  0
TEXT
  5
24C
330
17
100
AcDbEntity
  8
B-TEXT
100
AcDbText
 10
117.7
 20
4.1
 30
0.0
 40
0.3
  1
NORTH
 11
117.7
 21
4.1
 31
0.0
100
AcDbText
  0
TEXT
  5
24D
330
17
100
AcDbEntity
  8
B-TEXT
100
AcDbText
 10
137.0
 20
4.1
 30
0.0
 40
0.3
  1
SOUTH
 11
137.0
 21
4.1
 31
0.0
100
AcDbText
  0
LINE
  5
24E
330
17
100
AcDbEntity
  8
B-ELEV
100
AcDbLine
 10
138.0
 20
5.0
 30
0.0
 11
157.6
 21
5.0
 31
0.0
  0
TEXT
  5
24F
330
17
100
AcDbEntity
  8
B-TEXT
100
AcDbText
 10
138.0
 20
4.5
 30
0.0
 40
0.25
  1
EXISTING SLAB (top) - RC columns 20x40 below posts
 11
138.0
 21
4.5
 31
0.0
100
AcDbText
  0
LINE
  5
250
330
17
100
AcDbEntity
  8
B-ELEV
370
50
100
AcDbLine
 10
140.0
 20
8.072000000000001
 30
0.0
 11
155.6
 21
9.008000000000001
 31
0.0
  0
LINE
  5
251
330
17
100
AcDbEntity
  8
B-ELEV
370
50
100
AcDbLine
 10
140.0
 20
9.472000000000001
 30
0.0
 11
155.6
 21
10.408000000000001
 31
0.0
  0
LINE
  5
252
330
17
100
AcDbEntity
  8
B-ELEV
370
35
100
AcDbLine
 10
140.0
 20
8.072000000000001
 30
0.0
 11
140.0
 21
9.472000000000001
 31
0.0
  0
LINE
  5
253
330
17
100
AcDbEntity
  8
B-ELEV
370
35
100
AcDbLine
 10
155.6
 20
9.008000000000001
 30
0.0
 11
155.6
 21
10.408000000000001
 31
0.0
  0
LINE
  5
254
330
17
100
AcDbEntity
  8
B-ELEV
370
35
100
AcDbLine
 10
140.0
 20
8.072000000000001
 30
0.0
 11
141.56
 21
9.5656
 31
0.0
  0
LINE
  5
255
330
17
100
AcDbEntity
  8
B-ELEV
370
35
100
AcDbLine
 10
141.56
 20
9.5656
 30
0.0
 11
143.12
 21
8.2592
 31
0.0
  0
LINE
  5
256
330
17
100
AcDbEntity
  8
B-ELEV
370
35
100
AcDbLine
 10
143.12
 20
8.2592
 30
0.0
 11
144.68
 21
9.7528
 31
0.0
  0
LINE
  5
257
330
17
100
AcDbEntity
  8
B-ELEV
370
35
100
AcDbLine
 10
144.68
 20
9.7528
 30
0.0
 11
146.24
 21
8.4464
 31
0.0
  0
LINE
  5
258
330
17
100
AcDbEntity
  8
B-ELEV
370
35
100
AcDbLine
 10
146.24
 20
8.4464
 30
0.0
 11
147.8
 21
9.940000000000001
 31
0.0
  0
LINE
  5
259
330
17
100
AcDbEntity
  8
B-ELEV
370
35
100
AcDbLine
 10
147.8
 20
9.940000000000001
 30
0.0
 11
149.36
 21
8.6336
 31
0.0
  0
LINE
  5
25A
330
17
100
AcDbEntity
  8
B-ELEV
370
35
100
AcDbLine
 10
149.36
 20
8.6336
 30
0.0
 11
150.92000000000002
 21
10.1272
 31
0.0
  0
LINE
  5
25B
330
17
100
AcDbEntity
  8
B-ELEV
370
35
100
AcDbLine
 10
150.92000000000002
 20
10.1272
 30
0.0
 11
152.48000000000002
 21
8.8208
 31
0.0
  0
LINE
  5
25C
330
17
100
AcDbEntity
  8
B-ELEV
370
35
100
AcDbLine
 10
152.48000000000002
 20
8.8208
 30
0.0
 11
154.04
 21
10.314400000000001
 31
0.0
  0
LINE
  5
25D
330
17
100
AcDbEntity
  8
B-ELEV
370
35
100
AcDbLine
 10
154.04
 20
10.314400000000001
 30
0.0
 11
155.6
 21
9.008000000000001
 31
0.0
  0
LWPOLYLINE
  5
25E
330
17
100
AcDbEntity
  8
B-ELEV
100
AcDbPolyline
 90
4
 70
1
 10
139.925
 20
5.04
 10
140.075
 20
5.04
 10
140.075
 20
8.012
 10
139.925
 20
8.012
  0
LWPOLYLINE
  5
25F
330
17
100
AcDbEntity
  8
B-ELEV
100
AcDbPolyline
 90
4
 70
1
 10
139.85
 20
5.0
 10
140.15
 20
5.0
 10
140.15
 20
5.04
 10
139.85
 20
5.04
  0
LWPOLYLINE
  5
260
330
17
100
AcDbEntity
  8
B-ELEV
  6
DASHED
100
AcDbPolyline
 90
4
 70
1
 10
139.8
 20
4.1
 10
140.2
 20
4.1
 10
140.2
 20
5.0
 10
139.8
 20
5.0
  0
LINE
  5
261
330
17
100
AcDbEntity
  8
B-ELEV
  6
DASHED
100
AcDbLine
 10
139.945
 20
5.04
 30
0.0
 11
139.945
 21
4.7
 31
0.0
  0
LINE
  5
262
330
17
100
AcDbEntity
  8
B-ELEV
  6
DASHED
100
AcDbLine
 10
140.055
 20
5.04
 30
0.0
 11
140.055
 21
4.7
 31
0.0
  0
LWPOLYLINE
  5
263
330
17
100
AcDbEntity
  8
B-ELEV
100
AcDbPolyline
 90
4
 70
1
 10
155.52499999999998
 20
5.04
 10
155.675
 20
5.04
 10
155.675
 20
8.948
 10
155.52499999999998
 20
8.948
  0
LWPOLYLINE
  5
264
330
17
100
AcDbEntity
  8
B-ELEV
100
AcDbPolyline
 90
4
 70
1
 10
155.45
 20
5.0
 10
155.75
 20
5.0
 10
155.75
 20
5.04
 10
155.45
 20
5.04
  0
LWPOLYLINE
  5
265
330
17
100
AcDbEntity
  8
B-ELEV
  6
DASHED
100
AcDbPolyline
 90
4
 70
1
 10
155.39999999999998
 20
4.1
 10
155.8
 20
4.1
 10
155.8
 20
5.0
 10
155.39999999999998
 20
5.0
  0
LINE
  5
266
330
17
100
AcDbEntity
  8
B-ELEV
  6
DASHED
100
AcDbLine
 10
155.545
 20
5.04
 30
0.0
 11
155.545
 21
4.7
 31
0.0
  0
LINE
  5
267
330
17
100
AcDbEntity
  8
B-ELEV
  6
DASHED
100
AcDbLine
 10
155.655
 20
5.04
 30
0.0
 11
155.655
 21
4.7
 31
0.0
  0
CIRCLE
  5
268
330
17
100
AcDbEntity
  8
B-ELEV
100
AcDbCircle
 10
140.12
 20
9.6392
 30
0.0
 40
0.1
  0
CIRCLE
  5
269
330
17
100
AcDbEntity
  8
B-ELEV
100
AcDbCircle
 10
141.62
 20
9.7292
 30
0.0
 40
0.1
  0
CIRCLE
  5
26A
330
17
100
AcDbEntity
  8
B-ELEV
100
AcDbCircle
 10
143.12
 20
9.8192
 30
0.0
 40
0.1
  0
CIRCLE
  5
26B
330
17
100
AcDbEntity
  8
B-ELEV
100
AcDbCircle
 10
144.62
 20
9.9092
 30
0.0
 40
0.1
  0
CIRCLE
  5
26C
330
17
100
AcDbEntity
  8
B-ELEV
100
AcDbCircle
 10
146.12
 20
9.999200000000002
 30
0.0
 40
0.1
  0
CIRCLE
  5
26D
330
17
100
AcDbEntity
  8
B-ELEV
100
AcDbCircle
 10
147.62
 20
10.089200000000002
 30
0.0
 40
0.1
  0
CIRCLE
  5
26E
330
17
100
AcDbEntity
  8
B-ELEV
100
AcDbCircle
 10
149.12
 20
10.179200000000002
 30
0.0
 40
0.1
  0
CIRCLE
  5
26F
330
17
100
AcDbEntity
  8
B-ELEV
100
AcDbCircle
 10
150.62
 20
10.269200000000001
 30
0.0
 40
0.1
  0
CIRCLE
  5
270
330
17
100
AcDbEntity
  8
B-ELEV
100
AcDbCircle
 10
152.12
 20
10.359200000000001
 30
0.0
 40
0.1
  0
CIRCLE
  5
271
330
17
100
AcDbEntity
  8
B-ELEV
100
AcDbCircle
 10
153.62
 20
10.449200000000001
 30
0.0
 40
0.1
  0
CIRCLE
  5
272
330
17
100
AcDbEntity
  8
B-ELEV
100
AcDbCircle
 10
155.12
 20
10.539200000000001
 30
0.0
 40
0.1
  0
LINE
  5
273
330
17
100
AcDbEntity
  8
B-ELEV
100
AcDbLine
 10
139.7
 20
9.764000000000001
 30
0.0
 11
155.89999999999998
 21
10.736
 31
0.0
  0
LINE
  5
274
330
17
100
AcDbEntity
  8
B-TEXT
100
AcDbLine
 10
140.0
 20
3.6
 30
0.0
 11
155.6
 21
3.6
 31
0.0
  0
LINE
  5
275
330
17
100
AcDbEntity
  8
B-TEXT
100
AcDbLine
 10
140.0
 20
3.4
 30
0.0
 11
140.0
 21
3.8000000000000003
 31
0.0
  0
LINE
  5
276
330
17
100
AcDbEntity
  8
B-TEXT
100
AcDbLine
 10
155.6
 20
3.4
 30
0.0
 11
155.6
 21
3.8000000000000003
 31
0.0
  0
TEXT
  5
277
330
17
100
AcDbEntity
  8
B-TEXT
100
AcDbText
 10
144.8
 20
3.7
 30
0.0
 40
0.3
  1
SPAN 15.6 m c/c posts - 5 panels x 3.12 m
 11
144.8
 21
3.7
 31
0.0
100
AcDbText
  0
LINE
  5
278
330
17
100
AcDbEntity
  8
B-TEXT
100
AcDbLine
 10
156.39999999999998
 20
9.008000000000001
 30
0.0
 11
156.39999999999998
 21
10.408000000000001
 31
0.0
  0
TEXT
  5
279
330
17
100
AcDbEntity
  8
B-TEXT
100
AcDbText
 10
156.55
 20
9.558
 30
0.0
 40
0.3
  1
d = 1.40 m c/c
 11
156.55
 21
9.558
 31
0.0
100
AcDbText
  0
LINE
  5
27A
330
17
100
AcDbEntity
  8
B-TEXT
100
AcDbLine
 10
139.4
 20
5.0
 30
0.0
 11
139.4
 21
8.012
 31
0.0
  0
TEXT
  5
27B
330
17
100
AcDbEntity
  8
B-TEXT
100
AcDbText
 10
139.1
 20
5.3
 30
0.0
 40
0.3
  1
3.01 m clear at N post (3.00 m at eave y 35.87)
 50
90.0
 11
139.1
 21
5.3
 31
0.0
100
AcDbText
  0
LINE
  5
27C
330
17
100
AcDbEntity
  8
B-TEXT
100
AcDbLine
 10
156.8
 20
5.0
 30
0.0
 11
156.8
 21
8.948
 31
0.0
  0
TEXT
  5
27D
330
17
100
AcDbEntity
  8
B-TEXT
100
AcDbText
 10
156.85
 20
5.8
 30
0.0
 40
0.3
  1
3.95 m clear at S post
 50
90.0
 11
156.85
 21
5.8
 31
0.0
100
AcDbText
  0
TEXT
  5
27E
330
17
100
AcDbEntity
  8
B-TEXT
100
AcDbText
 10
140.0
 20
12.008000000000001
 30
0.0
 40
0.4
  1
TYPICAL TRUSS ELEVATION T2 - span 15.6 m, lines x 81.8 / 87.2 / 92.5 / 95.5
 11
140.0
 21
12.008000000000001
 31
0.0
100
AcDbText
  0
TEXT
  5
27F
330
17
100
AcDbEntity
  8
B-TEXT
100
AcDbText
 10
140.0
 20
11.508000000000001
 30
0.0
 40
0.25
  1
chords SHS 120x120x5 | diagonals SHS 70x70x4 | Z200x2.0 purlins @ 1.5 m | slope 6% to NORTH (left), one plane: TOS = 4.52 + 0.06 x (35.87 - y)
 11
140.0
 21
11.508000000000001
 31
0.0
100
AcDbText
  0
TEXT
  5
280
330
17
100
AcDbEntity
  8
B-TEXT
100
AcDbText
 10
140.3
 20
5.15
 30
0.0
 40
0.25
  1
POST SHS 150x150x5, pinned base 300x300x20, 40 mm grout, 4 M20 resin anchors into column head
 11
140.3
 21
5.15
 31
0.0
100
AcDbText
  0
TEXT
  5
281
330
17
100
AcDbEntity
  8
B-TEXT
100
AcDbText
 10
139.7
 20
4.1
 30
0.0
 40
0.3
  1
NORTH
 11
139.7
 21
4.1
 31
0.0
100
AcDbText
  0
TEXT
  5
282
330
17
100
AcDbEntity
  8
B-TEXT
100
AcDbText
 10
155.3
 20
4.1
 30
0.0
 40
0.3
  1
SOUTH
 11
155.3
 21
4.1
 31
0.0
100
AcDbText
  0
LWPOLYLINE
  5
28D
330
17
100
AcDbEntity
  8
C-OUTLINE
100
AcDbPolyline
 90
8
 70
1
 10
167.89
 20
15.57
 10
177.89
 20
15.57
 10
177.89
 20
19.97
 10
195.69
 20
19.97
 10
195.69
 20
35.87
 10
181.99
 20
35.87
 10
181.99
 20
35.37
 10
167.89
 20
35.37
  0
LWPOLYLINE
  5
28E
330
17
100
AcDbEntity
  8
C-COL
100
AcDbPolyline
 90
4
 70
1
 10
186.99
 20
35.67
 10
187.39
 20
35.67
 10
187.39
 20
35.870000000000005
 10
186.99
 20
35.870000000000005
  0
HATCH
  5
28F
330
17
100
AcDbEntity
  8
C-COL
 62
7
100
AcDbHatch
 10
0.0
 20
0.0
 30
0.0
210
0.0
220
0.0
230
1.0
  2
SOLID
 70
1
 71
0
 91
1
 92
3
 72
0
 73
1
 93
4
 10
186.99
 20
35.67
 10
187.39
 20
35.67
 10
187.39
 20
35.870000000000005
 10
186.99
 20
35.870000000000005
 97
0
 75
0
 76
1
 98
0
  0
TEXT
  5
290
330
17
100
AcDbEntity
  8
C-TEXT
100
AcDbText
 10
187.44
 20
36.02
 30
0.0
 40
0.3
  1
K1
 11
187.44
 21
36.02
 31
0.0
100
AcDbText
  0
LWPOLYLINE
  5
291
330
17
100
AcDbEntity
  8
C-COL
100
AcDbPolyline
 90
4
 70
1
 10
192.28
 20
35.67
 10
192.68
 20
35.67
 10
192.68
 20
35.870000000000005
 10
192.28
 20
35.870000000000005
  0
HATCH
  5
292
330
17
100
AcDbEntity
  8
C-COL
 62
7
100
AcDbHatch
 10
0.0
 20
0.0
 30
0.0
210
0.0
220
0.0
230
1.0
  2
SOLID
 70
1
 71
0
 91
1
 92
3
 72
0
 73
1
 93
4
 10
192.28
 20
35.67
 10
192.68
 20
35.67
 10
192.68
 20
35.870000000000005
 10
192.28
 20
35.870000000000005
 97
0
 75
0
 76
1
 98
0
  0
TEXT
  5
293
330
17
100
AcDbEntity
  8
C-TEXT
100
AcDbText
 10
192.73000000000002
 20
36.02
 30
0.0
 40
0.3
  1
K2
 11
192.73000000000002
 21
36.02
 31
0.0
100
AcDbText
  0
LWPOLYLINE
  5
294
330
17
100
AcDbEntity
  8
C-COL
100
AcDbPolyline
 90
4
 70
1
 10
181.79000000000002
 20
35.47
 10
181.99
 20
35.47
 10
181.99
 20
35.87
 10
181.79000000000002
 20
35.87
  0
HATCH
  5
295
330
17
100
AcDbEntity
  8
C-COL
 62
7
100
AcDbHatch
 10
0.0
 20
0.0
 30
0.0
210
0.0
220
0.0
230
1.0
  2
SOLID
 70
1
 71
0
 91
1
 92
3
 72
0
 73
1
 93
4
 10
181.79000000000002
 20
35.47
 10
181.99
 20
35.47
 10
181.99
 20
35.87
 10
181.79000000000002
 20
35.87
 97
0
 75
0
 76
1
 98
0
  0
TEXT
  5
296
330
17
100
AcDbEntity
  8
C-TEXT
100
AcDbText
 10
182.14
 20
35.92
 30
0.0
 40
0.3
  1
K3
 11
182.14
 21
35.92
 31
0.0
100
AcDbText
  0
LWPOLYLINE
  5
297
330
17
100
AcDbEntity
  8
C-COL
100
AcDbPolyline
 90
4
 70
1
 10
195.49
 20
35.47
 10
195.69
 20
35.47
 10
195.69
 20
35.87
 10
195.49
 20
35.87
  0
HATCH
  5
298
330
17
100
AcDbEntity
  8
C-COL
 62
7
100
AcDbHatch
 10
0.0
 20
0.0
 30
0.0
210
0.0
220
0.0
230
1.0
  2
SOLID
 70
1
 71
0
 91
1
 92
3
 72
0
 73
1
 93
4
 10
195.49
 20
35.47
 10
195.69
 20
35.47
 10
195.69
 20
35.87
 10
195.49
 20
35.87
 97
0
 75
0
 76
1
 98
0
  0
TEXT
  5
299
330
17
100
AcDbEntity
  8
C-TEXT
100
AcDbText
 10
195.84
 20
35.92
 30
0.0
 40
0.3
  1
K4
 11
195.84
 21
35.92
 31
0.0
100
AcDbText
  0
LWPOLYLINE
  5
29A
330
17
100
AcDbEntity
  8
C-COL
100
AcDbPolyline
 90
4
 70
1
 10
171.89
 20
35.17
 10
172.29000000000002
 20
35.17
 10
172.29000000000002
 20
35.370000000000005
 10
171.89
 20
35.370000000000005
  0
HATCH
  5
29B
330
17
100
AcDbEntity
  8
C-COL
 62
7
100
AcDbHatch
 10
0.0
 20
0.0
 30
0.0
210
0.0
220
0.0
230
1.0
  2
SOLID
 70
1
 71
0
 91
1
 92
3
 72
0
 73
1
 93
4
 10
171.89
 20
35.17
 10
172.29000000000002
 20
35.17
 10
172.29000000000002
 20
35.370000000000005
 10
171.89
 20
35.370000000000005
 97
0
 75
0
 76
1
 98
0
  0
TEXT
  5
29C
330
17
100
AcDbEntity
  8
C-TEXT
100
AcDbText
 10
172.34
 20
35.52
 30
0.0
 40
0.3
  1
K5
 11
172.34
 21
35.52
 31
0.0
100
AcDbText
  0
LWPOLYLINE
  5
29D
330
17
100
AcDbEntity
  8
C-COL
100
AcDbPolyline
 90
4
 70
1
 10
167.89
 20
34.97
 10
168.09
 20
34.97
 10
168.09
 20
35.37
 10
167.89
 20
35.37
  0
HATCH
  5
29E
330
17
100
AcDbEntity
  8
C-COL
 62
7
100
AcDbHatch
 10
0.0
 20
0.0
 30
0.0
210
0.0
220
0.0
230
1.0
  2
SOLID
 70
1
 71
0
 91
1
 92
3
 72
0
 73
1
 93
4
 10
167.89
 20
34.97
 10
168.09
 20
34.97
 10
168.09
 20
35.37
 10
167.89
 20
35.37
 97
0
 75
0
 76
1
 98
0
  0
TEXT
  5
29F
330
17
100
AcDbEntity
  8
C-TEXT
100
AcDbText
 10
168.24
 20
35.42
 30
0.0
 40
0.3
  1
K6
 11
168.24
 21
35.42
 31
0.0
100
AcDbText
  0
LWPOLYLINE
  5
2A0
330
17
100
AcDbEntity
  8
C-COL
100
AcDbPolyline
 90
4
 70
1
 10
177.69
 20
34.97
 10
177.89000000000001
 20
34.97
 10
177.89000000000001
 20
35.37
 10
177.69
 20
35.37
  0
HATCH
  5
2A1
330
17
100
AcDbEntity
  8
C-COL
 62
7
100
AcDbHatch
 10
0.0
 20
0.0
 30
0.0
210
0.0
220
0.0
230
1.0
  2
SOLID
 70
1
 71
0
 91
1
 92
3
 72
0
 73
1
 93
4
 10
177.69
 20
34.97
 10
177.89000000000001
 20
34.97
 10
177.89000000000001
 20
35.37
 10
177.69
 20
35.37
 97
0
 75
0
 76
1
 98
0
  0
TEXT
  5
2A2
330
17
100
AcDbEntity
  8
C-TEXT
100
AcDbText
 10
178.04000000000002
 20
35.42
 30
0.0
 40
0.3
  1
K7
 11
178.04000000000002
 21
35.42
 31
0.0
100
AcDbText
  0
LWPOLYLINE
  5
2A3
330
17
100
AcDbEntity
  8
C-COL
100
AcDbPolyline
 90
4
 70
1
 10
167.89
 20
29.17
 10
168.09
 20
29.17
 10
168.09
 20
29.57
 10
167.89
 20
29.57
  0
HATCH
  5
2A4
330
17
100
AcDbEntity
  8
C-COL
 62
7
100
AcDbHatch
 10
0.0
 20
0.0
 30
0.0
210
0.0
220
0.0
230
1.0
  2
SOLID
 70
1
 71
0
 91
1
 92
3
 72
0
 73
1
 93
4
 10
167.89
 20
29.17
 10
168.09
 20
29.17
 10
168.09
 20
29.57
 10
167.89
 20
29.57
 97
0
 75
0
 76
1
 98
0
  0
TEXT
  5
2A5
330
17
100
AcDbEntity
  8
C-TEXT
100
AcDbText
 10
168.24
 20
29.62
 30
0.0
 40
0.3
  1
K8
 11
168.24
 21
29.62
 31
0.0
100
AcDbText
  0
LWPOLYLINE
  5
2A6
330
17
100
AcDbEntity
  8
C-COL
100
AcDbPolyline
 90
4
 70
1
 10
171.89
 20
29.169999999999998
 10
172.29000000000002
 20
29.169999999999998
 10
172.29000000000002
 20
29.369999999999997
 10
171.89
 20
29.369999999999997
  0
HATCH
  5
2A7
330
17
100
AcDbEntity
  8
C-COL
 62
7
100
AcDbHatch
 10
0.0
 20
0.0
 30
0.0
210
0.0
220
0.0
230
1.0
  2
SOLID
 70
1
 71
0
 91
1
 92
3
 72
0
 73
1
 93
4
 10
171.89
 20
29.169999999999998
 10
172.29000000000002
 20
29.169999999999998
 10
172.29000000000002
 20
29.369999999999997
 10
171.89
 20
29.369999999999997
 97
0
 75
0
 76
1
 98
0
  0
TEXT
  5
2A8
330
17
100
AcDbEntity
  8
C-TEXT
100
AcDbText
 10
172.34
 20
29.52
 30
0.0
 40
0.3
  1
K9
 11
172.34
 21
29.52
 31
0.0
100
AcDbText
  0
LWPOLYLINE
  5
2A9
330
17
100
AcDbEntity
  8
C-COL
100
AcDbPolyline
 90
4
 70
1
 10
177.69
 20
29.169999999999998
 10
178.09
 20
29.169999999999998
 10
178.09
 20
29.369999999999997
 10
177.69
 20
29.369999999999997
  0
HATCH
  5
2AA
330
17
100
AcDbEntity
  8
C-COL
 62
7
100
AcDbHatch
 10
0.0
 20
0.0
 30
0.0
210
0.0
220
0.0
230
1.0
  2
SOLID
 70
1
 71
0
 91
1
 92
3
 72
0
 73
1
 93
4
 10
177.69
 20
29.169999999999998
 10
178.09
 20
29.169999999999998
 10
178.09
 20
29.369999999999997
 10
177.69
 20
29.369999999999997
 97
0
 75
0
 76
1
 98
0
  0
TEXT
  5
2AB
330
17
100
AcDbEntity
  8
C-TEXT
100
AcDbText
 10
178.14
 20
29.52
 30
0.0
 40
0.3
  1
K10
 11
178.14
 21
29.52
 31
0.0
100
AcDbText
  0
LWPOLYLINE
  5
2AC
330
17
100
AcDbEntity
  8
C-COL
100
AcDbPolyline
 90
4
 70
1
 10
181.57999999999998
 20
29.169999999999998
 10
181.98000000000002
 20
29.169999999999998
 10
181.98000000000002
 20
29.369999999999997
 10
181.57999999999998
 20
29.369999999999997
  0
HATCH
  5
2AD
330
17
100
AcDbEntity
  8
C-COL
 62
7
100
AcDbHatch
 10
0.0
 20
0.0
 30
0.0
210
0.0
220
0.0
230
1.0
  2
SOLID
 70
1
 71
0
 91
1
 92
3
 72
0
 73
1
 93
4
 10
181.57999999999998
 20
29.169999999999998
 10
181.98000000000002
 20
29.169999999999998
 10
181.98000000000002
 20
29.369999999999997
 10
181.57999999999998
 20
29.369999999999997
 97
0
 75
0
 76
1
 98
0
  0
TEXT
  5
2AE
330
17
100
AcDbEntity
  8
C-TEXT
100
AcDbText
 10
182.03
 20
29.52
 30
0.0
 40
0.3
  1
K11
 11
182.03
 21
29.52
 31
0.0
100
AcDbText
  0
LWPOLYLINE
  5
2AF
330
17
100
AcDbEntity
  8
C-COL
100
AcDbPolyline
 90
4
 70
1
 10
186.99
 20
29.169999999999998
 10
187.39
 20
29.169999999999998
 10
187.39
 20
29.369999999999997
 10
186.99
 20
29.369999999999997
  0
HATCH
  5
2B0
330
17
100
AcDbEntity
  8
C-COL
 62
7
100
AcDbHatch
 10
0.0
 20
0.0
 30
0.0
210
0.0
220
0.0
230
1.0
  2
SOLID
 70
1
 71
0
 91
1
 92
3
 72
0
 73
1
 93
4
 10
186.99
 20
29.169999999999998
 10
187.39
 20
29.169999999999998
 10
187.39
 20
29.369999999999997
 10
186.99
 20
29.369999999999997
 97
0
 75
0
 76
1
 98
0
  0
TEXT
  5
2B1
330
17
100
AcDbEntity
  8
C-TEXT
100
AcDbText
 10
187.44
 20
29.52
 30
0.0
 40
0.3
  1
K12
 11
187.44
 21
29.52
 31
0.0
100
AcDbText
  0
LWPOLYLINE
  5
2B2
330
17
100
AcDbEntity
  8
C-COL
100
AcDbPolyline
 90
4
 70
1
 10
192.28
 20
29.169999999999998
 10
192.68
 20
29.169999999999998
 10
192.68
 20
29.369999999999997
 10
192.28
 20
29.369999999999997
  0
HATCH
  5
2B3
330
17
100
AcDbEntity
  8
C-COL
 62
7
100
AcDbHatch
 10
0.0
 20
0.0
 30
0.0
210
0.0
220
0.0
230
1.0
  2
SOLID
 70
1
 71
0
 91
1
 92
3
 72
0
 73
1
 93
4
 10
192.28
 20
29.169999999999998
 10
192.68
 20
29.169999999999998
 10
192.68
 20
29.369999999999997
 10
192.28
 20
29.369999999999997
 97
0
 75
0
 76
1
 98
0
  0
TEXT
  5
2B4
330
17
100
AcDbEntity
  8
C-TEXT
100
AcDbText
 10
192.73000000000002
 20
29.52
 30
0.0
 40
0.3
  1
K13
 11
192.73000000000002
 21
29.52
 31
0.0
100
AcDbText
  0
LWPOLYLINE
  5
2B5
330
17
100
AcDbEntity
  8
C-COL
100
AcDbPolyline
 90
4
 70
1
 10
195.28
 20
29.169999999999998
 10
195.68
 20
29.169999999999998
 10
195.68
 20
29.369999999999997
 10
195.28
 20
29.369999999999997
  0
HATCH
  5
2B6
330
17
100
AcDbEntity
  8
C-COL
 62
7
100
AcDbHatch
 10
0.0
 20
0.0
 30
0.0
210
0.0
220
0.0
230
1.0
  2
SOLID
 70
1
 71
0
 91
1
 92
3
 72
0
 73
1
 93
4
 10
195.28
 20
29.169999999999998
 10
195.68
 20
29.169999999999998
 10
195.68
 20
29.369999999999997
 10
195.28
 20
29.369999999999997
 97
0
 75
0
 76
1
 98
0
  0
TEXT
  5
2B7
330
17
100
AcDbEntity
  8
C-TEXT
100
AcDbText
 10
195.73000000000002
 20
29.52
 30
0.0
 40
0.3
  1
K14
 11
195.73000000000002
 21
29.52
 31
0.0
100
AcDbText
  0
LWPOLYLINE
  5
2B8
330
17
100
AcDbEntity
  8
C-COL
100
AcDbPolyline
 90
4
 70
1
 10
167.89
 20
26.17
 10
168.09
 20
26.17
 10
168.09
 20
26.57
 10
167.89
 20
26.57
  0
HATCH
  5
2B9
330
17
100
AcDbEntity
  8
C-COL
 62
7
100
AcDbHatch
 10
0.0
 20
0.0
 30
0.0
210
0.0
220
0.0
230
1.0
  2
SOLID
 70
1
 71
0
 91
1
 92
3
 72
0
 73
1
 93
4
 10
167.89
 20
26.17
 10
168.09
 20
26.17
 10
168.09
 20
26.57
 10
167.89
 20
26.57
 97
0
 75
0
 76
1
 98
0
  0
TEXT
  5
2BA
330
17
100
AcDbEntity
  8
C-TEXT
100
AcDbText
 10
168.24
 20
26.62
 30
0.0
 40
0.3
  1
K15
 11
168.24
 21
26.62
 31
0.0
100
AcDbText
  0
LWPOLYLINE
  5
2BB
330
17
100
AcDbEntity
  8
C-COL
100
AcDbPolyline
 90
4
 70
1
 10
177.68
 20
24.26
 10
177.88
 20
24.26
 10
177.88
 20
24.66
 10
177.68
 20
24.66
  0
HATCH
  5
2BC
330
17
100
AcDbEntity
  8
C-COL
 62
7
100
AcDbHatch
 10
0.0
 20
0.0
 30
0.0
210
0.0
220
0.0
230
1.0
  2
SOLID
 70
1
 71
0
 91
1
 92
3
 72
0
 73
1
 93
4
 10
177.68
 20
24.26
 10
177.88
 20
24.26
 10
177.88
 20
24.66
 10
177.68
 20
24.66
 97
0
 75
0
 76
1
 98
0
  0
TEXT
  5
2BD
330
17
100
AcDbEntity
  8
C-TEXT
100
AcDbText
 10
178.03
 20
24.71
 30
0.0
 40
0.3
  1
K16
 11
178.03
 21
24.71
 31
0.0
100
AcDbText
  0
LWPOLYLINE
  5
2BE
330
17
100
AcDbEntity
  8
C-COL
100
AcDbPolyline
 90
4
 70
1
 10
181.79000000000002
 20
24.26
 10
181.99
 20
24.26
 10
181.99
 20
24.66
 10
181.79000000000002
 20
24.66
  0
HATCH
  5
2BF
330
17
100
AcDbEntity
  8
C-COL
 62
7
100
AcDbHatch
 10
0.0
 20
0.0
 30
0.0
210
0.0
220
0.0
230
1.0
  2
SOLID
 70
1
 71
0
 91
1
 92
3
 72
0
 73
1
 93
4
 10
181.79000000000002
 20
24.26
 10
181.99
 20
24.26
 10
181.99
 20
24.66
 10
181.79000000000002
 20
24.66
 97
0
 75
0
 76
1
 98
0
  0
TEXT
  5
2C0
330
17
100
AcDbEntity
  8
C-TEXT
100
AcDbText
 10
182.14
 20
24.71
 30
0.0
 40
0.3
  1
K17
 11
182.14
 21
24.71
 31
0.0
100
AcDbText
  0
LWPOLYLINE
  5
2C1
330
17
100
AcDbEntity
  8
C-COL
100
AcDbPolyline
 90
4
 70
1
 10
195.49
 20
24.26
 10
195.69
 20
24.26
 10
195.69
 20
24.66
 10
195.49
 20
24.66
  0
HATCH
  5
2C2
330
17
100
AcDbEntity
  8
C-COL
 62
7
100
AcDbHatch
 10
0.0
 20
0.0
 30
0.0
210
0.0
220
0.0
230
1.0
  2
SOLID
 70
1
 71
0
 91
1
 92
3
 72
0
 73
1
 93
4
 10
195.49
 20
24.26
 10
195.69
 20
24.26
 10
195.69
 20
24.66
 10
195.49
 20
24.66
 97
0
 75
0
 76
1
 98
0
  0
TEXT
  5
2C3
330
17
100
AcDbEntity
  8
C-TEXT
100
AcDbText
 10
195.84
 20
24.71
 30
0.0
 40
0.3
  1
K18
 11
195.84
 21
24.71
 31
0.0
100
AcDbText
  0
LWPOLYLINE
  5
2C4
330
17
100
AcDbEntity
  8
C-COL
100
AcDbPolyline
 90
4
 70
1
 10
167.89
 20
21.560000000000002
 10
168.09
 20
21.560000000000002
 10
168.09
 20
21.96
 10
167.89
 20
21.96
  0
HATCH
  5
2C5
330
17
100
AcDbEntity
  8
C-COL
 62
7
100
AcDbHatch
 10
0.0
 20
0.0
 30
0.0
210
0.0
220
0.0
230
1.0
  2
SOLID
 70
1
 71
0
 91
1
 92
3
 72
0
 73
1
 93
4
 10
167.89
 20
21.560000000000002
 10
168.09
 20
21.560000000000002
 10
168.09
 20
21.96
 10
167.89
 20
21.96
 97
0
 75
0
 76
1
 98
0
  0
TEXT
  5
2C6
330
17
100
AcDbEntity
  8
C-TEXT
100
AcDbText
 10
168.24
 20
22.01
 30
0.0
 40
0.3
  1
K19
 11
168.24
 21
22.01
 31
0.0
100
AcDbText
  0
LWPOLYLINE
  5
2C7
330
17
100
AcDbEntity
  8
C-COL
100
AcDbPolyline
 90
4
 70
1
 10
177.68
 20
21.560000000000002
 10
177.88
 20
21.560000000000002
 10
177.88
 20
21.96
 10
177.68
 20
21.96
  0
HATCH
  5
2C8
330
17
100
AcDbEntity
  8
C-COL
 62
7
100
AcDbHatch
 10
0.0
 20
0.0
 30
0.0
210
0.0
220
0.0
230
1.0
  2
SOLID
 70
1
 71
0
 91
1
 92
3
 72
0
 73
1
 93
4
 10
177.68
 20
21.560000000000002
 10
177.88
 20
21.560000000000002
 10
177.88
 20
21.96
 10
177.68
 20
21.96
 97
0
 75
0
 76
1
 98
0
  0
TEXT
  5
2C9
330
17
100
AcDbEntity
  8
C-TEXT
100
AcDbText
 10
178.03
 20
22.01
 30
0.0
 40
0.3
  1
K20
 11
178.03
 21
22.01
 31
0.0
100
AcDbText
  0
LWPOLYLINE
  5
2CA
330
17
100
AcDbEntity
  8
C-COL
100
AcDbPolyline
 90
4
 70
1
 10
181.59
 20
19.97
 10
181.99
 20
19.97
 10
181.99
 20
20.169999999999998
 10
181.59
 20
20.169999999999998
  0
HATCH
  5
2CB
330
17
100
AcDbEntity
  8
C-COL
 62
7
100
AcDbHatch
 10
0.0
 20
0.0
 30
0.0
210
0.0
220
0.0
230
1.0
  2
SOLID
 70
1
 71
0
 91
1
 92
3
 72
0
 73
1
 93
4
 10
181.59
 20
19.97
 10
181.99
 20
19.97
 10
181.99
 20
20.169999999999998
 10
181.59
 20
20.169999999999998
 97
0
 75
0
 76
1
 98
0
  0
TEXT
  5
2CC
330
17
100
AcDbEntity
  8
C-TEXT
100
AcDbText
 10
182.04000000000002
 20
20.32
 30
0.0
 40
0.3
  1
K21
 11
182.04000000000002
 21
20.32
 31
0.0
100
AcDbText
  0
LWPOLYLINE
  5
2CD
330
17
100
AcDbEntity
  8
C-COL
100
AcDbPolyline
 90
4
 70
1
 10
188.68
 20
19.97
 10
189.07999999999998
 20
19.97
 10
189.07999999999998
 20
20.169999999999998
 10
188.68
 20
20.169999999999998
  0
HATCH
  5
2CE
330
17
100
AcDbEntity
  8
C-COL
 62
7
100
AcDbHatch
 10
0.0
 20
0.0
 30
0.0
210
0.0
220
0.0
230
1.0
  2
SOLID
 70
1
 71
0
 91
1
 92
3
 72
0
 73
1
 93
4
 10
188.68
 20
19.97
 10
189.07999999999998
 20
19.97
 10
189.07999999999998
 20
20.169999999999998
 10
188.68
 20
20.169999999999998
 97
0
 75
0
 76
1
 98
0
  0
TEXT
  5
2CF
330
17
100
AcDbEntity
  8
C-TEXT
100
AcDbText
 10
189.13
 20
20.32
 30
0.0
 40
0.3
  1
K22
 11
189.13
 21
20.32
 31
0.0
100
AcDbText
  0
LWPOLYLINE
  5
2D0
330
17
100
AcDbEntity
  8
C-COL
100
AcDbPolyline
 90
4
 70
1
 10
195.29
 20
19.97
 10
195.69
 20
19.97
 10
195.69
 20
20.169999999999998
 10
195.29
 20
20.169999999999998
  0
HATCH
  5
2D1
330
17
100
AcDbEntity
  8
C-COL
 62
7
100
AcDbHatch
 10
0.0
 20
0.0
 30
0.0
210
0.0
220
0.0
230
1.0
  2
SOLID
 70
1
 71
0
 91
1
 92
3
 72
0
 73
1
 93
4
 10
195.29
 20
19.97
 10
195.69
 20
19.97
 10
195.69
 20
20.169999999999998
 10
195.29
 20
20.169999999999998
 97
0
 75
0
 76
1
 98
0
  0
TEXT
  5
2D2
330
17
100
AcDbEntity
  8
C-TEXT
100
AcDbText
 10
195.74
 20
20.32
 30
0.0
 40
0.3
  1
K23
 11
195.74
 21
20.32
 31
0.0
100
AcDbText
  0
LWPOLYLINE
  5
2D3
330
17
100
AcDbEntity
  8
C-COL
100
AcDbPolyline
 90
4
 70
1
 10
174.69
 20
15.870000000000001
 10
175.09
 20
15.870000000000001
 10
175.09
 20
16.07
 10
174.69
 20
16.07
  0
HATCH
  5
2D4
330
17
100
AcDbEntity
  8
C-COL
 62
7
100
AcDbHatch
 10
0.0
 20
0.0
 30
0.0
210
0.0
220
0.0
230
1.0
  2
SOLID
 70
1
 71
0
 91
1
 92
3
 72
0
 73
1
 93
4
 10
174.69
 20
15.870000000000001
 10
175.09
 20
15.870000000000001
 10
175.09
 20
16.07
 10
174.69
 20
16.07
 97
0
 75
0
 76
1
 98
0
  0
TEXT
  5
2D5
330
17
100
AcDbEntity
  8
C-TEXT
100
AcDbText
 10
175.14
 20
16.22
 30
0.0
 40
0.3
  1
K24
 11
175.14
 21
16.22
 31
0.0
100
AcDbText
  0
LWPOLYLINE
  5
2D6
330
17
100
AcDbEntity
  8
C-COL
100
AcDbPolyline
 90
4
 70
1
 10
167.89
 20
15.67
 10
168.09
 20
15.67
 10
168.09
 20
16.07
 10
167.89
 20
16.07
  0
HATCH
  5
2D7
330
17
100
AcDbEntity
  8
C-COL
 62
7
100
AcDbHatch
 10
0.0
 20
0.0
 30
0.0
210
0.0
220
0.0
230
1.0
  2
SOLID
 70
1
 71
0
 91
1
 92
3
 72
0
 73
1
 93
4
 10
167.89
 20
15.67
 10
168.09
 20
15.67
 10
168.09
 20
16.07
 10
167.89
 20
16.07
 97
0
 75
0
 76
1
 98
0
  0
TEXT
  5
2D8
330
17
100
AcDbEntity
  8
C-TEXT
100
AcDbText
 10
168.24
 20
16.119999999999997
 30
0.0
 40
0.3
  1
K25
 11
168.24
 21
16.119999999999997
 31
0.0
100
AcDbText
  0
LWPOLYLINE
  5
2D9
330
17
100
AcDbEntity
  8
C-COL
100
AcDbPolyline
 90
4
 70
1
 10
171.89
 20
15.67
 10
172.09
 20
15.67
 10
172.09
 20
16.07
 10
171.89
 20
16.07
  0
HATCH
  5
2DA
330
17
100
AcDbEntity
  8
C-COL
 62
7
100
AcDbHatch
 10
0.0
 20
0.0
 30
0.0
210
0.0
220
0.0
230
1.0
  2
SOLID
 70
1
 71
0
 91
1
 92
3
 72
0
 73
1
 93
4
 10
171.89
 20
15.67
 10
172.09
 20
15.67
 10
172.09
 20
16.07
 10
171.89
 20
16.07
 97
0
 75
0
 76
1
 98
0
  0
TEXT
  5
2DB
330
17
100
AcDbEntity
  8
C-TEXT
100
AcDbText
 10
172.24
 20
16.119999999999997
 30
0.0
 40
0.3
  1
K26
 11
172.24
 21
16.119999999999997
 31
0.0
100
AcDbText
  0
LWPOLYLINE
  5
2DC
330
17
100
AcDbEntity
  8
C-COL
100
AcDbPolyline
 90
4
 70
1
 10
177.68
 20
15.67
 10
177.88
 20
15.67
 10
177.88
 20
16.07
 10
177.68
 20
16.07
  0
HATCH
  5
2DD
330
17
100
AcDbEntity
  8
C-COL
 62
7
100
AcDbHatch
 10
0.0
 20
0.0
 30
0.0
210
0.0
220
0.0
230
1.0
  2
SOLID
 70
1
 71
0
 91
1
 92
3
 72
0
 73
1
 93
4
 10
177.68
 20
15.67
 10
177.88
 20
15.67
 10
177.88
 20
16.07
 10
177.68
 20
16.07
 97
0
 75
0
 76
1
 98
0
  0
TEXT
  5
2DE
330
17
100
AcDbEntity
  8
C-TEXT
100
AcDbText
 10
178.03
 20
16.119999999999997
 30
0.0
 40
0.3
  1
K27
 11
178.03
 21
16.119999999999997
 31
0.0
100
AcDbText
  0
LINE
  5
2DF
330
17
100
AcDbEntity
  8
C-PRIMARY
100
AcDbLine
 10
167.99
 20
35.17
 30
0.0
 11
172.09
 21
35.27
 31
0.0
  0
LINE
  5
2E0
330
17
100
AcDbEntity
  8
C-PRIMARY
100
AcDbLine
 10
172.09
 20
35.27
 30
0.0
 11
177.79000000000002
 21
35.17
 31
0.0
  0
LINE
  5
2E1
330
17
100
AcDbEntity
  8
C-PRIMARY
100
AcDbLine
 10
181.89
 20
35.67
 30
0.0
 11
187.19
 21
35.77
 31
0.0
  0
LINE
  5
2E2
330
17
100
AcDbEntity
  8
C-PRIMARY
100
AcDbLine
 10
187.19
 20
35.77
 30
0.0
 11
192.48000000000002
 21
35.77
 31
0.0
  0
LINE
  5
2E3
330
17
100
AcDbEntity
  8
C-PRIMARY
100
AcDbLine
 10
192.48000000000002
 20
35.77
 30
0.0
 11
195.59
 21
35.67
 31
0.0
  0
LINE
  5
2E4
330
17
100
AcDbEntity
  8
C-PRIMARY
100
AcDbLine
 10
167.99
 20
29.37
 30
0.0
 11
172.09
 21
29.27
 31
0.0
  0
LINE
  5
2E5
330
17
100
AcDbEntity
  8
C-PRIMARY
100
AcDbLine
 10
172.09
 20
29.27
 30
0.0
 11
177.89
 21
29.27
 31
0.0
  0
LINE
  5
2E6
330
17
100
AcDbEntity
  8
C-PRIMARY
100
AcDbLine
 10
177.89
 20
29.27
 30
0.0
 11
181.78
 21
29.27
 31
0.0
  0
LINE
  5
2E7
330
17
100
AcDbEntity
  8
C-PRIMARY
100
AcDbLine
 10
181.78
 20
29.27
 30
0.0
 11
187.19
 21
29.27
 31
0.0
  0
LINE
  5
2E8
330
17
100
AcDbEntity
  8
C-PRIMARY
100
AcDbLine
 10
187.19
 20
29.27
 30
0.0
 11
192.48000000000002
 21
29.27
 31
0.0
  0
LINE
  5
2E9
330
17
100
AcDbEntity
  8
C-PRIMARY
100
AcDbLine
 10
192.48000000000002
 20
29.27
 30
0.0
 11
195.48000000000002
 21
29.27
 31
0.0
  0
LINE
  5
2EA
330
17
100
AcDbEntity
  8
C-PRIMARY
100
AcDbLine
 10
177.78
 20
24.46
 30
0.0
 11
181.89
 21
24.46
 31
0.0
  0
LINE
  5
2EB
330
17
100
AcDbEntity
  8
C-PRIMARY
100
AcDbLine
 10
167.99
 20
21.76
 30
0.0
 11
177.78
 21
21.76
 31
0.0
  0
LINE
  5
2EC
330
17
100
AcDbEntity
  8
C-PRIMARY
100
AcDbLine
 10
177.78
 20
20.07
 30
0.0
 11
181.79000000000002
 21
20.07
 31
0.0
  0
LINE
  5
2ED
330
17
100
AcDbEntity
  8
C-PRIMARY
100
AcDbLine
 10
181.79000000000002
 20
20.07
 30
0.0
 11
188.88
 21
20.07
 31
0.0
  0
LINE
  5
2EE
330
17
100
AcDbEntity
  8
C-PRIMARY
100
AcDbLine
 10
188.88
 20
20.07
 30
0.0
 11
195.49
 21
20.07
 31
0.0
  0
LINE
  5
2EF
330
17
100
AcDbEntity
  8
C-PRIMARY
100
AcDbLine
 10
167.99
 20
15.87
 30
0.0
 11
171.99
 21
15.87
 31
0.0
  0
LINE
  5
2F0
330
17
100
AcDbEntity
  8
C-PRIMARY
100
AcDbLine
 10
171.99
 20
15.87
 30
0.0
 11
174.89
 21
15.97
 31
0.0
  0
LINE
  5
2F1
330
17
100
AcDbEntity
  8
C-PRIMARY
100
AcDbLine
 10
174.89
 20
15.97
 30
0.0
 11
177.78
 21
15.87
 31
0.0
  0
LINE
  5
2F2
330
17
100
AcDbEntity
  8
C-RAFTER
100
AcDbLine
 10
167.99
 20
35.17
 30
0.0
 11
167.99
 21
29.37
 31
0.0
  0
LINE
  5
2F3
330
17
100
AcDbEntity
  8
C-RAFTER
100
AcDbLine
 10
167.99
 20
29.37
 30
0.0
 11
167.99
 21
26.37
 31
0.0
  0
LINE
  5
2F4
330
17
100
AcDbEntity
  8
C-RAFTER
100
AcDbLine
 10
167.99
 20
26.37
 30
0.0
 11
167.99
 21
21.76
 31
0.0
  0
LINE
  5
2F5
330
17
100
AcDbEntity
  8
C-RAFTER
100
AcDbLine
 10
167.99
 20
21.76
 30
0.0
 11
167.99
 21
15.87
 31
0.0
  0
LINE
  5
2F6
330
17
100
AcDbEntity
  8
C-RAFTER
100
AcDbLine
 10
172.09
 20
35.27
 30
0.0
 11
172.09
 21
29.27
 31
0.0
  0
LINE
  5
2F7
330
17
100
AcDbEntity
  8
C-RAFTER
100
AcDbLine
 10
172.09
 20
29.27
 30
0.0
 11
172.09
 21
21.76
 31
0.0
  0
LINE
  5
2F8
330
17
100
AcDbEntity
  8
C-RAFTER
100
AcDbLine
 10
172.09
 20
21.76
 30
0.0
 11
171.99
 21
15.87
 31
0.0
  0
LINE
  5
2F9
330
17
100
AcDbEntity
  8
C-RAFTER
100
AcDbLine
 10
174.89
 20
35.2
 30
0.0
 11
174.89
 21
29.27
 31
0.0
  0
LINE
  5
2FA
330
17
100
AcDbEntity
  8
C-RAFTER
100
AcDbLine
 10
174.89
 20
29.27
 30
0.0
 11
174.89
 21
21.76
 31
0.0
  0
LINE
  5
2FB
330
17
100
AcDbEntity
  8
C-RAFTER
100
AcDbLine
 10
174.89
 20
21.76
 30
0.0
 11
174.89
 21
15.97
 31
0.0
  0
LINE
  5
2FC
330
17
100
AcDbEntity
  8
C-RAFTER
100
AcDbLine
 10
177.79000000000002
 20
35.17
 30
0.0
 11
177.89
 21
29.27
 31
0.0
  0
LINE
  5
2FD
330
17
100
AcDbEntity
  8
C-RAFTER
100
AcDbLine
 10
177.89
 20
29.27
 30
0.0
 11
177.78
 21
24.46
 31
0.0
  0
LINE
  5
2FE
330
17
100
AcDbEntity
  8
C-RAFTER
100
AcDbLine
 10
177.78
 20
24.46
 30
0.0
 11
177.78
 21
21.76
 31
0.0
  0
LINE
  5
2FF
330
17
100
AcDbEntity
  8
C-RAFTER
100
AcDbLine
 10
177.78
 20
21.76
 30
0.0
 11
177.78
 21
15.87
 31
0.0
  0
LINE
  5
300
330
17
100
AcDbEntity
  8
C-RAFTER
100
AcDbLine
 10
181.89
 20
35.67
 30
0.0
 11
181.78
 21
29.27
 31
0.0
  0
LINE
  5
301
330
17
100
AcDbEntity
  8
C-RAFTER
100
AcDbLine
 10
181.78
 20
29.27
 30
0.0
 11
181.89
 21
24.46
 31
0.0
  0
LINE
  5
302
330
17
100
AcDbEntity
  8
C-RAFTER
100
AcDbLine
 10
181.89
 20
24.46
 30
0.0
 11
181.79000000000002
 21
20.07
 31
0.0
  0
LINE
  5
303
330
17
100
AcDbEntity
  8
C-RAFTER
100
AcDbLine
 10
184.5
 20
35.72
 30
0.0
 11
184.5
 21
29.27
 31
0.0
  0
LINE
  5
304
330
17
100
AcDbEntity
  8
C-RAFTER
100
AcDbLine
 10
184.5
 20
29.27
 30
0.0
 11
184.5
 21
20.07
 31
0.0
  0
LINE
  5
305
330
17
100
AcDbEntity
  8
C-RAFTER
100
AcDbLine
 10
189.9
 20
35.72
 30
0.0
 11
189.9
 21
29.27
 31
0.0
  0
LINE
  5
306
330
17
100
AcDbEntity
  8
C-RAFTER
100
AcDbLine
 10
189.9
 20
29.27
 30
0.0
 11
189.9
 21
20.07
 31
0.0
  0
LINE
  5
307
330
17
100
AcDbEntity
  8
C-RAFTER
100
AcDbLine
 10
187.19
 20
35.77
 30
0.0
 11
187.19
 21
29.27
 31
0.0
  0
LINE
  5
308
330
17
100
AcDbEntity
  8
C-RAFTER
100
AcDbLine
 10
187.19
 20
29.27
 30
0.0
 11
187.19
 21
20.07
 31
0.0
  0
LINE
  5
309
330
17
100
AcDbEntity
  8
C-RAFTER
100
AcDbLine
 10
192.48000000000002
 20
35.77
 30
0.0
 11
192.48000000000002
 21
29.27
 31
0.0
  0
LINE
  5
30A
330
17
100
AcDbEntity
  8
C-RAFTER
100
AcDbLine
 10
192.48000000000002
 20
29.27
 30
0.0
 11
192.48000000000002
 21
20.07
 31
0.0
  0
LINE
  5
30B
330
17
100
AcDbEntity
  8
C-RAFTER
100
AcDbLine
 10
195.59
 20
35.67
 30
0.0
 11
195.48000000000002
 21
29.27
 31
0.0
  0
LINE
  5
30C
330
17
100
AcDbEntity
  8
C-RAFTER
100
AcDbLine
 10
195.48000000000002
 20
29.27
 30
0.0
 11
195.59
 21
24.46
 31
0.0
  0
LINE
  5
30D
330
17
100
AcDbEntity
  8
C-RAFTER
100
AcDbLine
 10
195.59
 20
24.46
 30
0.0
 11
195.49
 21
20.07
 31
0.0
  0
LINE
  5
30E
330
17
100
AcDbEntity
  8
C-RAFTER
100
AcDbLine
 10
177.79000000000002
 20
35.17
 30
0.0
 11
181.8
 21
35.17
 31
0.0
  0
TEXT
  5
30F
330
17
100
AcDbEntity
  8
C-TEXT
100
AcDbText
 10
182.0
 20
35.02
 30
0.0
 40
0.3
  1
T1 TRIMMER IPE 270 4.0 m
 11
182.0
 21
35.02
 31
0.0
100
AcDbText
  0
LINE
  5
310
330
17
100
AcDbEntity
  8
C-RAFTER
100
AcDbLine
 10
177.78
 20
24.16
 30
0.0
 11
181.85
 21
24.16
 31
0.0
  0
TEXT
  5
311
330
17
100
AcDbEntity
  8
C-TEXT
100
AcDbText
 10
182.05
 20
24.01
 30
0.0
 40
0.3
  1
T2 TRIMMER IPE 270 4.0 m
 11
182.05
 21
24.01
 31
0.0
100
AcDbText
  0
LWPOLYLINE
  5
312
330
17
100
AcDbEntity
  8
C-OPENING
100
AcDbPolyline
 90
4
 70
1
 10
177.89
 20
29.37
 10
181.79000000000002
 20
29.37
 10
181.79000000000002
 20
35.37
 10
177.89
 20
35.37
  0
HATCH
  5
313
330
17
100
AcDbEntity
  8
C-OPENING
 62
7
100
AcDbHatch
 10
0.0
 20
0.0
 30
0.0
210
0.0
220
0.0
230
1.0
  2
ANSI31
 70
0
 71
0
 91
1
 92
3
 72
0
 73
1
 93
4
 10
177.89
 20
29.37
 10
181.79000000000002
 20
29.37
 10
181.79000000000002
 20
35.37
 10
177.89
 20
35.37
 97
0
 75
1
 76
1
 52
0.0
 41
3.0
 77
0
 78
1
 53
45.0
 43
0.0
 44
0.0
 45
-20.2055762727
 46
20.2055762727
 79
0
 98
0
  0
TEXT
  5
314
330
17
100
AcDbEntity
  8
C-TEXT
100
AcDbText
 10
179.84
 20
32.769999999999996
 30
0.0
 40
0.3
  1
STAIR OPENING - NOT ROOFED
 72
1
 11
179.84
 21
32.769999999999996
 31
0.0
100
AcDbText
  0
TEXT
  5
315
330
17
100
AcDbEntity
  8
C-TEXT
100
AcDbText
 10
179.84
 20
31.97
 30
0.0
 40
0.3
  1
UPSTAND + FLASHING ALL SIDES
 72
1
 11
179.84
 21
31.97
 31
0.0
100
AcDbText
  0
LWPOLYLINE
  5
316
330
17
100
AcDbEntity
  8
C-OPENING
100
AcDbPolyline
 90
4
 70
1
 10
177.89
 20
20.17
 10
181.99
 20
20.17
 10
181.99
 20
24.16
 10
177.89
 20
24.16
  0
HATCH
  5
317
330
17
100
AcDbEntity
  8
C-OPENING
 62
7
100
AcDbHatch
 10
0.0
 20
0.0
 30
0.0
210
0.0
220
0.0
230
1.0
  2
ANSI31
 70
0
 71
0
 91
1
 92
3
 72
0
 73
1
 93
4
 10
177.89
 20
20.17
 10
181.99
 20
20.17
 10
181.99
 20
24.16
 10
177.89
 20
24.16
 97
0
 75
1
 76
1
 52
0.0
 41
3.0
 77
0
 78
1
 53
45.0
 43
0.0
 44
0.0
 45
-20.2055762727
 46
20.2055762727
 79
0
 98
0
  0
TEXT
  5
318
330
17
100
AcDbEntity
  8
C-TEXT
100
AcDbText
 10
179.94
 20
22.564999999999998
 30
0.0
 40
0.3
  1
ELEVATOR OPENING - NOT ROOFED
 72
1
 11
179.94
 21
22.564999999999998
 31
0.0
100
AcDbText
  0
TEXT
  5
319
330
17
100
AcDbEntity
  8
C-TEXT
100
AcDbText
 10
179.94
 20
21.765
 30
0.0
 40
0.3
  1
UPSTAND + FLASHING ALL SIDES
 72
1
 11
179.94
 21
21.765
 31
0.0
100
AcDbText
  0
LINE
  5
31A
330
17
100
AcDbEntity
  8
C-PURLIN
100
AcDbLine
 10
168.0
 20
35.2
 30
0.0
 11
177.8
 21
35.2
 31
0.0
  0
LINE
  5
31B
330
17
100
AcDbEntity
  8
C-PURLIN
100
AcDbLine
 10
168.0
 20
34.2
 30
0.0
 11
177.8
 21
34.2
 31
0.0
  0
LINE
  5
31C
330
17
100
AcDbEntity
  8
C-PURLIN
100
AcDbLine
 10
168.0
 20
32.7
 30
0.0
 11
177.8
 21
32.7
 31
0.0
  0
LINE
  5
31D
330
17
100
AcDbEntity
  8
C-PURLIN
100
AcDbLine
 10
168.0
 20
31.2
 30
0.0
 11
177.8
 21
31.2
 31
0.0
  0
LINE
  5
31E
330
17
100
AcDbEntity
  8
C-PURLIN
100
AcDbLine
 10
168.0
 20
29.7
 30
0.0
 11
177.8
 21
29.7
 31
0.0
  0
LINE
  5
31F
330
17
100
AcDbEntity
  8
C-PURLIN
100
AcDbLine
 10
181.8
 20
35.6
 30
0.0
 11
195.5
 21
35.6
 31
0.0
  0
LINE
  5
320
330
17
100
AcDbEntity
  8
C-PURLIN
100
AcDbLine
 10
181.8
 20
34.2
 30
0.0
 11
195.5
 21
34.2
 31
0.0
  0
LINE
  5
321
330
17
100
AcDbEntity
  8
C-PURLIN
100
AcDbLine
 10
181.8
 20
32.7
 30
0.0
 11
195.5
 21
32.7
 31
0.0
  0
LINE
  5
322
330
17
100
AcDbEntity
  8
C-PURLIN
100
AcDbLine
 10
181.8
 20
31.2
 30
0.0
 11
195.5
 21
31.2
 31
0.0
  0
LINE
  5
323
330
17
100
AcDbEntity
  8
C-PURLIN
100
AcDbLine
 10
181.8
 20
29.7
 30
0.0
 11
195.5
 21
29.7
 31
0.0
  0
LINE
  5
324
330
17
100
AcDbEntity
  8
C-PURLIN
100
AcDbLine
 10
168.0
 20
28.2
 30
0.0
 11
195.5
 21
28.2
 31
0.0
  0
LINE
  5
325
330
17
100
AcDbEntity
  8
C-PURLIN
100
AcDbLine
 10
168.0
 20
26.7
 30
0.0
 11
195.5
 21
26.7
 31
0.0
  0
LINE
  5
326
330
17
100
AcDbEntity
  8
C-PURLIN
100
AcDbLine
 10
168.0
 20
25.2
 30
0.0
 11
195.5
 21
25.2
 31
0.0
  0
LINE
  5
327
330
17
100
AcDbEntity
  8
C-PURLIN
100
AcDbLine
 10
168.0
 20
23.7
 30
0.0
 11
177.8
 21
23.7
 31
0.0
  0
LINE
  5
328
330
17
100
AcDbEntity
  8
C-PURLIN
100
AcDbLine
 10
181.8
 20
23.7
 30
0.0
 11
195.5
 21
23.7
 31
0.0
  0
LINE
  5
329
330
17
100
AcDbEntity
  8
C-PURLIN
100
AcDbLine
 10
168.0
 20
22.2
 30
0.0
 11
177.8
 21
22.2
 31
0.0
  0
LINE
  5
32A
330
17
100
AcDbEntity
  8
C-PURLIN
100
AcDbLine
 10
181.8
 20
22.2
 30
0.0
 11
195.5
 21
22.2
 31
0.0
  0
LINE
  5
32B
330
17
100
AcDbEntity
  8
C-PURLIN
100
AcDbLine
 10
168.0
 20
20.7
 30
0.0
 11
177.8
 21
20.7
 31
0.0
  0
LINE
  5
32C
330
17
100
AcDbEntity
  8
C-PURLIN
100
AcDbLine
 10
181.8
 20
20.7
 30
0.0
 11
195.5
 21
20.7
 31
0.0
  0
LINE
  5
32D
330
17
100
AcDbEntity
  8
C-PURLIN
100
AcDbLine
 10
168.0
 20
19.2
 30
0.0
 11
177.8
 21
19.2
 31
0.0
  0
LINE
  5
32E
330
17
100
AcDbEntity
  8
C-PURLIN
100
AcDbLine
 10
168.0
 20
17.7
 30
0.0
 11
177.8
 21
17.7
 31
0.0
  0
LINE
  5
32F
330
17
100
AcDbEntity
  8
C-PURLIN
100
AcDbLine
 10
168.0
 20
16.2
 30
0.0
 11
177.8
 21
16.2
 31
0.0
  0
LINE
  5
330
330
17
100
AcDbEntity
  8
C-BRACE-ROOF
100
AcDbLine
 10
168.0
 20
35.2
 30
0.0
 11
172.09
 21
32.235
 31
0.0
  0
LINE
  5
331
330
17
100
AcDbEntity
  8
C-BRACE-ROOF
100
AcDbLine
 10
168.0
 20
32.235
 30
0.0
 11
172.09
 21
35.2
 31
0.0
  0
LINE
  5
332
330
17
100
AcDbEntity
  8
C-BRACE-ROOF
100
AcDbLine
 10
168.0
 20
32.235
 30
0.0
 11
172.09
 21
29.27
 31
0.0
  0
LINE
  5
333
330
17
100
AcDbEntity
  8
C-BRACE-ROOF
100
AcDbLine
 10
168.0
 20
29.27
 30
0.0
 11
172.09
 21
32.235
 31
0.0
  0
LINE
  5
334
330
17
100
AcDbEntity
  8
C-BRACE-ROOF
100
AcDbLine
 10
172.09
 20
35.2
 30
0.0
 11
174.89
 21
32.235
 31
0.0
  0
LINE
  5
335
330
17
100
AcDbEntity
  8
C-BRACE-ROOF
100
AcDbLine
 10
172.09
 20
32.235
 30
0.0
 11
174.89
 21
35.2
 31
0.0
  0
LINE
  5
336
330
17
100
AcDbEntity
  8
C-BRACE-ROOF
100
AcDbLine
 10
172.09
 20
32.235
 30
0.0
 11
174.89
 21
29.27
 31
0.0
  0
LINE
  5
337
330
17
100
AcDbEntity
  8
C-BRACE-ROOF
100
AcDbLine
 10
172.09
 20
29.27
 30
0.0
 11
174.89
 21
32.235
 31
0.0
  0
LINE
  5
338
330
17
100
AcDbEntity
  8
C-BRACE-ROOF
100
AcDbLine
 10
174.89
 20
35.2
 30
0.0
 11
177.78
 21
32.235
 31
0.0
  0
LINE
  5
339
330
17
100
AcDbEntity
  8
C-BRACE-ROOF
100
AcDbLine
 10
174.89
 20
32.235
 30
0.0
 11
177.78
 21
35.2
 31
0.0
  0
LINE
  5
33A
330
17
100
AcDbEntity
  8
C-BRACE-ROOF
100
AcDbLine
 10
174.89
 20
32.235
 30
0.0
 11
177.78
 21
29.27
 31
0.0
  0
LINE
  5
33B
330
17
100
AcDbEntity
  8
C-BRACE-ROOF
100
AcDbLine
 10
174.89
 20
29.27
 30
0.0
 11
177.78
 21
32.235
 31
0.0
  0
LINE
  5
33C
330
17
100
AcDbEntity
  8
C-BRACE-ROOF
100
AcDbLine
 10
181.8
 20
35.72
 30
0.0
 11
184.5
 21
32.495
 31
0.0
  0
LINE
  5
33D
330
17
100
AcDbEntity
  8
C-BRACE-ROOF
100
AcDbLine
 10
181.8
 20
32.495
 30
0.0
 11
184.5
 21
35.72
 31
0.0
  0
LINE
  5
33E
330
17
100
AcDbEntity
  8
C-BRACE-ROOF
100
AcDbLine
 10
181.8
 20
32.495
 30
0.0
 11
184.5
 21
29.27
 31
0.0
  0
LINE
  5
33F
330
17
100
AcDbEntity
  8
C-BRACE-ROOF
100
AcDbLine
 10
181.8
 20
29.27
 30
0.0
 11
184.5
 21
32.495
 31
0.0
  0
LINE
  5
340
330
17
100
AcDbEntity
  8
C-BRACE-ROOF
100
AcDbLine
 10
184.5
 20
35.72
 30
0.0
 11
187.19
 21
32.495
 31
0.0
  0
LINE
  5
341
330
17
100
AcDbEntity
  8
C-BRACE-ROOF
100
AcDbLine
 10
184.5
 20
32.495
 30
0.0
 11
187.19
 21
35.72
 31
0.0
  0
LINE
  5
342
330
17
100
AcDbEntity
  8
C-BRACE-ROOF
100
AcDbLine
 10
184.5
 20
32.495
 30
0.0
 11
187.19
 21
29.27
 31
0.0
  0
LINE
  5
343
330
17
100
AcDbEntity
  8
C-BRACE-ROOF
100
AcDbLine
 10
184.5
 20
29.27
 30
0.0
 11
187.19
 21
32.495
 31
0.0
  0
LINE
  5
344
330
17
100
AcDbEntity
  8
C-BRACE-ROOF
100
AcDbLine
 10
187.19
 20
35.72
 30
0.0
 11
189.9
 21
32.495
 31
0.0
  0
LINE
  5
345
330
17
100
AcDbEntity
  8
C-BRACE-ROOF
100
AcDbLine
 10
187.19
 20
32.495
 30
0.0
 11
189.9
 21
35.72
 31
0.0
  0
LINE
  5
346
330
17
100
AcDbEntity
  8
C-BRACE-ROOF
100
AcDbLine
 10
187.19
 20
32.495
 30
0.0
 11
189.9
 21
29.27
 31
0.0
  0
LINE
  5
347
330
17
100
AcDbEntity
  8
C-BRACE-ROOF
100
AcDbLine
 10
187.19
 20
29.27
 30
0.0
 11
189.9
 21
32.495
 31
0.0
  0
LINE
  5
348
330
17
100
AcDbEntity
  8
C-BRACE-ROOF
100
AcDbLine
 10
189.9
 20
35.72
 30
0.0
 11
192.48000000000002
 21
32.495
 31
0.0
  0
LINE
  5
349
330
17
100
AcDbEntity
  8
C-BRACE-ROOF
100
AcDbLine
 10
189.9
 20
32.495
 30
0.0
 11
192.48000000000002
 21
35.72
 31
0.0
  0
LINE
  5
34A
330
17
100
AcDbEntity
  8
C-BRACE-ROOF
100
AcDbLine
 10
189.9
 20
32.495
 30
0.0
 11
192.48000000000002
 21
29.27
 31
0.0
  0
LINE
  5
34B
330
17
100
AcDbEntity
  8
C-BRACE-ROOF
100
AcDbLine
 10
189.9
 20
29.27
 30
0.0
 11
192.48000000000002
 21
32.495
 31
0.0
  0
LINE
  5
34C
330
17
100
AcDbEntity
  8
C-BRACE-ROOF
100
AcDbLine
 10
192.48000000000002
 20
35.72
 30
0.0
 11
195.5
 21
32.495
 31
0.0
  0
LINE
  5
34D
330
17
100
AcDbEntity
  8
C-BRACE-ROOF
100
AcDbLine
 10
192.48000000000002
 20
32.495
 30
0.0
 11
195.5
 21
35.72
 31
0.0
  0
LINE
  5
34E
330
17
100
AcDbEntity
  8
C-BRACE-ROOF
100
AcDbLine
 10
192.48000000000002
 20
32.495
 30
0.0
 11
195.5
 21
29.27
 31
0.0
  0
LINE
  5
34F
330
17
100
AcDbEntity
  8
C-BRACE-ROOF
100
AcDbLine
 10
192.48000000000002
 20
29.27
 30
0.0
 11
195.5
 21
32.495
 31
0.0
  0
LINE
  5
350
330
17
100
AcDbEntity
  8
C-BRACE-ROOF
100
AcDbLine
 10
177.78
 20
24.46
 30
0.0
 11
181.8
 21
29.27
 31
0.0
  0
LINE
  5
351
330
17
100
AcDbEntity
  8
C-BRACE-ROOF
100
AcDbLine
 10
177.78
 20
29.27
 30
0.0
 11
181.8
 21
24.46
 31
0.0
  0
LINE
  5
352
330
17
100
AcDbEntity
  8
C-BRACE-ROOF
100
AcDbLine
 10
181.8
 20
20.07
 30
0.0
 11
184.5
 21
22.97
 31
0.0
  0
LINE
  5
353
330
17
100
AcDbEntity
  8
C-BRACE-ROOF
100
AcDbLine
 10
181.8
 20
22.97
 30
0.0
 11
184.5
 21
20.07
 31
0.0
  0
LINE
  5
354
330
17
100
AcDbEntity
  8
C-BRACE-ROOF
100
AcDbLine
 10
184.5
 20
20.07
 30
0.0
 11
187.19
 21
22.97
 31
0.0
  0
LINE
  5
355
330
17
100
AcDbEntity
  8
C-BRACE-ROOF
100
AcDbLine
 10
184.5
 20
22.97
 30
0.0
 11
187.19
 21
20.07
 31
0.0
  0
LINE
  5
356
330
17
100
AcDbEntity
  8
C-BRACE-ROOF
100
AcDbLine
 10
187.19
 20
20.07
 30
0.0
 11
189.9
 21
22.97
 31
0.0
  0
LINE
  5
357
330
17
100
AcDbEntity
  8
C-BRACE-ROOF
100
AcDbLine
 10
187.19
 20
22.97
 30
0.0
 11
189.9
 21
20.07
 31
0.0
  0
LINE
  5
358
330
17
100
AcDbEntity
  8
C-BRACE-ROOF
100
AcDbLine
 10
189.9
 20
20.07
 30
0.0
 11
192.48000000000002
 21
22.97
 31
0.0
  0
LINE
  5
359
330
17
100
AcDbEntity
  8
C-BRACE-ROOF
100
AcDbLine
 10
189.9
 20
22.97
 30
0.0
 11
192.48000000000002
 21
20.07
 31
0.0
  0
LINE
  5
35A
330
17
100
AcDbEntity
  8
C-BRACE-ROOF
100
AcDbLine
 10
192.48000000000002
 20
20.07
 30
0.0
 11
195.5
 21
22.97
 31
0.0
  0
LINE
  5
35B
330
17
100
AcDbEntity
  8
C-BRACE-ROOF
100
AcDbLine
 10
192.48000000000002
 20
22.97
 30
0.0
 11
195.5
 21
20.07
 31
0.0
  0
LINE
  5
35C
330
17
100
AcDbEntity
  8
C-BRACE-ROOF
100
AcDbLine
 10
168.0
 20
15.9
 30
0.0
 11
172.09
 21
18.8
 31
0.0
  0
LINE
  5
35D
330
17
100
AcDbEntity
  8
C-BRACE-ROOF
100
AcDbLine
 10
168.0
 20
18.8
 30
0.0
 11
172.09
 21
15.9
 31
0.0
  0
LINE
  5
35E
330
17
100
AcDbEntity
  8
C-BRACE-ROOF
100
AcDbLine
 10
172.09
 20
15.9
 30
0.0
 11
174.89
 21
18.8
 31
0.0
  0
LINE
  5
35F
330
17
100
AcDbEntity
  8
C-BRACE-ROOF
100
AcDbLine
 10
172.09
 20
18.8
 30
0.0
 11
174.89
 21
15.9
 31
0.0
  0
LINE
  5
360
330
17
100
AcDbEntity
  8
C-BRACE-ROOF
100
AcDbLine
 10
174.89
 20
15.9
 30
0.0
 11
177.78
 21
18.8
 31
0.0
  0
LINE
  5
361
330
17
100
AcDbEntity
  8
C-BRACE-ROOF
100
AcDbLine
 10
174.89
 20
18.8
 30
0.0
 11
177.78
 21
15.9
 31
0.0
  0
LINE
  5
362
330
17
100
AcDbEntity
  8
C-BRACE-ROOF
100
AcDbLine
 10
168.0
 20
29.27
 30
0.0
 11
172.09
 21
26.37
 31
0.0
  0
LINE
  5
363
330
17
100
AcDbEntity
  8
C-BRACE-ROOF
100
AcDbLine
 10
168.0
 20
26.37
 30
0.0
 11
172.09
 21
29.27
 31
0.0
  0
LINE
  5
364
330
17
100
AcDbEntity
  8
C-BRACE-ROOF
100
AcDbLine
 10
168.0
 20
26.37
 30
0.0
 11
172.09
 21
21.76
 31
0.0
  0
LINE
  5
365
330
17
100
AcDbEntity
  8
C-BRACE-ROOF
100
AcDbLine
 10
168.0
 20
21.76
 30
0.0
 11
172.09
 21
26.37
 31
0.0
  0
LINE
  5
366
330
17
100
AcDbEntity
  8
C-BRACE-ROOF
100
AcDbLine
 10
168.0
 20
21.76
 30
0.0
 11
172.09
 21
15.9
 31
0.0
  0
LINE
  5
367
330
17
100
AcDbEntity
  8
C-BRACE-ROOF
100
AcDbLine
 10
168.0
 20
15.9
 30
0.0
 11
172.09
 21
21.76
 31
0.0
  0
LINE
  5
368
330
17
100
AcDbEntity
  8
C-BRACE-ROOF
100
AcDbLine
 10
192.48000000000002
 20
29.27
 30
0.0
 11
195.5
 21
24.46
 31
0.0
  0
LINE
  5
369
330
17
100
AcDbEntity
  8
C-BRACE-ROOF
100
AcDbLine
 10
192.48000000000002
 20
24.46
 30
0.0
 11
195.5
 21
29.27
 31
0.0
  0
LINE
  5
36A
330
17
100
AcDbEntity
  8
C-BRACE-ROOF
100
AcDbLine
 10
192.48000000000002
 20
24.46
 30
0.0
 11
195.5
 21
20.07
 31
0.0
  0
LINE
  5
36B
330
17
100
AcDbEntity
  8
C-BRACE-ROOF
100
AcDbLine
 10
192.48000000000002
 20
20.07
 30
0.0
 11
195.5
 21
24.46
 31
0.0
  0
LINE
  5
36C
330
17
100
AcDbEntity
  8
C-BRACE-WALL
100
AcDbLine
 10
187.19
 20
36.220000000000006
 30
0.0
 11
192.48000000000002
 21
35.32
 31
0.0
  0
LINE
  5
36D
330
17
100
AcDbEntity
  8
C-BRACE-WALL
100
AcDbLine
 10
187.19
 20
35.32
 30
0.0
 11
192.48000000000002
 21
36.220000000000006
 31
0.0
  0
TEXT
  5
36E
330
17
100
AcDbEntity
  8
C-TEXT
100
AcDbText
 10
189.835
 20
36.470000000000006
 30
0.0
 40
0.3
  1
B1 K1-K2
 72
1
 11
189.835
 21
36.470000000000006
 31
0.0
100
AcDbText
  0
LINE
  5
36F
330
17
100
AcDbEntity
  8
C-BRACE-WALL
100
AcDbLine
 10
172.09
 20
35.720000000000006
 30
0.0
 11
177.79000000000002
 21
34.72
 31
0.0
  0
LINE
  5
370
330
17
100
AcDbEntity
  8
C-BRACE-WALL
100
AcDbLine
 10
172.09
 20
34.82
 30
0.0
 11
177.79000000000002
 21
35.620000000000005
 31
0.0
  0
TEXT
  5
371
330
17
100
AcDbEntity
  8
C-TEXT
100
AcDbText
 10
174.94
 20
35.92
 30
0.0
 40
0.3
  1
B2 K5-K7
 72
1
 11
174.94
 21
35.92
 31
0.0
100
AcDbText
  0
LINE
  5
372
330
17
100
AcDbEntity
  8
C-BRACE-WALL
100
AcDbLine
 10
188.88
 20
20.52
 30
0.0
 11
195.49
 21
19.62
 31
0.0
  0
LINE
  5
373
330
17
100
AcDbEntity
  8
C-BRACE-WALL
100
AcDbLine
 10
188.88
 20
19.62
 30
0.0
 11
195.49
 21
20.52
 31
0.0
  0
TEXT
  5
374
330
17
100
AcDbEntity
  8
C-TEXT
100
AcDbText
 10
192.185
 20
20.77
 30
0.0
 40
0.3
  1
B3 K22-K23
 72
1
 11
192.185
 21
20.77
 31
0.0
100
AcDbText
  0
LINE
  5
375
330
17
100
AcDbEntity
  8
C-BRACE-WALL
100
AcDbLine
 10
167.99
 20
16.32
 30
0.0
 11
171.99
 21
15.42
 31
0.0
  0
LINE
  5
376
330
17
100
AcDbEntity
  8
C-BRACE-WALL
100
AcDbLine
 10
167.99
 20
15.42
 30
0.0
 11
171.99
 21
16.32
 31
0.0
  0
TEXT
  5
377
330
17
100
AcDbEntity
  8
C-TEXT
100
AcDbText
 10
169.99
 20
16.57
 30
0.0
 40
0.3
  1
B4 K25-K26
 72
1
 11
169.99
 21
16.57
 31
0.0
100
AcDbText
  0
LINE
  5
378
330
17
100
AcDbEntity
  8
C-BRACE-WALL
100
AcDbLine
 10
168.44
 20
26.37
 30
0.0
 11
167.54
 21
21.76
 31
0.0
  0
LINE
  5
379
330
17
100
AcDbEntity
  8
C-BRACE-WALL
100
AcDbLine
 10
167.54
 20
26.37
 30
0.0
 11
168.44
 21
21.76
 31
0.0
  0
TEXT
  5
37A
330
17
100
AcDbEntity
  8
C-TEXT
100
AcDbText
 10
168.69
 20
24.065
 30
0.0
 40
0.3
  1
B5 K15-K19
 50
90.0
 72
1
 11
168.69
 21
24.065
 31
0.0
100
AcDbText
  0
LINE
  5
37B
330
17
100
AcDbEntity
  8
C-BRACE-WALL
100
AcDbLine
 10
195.93
 20
29.27
 30
0.0
 11
195.14
 21
24.46
 31
0.0
  0
LINE
  5
37C
330
17
100
AcDbEntity
  8
C-BRACE-WALL
100
AcDbLine
 10
195.03
 20
29.27
 30
0.0
 11
196.04000000000002
 21
24.46
 31
0.0
  0
TEXT
  5
37D
330
17
100
AcDbEntity
  8
C-TEXT
100
AcDbText
 10
196.235
 20
26.865000000000002
 30
0.0
 40
0.3
  1
B6 K14-K18
 50
90.0
 72
1
 11
196.235
 21
26.865000000000002
 31
0.0
100
AcDbText
  0
LINE
  5
37E
330
17
100
AcDbEntity
  8
C-BRACE-WALL
100
AcDbLine
 10
178.23000000000002
 20
21.76
 30
0.0
 11
177.32999999999998
 21
15.87
 31
0.0
  0
LINE
  5
37F
330
17
100
AcDbEntity
  8
C-BRACE-WALL
100
AcDbLine
 10
177.32999999999998
 20
21.76
 30
0.0
 11
178.23000000000002
 21
15.87
 31
0.0
  0
TEXT
  5
380
330
17
100
AcDbEntity
  8
C-TEXT
100
AcDbText
 10
178.48000000000002
 20
18.815
 30
0.0
 40
0.3
  1
B7 K20-K27
 50
90.0
 72
1
 11
178.48000000000002
 21
18.815
 31
0.0
100
AcDbText
  0
TEXT
  5
381
330
17
100
AcDbEntity
  8
C-TEXT
100
AcDbText
 10
172.9
 20
22.2
 30
0.0
 40
0.3
  1
IPE 330 PRIMARY K19-K20 9.8 m
 72
1
 11
172.9
 21
22.2
 31
0.0
100
AcDbText
  0
TEXT
  5
382
330
17
100
AcDbEntity
  8
C-TEXT
100
AcDbText
 10
185.3
 20
19.4
 30
0.0
 40
0.3
  1
IPE 330 EAVE BEAM K21-K22 7.1 m
 72
1
 11
185.3
 21
19.4
 31
0.0
100
AcDbText
  0
TEXT
  5
383
330
17
100
AcDbEntity
  8
C-TEXT
100
AcDbText
 10
188.7
 20
24.8
 30
0.0
 40
0.3
  1
IPE 270 RAFTERS 9.2 m @ 2.7 m
 72
1
 11
188.7
 21
24.8
 31
0.0
100
AcDbText
  0
TEXT
  5
384
330
17
100
AcDbEntity
  8
C-TEXT
100
AcDbText
 10
173.5
 20
25.6
 30
0.0
 40
0.3
  1
IPE 270 RAFTERS 7.5 m
 72
1
 11
173.5
 21
25.6
 31
0.0
100
AcDbText
  0
TEXT
  5
385
330
17
100
AcDbEntity
  8
C-TEXT
100
AcDbText
 10
173.5
 20
18.9
 30
0.0
 40
0.3
  1
IPE 270 RAFTERS 5.9 m
 72
1
 11
173.5
 21
18.9
 31
0.0
100
AcDbText
  0
TEXT
  5
386
330
17
100
AcDbEntity
  8
C-TEXT
100
AcDbText
 10
188.5
 20
32.6
 30
0.0
 40
0.3
  1
IPE 270 RAFTERS 6.4 m
 72
1
 11
188.5
 21
32.6
 31
0.0
100
AcDbText
  0
TEXT
  5
387
330
17
100
AcDbEntity
  8
C-TEXT
100
AcDbText
 10
178.5
 20
31.0
 30
0.0
 40
0.3
  1
Z200 PURLINS @ 1.5 m
 72
1
 11
178.5
 21
31.0
 31
0.0
100
AcDbText
  0
TEXT
  5
388
330
17
100
AcDbEntity
  8
C-TEXT
100
AcDbText
 10
177.5
 20
17.5
 30
0.0
 40
0.3
  1
NOTCH: EAVE BEAM FRAMES INTO EDGE BEAM K20-K27
 72
2
 11
177.5
 21
17.5
 31
0.0
100
AcDbText
  0
TEXT
  5
389
330
17
100
AcDbEntity
  8
C-TEXT
100
AcDbText
 10
181.8
 20
36.4
 30
0.0
 40
0.3
  1
NORTH LOW EAVE 3.0 m CLEAR - GUTTER
 72
1
 11
181.8
 21
36.4
 31
0.0
100
AcDbText
  0
TEXT
  5
38A
330
17
100
AcDbEntity
  8
C-TEXT
100
AcDbText
 10
167.9
 20
38.5
 30
0.0
 40
0.6
  1
SYSTEM C - POST AND BEAM BRACED FRAME (ALL PINNED), ROOF FALLS NORTH 6%
 11
167.9
 21
38.5
 31
0.0
100
AcDbText
  0
TEXT
  5
38B
330
17
100
AcDbEntity
  8
C-TEXT
100
AcDbText
 10
167.9
 20
37.7
 30
0.0
 40
0.3
  1
REV 1: STAIR AND ELEVATOR OPENINGS, SINGLE ROOF PLANE TOS = 3.28 + 0.06 (35.87 - y)
 11
167.9
 21
37.7
 31
0.0
100
AcDbText
  0
LINE
  5
38C
330
17
100
AcDbEntity
  8
C-TEXT
100
AcDbLine
 10
197.0
 20
36.0
 30
0.0
 11
197.0
 21
37.6
 31
0.0
  0
LWPOLYLINE
  5
38D
330
17
100
AcDbEntity
  8
C-TEXT
100
AcDbPolyline
 90
3
 70
1
 10
196.7
 20
37.1
 10
197.0
 20
37.6
 10
197.3
 20
37.1
  0
TEXT
  5
38E
330
17
100
AcDbEntity
  8
C-TEXT
100
AcDbText
 10
197.0
 20
37.8
 30
0.0
 40
0.4
  1
N
 72
1
 11
197.0
 21
37.8
 31
0.0
100
AcDbText
  0
MTEXT
  5
38F
330
17
100
AcDbEntity
  8
C-TEXT
100
AcDbMText
 10
198.0
 20
35.5
 30
0.0
 40
0.3
 41
12.0
 71
1
  3
SYSTEM C NOTES - REV 1\PSections S275: HEA 160 columns (27); IPE 330 E-W primaries on cap plates; IPE 270 N-S rafters and edge beams (fin plates, bottom flanges flush); Z200x2.0 S350 purlins and girts @ 1.5 m; wall bracing 2L 70x7 crossed tension-onl
  3
y; roof bracing M20 rods.\PSingle roof plane 6% falling north: top of steel TOS = 3.28 + 0.06 x (35.87 - y). Cap-plate top = TOS - 0.27: 3.00 (y 35.7) / 3.03 (35.2) / 3.39 (29.3) / 3.56 (26.4) / 3.68 (24.5) / 3.84 (21.8) / 3.94 (20.1) / 4.19 (15.9) m
  3
. Rafters frame into primary webs with fin plates, bottom flanges flush, ends cut at 3.4 deg - no seats or packs; primary top = TOS + 0.06.\POpenings: stair well and elevator shaft not roofed; long edges = rafters x 77.8 / 81.8, stair south edge = y 
  3
29.3 primary, stair north edge = trimmer T1 (y 35.17, K7 to rafter 81.8, replaces skewed K7-K3 beam), elevator north edge = trimmer T2 (y 24.16), south edge = eave beam y 20.07. 150 mm upstand + flashing all sides, cricket on the uphill (south) side 
  3
of the stair opening. Roof truss jogs south of the stair opening (X in panel K10-K11-K17-K16).\PWeight: hot-rolled incl. plates 16.7 t; total with purlins, girts, bracing, upstands 20.5 t = 42 kg/m2 of footprint (486 m2) = 46 kg/m2 of roofed area (44
  3
6 m2).\PWall bracing bays (door-free, to confirm): E-W B1 K1-K2, B2 K5-K7, B3 K22-K23, B4 K25-K26; N-S B5 K15-K19, B6 K14-K18, B7 K20-K27. Roof-plane X strip 3.2 m around the perimeter.\PBases: 300x400x20 plate, 4 M20 resin anchors hef 170-200 mm in 
  1
solid column-head zone only, 40 mm grout. Design uplift up to 70 kN, shear 15 kN at braced-bay columns.
  0
LINE
  5
390
330
17
100
AcDbEntity
  8
C-SECT
100
AcDbLine
 10
167.0
 20
5.0
 30
0.0
 11
184.9
 21
5.0
 31
0.0
  0
LINE
  5
391
330
17
100
AcDbEntity
  8
C-SECT
100
AcDbLine
 10
167.0
 20
4.75
 30
0.0
 11
184.9
 21
4.75
 31
0.0
  0
TEXT
  5
392
330
17
100
AcDbEntity
  8
C-TEXT
100
AcDbText
 10
176.37
 20
4.2
 30
0.0
 40
0.3
  1
EXISTING HOLLOW-BLOCK SLAB (ASSUMED 250 mm), CONCRETE COLUMNS C1 20x40 UNCHANGED
 72
1
 11
176.37
 21
4.2
 31
0.0
100
AcDbText
  0
LWPOLYLINE
  5
393
330
17
100
AcDbEntity
  8
C-SECT
100
AcDbPolyline
 90
4
 70
1
 10
167.89999999999998
 20
3.4
 10
168.3
 20
3.4
 10
168.3
 20
4.75
 10
167.89999999999998
 20
4.75
  0
LWPOLYLINE
  5
394
330
17
100
AcDbEntity
  8
C-SECT
100
AcDbPolyline
 90
4
 70
1
 10
174.39999999999998
 20
3.4
 10
174.8
 20
3.4
 10
174.8
 20
4.75
 10
174.39999999999998
 20
4.75
  0
LWPOLYLINE
  5
395
330
17
100
AcDbEntity
  8
C-SECT
100
AcDbPolyline
 90
4
 70
1
 10
183.6
 20
3.4
 10
184.0
 20
3.4
 10
184.0
 20
4.75
 10
183.6
 20
4.75
  0
LWPOLYLINE
  5
396
330
17
100
AcDbEntity
  8
C-SECT
100
AcDbPolyline
 90
4
 70
1
 10
168.01999999999998
 20
5.05
 10
168.18
 20
5.05
 10
168.18
 20
8.0
 10
168.01999999999998
 20
8.0
  0
LWPOLYLINE
  5
397
330
17
100
AcDbEntity
  8
C-SECT
100
AcDbPolyline
 90
4
 70
1
 10
167.95
 20
5.0
 10
168.25
 20
5.0
 10
168.25
 20
5.05
 10
167.95
 20
5.05
  0
LWPOLYLINE
  5
398
330
17
100
AcDbEntity
  8
C-SECT
100
AcDbPolyline
 90
4
 70
1
 10
167.95
 20
8.0
 10
168.25
 20
8.0
 10
168.25
 20
8.02
 10
167.95
 20
8.02
  0
TEXT
  5
399
330
17
100
AcDbEntity
  8
C-TEXT
100
AcDbText
 10
168.39999999999998
 20
5.2
 30
0.0
 40
0.3
  1
K1 HEA 160 CAP 3.00
 50
90.0
 11
168.39999999999998
 21
5.2
 31
0.0
100
AcDbText
  0
LWPOLYLINE
  5
39A
330
17
100
AcDbEntity
  8
C-SECT
100
AcDbPolyline
 90
4
 70
1
 10
174.51999999999998
 20
5.05
 10
174.68
 20
5.05
 10
174.68
 20
8.39
 10
174.51999999999998
 20
8.39
  0
LWPOLYLINE
  5
39B
330
17
100
AcDbEntity
  8
C-SECT
100
AcDbPolyline
 90
4
 70
1
 10
174.45
 20
5.0
 10
174.75
 20
5.0
 10
174.75
 20
5.05
 10
174.45
 20
5.05
  0
LWPOLYLINE
  5
39C
330
17
100
AcDbEntity
  8
C-SECT
100
AcDbPolyline
 90
4
 70
1
 10
174.45
 20
8.39
 10
174.75
 20
8.39
 10
174.75
 20
8.41
 10
174.45
 20
8.41
  0
TEXT
  5
39D
330
17
100
AcDbEntity
  8
C-TEXT
100
AcDbText
 10
174.89999999999998
 20
5.2
 30
0.0
 40
0.3
  1
K12 HEA 160 CAP 3.39
 50
90.0
 11
174.89999999999998
 21
5.2
 31
0.0
100
AcDbText
  0
LWPOLYLINE
  5
39E
330
17
100
AcDbEntity
  8
C-SECT
100
AcDbPolyline
 90
4
 70
1
 10
168.01999999999998
 20
8.02
 10
168.18
 20
8.02
 10
168.18
 20
8.35
 10
168.01999999999998
 20
8.35
  0
TEXT
  5
39F
330
17
100
AcDbEntity
  8
C-TEXT
100
AcDbText
 10
167.8
 20
8.45
 30
0.0
 40
0.3
  1
IPE 330 ON CAP PLATE
 72
2
 11
167.8
 21
8.45
 31
0.0
100
AcDbText
  0
LWPOLYLINE
  5
3A0
330
17
100
AcDbEntity
  8
C-SECT
100
AcDbPolyline
 90
4
 70
1
 10
174.51999999999998
 20
8.41
 10
174.68
 20
8.41
 10
174.68
 20
8.74
 10
174.51999999999998
 20
8.74
  0
TEXT
  5
3A1
330
17
100
AcDbEntity
  8
C-TEXT
100
AcDbText
 10
174.89999999999998
 20
8.84
 30
0.0
 40
0.3
  1
IPE 330
 11
174.89999999999998
 21
8.84
 31
0.0
100
AcDbText
  0
LWPOLYLINE
  5
3A2
330
17
100
AcDbEntity
  8
C-SECT
100
AcDbPolyline
 90
4
 70
1
 10
183.72
 20
8.962
 10
183.88
 20
8.962
 10
183.88
 20
9.292
 10
183.72
 20
9.292
  0
TEXT
  5
3A3
330
17
100
AcDbEntity
  8
C-TEXT
100
AcDbText
 10
184.1
 20
9.392
 30
0.0
 40
0.3
  1
IPE 330 EAVE BEAM K21-K22
 11
184.1
 21
9.392
 31
0.0
100
AcDbText
  0
LWPOLYLINE
  5
3A4
330
17
100
AcDbEntity
  8
C-SECT
100
AcDbPolyline
 90
4
 70
1
 10
168.2
 20
8.29
 10
174.5
 20
8.68
 10
174.5
 20
8.41
 10
168.2
 20
8.02
  0
TEXT
  5
3A5
330
17
100
AcDbEntity
  8
C-TEXT
100
AcDbText
 10
171.35
 20
7.885
 30
0.0
 40
0.3
  1
RAFTER IPE 270  6.5 m
 72
1
 11
171.35
 21
7.885
 31
0.0
100
AcDbText
  0
LINE
  5
3A6
330
17
100
AcDbEntity
  8
C-SECT
100
AcDbLine
 10
168.2
 20
8.05
 30
0.0
 11
168.2
 21
8.29
 31
0.0
  0
LINE
  5
3A7
330
17
100
AcDbEntity
  8
C-SECT
100
AcDbLine
 10
174.5
 20
8.44
 30
0.0
 11
174.5
 21
8.68
 31
0.0
  0
LWPOLYLINE
  5
3A8
330
17
100
AcDbEntity
  8
C-SECT
100
AcDbPolyline
 90
4
 70
1
 10
174.7
 20
8.68
 10
183.7
 20
9.232
 10
183.7
 20
8.962
 10
174.7
 20
8.41
  0
TEXT
  5
3A9
330
17
100
AcDbEntity
  8
C-TEXT
100
AcDbText
 10
179.2
 20
8.356
 30
0.0
 40
0.3
  1
RAFTER IPE 270  9.2 m
 72
1
 11
179.2
 21
8.356
 31
0.0
100
AcDbText
  0
LINE
  5
3AA
330
17
100
AcDbEntity
  8
C-SECT
100
AcDbLine
 10
174.7
 20
8.44
 30
0.0
 11
174.7
 21
8.68
 31
0.0
  0
LINE
  5
3AB
330
17
100
AcDbEntity
  8
C-SECT
100
AcDbLine
 10
183.7
 20
8.992
 30
0.0
 11
183.7
 21
9.232
 31
0.0
  0
CIRCLE
  5
3AC
330
17
100
AcDbEntity
  8
C-SECT
100
AcDbCircle
 10
168.26999999999998
 20
8.4002
 30
0.0
 40
0.1
  0
CIRCLE
  5
3AD
330
17
100
AcDbEntity
  8
C-SECT
100
AcDbCircle
 10
169.76999999999998
 20
8.4902
 30
0.0
 40
0.1
  0
CIRCLE
  5
3AE
330
17
100
AcDbEntity
  8
C-SECT
100
AcDbCircle
 10
171.26999999999998
 20
8.5802
 30
0.0
 40
0.1
  0
CIRCLE
  5
3AF
330
17
100
AcDbEntity
  8
C-SECT
100
AcDbCircle
 10
172.76999999999998
 20
8.670200000000001
 30
0.0
 40
0.1
  0
CIRCLE
  5
3B0
330
17
100
AcDbEntity
  8
C-SECT
100
AcDbCircle
 10
174.26999999999998
 20
8.760200000000001
 30
0.0
 40
0.1
  0
CIRCLE
  5
3B1
330
17
100
AcDbEntity
  8
C-SECT
100
AcDbCircle
 10
175.76999999999998
 20
8.850200000000001
 30
0.0
 40
0.1
  0
CIRCLE
  5
3B2
330
17
100
AcDbEntity
  8
C-SECT
100
AcDbCircle
 10
177.26999999999998
 20
8.9402
 30
0.0
 40
0.1
  0
CIRCLE
  5
3B3
330
17
100
AcDbEntity
  8
C-SECT
100
AcDbCircle
 10
178.76999999999998
 20
9.0302
 30
0.0
 40
0.1
  0
CIRCLE
  5
3B4
330
17
100
AcDbEntity
  8
C-SECT
100
AcDbCircle
 10
180.26999999999998
 20
9.1202
 30
0.0
 40
0.1
  0
CIRCLE
  5
3B5
330
17
100
AcDbEntity
  8
C-SECT
100
AcDbCircle
 10
181.76999999999998
 20
9.2102
 30
0.0
 40
0.1
  0
CIRCLE
  5
3B6
330
17
100
AcDbEntity
  8
C-SECT
100
AcDbCircle
 10
183.26999999999998
 20
9.3002
 30
0.0
 40
0.1
  0
LINE
  5
3B7
330
17
100
AcDbEntity
  8
C-SECT
100
AcDbLine
 10
168.0
 20
8.534
 30
0.0
 11
183.9
 21
9.488
 31
0.0
  0
TEXT
  5
3B8
330
17
100
AcDbEntity
  8
C-TEXT
100
AcDbText
 10
175.87
 20
9.4662
 30
0.0
 40
0.3
  1
50 mm PIR SANDWICH PANEL ON Z200 PURLINS @ 1.5 m, ONE PLANE 6% FALLING NORTH, TOS = 3.28 + 0.06 (35.87 - y)
 72
1
 11
175.87
 21
9.4662
 31
0.0
100
AcDbText
  0
LINE
  5
3B9
330
17
100
AcDbEntity
  8
C-OUTLINE
100
AcDbLine
 10
168.0
 20
5.0
 30
0.0
 11
168.0
 21
8.55
 31
0.0
  0
LINE
  5
3BA
330
17
100
AcDbEntity
  8
C-OUTLINE
100
AcDbLine
 10
183.9
 20
5.0
 30
0.0
 11
183.9
 21
9.498000000000001
 31
0.0
  0
TEXT
  5
3BB
330
17
100
AcDbEntity
  8
C-TEXT
100
AcDbText
 10
167.7
 20
6.0
 30
0.0
 40
0.3
  1
EAVE 3.00 m CLEAR
 50
90.0
 11
167.7
 21
6.0
 31
0.0
100
AcDbText
  0
TEXT
  5
3BC
330
17
100
AcDbEntity
  8
C-TEXT
100
AcDbText
 10
166.8
 20
5.5
 30
0.0
 40
0.3
  1
ROOF TOP 3.58
 50
90.0
 11
166.8
 21
5.5
 31
0.0
100
AcDbText
  0
TEXT
  5
3BD
330
17
100
AcDbEntity
  8
C-TEXT
100
AcDbText
 10
185.10000000000002
 20
5.5
 30
0.0
 40
0.3
  1
ROOF TOP 4.53
 50
90.0
 11
185.10000000000002
 21
5.5
 31
0.0
100
AcDbText
  0
TEXT
  5
3BE
330
17
100
AcDbEntity
  8
C-TEXT
100
AcDbText
 10
171.37
 20
3.0
 30
0.0
 40
0.3
  1
6.50
 72
1
 11
171.37
 21
3.0
 31
0.0
100
AcDbText
  0
TEXT
  5
3BF
330
17
100
AcDbEntity
  8
C-TEXT
100
AcDbText
 10
179.17000000000002
 20
3.0
 30
0.0
 40
0.3
  1
9.20 - NO INTERIOR COLUMN
 72
1
 11
179.17000000000002
 21
3.0
 31
0.0
100
AcDbText
  0
LINE
  5
3C0
330
17
100
AcDbEntity
  8
C-SECT
100
AcDbLine
 10
168.1
 20
3.3
 30
0.0
 11
168.1
 21
2.8
 31
0.0
  0
LINE
  5
3C1
330
17
100
AcDbEntity
  8
C-SECT
100
AcDbLine
 10
174.6
 20
3.3
 30
0.0
 11
174.6
 21
2.8
 31
0.0
  0
LINE
  5
3C2
330
17
100
AcDbEntity
  8
C-SECT
100
AcDbLine
 10
183.8
 20
3.3
 30
0.0
 11
183.8
 21
2.8
 31
0.0
  0
LINE
  5
3C3
330
17
100
AcDbEntity
  8
C-SECT
100
AcDbLine
 10
168.1
 20
3.05
 30
0.0
 11
183.8
 21
3.05
 31
0.0
  0
TEXT
  5
3C4
330
17
100
AcDbEntity
  8
C-TEXT
100
AcDbText
 10
167.2
 20
2.2
 30
0.0
 40
0.4
  1
N
 11
167.2
 21
2.2
 31
0.0
100
AcDbText
  0
TEXT
  5
3C5
330
17
100
AcDbEntity
  8
C-TEXT
100
AcDbText
 10
184.4
 20
2.2
 30
0.0
 40
0.4
  1
S
 11
184.4
 21
2.2
 31
0.0
100
AcDbText
  0
TEXT
  5
3C6
330
17
100
AcDbEntity
  8
C-TEXT
100
AcDbText
 10
176.37
 20
1.6
 30
0.0
 40
0.4
  1
TYPICAL N-S SECTION AT x = 87.2 (K1 - K12 - EAVE BEAM K21/K22), LOOKING WEST
 72
1
 11
176.37
 21
1.6
 31
0.0
100
AcDbText
  0
LINE
  5
3C7
330
17
100
AcDbEntity
  8
C-SECT
100
AcDbLine
 10
166.89
 20
-6.0
 30
0.0
 11
196.69
 21
-6.0
 31
0.0
  0
LINE
  5
3C8
330
17
100
AcDbEntity
  8
C-SECT
100
AcDbLine
 10
166.89
 20
-6.25
 30
0.0
 11
196.69
 21
-6.25
 31
0.0
  0
TEXT
  5
3C9
330
17
100
AcDbEntity
  8
C-TEXT
100
AcDbText
 10
166.99
 20
-6.7
 30
0.0
 40
0.3
  1
EXISTING SLAB
 11
166.99
 21
-6.7
 31
0.0
100
AcDbText
  0
LWPOLYLINE
  5
3CA
330
17
100
AcDbEntity
  8
C-SECT
100
AcDbPolyline
 90
4
 70
1
 10
167.79
 20
-7.6
 10
168.19
 20
-7.6
 10
168.19
 20
-6.25
 10
167.79
 20
-6.25
  0
LWPOLYLINE
  5
3CB
330
17
100
AcDbEntity
  8
C-SECT
100
AcDbPolyline
 90
4
 70
1
 10
167.91
 20
-5.95
 10
168.07
 20
-5.95
 10
168.07
 20
-2.61
 10
167.91
 20
-2.61
  0
LWPOLYLINE
  5
3CC
330
17
100
AcDbEntity
  8
C-SECT
100
AcDbPolyline
 90
4
 70
1
 10
167.83999999999997
 20
-6.0
 10
168.14
 20
-6.0
 10
168.14
 20
-5.95
 10
167.83999999999997
 20
-5.95
  0
LWPOLYLINE
  5
3CD
330
17
100
AcDbEntity
  8
C-SECT
100
AcDbPolyline
 90
4
 70
1
 10
167.83999999999997
 20
-2.61
 10
168.14
 20
-2.61
 10
168.14
 20
-2.59
 10
167.83999999999997
 20
-2.59
  0
TEXT
  5
3CE
330
17
100
AcDbEntity
  8
C-TEXT
100
AcDbText
 10
168.29
 20
-5.8
 30
0.0
 40
0.3
  1
K8 HEA 160
 50
90.0
 11
168.29
 21
-5.8
 31
0.0
100
AcDbText
  0
LWPOLYLINE
  5
3CF
330
17
100
AcDbEntity
  8
C-SECT
100
AcDbPolyline
 90
4
 70
1
 10
171.89
 20
-7.6
 10
172.29000000000002
 20
-7.6
 10
172.29000000000002
 20
-6.25
 10
171.89
 20
-6.25
  0
LWPOLYLINE
  5
3D0
330
17
100
AcDbEntity
  8
C-SECT
100
AcDbPolyline
 90
4
 70
1
 10
172.01
 20
-5.95
 10
172.17000000000002
 20
-5.95
 10
172.17000000000002
 20
-2.61
 10
172.01
 20
-2.61
  0
LWPOLYLINE
  5
3D1
330
17
100
AcDbEntity
  8
C-SECT
100
AcDbPolyline
 90
4
 70
1
 10
171.94
 20
-6.0
 10
172.24
 20
-6.0
 10
172.24
 20
-5.95
 10
171.94
 20
-5.95
  0
LWPOLYLINE
  5
3D2
330
17
100
AcDbEntity
  8
C-SECT
100
AcDbPolyline
 90
4
 70
1
 10
171.94
 20
-2.61
 10
172.24
 20
-2.61
 10
172.24
 20
-2.59
 10
171.94
 20
-2.59
  0
TEXT
  5
3D3
330
17
100
AcDbEntity
  8
C-TEXT
100
AcDbText
 10
172.39
 20
-5.8
 30
0.0
 40
0.3
  1
K9 HEA 160
 50
90.0
 11
172.39
 21
-5.8
 31
0.0
100
AcDbText
  0
LWPOLYLINE
  5
3D4
330
17
100
AcDbEntity
  8
C-SECT
100
AcDbPolyline
 90
4
 70
1
 10
177.69
 20
-7.6
 10
178.09
 20
-7.6
 10
178.09
 20
-6.25
 10
177.69
 20
-6.25
  0
LWPOLYLINE
  5
3D5
330
17
100
AcDbEntity
  8
C-SECT
100
AcDbPolyline
 90
4
 70
1
 10
177.81
 20
-5.95
 10
177.97
 20
-5.95
 10
177.97
 20
-2.61
 10
177.81
 20
-2.61
  0
LWPOLYLINE
  5
3D6
330
17
100
AcDbEntity
  8
C-SECT
100
AcDbPolyline
 90
4
 70
1
 10
177.74
 20
-6.0
 10
178.04
 20
-6.0
 10
178.04
 20
-5.95
 10
177.74
 20
-5.95
  0
LWPOLYLINE
  5
3D7
330
17
100
AcDbEntity
  8
C-SECT
100
AcDbPolyline
 90
4
 70
1
 10
177.74
 20
-2.61
 10
178.04
 20
-2.61
 10
178.04
 20
-2.59
 10
177.74
 20
-2.59
  0
TEXT
  5
3D8
330
17
100
AcDbEntity
  8
C-TEXT
100
AcDbText
 10
178.19
 20
-5.8
 30
0.0
 40
0.3
  1
K10 HEA 160
 50
90.0
 11
178.19
 21
-5.8
 31
0.0
100
AcDbText
  0
LWPOLYLINE
  5
3D9
330
17
100
AcDbEntity
  8
C-SECT
100
AcDbPolyline
 90
4
 70
1
 10
181.57999999999998
 20
-7.6
 10
181.98000000000002
 20
-7.6
 10
181.98000000000002
 20
-6.25
 10
181.57999999999998
 20
-6.25
  0
LWPOLYLINE
  5
3DA
330
17
100
AcDbEntity
  8
C-SECT
100
AcDbPolyline
 90
4
 70
1
 10
181.7
 20
-5.95
 10
181.86
 20
-5.95
 10
181.86
 20
-2.61
 10
181.7
 20
-2.61
  0
LWPOLYLINE
  5
3DB
330
17
100
AcDbEntity
  8
C-SECT
100
AcDbPolyline
 90
4
 70
1
 10
181.63
 20
-6.0
 10
181.93
 20
-6.0
 10
181.93
 20
-5.95
 10
181.63
 20
-5.95
  0
LWPOLYLINE
  5
3DC
330
17
100
AcDbEntity
  8
C-SECT
100
AcDbPolyline
 90
4
 70
1
 10
181.63
 20
-2.61
 10
181.93
 20
-2.61
 10
181.93
 20
-2.59
 10
181.63
 20
-2.59
  0
TEXT
  5
3DD
330
17
100
AcDbEntity
  8
C-TEXT
100
AcDbText
 10
182.07999999999998
 20
-5.8
 30
0.0
 40
0.3
  1
K11 HEA 160
 50
90.0
 11
182.07999999999998
 21
-5.8
 31
0.0
100
AcDbText
  0
LWPOLYLINE
  5
3DE
330
17
100
AcDbEntity
  8
C-SECT
100
AcDbPolyline
 90
4
 70
1
 10
186.99
 20
-7.6
 10
187.39
 20
-7.6
 10
187.39
 20
-6.25
 10
186.99
 20
-6.25
  0
LWPOLYLINE
  5
3DF
330
17
100
AcDbEntity
  8
C-SECT
100
AcDbPolyline
 90
4
 70
1
 10
187.11
 20
-5.95
 10
187.26999999999998
 20
-5.95
 10
187.26999999999998
 20
-2.61
 10
187.11
 20
-2.61
  0
LWPOLYLINE
  5
3E0
330
17
100
AcDbEntity
  8
C-SECT
100
AcDbPolyline
 90
4
 70
1
 10
187.04
 20
-6.0
 10
187.33999999999997
 20
-6.0
 10
187.33999999999997
 20
-5.95
 10
187.04
 20
-5.95
  0
LWPOLYLINE
  5
3E1
330
17
100
AcDbEntity
  8
C-SECT
100
AcDbPolyline
 90
4
 70
1
 10
187.04
 20
-2.61
 10
187.33999999999997
 20
-2.61
 10
187.33999999999997
 20
-2.59
 10
187.04
 20
-2.59
  0
TEXT
  5
3E2
330
17
100
AcDbEntity
  8
C-TEXT
100
AcDbText
 10
187.49
 20
-5.8
 30
0.0
 40
0.3
  1
K12 HEA 160
 50
90.0
 11
187.49
 21
-5.8
 31
0.0
100
AcDbText
  0
LWPOLYLINE
  5
3E3
330
17
100
AcDbEntity
  8
C-SECT
100
AcDbPolyline
 90
4
 70
1
 10
192.28
 20
-7.6
 10
192.68
 20
-7.6
 10
192.68
 20
-6.25
 10
192.28
 20
-6.25
  0
LWPOLYLINE
  5
3E4
330
17
100
AcDbEntity
  8
C-SECT
100
AcDbPolyline
 90
4
 70
1
 10
192.4
 20
-5.95
 10
192.56
 20
-5.95
 10
192.56
 20
-2.61
 10
192.4
 20
-2.61
  0
LWPOLYLINE
  5
3E5
330
17
100
AcDbEntity
  8
C-SECT
100
AcDbPolyline
 90
4
 70
1
 10
192.32999999999998
 20
-6.0
 10
192.63
 20
-6.0
 10
192.63
 20
-5.95
 10
192.32999999999998
 20
-5.95
  0
LWPOLYLINE
  5
3E6
330
17
100
AcDbEntity
  8
C-SECT
100
AcDbPolyline
 90
4
 70
1
 10
192.32999999999998
 20
-2.61
 10
192.63
 20
-2.61
 10
192.63
 20
-2.59
 10
192.32999999999998
 20
-2.59
  0
TEXT
  5
3E7
330
17
100
AcDbEntity
  8
C-TEXT
100
AcDbText
 10
192.78
 20
-5.8
 30
0.0
 40
0.3
  1
K13 HEA 160
 50
90.0
 11
192.78
 21
-5.8
 31
0.0
100
AcDbText
  0
LWPOLYLINE
  5
3E8
330
17
100
AcDbEntity
  8
C-SECT
100
AcDbPolyline
 90
4
 70
1
 10
195.28
 20
-7.6
 10
195.68
 20
-7.6
 10
195.68
 20
-6.25
 10
195.28
 20
-6.25
  0
LWPOLYLINE
  5
3E9
330
17
100
AcDbEntity
  8
C-SECT
100
AcDbPolyline
 90
4
 70
1
 10
195.4
 20
-5.95
 10
195.56
 20
-5.95
 10
195.56
 20
-2.61
 10
195.4
 20
-2.61
  0
LWPOLYLINE
  5
3EA
330
17
100
AcDbEntity
  8
C-SECT
100
AcDbPolyline
 90
4
 70
1
 10
195.32999999999998
 20
-6.0
 10
195.63
 20
-6.0
 10
195.63
 20
-5.95
 10
195.32999999999998
 20
-5.95
  0
LWPOLYLINE
  5
3EB
330
17
100
AcDbEntity
  8
C-SECT
100
AcDbPolyline
 90
4
 70
1
 10
195.32999999999998
 20
-2.61
 10
195.63
 20
-2.61
 10
195.63
 20
-2.59
 10
195.32999999999998
 20
-2.59
  0
TEXT
  5
3EC
330
17
100
AcDbEntity
  8
C-TEXT
100
AcDbText
 10
195.78
 20
-5.8
 30
0.0
 40
0.3
  1
K14 HEA 160
 50
90.0
 11
195.78
 21
-5.8
 31
0.0
100
AcDbText
  0
LWPOLYLINE
  5
3ED
330
17
100
AcDbEntity
  8
C-SECT
100
AcDbPolyline
 90
4
 70
1
 10
167.89
 20
-2.59
 10
195.58
 20
-2.59
 10
195.58
 20
-2.26
 10
167.89
 20
-2.26
  0
TEXT
  5
3EE
330
17
100
AcDbEntity
  8
C-TEXT
100
AcDbText
 10
170.04
 20
-8.0
 30
0.0
 40
0.3
  1
4.1
 72
1
 11
170.04
 21
-8.0
 31
0.0
100
AcDbText
  0
LINE
  5
3EF
330
17
100
AcDbEntity
  8
C-SECT
100
AcDbLine
 10
167.99
 20
-7.7
 30
0.0
 11
167.99
 21
-8.2
 31
0.0
  0
TEXT
  5
3F0
330
17
100
AcDbEntity
  8
C-TEXT
100
AcDbText
 10
174.99
 20
-8.0
 30
0.0
 40
0.3
  1
5.8
 72
1
 11
174.99
 21
-8.0
 31
0.0
100
AcDbText
  0
LINE
  5
3F1
330
17
100
AcDbEntity
  8
C-SECT
100
AcDbLine
 10
172.09
 20
-7.7
 30
0.0
 11
172.09
 21
-8.2
 31
0.0
  0
TEXT
  5
3F2
330
17
100
AcDbEntity
  8
C-TEXT
100
AcDbText
 10
179.835
 20
-8.0
 30
0.0
 40
0.3
  1
3.9
 72
1
 11
179.835
 21
-8.0
 31
0.0
100
AcDbText
  0
LINE
  5
3F3
330
17
100
AcDbEntity
  8
C-SECT
100
AcDbLine
 10
177.89
 20
-7.7
 30
0.0
 11
177.89
 21
-8.2
 31
0.0
  0
TEXT
  5
3F4
330
17
100
AcDbEntity
  8
C-TEXT
100
AcDbText
 10
184.485
 20
-8.0
 30
0.0
 40
0.3
  1
5.4
 72
1
 11
184.485
 21
-8.0
 31
0.0
100
AcDbText
  0
LINE
  5
3F5
330
17
100
AcDbEntity
  8
C-SECT
100
AcDbLine
 10
181.78
 20
-7.7
 30
0.0
 11
181.78
 21
-8.2
 31
0.0
  0
TEXT
  5
3F6
330
17
100
AcDbEntity
  8
C-TEXT
100
AcDbText
 10
189.835
 20
-8.0
 30
0.0
 40
0.3
  1
5.3
 72
1
 11
189.835
 21
-8.0
 31
0.0
100
AcDbText
  0
LINE
  5
3F7
330
17
100
AcDbEntity
  8
C-SECT
100
AcDbLine
 10
187.19
 20
-7.7
 30
0.0
 11
187.19
 21
-8.2
 31
0.0
  0
TEXT
  5
3F8
330
17
100
AcDbEntity
  8
C-TEXT
100
AcDbText
 10
193.98000000000002
 20
-8.0
 30
0.0
 40
0.3
  1
3.0
 72
1
 11
193.98000000000002
 21
-8.0
 31
0.0
100
AcDbText
  0
LINE
  5
3F9
330
17
100
AcDbEntity
  8
C-SECT
100
AcDbLine
 10
192.48000000000002
 20
-7.7
 30
0.0
 11
192.48000000000002
 21
-8.2
 31
0.0
  0
LINE
  5
3FA
330
17
100
AcDbEntity
  8
C-SECT
100
AcDbLine
 10
195.48000000000002
 20
-7.7
 30
0.0
 11
195.48000000000002
 21
-8.2
 31
0.0
  0
LINE
  5
3FB
330
17
100
AcDbEntity
  8
C-SECT
100
AcDbLine
 10
167.99
 20
-7.95
 30
0.0
 11
195.48000000000002
 21
-7.95
 31
0.0
  0
TEXT
  5
3FC
330
17
100
AcDbEntity
  8
C-TEXT
100
AcDbText
 10
181.79
 20
-2.1599999999999997
 30
0.0
 40
0.3
  1
IPE 330 PRIMARY ON CAP PLATES, ROW y = 29.3, CAP 3.39 m, TOS 3.66 m
 72
1
 11
181.79
 21
-2.1599999999999997
 31
0.0
100
AcDbText
  0
LWPOLYLINE
  5
3FD
330
17
100
AcDbEntity
  8
C-OPENING
100
AcDbPolyline
 90
4
 70
1
 10
177.89
 20
-2.32
 10
181.79000000000002
 20
-2.32
 10
181.79000000000002
 20
-2.17
 10
177.89
 20
-2.17
  0
TEXT
  5
3FE
330
17
100
AcDbEntity
  8
C-TEXT
100
AcDbText
 10
179.85
 20
-0.71
 30
0.0
 40
0.3
  1
STAIR OPENING ABOVE x 77.9-81.8: UPSTAND ON PRIMARY
 72
1
 11
179.85
 21
-0.71
 31
0.0
100
AcDbText
  0
LWPOLYLINE
  5
3FF
330
17
100
AcDbEntity
  8
C-SECT
100
AcDbPolyline
 90
4
 70
1
 10
167.93
 20
-2.59
 10
168.07
 20
-2.59
 10
168.07
 20
-2.32
 10
167.93
 20
-2.32
  0
LWPOLYLINE
  5
400
330
17
100
AcDbEntity
  8
C-SECT
100
AcDbPolyline
 90
4
 70
1
 10
172.02
 20
-2.59
 10
172.16000000000003
 20
-2.59
 10
172.16000000000003
 20
-2.32
 10
172.02
 20
-2.32
  0
LWPOLYLINE
  5
401
330
17
100
AcDbEntity
  8
C-SECT
100
AcDbPolyline
 90
4
 70
1
 10
174.82
 20
-2.59
 10
174.96
 20
-2.59
 10
174.96
 20
-2.32
 10
174.82
 20
-2.32
  0
LWPOLYLINE
  5
402
330
17
100
AcDbEntity
  8
C-SECT
100
AcDbPolyline
 90
4
 70
1
 10
177.71
 20
-2.59
 10
177.85000000000002
 20
-2.59
 10
177.85000000000002
 20
-2.32
 10
177.71
 20
-2.32
  0
LWPOLYLINE
  5
403
330
17
100
AcDbEntity
  8
C-SECT
100
AcDbPolyline
 90
4
 70
1
 10
181.73000000000002
 20
-2.59
 10
181.87
 20
-2.59
 10
181.87
 20
-2.32
 10
181.73000000000002
 20
-2.32
  0
LWPOLYLINE
  5
404
330
17
100
AcDbEntity
  8
C-SECT
100
AcDbPolyline
 90
4
 70
1
 10
184.43
 20
-2.59
 10
184.57
 20
-2.59
 10
184.57
 20
-2.32
 10
184.43
 20
-2.32
  0
LWPOLYLINE
  5
405
330
17
100
AcDbEntity
  8
C-SECT
100
AcDbPolyline
 90
4
 70
1
 10
187.12
 20
-2.59
 10
187.26
 20
-2.59
 10
187.26
 20
-2.32
 10
187.12
 20
-2.32
  0
LWPOLYLINE
  5
406
330
17
100
AcDbEntity
  8
C-SECT
100
AcDbPolyline
 90
4
 70
1
 10
189.83
 20
-2.59
 10
189.97000000000003
 20
-2.59
 10
189.97000000000003
 20
-2.32
 10
189.83
 20
-2.32
  0
LWPOLYLINE
  5
407
330
17
100
AcDbEntity
  8
C-SECT
100
AcDbPolyline
 90
4
 70
1
 10
192.41000000000003
 20
-2.59
 10
192.55
 20
-2.59
 10
192.55
 20
-2.32
 10
192.41000000000003
 20
-2.32
  0
LWPOLYLINE
  5
408
330
17
100
AcDbEntity
  8
C-SECT
100
AcDbPolyline
 90
4
 70
1
 10
195.43
 20
-2.59
 10
195.57
 20
-2.59
 10
195.57
 20
-2.32
 10
195.43
 20
-2.32
  0
TEXT
  5
409
330
17
100
AcDbEntity
  8
C-TEXT
100
AcDbText
 10
181.79
 20
-1.6099999999999994
 30
0.0
 40
0.3
  1
IPE 270 RAFTERS (SECTION) AT 2.7-4.1 m, FIN PLATES TO PRIMARY WEB
 72
1
 11
181.79
 21
-1.6099999999999994
 31
0.0
100
AcDbText
  0
LINE
  5
40A
330
17
100
AcDbEntity
  8
C-SECT
100
AcDbLine
 10
167.89
 20
-2.07
 30
0.0
 11
195.69
 21
-2.07
 31
0.0
  0
TEXT
  5
40B
330
17
100
AcDbEntity
  8
C-TEXT
100
AcDbText
 10
181.79
 20
-1.21
 30
0.0
 40
0.3
  1
PANEL / PURLINS RUN E-W (LEVEL ALONG ROW)
 72
1
 11
181.79
 21
-1.21
 31
0.0
100
AcDbText
  0
LINE
  5
40C
330
17
100
AcDbEntity
  8
C-OUTLINE
100
AcDbLine
 10
167.89
 20
-6.0
 30
0.0
 11
167.89
 21
-2.01
 31
0.0
  0
LINE
  5
40D
330
17
100
AcDbEntity
  8
C-OUTLINE
100
AcDbLine
 10
195.69
 20
-6.0
 30
0.0
 11
195.69
 21
-2.01
 31
0.0
  0
TEXT
  5
40E
330
17
100
AcDbEntity
  8
C-TEXT
100
AcDbText
 10
167.09
 20
-8.8
 30
0.0
 40
0.4
  1
W
 11
167.09
 21
-8.8
 31
0.0
100
AcDbText
  0
TEXT
  5
40F
330
17
100
AcDbEntity
  8
C-TEXT
100
AcDbText
 10
196.19
 20
-8.8
 30
0.0
 40
0.4
  1
E
 11
196.19
 21
-8.8
 31
0.0
100
AcDbText
  0
TEXT
  5
410
330
17
100
AcDbEntity
  8
C-TEXT
100
AcDbText
 10
181.79
 20
-9.4
 30
0.0
 40
0.4
  1
TYPICAL E-W SECTION ALONG ROW y = 29.3 (K8 - K14), LOOKING NORTH
 72
1
 11
181.79
 21
-9.4
 31
0.0
100
AcDbText
  0
LINE
  5
41B
330
17
100
AcDbEntity
  8
0
 62
8
100
AcDbLine
 10
113.0
 20
-14.0
 30
0.0
 11
113.0
 21
42.0
 31
0.0
  0
LINE
  5
41C
330
17
100
AcDbEntity
  8
0
 62
8
100
AcDbLine
 10
163.0
 20
-14.0
 30
0.0
 11
163.0
 21
42.0
 31
0.0
  0
TEXT
  5
41D
330
17
100
AcDbEntity
  8
0
100
AcDbText
 10
67.0
 20
41.0
 30
0.0
 40
0.8
  1
STEEL ROOF OVER EXISTING SLAB - THREE STRUCTURAL SYSTEM OPTIONS (A, B, C) - REV 1: STAIR/ELEVATOR OPENINGS, SINGLE-PLANE 6% SLOPE FALLING NORTH - UNITS: METRES
 11
67.0
 21
41.0
 31
0.0
100
AcDbText
  0
ENDSEC
  0
SECTION
  2
OBJECTS
  0
DICTIONARY
  5
A
330
0
100
AcDbDictionary
281
1
  3
ACAD_COLOR
350
B
  3
ACAD_GROUP
350
C
  3
ACAD_LAYOUT
350
D
  3
ACAD_MATERIAL
350
E
  3
ACAD_MLEADERSTYLE
350
F
  3
ACAD_MLINESTYLE
350
10
  3
ACAD_PLOTSETTINGS
350
11
  3
ACAD_PLOTSTYLENAME
350
12
  3
ACAD_SCALELIST
350
14
  3
ACAD_TABLESTYLE
350
15
  3
ACAD_VISUALSTYLE
350
16
  3
EZDXF_META
350
2D
  0
DICTIONARY
  5
B
330
A
100
AcDbDictionary
281
1
  0
DICTIONARY
  5
C
330
A
100
AcDbDictionary
281
1
  0
DICTIONARY
  5
D
330
A
100
AcDbDictionary
281
1
  3
Model
350
1A
  3
Layout1
350
1E
  0
DICTIONARY
  5
E
330
A
100
AcDbDictionary
281
1
  3
ByBlock
350
1F
  3
ByLayer
350
20
  3
Global
350
21
  0
DICTIONARY
  5
F
330
A
100
AcDbDictionary
281
1
  3
Standard
350
2C
  0
DICTIONARY
  5
10
330
A
100
AcDbDictionary
281
1
  3
Standard
350
22
  0
DICTIONARY
  5
11
330
A
100
AcDbDictionary
281
1
  0
ACDBDICTIONARYWDFLT
  5
12
330
A
100
AcDbDictionary
281
1
  3
Normal
350
13
100
AcDbDictionaryWithDefault
340
13
  0
ACDBPLACEHOLDER
  5
13
330
12
  0
DICTIONARY
  5
14
330
A
100
AcDbDictionary
281
1
  0
DICTIONARY
  5
15
330
A
100
AcDbDictionary
281
1
  0
DICTIONARY
  5
16
330
A
100
AcDbDictionary
281
1
  0
LAYOUT
  5
1A
330
D
100
AcDbPlotSettings
  1

  4
A3
  6

 40
7.5
 41
20.0
 42
7.5
 43
20.0
 44
420.0
 45
297.0
 46
0.0
 47
0.0
 48
0.0
 49
0.0
140
0.0
141
0.0
142
1.0
143
1.0
 70
1024
 72
1
 73
0
 74
5
  7

 75
16
 76
0
 77
2
 78
300
147
1.0
148
0.0
149
0.0
100
AcDbLayout
  1
Model
 70
1
 71
0
 10
0.0
 20
0.0
 11
420.0
 21
297.0
 12
0.0
 22
0.0
 32
0.0
 14
1e+20
 24
1e+20
 34
1e+20
 15
-1e+20
 25
-1e+20
 35
-1e+20
146
0.0
 13
0.0
 23
0.0
 33
0.0
 16
1.0
 26
0.0
 36
0.0
 17
0.0
 27
1.0
 37
0.0
 76
1
330
17
  0
LAYOUT
  5
1E
330
D
100
AcDbPlotSettings
  1

  4
A3
  6

 40
7.5
 41
20.0
 42
7.5
 43
20.0
 44
420.0
 45
297.0
 46
0.0
 47
0.0
 48
0.0
 49
0.0
140
0.0
141
0.0
142
1.0
143
1.0
 70
0
 72
1
 73
0
 74
5
  7

 75
16
 76
0
 77
2
 78
300
147
1.0
148
0.0
149
0.0
100
AcDbLayout
  1
Layout1
 70
1
 71
1
 10
0.0
 20
0.0
 11
420.0
 21
297.0
 12
0.0
 22
0.0
 32
0.0
 14
1e+20
 24
1e+20
 34
1e+20
 15
-1e+20
 25
-1e+20
 35
-1e+20
146
0.0
 13
0.0
 23
0.0
 33
0.0
 16
1.0
 26
0.0
 36
0.0
 17
0.0
 27
1.0
 37
0.0
 76
1
330
1B
  0
MATERIAL
  5
1F
102
{ACAD_REACTORS
330
E
102
}
330
E
100
AcDbMaterial
  1
ByBlock
  2

 70
0
 40
1.0
 71
1
 41
1.0
 91
-1023410177
 42
1.0
 72
1
  3

 73
1
 74
1
 75
1
 44
0.5
 73
0
 45
1.0
 46
1.0
 77
1
  4

 78
1
 79
1
170
1
 48
1.0
171
1
  6

172
1
173
1
174
1
140
1.0
141
1.0
175
1
  7

176
1
177
1
178
1
143
1.0
179
1
  8

270
1
271
1
272
1
145
1.0
146
1.0
273
1
  9

274
1
275
1
276
1
 42
1.0
 72
1
  3

 73
1
 74
1
 75
1
 94
63
  0
MATERIAL
  5
20
102
{ACAD_REACTORS
330
E
102
}
330
E
100
AcDbMaterial
  1
ByLayer
  2

 70
0
 40
1.0
 71
1
 41
1.0
 91
-1023410177
 42
1.0
 72
1
  3

 73
1
 74
1
 75
1
 44
0.5
 73
0
 45
1.0
 46
1.0
 77
1
  4

 78
1
 79
1
170
1
 48
1.0
171
1
  6

172
1
173
1
174
1
140
1.0
141
1.0
175
1
  7

176
1
177
1
178
1
143
1.0
179
1
  8

270
1
271
1
272
1
145
1.0
146
1.0
273
1
  9

274
1
275
1
276
1
 42
1.0
 72
1
  3

 73
1
 74
1
 75
1
 94
63
  0
MATERIAL
  5
21
102
{ACAD_REACTORS
330
E
102
}
330
E
100
AcDbMaterial
  1
Global
  2

 70
0
 40
1.0
 71
1
 41
1.0
 91
-1023410177
 42
1.0
 72
1
  3

 73
1
 74
1
 75
1
 44
0.5
 73
0
 45
1.0
 46
1.0
 77
1
  4

 78
1
 79
1
170
1
 48
1.0
171
1
  6

172
1
173
1
174
1
140
1.0
141
1.0
175
1
  7

176
1
177
1
178
1
143
1.0
179
1
  8

270
1
271
1
272
1
145
1.0
146
1.0
273
1
  9

274
1
275
1
276
1
 42
1.0
 72
1
  3

 73
1
 74
1
 75
1
 94
63
  0
MLINESTYLE
  5
22
102
{ACAD_REACTORS
330
10
102
}
330
10
100
AcDbMlineStyle
  2
Standard
 70
0
  3

 62
256
 51
90.0
 52
90.0
 71
2
 49
0.5
 62
256
  6
BYLAYER
 49
-0.5
 62
256
  6
BYLAYER
  0
MLEADERSTYLE
  5
2C
102
{ACAD_REACTORS
330
F
102
}
330
F
100
AcDbMLeaderStyle
179
2
170
2
171
1
172
0
 90
2
 40
0.0
 41
0.0
173
1
 91
-1056964608
 92
-2
290
1
 42
2.0
291
1
 43
8.0
  3
Standard
 44
4.0
300

342
29
174
1
175
1
176
0
178
1
 93
-1056964608
 45
4.0
292
0
297
0
 46
4.0
 94
-1056964608
 47
1.0
 49
1.0
140
1.0
294
1
141
0.0
177
0
142
1.0
295
0
296
0
143
3.75
271
0
272
9
273
9
  0
DICTIONARY
  5
2D
330
A
100
AcDbDictionary
280
1
281
1
  3
CREATED_BY_EZDXF
350
2E
  3
WRITTEN_BY_EZDXF
350
420
  0
DICTIONARYVAR
  5
2E
330
2D
100
DictionaryVariables
280
0
  1
1.4.4 @ 2026-09-27T20:32:33.965003+00:00
  0
DICTIONARYVAR
  5
420
330
2D
100
DictionaryVariables
280
0
  1
1.4.4 @ 2026-09-27T20:32:34.165007+00:00
  0
ENDSEC
  0
EOF
